G04 #@! TF.GenerationSoftware,KiCad,Pcbnew,(5.0.0-rc2-dev-691-g31b026c)*
G04 #@! TF.CreationDate,2018-05-13T20:35:11+02:00*
G04 #@! TF.ProjectId,backplane,6261636B706C616E652E6B696361645F,v1.6*
G04 #@! TF.SameCoordinates,Original*
G04 #@! TF.FileFunction,Legend,Top*
G04 #@! TF.FilePolarity,Positive*
%FSLAX46Y46*%
G04 Gerber Fmt 4.6, Leading zero omitted, Abs format (unit mm)*
G04 Created by KiCad (PCBNEW (5.0.0-rc2-dev-691-g31b026c)) date Sunday, 13. May 2018, 20:35:11*
%MOMM*%
%LPD*%
G01*
G04 APERTURE LIST*
%ADD10C,0.150000*%
%ADD11C,0.120000*%
%ADD12C,0.300000*%
%ADD13C,0.200000*%
%ADD14C,0.381000*%
G04 APERTURE END LIST*
D10*
X81459535Y-101802275D02*
X80893849Y-101236589D01*
X81109349Y-101021090D01*
X81190161Y-100994153D01*
X81244036Y-100994153D01*
X81324848Y-101021090D01*
X81405660Y-101101902D01*
X81432597Y-101182715D01*
X81432597Y-101236589D01*
X81405660Y-101317402D01*
X81190161Y-101532901D01*
X82025220Y-101236589D02*
X81459535Y-100670904D01*
X81675034Y-100455405D01*
X81755846Y-100428467D01*
X81809721Y-100428467D01*
X81890533Y-100455405D01*
X81971345Y-100536217D01*
X81998283Y-100617029D01*
X81998283Y-100670904D01*
X81971345Y-100751716D01*
X81755846Y-100967215D01*
X82537031Y-100670904D02*
X82644780Y-100617029D01*
X82779467Y-100482342D01*
X82806405Y-100401530D01*
X82806405Y-100347655D01*
X82779467Y-100266843D01*
X82725593Y-100212968D01*
X82644780Y-100186031D01*
X82590906Y-100186031D01*
X82510093Y-100212968D01*
X82375406Y-100293780D01*
X82294594Y-100320718D01*
X82240719Y-100320718D01*
X82159907Y-100293780D01*
X82106032Y-100239906D01*
X82079095Y-100159093D01*
X82079095Y-100105219D01*
X82106032Y-100024406D01*
X82240719Y-99889719D01*
X82348469Y-99835845D01*
X81313037Y-103567402D02*
X81636286Y-103244153D01*
X82040347Y-103971463D02*
X81474662Y-103405777D01*
X81770973Y-103109466D02*
X82713782Y-103298028D01*
X82148097Y-102732342D02*
X82336658Y-103675151D01*
X82032784Y-106479026D02*
X81574848Y-106398214D01*
X81709535Y-106802275D02*
X81143849Y-106236589D01*
X81359349Y-106021090D01*
X81440161Y-105994153D01*
X81494036Y-105994153D01*
X81574848Y-106021090D01*
X81655660Y-106101902D01*
X81682597Y-106182715D01*
X81682597Y-106236589D01*
X81655660Y-106317402D01*
X81440161Y-106532901D01*
X81655660Y-105724779D02*
X82598469Y-105913341D01*
X82032784Y-105347655D02*
X82221345Y-106290464D01*
X81217098Y-108717215D02*
X81136286Y-108744153D01*
X81055474Y-108824965D01*
X81001599Y-108932715D01*
X81001599Y-109040464D01*
X81028536Y-109121276D01*
X81109349Y-109255963D01*
X81190161Y-109336776D01*
X81324848Y-109417588D01*
X81405660Y-109444525D01*
X81513410Y-109444525D01*
X81621159Y-109390650D01*
X81675034Y-109336776D01*
X81728909Y-109229026D01*
X81728909Y-109175151D01*
X81540347Y-108986589D01*
X81432597Y-109094339D01*
X82025220Y-108986589D02*
X81459535Y-108420904D01*
X82348469Y-108663341D01*
X81782784Y-108097655D01*
X82617843Y-108393967D02*
X82052158Y-107828281D01*
X82186845Y-107693594D01*
X82294594Y-107639719D01*
X82402344Y-107639719D01*
X82483156Y-107666657D01*
X82617843Y-107747469D01*
X82698655Y-107828281D01*
X82779467Y-107962968D01*
X82806405Y-108043780D01*
X82806405Y-108151530D01*
X82752530Y-108259280D01*
X82617843Y-108393967D01*
X81413223Y-110717215D02*
X81143849Y-110986589D01*
X81386286Y-111282901D01*
X81386286Y-111229026D01*
X81413223Y-111148214D01*
X81547910Y-111013527D01*
X81628723Y-110986589D01*
X81682597Y-110986589D01*
X81763410Y-111013527D01*
X81898097Y-111148214D01*
X81925034Y-111229026D01*
X81925034Y-111282901D01*
X81898097Y-111363713D01*
X81763410Y-111498400D01*
X81682597Y-111525337D01*
X81628723Y-111525337D01*
X81601785Y-110528654D02*
X82356032Y-110905777D01*
X81978909Y-110151530D01*
X32287976Y-112361904D02*
X32287976Y-111561904D01*
X32592738Y-111561904D01*
X32668928Y-111600000D01*
X32707023Y-111638095D01*
X32745119Y-111714285D01*
X32745119Y-111828571D01*
X32707023Y-111904761D01*
X32668928Y-111942857D01*
X32592738Y-111980952D01*
X32287976Y-111980952D01*
X33011785Y-111561904D02*
X33202261Y-112361904D01*
X33354642Y-111790476D01*
X33507023Y-112361904D01*
X33697500Y-111561904D01*
X34459404Y-112361904D02*
X34192738Y-111980952D01*
X34002261Y-112361904D02*
X34002261Y-111561904D01*
X34307023Y-111561904D01*
X34383214Y-111600000D01*
X34421309Y-111638095D01*
X34459404Y-111714285D01*
X34459404Y-111828571D01*
X34421309Y-111904761D01*
X34383214Y-111942857D01*
X34307023Y-111980952D01*
X34002261Y-111980952D01*
X71698579Y-106806446D02*
X71627868Y-106830016D01*
X71557157Y-106900727D01*
X71510017Y-106995007D01*
X71510017Y-107089288D01*
X71533587Y-107159999D01*
X71604298Y-107277850D01*
X71675008Y-107348561D01*
X71792860Y-107419271D01*
X71863570Y-107442842D01*
X71957851Y-107442842D01*
X72052132Y-107395701D01*
X72099272Y-107348561D01*
X72146413Y-107254280D01*
X72146413Y-107207139D01*
X71981421Y-107042148D01*
X71887140Y-107136429D01*
X72405685Y-107042148D02*
X71910711Y-106547173D01*
X72688528Y-106759305D01*
X72193553Y-106264330D01*
X72924230Y-106523603D02*
X72429256Y-106028628D01*
X72547107Y-105910777D01*
X72641388Y-105863637D01*
X72735669Y-105863637D01*
X72806379Y-105887207D01*
X72924230Y-105957917D01*
X72994941Y-106028628D01*
X73065652Y-106146479D01*
X73089222Y-106217190D01*
X73089222Y-106311471D01*
X73042082Y-106405752D01*
X72924230Y-106523603D01*
X71313037Y-109567402D02*
X72067284Y-109944525D01*
X71690161Y-109190278D01*
X72444408Y-109567402D02*
X71878723Y-109001716D01*
X72713782Y-109298028D02*
X72148097Y-108732342D01*
X73037031Y-108974779D01*
X72471345Y-108409093D01*
X108059570Y-73189123D02*
X108153851Y-73141982D01*
X108271702Y-73024131D01*
X108295272Y-72953420D01*
X108295272Y-72906280D01*
X108271702Y-72835569D01*
X108224562Y-72788429D01*
X108153851Y-72764859D01*
X108106711Y-72764859D01*
X108036000Y-72788429D01*
X107918149Y-72859139D01*
X107847438Y-72882710D01*
X107800298Y-72882710D01*
X107729587Y-72859139D01*
X107682447Y-72811999D01*
X107658876Y-72741288D01*
X107658876Y-72694148D01*
X107682447Y-72623437D01*
X107800298Y-72505586D01*
X107894579Y-72458446D01*
X108813817Y-72387735D02*
X108813817Y-72434875D01*
X108766677Y-72529156D01*
X108719537Y-72576297D01*
X108625256Y-72623437D01*
X108530975Y-72623437D01*
X108460264Y-72599867D01*
X108342413Y-72529156D01*
X108271702Y-72458446D01*
X108200992Y-72340594D01*
X108177421Y-72269884D01*
X108177421Y-72175603D01*
X108224562Y-72081322D01*
X108271702Y-72034182D01*
X108365983Y-71987041D01*
X108413124Y-71987041D01*
X109308792Y-71987041D02*
X109073090Y-72222743D01*
X108578115Y-71727769D01*
X108059570Y-70649123D02*
X108153851Y-70601982D01*
X108271702Y-70484131D01*
X108295272Y-70413420D01*
X108295272Y-70366280D01*
X108271702Y-70295569D01*
X108224562Y-70248429D01*
X108153851Y-70224859D01*
X108106711Y-70224859D01*
X108036000Y-70248429D01*
X107918149Y-70319139D01*
X107847438Y-70342710D01*
X107800298Y-70342710D01*
X107729587Y-70319139D01*
X107682447Y-70271999D01*
X107658876Y-70201288D01*
X107658876Y-70154148D01*
X107682447Y-70083437D01*
X107800298Y-69965586D01*
X107894579Y-69918446D01*
X108578115Y-70177718D02*
X108083140Y-69682743D01*
X108200992Y-69564892D01*
X108295272Y-69517752D01*
X108389553Y-69517752D01*
X108460264Y-69541322D01*
X108578115Y-69612033D01*
X108648826Y-69682743D01*
X108719537Y-69800594D01*
X108743107Y-69871305D01*
X108743107Y-69965586D01*
X108695966Y-70059867D01*
X108578115Y-70177718D01*
X108908098Y-69564892D02*
X109143801Y-69329190D01*
X109002379Y-69753454D02*
X108672396Y-69093488D01*
X109332362Y-69423471D01*
X107847438Y-80078446D02*
X107611736Y-80314148D01*
X107823868Y-80573420D01*
X107823868Y-80526280D01*
X107847438Y-80455569D01*
X107965289Y-80337718D01*
X108036000Y-80314148D01*
X108083140Y-80314148D01*
X108153851Y-80337718D01*
X108271702Y-80455569D01*
X108295272Y-80526280D01*
X108295272Y-80573420D01*
X108271702Y-80644131D01*
X108153851Y-80761982D01*
X108083140Y-80785552D01*
X108036000Y-80785552D01*
X108012430Y-79913454D02*
X108672396Y-80243437D01*
X108342413Y-79583471D01*
X107564595Y-77821288D02*
X107871008Y-77514875D01*
X107894579Y-77868429D01*
X107965289Y-77797718D01*
X108036000Y-77774148D01*
X108083140Y-77774148D01*
X108153851Y-77797718D01*
X108271702Y-77915569D01*
X108295272Y-77986280D01*
X108295272Y-78033420D01*
X108271702Y-78104131D01*
X108130281Y-78245552D01*
X108059570Y-78269123D01*
X108012430Y-78269123D01*
X108530975Y-77750578D02*
X108578115Y-77750578D01*
X108578115Y-77797718D01*
X108530975Y-77797718D01*
X108530975Y-77750578D01*
X108578115Y-77797718D01*
X108271702Y-77114182D02*
X108578115Y-76807769D01*
X108601685Y-77161322D01*
X108672396Y-77090611D01*
X108743107Y-77067041D01*
X108790247Y-77067041D01*
X108860958Y-77090611D01*
X108978809Y-77208462D01*
X109002379Y-77279173D01*
X109002379Y-77326314D01*
X108978809Y-77397024D01*
X108837388Y-77538446D01*
X108766677Y-77562016D01*
X108719537Y-77562016D01*
X108719537Y-76666347D02*
X109379503Y-76996330D01*
X109049520Y-76336364D01*
X107894579Y-74998446D02*
X107823868Y-75022016D01*
X107753157Y-75092727D01*
X107706017Y-75187007D01*
X107706017Y-75281288D01*
X107729587Y-75351999D01*
X107800298Y-75469850D01*
X107871008Y-75540561D01*
X107988860Y-75611271D01*
X108059570Y-75634842D01*
X108153851Y-75634842D01*
X108248132Y-75587701D01*
X108295272Y-75540561D01*
X108342413Y-75446280D01*
X108342413Y-75399139D01*
X108177421Y-75234148D01*
X108083140Y-75328429D01*
X108601685Y-75234148D02*
X108106711Y-74739173D01*
X108884528Y-74951305D01*
X108389553Y-74456330D01*
X109120230Y-74715603D02*
X108625256Y-74220628D01*
X108743107Y-74102777D01*
X108837388Y-74055637D01*
X108931669Y-74055637D01*
X109002379Y-74079207D01*
X109120230Y-74149917D01*
X109190941Y-74220628D01*
X109261652Y-74338479D01*
X109285222Y-74409190D01*
X109285222Y-74503471D01*
X109238082Y-74597752D01*
X109120230Y-74715603D01*
X34438095Y-98630833D02*
X34438095Y-98478452D01*
X34400000Y-98402261D01*
X34361904Y-98364166D01*
X34247619Y-98287976D01*
X34095238Y-98249880D01*
X33790476Y-98249880D01*
X33714285Y-98287976D01*
X33676190Y-98326071D01*
X33638095Y-98402261D01*
X33638095Y-98554642D01*
X33676190Y-98630833D01*
X33714285Y-98668928D01*
X33790476Y-98707023D01*
X33980952Y-98707023D01*
X34057142Y-98668928D01*
X34095238Y-98630833D01*
X34133333Y-98554642D01*
X34133333Y-98402261D01*
X34095238Y-98326071D01*
X34057142Y-98287976D01*
X33980952Y-98249880D01*
X33714285Y-99049880D02*
X33676190Y-99087976D01*
X33638095Y-99049880D01*
X33676190Y-99011785D01*
X33714285Y-99049880D01*
X33638095Y-99049880D01*
X34438095Y-99354642D02*
X34438095Y-99887976D01*
X33638095Y-99545119D01*
X33942857Y-100192738D02*
X33942857Y-100802261D01*
X34361904Y-101145119D02*
X34400000Y-101183214D01*
X34438095Y-101259404D01*
X34438095Y-101449880D01*
X34400000Y-101526071D01*
X34361904Y-101564166D01*
X34285714Y-101602261D01*
X34209523Y-101602261D01*
X34095238Y-101564166D01*
X33638095Y-101107023D01*
X33638095Y-101602261D01*
X34095238Y-102059404D02*
X34133333Y-101983214D01*
X34171428Y-101945119D01*
X34247619Y-101907023D01*
X34285714Y-101907023D01*
X34361904Y-101945119D01*
X34400000Y-101983214D01*
X34438095Y-102059404D01*
X34438095Y-102211785D01*
X34400000Y-102287976D01*
X34361904Y-102326071D01*
X34285714Y-102364166D01*
X34247619Y-102364166D01*
X34171428Y-102326071D01*
X34133333Y-102287976D01*
X34095238Y-102211785D01*
X34095238Y-102059404D01*
X34057142Y-101983214D01*
X34019047Y-101945119D01*
X33942857Y-101907023D01*
X33790476Y-101907023D01*
X33714285Y-101945119D01*
X33676190Y-101983214D01*
X33638095Y-102059404D01*
X33638095Y-102211785D01*
X33676190Y-102287976D01*
X33714285Y-102326071D01*
X33790476Y-102364166D01*
X33942857Y-102364166D01*
X34019047Y-102326071D01*
X34057142Y-102287976D01*
X34095238Y-102211785D01*
X34438095Y-102592738D02*
X33638095Y-102859404D01*
X34438095Y-103126071D01*
X72151438Y-103806446D02*
X71915736Y-104042148D01*
X72127868Y-104301420D01*
X72127868Y-104254280D01*
X72151438Y-104183569D01*
X72269289Y-104065718D01*
X72340000Y-104042148D01*
X72387140Y-104042148D01*
X72457851Y-104065718D01*
X72575702Y-104183569D01*
X72599272Y-104254280D01*
X72599272Y-104301420D01*
X72575702Y-104372131D01*
X72457851Y-104489982D01*
X72387140Y-104513552D01*
X72340000Y-104513552D01*
X72316430Y-103641454D02*
X72976396Y-103971437D01*
X72646413Y-103311471D01*
X32707023Y-107600000D02*
X32630833Y-107561904D01*
X32516547Y-107561904D01*
X32402261Y-107600000D01*
X32326071Y-107676190D01*
X32287976Y-107752380D01*
X32249880Y-107904761D01*
X32249880Y-108019047D01*
X32287976Y-108171428D01*
X32326071Y-108247619D01*
X32402261Y-108323809D01*
X32516547Y-108361904D01*
X32592738Y-108361904D01*
X32707023Y-108323809D01*
X32745119Y-108285714D01*
X32745119Y-108019047D01*
X32592738Y-108019047D01*
X33087976Y-108361904D02*
X33087976Y-107561904D01*
X33545119Y-108361904D01*
X33545119Y-107561904D01*
X33926071Y-108361904D02*
X33926071Y-107561904D01*
X34116547Y-107561904D01*
X34230833Y-107600000D01*
X34307023Y-107676190D01*
X34345119Y-107752380D01*
X34383214Y-107904761D01*
X34383214Y-108019047D01*
X34345119Y-108171428D01*
X34307023Y-108247619D01*
X34230833Y-108323809D01*
X34116547Y-108361904D01*
X33926071Y-108361904D01*
X88172571Y-87490904D02*
X87715428Y-87490904D01*
X87944000Y-87490904D02*
X87944000Y-86690904D01*
X87867809Y-86805190D01*
X87791619Y-86881380D01*
X87715428Y-86919476D01*
X85137333Y-86690904D02*
X85632571Y-86690904D01*
X85365904Y-86995666D01*
X85480190Y-86995666D01*
X85556380Y-87033761D01*
X85594476Y-87071857D01*
X85632571Y-87148047D01*
X85632571Y-87338523D01*
X85594476Y-87414714D01*
X85556380Y-87452809D01*
X85480190Y-87490904D01*
X85251619Y-87490904D01*
X85175428Y-87452809D01*
X85137333Y-87414714D01*
X83054476Y-86690904D02*
X82673523Y-86690904D01*
X82635428Y-87071857D01*
X82673523Y-87033761D01*
X82749714Y-86995666D01*
X82940190Y-86995666D01*
X83016380Y-87033761D01*
X83054476Y-87071857D01*
X83092571Y-87148047D01*
X83092571Y-87338523D01*
X83054476Y-87414714D01*
X83016380Y-87452809D01*
X82940190Y-87490904D01*
X82749714Y-87490904D01*
X82673523Y-87452809D01*
X82635428Y-87414714D01*
X80057333Y-86690904D02*
X80590666Y-86690904D01*
X80247809Y-87490904D01*
X77631619Y-87490904D02*
X77784000Y-87490904D01*
X77860190Y-87452809D01*
X77898285Y-87414714D01*
X77974476Y-87300428D01*
X78012571Y-87148047D01*
X78012571Y-86843285D01*
X77974476Y-86767095D01*
X77936380Y-86729000D01*
X77860190Y-86690904D01*
X77707809Y-86690904D01*
X77631619Y-86729000D01*
X77593523Y-86767095D01*
X77555428Y-86843285D01*
X77555428Y-87033761D01*
X77593523Y-87109952D01*
X77631619Y-87148047D01*
X77707809Y-87186142D01*
X77860190Y-87186142D01*
X77936380Y-87148047D01*
X77974476Y-87109952D01*
X78012571Y-87033761D01*
X75091619Y-87490904D02*
X74634476Y-87490904D01*
X74863047Y-87490904D02*
X74863047Y-86690904D01*
X74786857Y-86805190D01*
X74710666Y-86881380D01*
X74634476Y-86919476D01*
X75853523Y-87490904D02*
X75396380Y-87490904D01*
X75624952Y-87490904D02*
X75624952Y-86690904D01*
X75548761Y-86805190D01*
X75472571Y-86881380D01*
X75396380Y-86919476D01*
X72551619Y-87490904D02*
X72094476Y-87490904D01*
X72323047Y-87490904D02*
X72323047Y-86690904D01*
X72246857Y-86805190D01*
X72170666Y-86881380D01*
X72094476Y-86919476D01*
X72818285Y-86690904D02*
X73313523Y-86690904D01*
X73046857Y-86995666D01*
X73161142Y-86995666D01*
X73237333Y-87033761D01*
X73275428Y-87071857D01*
X73313523Y-87148047D01*
X73313523Y-87338523D01*
X73275428Y-87414714D01*
X73237333Y-87452809D01*
X73161142Y-87490904D01*
X72932571Y-87490904D01*
X72856380Y-87452809D01*
X72818285Y-87414714D01*
X70011619Y-87490904D02*
X69554476Y-87490904D01*
X69783047Y-87490904D02*
X69783047Y-86690904D01*
X69706857Y-86805190D01*
X69630666Y-86881380D01*
X69554476Y-86919476D01*
X70735428Y-86690904D02*
X70354476Y-86690904D01*
X70316380Y-87071857D01*
X70354476Y-87033761D01*
X70430666Y-86995666D01*
X70621142Y-86995666D01*
X70697333Y-87033761D01*
X70735428Y-87071857D01*
X70773523Y-87148047D01*
X70773523Y-87338523D01*
X70735428Y-87414714D01*
X70697333Y-87452809D01*
X70621142Y-87490904D01*
X70430666Y-87490904D01*
X70354476Y-87452809D01*
X70316380Y-87414714D01*
X67471619Y-87490904D02*
X67014476Y-87490904D01*
X67243047Y-87490904D02*
X67243047Y-86690904D01*
X67166857Y-86805190D01*
X67090666Y-86881380D01*
X67014476Y-86919476D01*
X67738285Y-86690904D02*
X68271619Y-86690904D01*
X67928761Y-87490904D01*
X64931619Y-87490904D02*
X64474476Y-87490904D01*
X64703047Y-87490904D02*
X64703047Y-86690904D01*
X64626857Y-86805190D01*
X64550666Y-86881380D01*
X64474476Y-86919476D01*
X65312571Y-87490904D02*
X65464952Y-87490904D01*
X65541142Y-87452809D01*
X65579238Y-87414714D01*
X65655428Y-87300428D01*
X65693523Y-87148047D01*
X65693523Y-86843285D01*
X65655428Y-86767095D01*
X65617333Y-86729000D01*
X65541142Y-86690904D01*
X65388761Y-86690904D01*
X65312571Y-86729000D01*
X65274476Y-86767095D01*
X65236380Y-86843285D01*
X65236380Y-87033761D01*
X65274476Y-87109952D01*
X65312571Y-87148047D01*
X65388761Y-87186142D01*
X65541142Y-87186142D01*
X65617333Y-87148047D01*
X65655428Y-87109952D01*
X65693523Y-87033761D01*
X61934476Y-86767095D02*
X61972571Y-86729000D01*
X62048761Y-86690904D01*
X62239238Y-86690904D01*
X62315428Y-86729000D01*
X62353523Y-86767095D01*
X62391619Y-86843285D01*
X62391619Y-86919476D01*
X62353523Y-87033761D01*
X61896380Y-87490904D01*
X62391619Y-87490904D01*
X63153523Y-87490904D02*
X62696380Y-87490904D01*
X62924952Y-87490904D02*
X62924952Y-86690904D01*
X62848761Y-86805190D01*
X62772571Y-86881380D01*
X62696380Y-86919476D01*
X59394476Y-86767095D02*
X59432571Y-86729000D01*
X59508761Y-86690904D01*
X59699238Y-86690904D01*
X59775428Y-86729000D01*
X59813523Y-86767095D01*
X59851619Y-86843285D01*
X59851619Y-86919476D01*
X59813523Y-87033761D01*
X59356380Y-87490904D01*
X59851619Y-87490904D01*
X60118285Y-86690904D02*
X60613523Y-86690904D01*
X60346857Y-86995666D01*
X60461142Y-86995666D01*
X60537333Y-87033761D01*
X60575428Y-87071857D01*
X60613523Y-87148047D01*
X60613523Y-87338523D01*
X60575428Y-87414714D01*
X60537333Y-87452809D01*
X60461142Y-87490904D01*
X60232571Y-87490904D01*
X60156380Y-87452809D01*
X60118285Y-87414714D01*
X56854476Y-86767095D02*
X56892571Y-86729000D01*
X56968761Y-86690904D01*
X57159238Y-86690904D01*
X57235428Y-86729000D01*
X57273523Y-86767095D01*
X57311619Y-86843285D01*
X57311619Y-86919476D01*
X57273523Y-87033761D01*
X56816380Y-87490904D01*
X57311619Y-87490904D01*
X58035428Y-86690904D02*
X57654476Y-86690904D01*
X57616380Y-87071857D01*
X57654476Y-87033761D01*
X57730666Y-86995666D01*
X57921142Y-86995666D01*
X57997333Y-87033761D01*
X58035428Y-87071857D01*
X58073523Y-87148047D01*
X58073523Y-87338523D01*
X58035428Y-87414714D01*
X57997333Y-87452809D01*
X57921142Y-87490904D01*
X57730666Y-87490904D01*
X57654476Y-87452809D01*
X57616380Y-87414714D01*
X54314476Y-86767095D02*
X54352571Y-86729000D01*
X54428761Y-86690904D01*
X54619238Y-86690904D01*
X54695428Y-86729000D01*
X54733523Y-86767095D01*
X54771619Y-86843285D01*
X54771619Y-86919476D01*
X54733523Y-87033761D01*
X54276380Y-87490904D01*
X54771619Y-87490904D01*
X55038285Y-86690904D02*
X55571619Y-86690904D01*
X55228761Y-87490904D01*
X51774476Y-86767095D02*
X51812571Y-86729000D01*
X51888761Y-86690904D01*
X52079238Y-86690904D01*
X52155428Y-86729000D01*
X52193523Y-86767095D01*
X52231619Y-86843285D01*
X52231619Y-86919476D01*
X52193523Y-87033761D01*
X51736380Y-87490904D01*
X52231619Y-87490904D01*
X52612571Y-87490904D02*
X52764952Y-87490904D01*
X52841142Y-87452809D01*
X52879238Y-87414714D01*
X52955428Y-87300428D01*
X52993523Y-87148047D01*
X52993523Y-86843285D01*
X52955428Y-86767095D01*
X52917333Y-86729000D01*
X52841142Y-86690904D01*
X52688761Y-86690904D01*
X52612571Y-86729000D01*
X52574476Y-86767095D01*
X52536380Y-86843285D01*
X52536380Y-87033761D01*
X52574476Y-87109952D01*
X52612571Y-87148047D01*
X52688761Y-87186142D01*
X52841142Y-87186142D01*
X52917333Y-87148047D01*
X52955428Y-87109952D01*
X52993523Y-87033761D01*
X49196380Y-86690904D02*
X49691619Y-86690904D01*
X49424952Y-86995666D01*
X49539238Y-86995666D01*
X49615428Y-87033761D01*
X49653523Y-87071857D01*
X49691619Y-87148047D01*
X49691619Y-87338523D01*
X49653523Y-87414714D01*
X49615428Y-87452809D01*
X49539238Y-87490904D01*
X49310666Y-87490904D01*
X49234476Y-87452809D01*
X49196380Y-87414714D01*
X50453523Y-87490904D02*
X49996380Y-87490904D01*
X50224952Y-87490904D02*
X50224952Y-86690904D01*
X50148761Y-86805190D01*
X50072571Y-86881380D01*
X49996380Y-86919476D01*
X46656380Y-86690904D02*
X47151619Y-86690904D01*
X46884952Y-86995666D01*
X46999238Y-86995666D01*
X47075428Y-87033761D01*
X47113523Y-87071857D01*
X47151619Y-87148047D01*
X47151619Y-87338523D01*
X47113523Y-87414714D01*
X47075428Y-87452809D01*
X46999238Y-87490904D01*
X46770666Y-87490904D01*
X46694476Y-87452809D01*
X46656380Y-87414714D01*
X47418285Y-86690904D02*
X47913523Y-86690904D01*
X47646857Y-86995666D01*
X47761142Y-86995666D01*
X47837333Y-87033761D01*
X47875428Y-87071857D01*
X47913523Y-87148047D01*
X47913523Y-87338523D01*
X47875428Y-87414714D01*
X47837333Y-87452809D01*
X47761142Y-87490904D01*
X47532571Y-87490904D01*
X47456380Y-87452809D01*
X47418285Y-87414714D01*
X44116380Y-86690904D02*
X44611619Y-86690904D01*
X44344952Y-86995666D01*
X44459238Y-86995666D01*
X44535428Y-87033761D01*
X44573523Y-87071857D01*
X44611619Y-87148047D01*
X44611619Y-87338523D01*
X44573523Y-87414714D01*
X44535428Y-87452809D01*
X44459238Y-87490904D01*
X44230666Y-87490904D01*
X44154476Y-87452809D01*
X44116380Y-87414714D01*
X45335428Y-86690904D02*
X44954476Y-86690904D01*
X44916380Y-87071857D01*
X44954476Y-87033761D01*
X45030666Y-86995666D01*
X45221142Y-86995666D01*
X45297333Y-87033761D01*
X45335428Y-87071857D01*
X45373523Y-87148047D01*
X45373523Y-87338523D01*
X45335428Y-87414714D01*
X45297333Y-87452809D01*
X45221142Y-87490904D01*
X45030666Y-87490904D01*
X44954476Y-87452809D01*
X44916380Y-87414714D01*
X41576380Y-86690904D02*
X42071619Y-86690904D01*
X41804952Y-86995666D01*
X41919238Y-86995666D01*
X41995428Y-87033761D01*
X42033523Y-87071857D01*
X42071619Y-87148047D01*
X42071619Y-87338523D01*
X42033523Y-87414714D01*
X41995428Y-87452809D01*
X41919238Y-87490904D01*
X41690666Y-87490904D01*
X41614476Y-87452809D01*
X41576380Y-87414714D01*
X42338285Y-86690904D02*
X42871619Y-86690904D01*
X42528761Y-87490904D01*
X39036380Y-86690904D02*
X39531619Y-86690904D01*
X39264952Y-86995666D01*
X39379238Y-86995666D01*
X39455428Y-87033761D01*
X39493523Y-87071857D01*
X39531619Y-87148047D01*
X39531619Y-87338523D01*
X39493523Y-87414714D01*
X39455428Y-87452809D01*
X39379238Y-87490904D01*
X39150666Y-87490904D01*
X39074476Y-87452809D01*
X39036380Y-87414714D01*
X39912571Y-87490904D02*
X40064952Y-87490904D01*
X40141142Y-87452809D01*
X40179238Y-87414714D01*
X40255428Y-87300428D01*
X40293523Y-87148047D01*
X40293523Y-86843285D01*
X40255428Y-86767095D01*
X40217333Y-86729000D01*
X40141142Y-86690904D01*
X39988761Y-86690904D01*
X39912571Y-86729000D01*
X39874476Y-86767095D01*
X39836380Y-86843285D01*
X39836380Y-87033761D01*
X39874476Y-87109952D01*
X39912571Y-87148047D01*
X39988761Y-87186142D01*
X40141142Y-87186142D01*
X40217333Y-87148047D01*
X40255428Y-87109952D01*
X40293523Y-87033761D01*
X87715428Y-94133095D02*
X87753523Y-94095000D01*
X87829714Y-94056904D01*
X88020190Y-94056904D01*
X88096380Y-94095000D01*
X88134476Y-94133095D01*
X88172571Y-94209285D01*
X88172571Y-94285476D01*
X88134476Y-94399761D01*
X87677333Y-94856904D01*
X88172571Y-94856904D01*
X85556380Y-94323571D02*
X85556380Y-94856904D01*
X85365904Y-94018809D02*
X85175428Y-94590238D01*
X85670666Y-94590238D01*
X83016380Y-94056904D02*
X82864000Y-94056904D01*
X82787809Y-94095000D01*
X82749714Y-94133095D01*
X82673523Y-94247380D01*
X82635428Y-94399761D01*
X82635428Y-94704523D01*
X82673523Y-94780714D01*
X82711619Y-94818809D01*
X82787809Y-94856904D01*
X82940190Y-94856904D01*
X83016380Y-94818809D01*
X83054476Y-94780714D01*
X83092571Y-94704523D01*
X83092571Y-94514047D01*
X83054476Y-94437857D01*
X83016380Y-94399761D01*
X82940190Y-94361666D01*
X82787809Y-94361666D01*
X82711619Y-94399761D01*
X82673523Y-94437857D01*
X82635428Y-94514047D01*
X80247809Y-94399761D02*
X80171619Y-94361666D01*
X80133523Y-94323571D01*
X80095428Y-94247380D01*
X80095428Y-94209285D01*
X80133523Y-94133095D01*
X80171619Y-94095000D01*
X80247809Y-94056904D01*
X80400190Y-94056904D01*
X80476380Y-94095000D01*
X80514476Y-94133095D01*
X80552571Y-94209285D01*
X80552571Y-94247380D01*
X80514476Y-94323571D01*
X80476380Y-94361666D01*
X80400190Y-94399761D01*
X80247809Y-94399761D01*
X80171619Y-94437857D01*
X80133523Y-94475952D01*
X80095428Y-94552142D01*
X80095428Y-94704523D01*
X80133523Y-94780714D01*
X80171619Y-94818809D01*
X80247809Y-94856904D01*
X80400190Y-94856904D01*
X80476380Y-94818809D01*
X80514476Y-94780714D01*
X80552571Y-94704523D01*
X80552571Y-94552142D01*
X80514476Y-94475952D01*
X80476380Y-94437857D01*
X80400190Y-94399761D01*
X77631619Y-94856904D02*
X77174476Y-94856904D01*
X77403047Y-94856904D02*
X77403047Y-94056904D01*
X77326857Y-94171190D01*
X77250666Y-94247380D01*
X77174476Y-94285476D01*
X78126857Y-94056904D02*
X78203047Y-94056904D01*
X78279238Y-94095000D01*
X78317333Y-94133095D01*
X78355428Y-94209285D01*
X78393523Y-94361666D01*
X78393523Y-94552142D01*
X78355428Y-94704523D01*
X78317333Y-94780714D01*
X78279238Y-94818809D01*
X78203047Y-94856904D01*
X78126857Y-94856904D01*
X78050666Y-94818809D01*
X78012571Y-94780714D01*
X77974476Y-94704523D01*
X77936380Y-94552142D01*
X77936380Y-94361666D01*
X77974476Y-94209285D01*
X78012571Y-94133095D01*
X78050666Y-94095000D01*
X78126857Y-94056904D01*
X75091619Y-94856904D02*
X74634476Y-94856904D01*
X74863047Y-94856904D02*
X74863047Y-94056904D01*
X74786857Y-94171190D01*
X74710666Y-94247380D01*
X74634476Y-94285476D01*
X75396380Y-94133095D02*
X75434476Y-94095000D01*
X75510666Y-94056904D01*
X75701142Y-94056904D01*
X75777333Y-94095000D01*
X75815428Y-94133095D01*
X75853523Y-94209285D01*
X75853523Y-94285476D01*
X75815428Y-94399761D01*
X75358285Y-94856904D01*
X75853523Y-94856904D01*
X72551619Y-94856904D02*
X72094476Y-94856904D01*
X72323047Y-94856904D02*
X72323047Y-94056904D01*
X72246857Y-94171190D01*
X72170666Y-94247380D01*
X72094476Y-94285476D01*
X73237333Y-94323571D02*
X73237333Y-94856904D01*
X73046857Y-94018809D02*
X72856380Y-94590238D01*
X73351619Y-94590238D01*
X70011619Y-94856904D02*
X69554476Y-94856904D01*
X69783047Y-94856904D02*
X69783047Y-94056904D01*
X69706857Y-94171190D01*
X69630666Y-94247380D01*
X69554476Y-94285476D01*
X70697333Y-94056904D02*
X70544952Y-94056904D01*
X70468761Y-94095000D01*
X70430666Y-94133095D01*
X70354476Y-94247380D01*
X70316380Y-94399761D01*
X70316380Y-94704523D01*
X70354476Y-94780714D01*
X70392571Y-94818809D01*
X70468761Y-94856904D01*
X70621142Y-94856904D01*
X70697333Y-94818809D01*
X70735428Y-94780714D01*
X70773523Y-94704523D01*
X70773523Y-94514047D01*
X70735428Y-94437857D01*
X70697333Y-94399761D01*
X70621142Y-94361666D01*
X70468761Y-94361666D01*
X70392571Y-94399761D01*
X70354476Y-94437857D01*
X70316380Y-94514047D01*
X67471619Y-94856904D02*
X67014476Y-94856904D01*
X67243047Y-94856904D02*
X67243047Y-94056904D01*
X67166857Y-94171190D01*
X67090666Y-94247380D01*
X67014476Y-94285476D01*
X67928761Y-94399761D02*
X67852571Y-94361666D01*
X67814476Y-94323571D01*
X67776380Y-94247380D01*
X67776380Y-94209285D01*
X67814476Y-94133095D01*
X67852571Y-94095000D01*
X67928761Y-94056904D01*
X68081142Y-94056904D01*
X68157333Y-94095000D01*
X68195428Y-94133095D01*
X68233523Y-94209285D01*
X68233523Y-94247380D01*
X68195428Y-94323571D01*
X68157333Y-94361666D01*
X68081142Y-94399761D01*
X67928761Y-94399761D01*
X67852571Y-94437857D01*
X67814476Y-94475952D01*
X67776380Y-94552142D01*
X67776380Y-94704523D01*
X67814476Y-94780714D01*
X67852571Y-94818809D01*
X67928761Y-94856904D01*
X68081142Y-94856904D01*
X68157333Y-94818809D01*
X68195428Y-94780714D01*
X68233523Y-94704523D01*
X68233523Y-94552142D01*
X68195428Y-94475952D01*
X68157333Y-94437857D01*
X68081142Y-94399761D01*
X64474476Y-94133095D02*
X64512571Y-94095000D01*
X64588761Y-94056904D01*
X64779238Y-94056904D01*
X64855428Y-94095000D01*
X64893523Y-94133095D01*
X64931619Y-94209285D01*
X64931619Y-94285476D01*
X64893523Y-94399761D01*
X64436380Y-94856904D01*
X64931619Y-94856904D01*
X65426857Y-94056904D02*
X65503047Y-94056904D01*
X65579238Y-94095000D01*
X65617333Y-94133095D01*
X65655428Y-94209285D01*
X65693523Y-94361666D01*
X65693523Y-94552142D01*
X65655428Y-94704523D01*
X65617333Y-94780714D01*
X65579238Y-94818809D01*
X65503047Y-94856904D01*
X65426857Y-94856904D01*
X65350666Y-94818809D01*
X65312571Y-94780714D01*
X65274476Y-94704523D01*
X65236380Y-94552142D01*
X65236380Y-94361666D01*
X65274476Y-94209285D01*
X65312571Y-94133095D01*
X65350666Y-94095000D01*
X65426857Y-94056904D01*
X61934476Y-94133095D02*
X61972571Y-94095000D01*
X62048761Y-94056904D01*
X62239238Y-94056904D01*
X62315428Y-94095000D01*
X62353523Y-94133095D01*
X62391619Y-94209285D01*
X62391619Y-94285476D01*
X62353523Y-94399761D01*
X61896380Y-94856904D01*
X62391619Y-94856904D01*
X62696380Y-94133095D02*
X62734476Y-94095000D01*
X62810666Y-94056904D01*
X63001142Y-94056904D01*
X63077333Y-94095000D01*
X63115428Y-94133095D01*
X63153523Y-94209285D01*
X63153523Y-94285476D01*
X63115428Y-94399761D01*
X62658285Y-94856904D01*
X63153523Y-94856904D01*
X59394476Y-94133095D02*
X59432571Y-94095000D01*
X59508761Y-94056904D01*
X59699238Y-94056904D01*
X59775428Y-94095000D01*
X59813523Y-94133095D01*
X59851619Y-94209285D01*
X59851619Y-94285476D01*
X59813523Y-94399761D01*
X59356380Y-94856904D01*
X59851619Y-94856904D01*
X60537333Y-94323571D02*
X60537333Y-94856904D01*
X60346857Y-94018809D02*
X60156380Y-94590238D01*
X60651619Y-94590238D01*
X56854476Y-94133095D02*
X56892571Y-94095000D01*
X56968761Y-94056904D01*
X57159238Y-94056904D01*
X57235428Y-94095000D01*
X57273523Y-94133095D01*
X57311619Y-94209285D01*
X57311619Y-94285476D01*
X57273523Y-94399761D01*
X56816380Y-94856904D01*
X57311619Y-94856904D01*
X57997333Y-94056904D02*
X57844952Y-94056904D01*
X57768761Y-94095000D01*
X57730666Y-94133095D01*
X57654476Y-94247380D01*
X57616380Y-94399761D01*
X57616380Y-94704523D01*
X57654476Y-94780714D01*
X57692571Y-94818809D01*
X57768761Y-94856904D01*
X57921142Y-94856904D01*
X57997333Y-94818809D01*
X58035428Y-94780714D01*
X58073523Y-94704523D01*
X58073523Y-94514047D01*
X58035428Y-94437857D01*
X57997333Y-94399761D01*
X57921142Y-94361666D01*
X57768761Y-94361666D01*
X57692571Y-94399761D01*
X57654476Y-94437857D01*
X57616380Y-94514047D01*
X54314476Y-94133095D02*
X54352571Y-94095000D01*
X54428761Y-94056904D01*
X54619238Y-94056904D01*
X54695428Y-94095000D01*
X54733523Y-94133095D01*
X54771619Y-94209285D01*
X54771619Y-94285476D01*
X54733523Y-94399761D01*
X54276380Y-94856904D01*
X54771619Y-94856904D01*
X55228761Y-94399761D02*
X55152571Y-94361666D01*
X55114476Y-94323571D01*
X55076380Y-94247380D01*
X55076380Y-94209285D01*
X55114476Y-94133095D01*
X55152571Y-94095000D01*
X55228761Y-94056904D01*
X55381142Y-94056904D01*
X55457333Y-94095000D01*
X55495428Y-94133095D01*
X55533523Y-94209285D01*
X55533523Y-94247380D01*
X55495428Y-94323571D01*
X55457333Y-94361666D01*
X55381142Y-94399761D01*
X55228761Y-94399761D01*
X55152571Y-94437857D01*
X55114476Y-94475952D01*
X55076380Y-94552142D01*
X55076380Y-94704523D01*
X55114476Y-94780714D01*
X55152571Y-94818809D01*
X55228761Y-94856904D01*
X55381142Y-94856904D01*
X55457333Y-94818809D01*
X55495428Y-94780714D01*
X55533523Y-94704523D01*
X55533523Y-94552142D01*
X55495428Y-94475952D01*
X55457333Y-94437857D01*
X55381142Y-94399761D01*
X51736380Y-94056904D02*
X52231619Y-94056904D01*
X51964952Y-94361666D01*
X52079238Y-94361666D01*
X52155428Y-94399761D01*
X52193523Y-94437857D01*
X52231619Y-94514047D01*
X52231619Y-94704523D01*
X52193523Y-94780714D01*
X52155428Y-94818809D01*
X52079238Y-94856904D01*
X51850666Y-94856904D01*
X51774476Y-94818809D01*
X51736380Y-94780714D01*
X52726857Y-94056904D02*
X52803047Y-94056904D01*
X52879238Y-94095000D01*
X52917333Y-94133095D01*
X52955428Y-94209285D01*
X52993523Y-94361666D01*
X52993523Y-94552142D01*
X52955428Y-94704523D01*
X52917333Y-94780714D01*
X52879238Y-94818809D01*
X52803047Y-94856904D01*
X52726857Y-94856904D01*
X52650666Y-94818809D01*
X52612571Y-94780714D01*
X52574476Y-94704523D01*
X52536380Y-94552142D01*
X52536380Y-94361666D01*
X52574476Y-94209285D01*
X52612571Y-94133095D01*
X52650666Y-94095000D01*
X52726857Y-94056904D01*
X49196380Y-94056904D02*
X49691619Y-94056904D01*
X49424952Y-94361666D01*
X49539238Y-94361666D01*
X49615428Y-94399761D01*
X49653523Y-94437857D01*
X49691619Y-94514047D01*
X49691619Y-94704523D01*
X49653523Y-94780714D01*
X49615428Y-94818809D01*
X49539238Y-94856904D01*
X49310666Y-94856904D01*
X49234476Y-94818809D01*
X49196380Y-94780714D01*
X49996380Y-94133095D02*
X50034476Y-94095000D01*
X50110666Y-94056904D01*
X50301142Y-94056904D01*
X50377333Y-94095000D01*
X50415428Y-94133095D01*
X50453523Y-94209285D01*
X50453523Y-94285476D01*
X50415428Y-94399761D01*
X49958285Y-94856904D01*
X50453523Y-94856904D01*
X46656380Y-94056904D02*
X47151619Y-94056904D01*
X46884952Y-94361666D01*
X46999238Y-94361666D01*
X47075428Y-94399761D01*
X47113523Y-94437857D01*
X47151619Y-94514047D01*
X47151619Y-94704523D01*
X47113523Y-94780714D01*
X47075428Y-94818809D01*
X46999238Y-94856904D01*
X46770666Y-94856904D01*
X46694476Y-94818809D01*
X46656380Y-94780714D01*
X47837333Y-94323571D02*
X47837333Y-94856904D01*
X47646857Y-94018809D02*
X47456380Y-94590238D01*
X47951619Y-94590238D01*
X44116380Y-94056904D02*
X44611619Y-94056904D01*
X44344952Y-94361666D01*
X44459238Y-94361666D01*
X44535428Y-94399761D01*
X44573523Y-94437857D01*
X44611619Y-94514047D01*
X44611619Y-94704523D01*
X44573523Y-94780714D01*
X44535428Y-94818809D01*
X44459238Y-94856904D01*
X44230666Y-94856904D01*
X44154476Y-94818809D01*
X44116380Y-94780714D01*
X45297333Y-94056904D02*
X45144952Y-94056904D01*
X45068761Y-94095000D01*
X45030666Y-94133095D01*
X44954476Y-94247380D01*
X44916380Y-94399761D01*
X44916380Y-94704523D01*
X44954476Y-94780714D01*
X44992571Y-94818809D01*
X45068761Y-94856904D01*
X45221142Y-94856904D01*
X45297333Y-94818809D01*
X45335428Y-94780714D01*
X45373523Y-94704523D01*
X45373523Y-94514047D01*
X45335428Y-94437857D01*
X45297333Y-94399761D01*
X45221142Y-94361666D01*
X45068761Y-94361666D01*
X44992571Y-94399761D01*
X44954476Y-94437857D01*
X44916380Y-94514047D01*
X41576380Y-94056904D02*
X42071619Y-94056904D01*
X41804952Y-94361666D01*
X41919238Y-94361666D01*
X41995428Y-94399761D01*
X42033523Y-94437857D01*
X42071619Y-94514047D01*
X42071619Y-94704523D01*
X42033523Y-94780714D01*
X41995428Y-94818809D01*
X41919238Y-94856904D01*
X41690666Y-94856904D01*
X41614476Y-94818809D01*
X41576380Y-94780714D01*
X42528761Y-94399761D02*
X42452571Y-94361666D01*
X42414476Y-94323571D01*
X42376380Y-94247380D01*
X42376380Y-94209285D01*
X42414476Y-94133095D01*
X42452571Y-94095000D01*
X42528761Y-94056904D01*
X42681142Y-94056904D01*
X42757333Y-94095000D01*
X42795428Y-94133095D01*
X42833523Y-94209285D01*
X42833523Y-94247380D01*
X42795428Y-94323571D01*
X42757333Y-94361666D01*
X42681142Y-94399761D01*
X42528761Y-94399761D01*
X42452571Y-94437857D01*
X42414476Y-94475952D01*
X42376380Y-94552142D01*
X42376380Y-94704523D01*
X42414476Y-94780714D01*
X42452571Y-94818809D01*
X42528761Y-94856904D01*
X42681142Y-94856904D01*
X42757333Y-94818809D01*
X42795428Y-94780714D01*
X42833523Y-94704523D01*
X42833523Y-94552142D01*
X42795428Y-94475952D01*
X42757333Y-94437857D01*
X42681142Y-94399761D01*
X39455428Y-94323571D02*
X39455428Y-94856904D01*
X39264952Y-94018809D02*
X39074476Y-94590238D01*
X39569714Y-94590238D01*
X40026857Y-94056904D02*
X40103047Y-94056904D01*
X40179238Y-94095000D01*
X40217333Y-94133095D01*
X40255428Y-94209285D01*
X40293523Y-94361666D01*
X40293523Y-94552142D01*
X40255428Y-94704523D01*
X40217333Y-94780714D01*
X40179238Y-94818809D01*
X40103047Y-94856904D01*
X40026857Y-94856904D01*
X39950666Y-94818809D01*
X39912571Y-94780714D01*
X39874476Y-94704523D01*
X39836380Y-94552142D01*
X39836380Y-94361666D01*
X39874476Y-94209285D01*
X39912571Y-94133095D01*
X39950666Y-94095000D01*
X40026857Y-94056904D01*
X93456000Y-76259000D02*
X91456000Y-76259000D01*
X91456000Y-74109000D02*
X93456000Y-74109000D01*
X97880000Y-74109000D02*
X99880000Y-74109000D01*
X99880000Y-76259000D02*
X97880000Y-76259000D01*
D11*
X62140000Y-18669800D02*
X64140000Y-18669800D01*
X64140000Y-16619800D02*
X62140000Y-16619800D01*
D10*
X100000000Y-27075000D02*
X98000000Y-27075000D01*
X98000000Y-24925000D02*
X100000000Y-24925000D01*
X100000000Y-32075000D02*
X98000000Y-32075000D01*
X98000000Y-29925000D02*
X100000000Y-29925000D01*
X66057469Y-23801220D02*
G75*
G03X66057469Y-23801220I-52869J0D01*
G01*
X62371000Y-24303000D02*
X65371000Y-24303000D01*
X65371000Y-21303000D02*
X62371000Y-21303000D01*
D12*
X66057469Y-23801220D02*
G75*
G03X66057469Y-23801220I-52869J0D01*
G01*
D11*
X86674000Y-88025000D02*
X38294000Y-88025000D01*
X38294000Y-88025000D02*
X38294000Y-93345000D01*
X38294000Y-93345000D02*
X89334000Y-93345000D01*
X89334000Y-93345000D02*
X89334000Y-90685000D01*
X89334000Y-90685000D02*
X86674000Y-90685000D01*
X86674000Y-90685000D02*
X86674000Y-88025000D01*
X87944000Y-88025000D02*
X89334000Y-88025000D01*
X89334000Y-88025000D02*
X89334000Y-89415000D01*
D13*
X21840000Y-18700000D02*
X101640000Y-18700000D01*
D10*
X101640000Y-18700000D02*
X101640000Y-86000000D01*
D13*
X101640000Y-86000000D02*
X21840000Y-86000000D01*
X21840000Y-86000000D02*
X21840000Y-18700000D01*
D11*
X108200000Y-26750000D02*
X108200000Y-25250000D01*
X108200000Y-26750000D02*
X105000000Y-26750000D01*
X105000000Y-25250000D02*
X108200000Y-25250000D01*
X105000000Y-30250000D02*
X108200000Y-30250000D01*
X108200000Y-31750000D02*
X105000000Y-31750000D01*
X108200000Y-31750000D02*
X108200000Y-30250000D01*
X86330000Y-112330000D02*
X85000000Y-112330000D01*
X86330000Y-111000000D02*
X86330000Y-112330000D01*
X83670000Y-109730000D02*
X86330000Y-109730000D01*
X83670000Y-99510000D02*
X83670000Y-109730000D01*
X86330000Y-99510000D02*
X83670000Y-99510000D01*
X86330000Y-109730000D02*
X86330000Y-99510000D01*
D10*
X42100000Y-113250000D02*
X42100000Y-106250000D01*
X34500000Y-113250000D02*
X42100000Y-113250000D01*
X42100000Y-106250000D02*
X34500000Y-106250000D01*
X34900000Y-106250000D02*
X34900000Y-113250000D01*
X36000000Y-106250000D02*
X36000000Y-113250000D01*
X34900000Y-109750000D02*
X34500000Y-109750000D01*
D11*
X49900000Y-95700000D02*
X49900000Y-98300000D01*
X35200000Y-95700000D02*
X49900000Y-95700000D01*
X49900000Y-104900000D02*
X48000000Y-104900000D01*
X49900000Y-102200000D02*
X49900000Y-104900000D01*
X35200000Y-104900000D02*
X35200000Y-95700000D01*
X44000000Y-104900000D02*
X35200000Y-104900000D01*
X76330000Y-110330000D02*
X75000000Y-110330000D01*
X76330000Y-109000000D02*
X76330000Y-110330000D01*
X76330000Y-107730000D02*
X73670000Y-107730000D01*
X73670000Y-107730000D02*
X73670000Y-102590000D01*
X76330000Y-107730000D02*
X76330000Y-102590000D01*
X76330000Y-102590000D02*
X73670000Y-102590000D01*
D14*
X52100460Y-100406400D02*
X54800480Y-100406400D01*
X52153800Y-100711200D02*
X54803020Y-100711200D01*
X52100460Y-100838200D02*
X54848740Y-100838200D01*
X52100460Y-97698760D02*
X52100460Y-102301240D01*
X54899540Y-102301240D02*
X54899540Y-97698760D01*
D11*
X50800000Y-104750000D02*
X59200000Y-104750000D01*
X50800000Y-111250000D02*
X59200000Y-111250000D01*
X50800000Y-111250000D02*
X50800000Y-104750000D01*
X103670000Y-68670000D02*
X105000000Y-68670000D01*
X103670000Y-70000000D02*
X103670000Y-68670000D01*
X106330000Y-71270000D02*
X103670000Y-71270000D01*
X106330000Y-81490000D02*
X106330000Y-71270000D01*
X103670000Y-81490000D02*
X106330000Y-81490000D01*
X103670000Y-71270000D02*
X103670000Y-81490000D01*
X66700000Y-103500000D02*
X58300000Y-103500000D01*
X66700000Y-97000000D02*
X58300000Y-97000000D01*
X66700000Y-97000000D02*
X66700000Y-103500000D01*
D10*
X92289333Y-77668380D02*
X91956000Y-77192190D01*
X91717904Y-77668380D02*
X91717904Y-76668380D01*
X92098857Y-76668380D01*
X92194095Y-76716000D01*
X92241714Y-76763619D01*
X92289333Y-76858857D01*
X92289333Y-77001714D01*
X92241714Y-77096952D01*
X92194095Y-77144571D01*
X92098857Y-77192190D01*
X91717904Y-77192190D01*
X93194095Y-76668380D02*
X92717904Y-76668380D01*
X92670285Y-77144571D01*
X92717904Y-77096952D01*
X92813142Y-77049333D01*
X93051238Y-77049333D01*
X93146476Y-77096952D01*
X93194095Y-77144571D01*
X93241714Y-77239809D01*
X93241714Y-77477904D01*
X93194095Y-77573142D01*
X93146476Y-77620761D01*
X93051238Y-77668380D01*
X92813142Y-77668380D01*
X92717904Y-77620761D01*
X92670285Y-77573142D01*
X98713333Y-73604380D02*
X98380000Y-73128190D01*
X98141904Y-73604380D02*
X98141904Y-72604380D01*
X98522857Y-72604380D01*
X98618095Y-72652000D01*
X98665714Y-72699619D01*
X98713333Y-72794857D01*
X98713333Y-72937714D01*
X98665714Y-73032952D01*
X98618095Y-73080571D01*
X98522857Y-73128190D01*
X98141904Y-73128190D01*
X99570476Y-72937714D02*
X99570476Y-73604380D01*
X99332380Y-72556761D02*
X99094285Y-73271047D01*
X99713333Y-73271047D01*
X62973333Y-19983142D02*
X62925714Y-20030761D01*
X62782857Y-20078380D01*
X62687619Y-20078380D01*
X62544761Y-20030761D01*
X62449523Y-19935523D01*
X62401904Y-19840285D01*
X62354285Y-19649809D01*
X62354285Y-19506952D01*
X62401904Y-19316476D01*
X62449523Y-19221238D01*
X62544761Y-19126000D01*
X62687619Y-19078380D01*
X62782857Y-19078380D01*
X62925714Y-19126000D01*
X62973333Y-19173619D01*
X63925714Y-20078380D02*
X63354285Y-20078380D01*
X63640000Y-20078380D02*
X63640000Y-19078380D01*
X63544761Y-19221238D01*
X63449523Y-19316476D01*
X63354285Y-19364095D01*
X98833333Y-28452380D02*
X98500000Y-27976190D01*
X98261904Y-28452380D02*
X98261904Y-27452380D01*
X98642857Y-27452380D01*
X98738095Y-27500000D01*
X98785714Y-27547619D01*
X98833333Y-27642857D01*
X98833333Y-27785714D01*
X98785714Y-27880952D01*
X98738095Y-27928571D01*
X98642857Y-27976190D01*
X98261904Y-27976190D01*
X99785714Y-28452380D02*
X99214285Y-28452380D01*
X99500000Y-28452380D02*
X99500000Y-27452380D01*
X99404761Y-27595238D01*
X99309523Y-27690476D01*
X99214285Y-27738095D01*
X98833333Y-33452380D02*
X98500000Y-32976190D01*
X98261904Y-33452380D02*
X98261904Y-32452380D01*
X98642857Y-32452380D01*
X98738095Y-32500000D01*
X98785714Y-32547619D01*
X98833333Y-32642857D01*
X98833333Y-32785714D01*
X98785714Y-32880952D01*
X98738095Y-32928571D01*
X98642857Y-32976190D01*
X98261904Y-32976190D01*
X99214285Y-32547619D02*
X99261904Y-32500000D01*
X99357142Y-32452380D01*
X99595238Y-32452380D01*
X99690476Y-32500000D01*
X99738095Y-32547619D01*
X99785714Y-32642857D01*
X99785714Y-32738095D01*
X99738095Y-32880952D01*
X99166666Y-33452380D01*
X99785714Y-33452380D01*
X61608761Y-24943857D02*
X61656380Y-24801000D01*
X61656380Y-24562904D01*
X61608761Y-24467666D01*
X61561142Y-24420047D01*
X61465904Y-24372428D01*
X61370666Y-24372428D01*
X61275428Y-24420047D01*
X61227809Y-24467666D01*
X61180190Y-24562904D01*
X61132571Y-24753380D01*
X61084952Y-24848619D01*
X61037333Y-24896238D01*
X60942095Y-24943857D01*
X60846857Y-24943857D01*
X60751619Y-24896238D01*
X60704000Y-24848619D01*
X60656380Y-24753380D01*
X60656380Y-24515285D01*
X60704000Y-24372428D01*
X61656380Y-23943857D02*
X60656380Y-23943857D01*
X61132571Y-23943857D02*
X61132571Y-23372428D01*
X61656380Y-23372428D02*
X60656380Y-23372428D01*
X60656380Y-23039095D02*
X60656380Y-22467666D01*
X61656380Y-22753380D02*
X60656380Y-22753380D01*
X60751619Y-22181952D02*
X60704000Y-22134333D01*
X60656380Y-22039095D01*
X60656380Y-21801000D01*
X60704000Y-21705761D01*
X60751619Y-21658142D01*
X60846857Y-21610523D01*
X60942095Y-21610523D01*
X61084952Y-21658142D01*
X61656380Y-22229571D01*
X61656380Y-21610523D01*
X61656380Y-20658142D02*
X61656380Y-21229571D01*
X61656380Y-20943857D02*
X60656380Y-20943857D01*
X60799238Y-21039095D01*
X60894476Y-21134333D01*
X60942095Y-21229571D01*
X100238095Y-86452380D02*
X100238095Y-87261904D01*
X100285714Y-87357142D01*
X100333333Y-87404761D01*
X100428571Y-87452380D01*
X100619047Y-87452380D01*
X100714285Y-87404761D01*
X100761904Y-87357142D01*
X100809523Y-87261904D01*
X100809523Y-86452380D01*
X101238095Y-86547619D02*
X101285714Y-86500000D01*
X101380952Y-86452380D01*
X101619047Y-86452380D01*
X101714285Y-86500000D01*
X101761904Y-86547619D01*
X101809523Y-86642857D01*
X101809523Y-86738095D01*
X101761904Y-86880952D01*
X101190476Y-87452380D01*
X101809523Y-87452380D01*
X105261904Y-28152380D02*
X105261904Y-27152380D01*
X105500000Y-27152380D01*
X105642857Y-27200000D01*
X105738095Y-27295238D01*
X105785714Y-27390476D01*
X105833333Y-27580952D01*
X105833333Y-27723809D01*
X105785714Y-27914285D01*
X105738095Y-28009523D01*
X105642857Y-28104761D01*
X105500000Y-28152380D01*
X105261904Y-28152380D01*
X106785714Y-28152380D02*
X106214285Y-28152380D01*
X106500000Y-28152380D02*
X106500000Y-27152380D01*
X106404761Y-27295238D01*
X106309523Y-27390476D01*
X106214285Y-27438095D01*
X105261904Y-33152380D02*
X105261904Y-32152380D01*
X105500000Y-32152380D01*
X105642857Y-32200000D01*
X105738095Y-32295238D01*
X105785714Y-32390476D01*
X105833333Y-32580952D01*
X105833333Y-32723809D01*
X105785714Y-32914285D01*
X105738095Y-33009523D01*
X105642857Y-33104761D01*
X105500000Y-33152380D01*
X105261904Y-33152380D01*
X106214285Y-32247619D02*
X106261904Y-32200000D01*
X106357142Y-32152380D01*
X106595238Y-32152380D01*
X106690476Y-32200000D01*
X106738095Y-32247619D01*
X106785714Y-32342857D01*
X106785714Y-32438095D01*
X106738095Y-32580952D01*
X106166666Y-33152380D01*
X106785714Y-33152380D01*
X84666666Y-112782380D02*
X84666666Y-113496666D01*
X84619047Y-113639523D01*
X84523809Y-113734761D01*
X84380952Y-113782380D01*
X84285714Y-113782380D01*
X85571428Y-113115714D02*
X85571428Y-113782380D01*
X85333333Y-112734761D02*
X85095238Y-113449047D01*
X85714285Y-113449047D01*
X82047619Y-98010000D02*
X81952380Y-97962380D01*
X81809523Y-97962380D01*
X81666666Y-98010000D01*
X81571428Y-98105238D01*
X81523809Y-98200476D01*
X81476190Y-98390952D01*
X81476190Y-98533809D01*
X81523809Y-98724285D01*
X81571428Y-98819523D01*
X81666666Y-98914761D01*
X81809523Y-98962380D01*
X81904761Y-98962380D01*
X82047619Y-98914761D01*
X82095238Y-98867142D01*
X82095238Y-98533809D01*
X81904761Y-98533809D01*
X82523809Y-98962380D02*
X82523809Y-97962380D01*
X82904761Y-97962380D01*
X83000000Y-98010000D01*
X83047619Y-98057619D01*
X83095238Y-98152857D01*
X83095238Y-98295714D01*
X83047619Y-98390952D01*
X83000000Y-98438571D01*
X82904761Y-98486190D01*
X82523809Y-98486190D01*
X83476190Y-98914761D02*
X83619047Y-98962380D01*
X83857142Y-98962380D01*
X83952380Y-98914761D01*
X84000000Y-98867142D01*
X84047619Y-98771904D01*
X84047619Y-98676666D01*
X84000000Y-98581428D01*
X83952380Y-98533809D01*
X83857142Y-98486190D01*
X83666666Y-98438571D01*
X83571428Y-98390952D01*
X83523809Y-98343333D01*
X83476190Y-98248095D01*
X83476190Y-98152857D01*
X83523809Y-98057619D01*
X83571428Y-98010000D01*
X83666666Y-97962380D01*
X83904761Y-97962380D01*
X84047619Y-98010000D01*
X84238095Y-99057619D02*
X85000000Y-99057619D01*
X85809523Y-98867142D02*
X85761904Y-98914761D01*
X85619047Y-98962380D01*
X85523809Y-98962380D01*
X85380952Y-98914761D01*
X85285714Y-98819523D01*
X85238095Y-98724285D01*
X85190476Y-98533809D01*
X85190476Y-98390952D01*
X85238095Y-98200476D01*
X85285714Y-98105238D01*
X85380952Y-98010000D01*
X85523809Y-97962380D01*
X85619047Y-97962380D01*
X85761904Y-98010000D01*
X85809523Y-98057619D01*
X86380952Y-98962380D02*
X86285714Y-98914761D01*
X86238095Y-98867142D01*
X86190476Y-98771904D01*
X86190476Y-98486190D01*
X86238095Y-98390952D01*
X86285714Y-98343333D01*
X86380952Y-98295714D01*
X86523809Y-98295714D01*
X86619047Y-98343333D01*
X86666666Y-98390952D01*
X86714285Y-98486190D01*
X86714285Y-98771904D01*
X86666666Y-98867142D01*
X86619047Y-98914761D01*
X86523809Y-98962380D01*
X86380952Y-98962380D01*
X87142857Y-98295714D02*
X87142857Y-98962380D01*
X87142857Y-98390952D02*
X87190476Y-98343333D01*
X87285714Y-98295714D01*
X87428571Y-98295714D01*
X87523809Y-98343333D01*
X87571428Y-98438571D01*
X87571428Y-98962380D01*
X88047619Y-98295714D02*
X88047619Y-98962380D01*
X88047619Y-98390952D02*
X88095238Y-98343333D01*
X88190476Y-98295714D01*
X88333333Y-98295714D01*
X88428571Y-98343333D01*
X88476190Y-98438571D01*
X88476190Y-98962380D01*
X43666666Y-109452380D02*
X43666666Y-110166666D01*
X43619047Y-110309523D01*
X43523809Y-110404761D01*
X43380952Y-110452380D01*
X43285714Y-110452380D01*
X44095238Y-109547619D02*
X44142857Y-109500000D01*
X44238095Y-109452380D01*
X44476190Y-109452380D01*
X44571428Y-109500000D01*
X44619047Y-109547619D01*
X44666666Y-109642857D01*
X44666666Y-109738095D01*
X44619047Y-109880952D01*
X44047619Y-110452380D01*
X44666666Y-110452380D01*
X48666666Y-105502380D02*
X48666666Y-106216666D01*
X48619047Y-106359523D01*
X48523809Y-106454761D01*
X48380952Y-106502380D01*
X48285714Y-106502380D01*
X49047619Y-105502380D02*
X49666666Y-105502380D01*
X49333333Y-105883333D01*
X49476190Y-105883333D01*
X49571428Y-105930952D01*
X49619047Y-105978571D01*
X49666666Y-106073809D01*
X49666666Y-106311904D01*
X49619047Y-106407142D01*
X49571428Y-106454761D01*
X49476190Y-106502380D01*
X49190476Y-106502380D01*
X49095238Y-106454761D01*
X49047619Y-106407142D01*
X74666666Y-110782380D02*
X74666666Y-111496666D01*
X74619047Y-111639523D01*
X74523809Y-111734761D01*
X74380952Y-111782380D01*
X74285714Y-111782380D01*
X75619047Y-110782380D02*
X75142857Y-110782380D01*
X75095238Y-111258571D01*
X75142857Y-111210952D01*
X75238095Y-111163333D01*
X75476190Y-111163333D01*
X75571428Y-111210952D01*
X75619047Y-111258571D01*
X75666666Y-111353809D01*
X75666666Y-111591904D01*
X75619047Y-111687142D01*
X75571428Y-111734761D01*
X75476190Y-111782380D01*
X75238095Y-111782380D01*
X75142857Y-111734761D01*
X75095238Y-111687142D01*
X51539380Y-104598595D02*
X50539380Y-104598595D01*
X50539380Y-104360500D01*
X50587000Y-104217642D01*
X50682238Y-104122404D01*
X50777476Y-104074785D01*
X50967952Y-104027166D01*
X51110809Y-104027166D01*
X51301285Y-104074785D01*
X51396523Y-104122404D01*
X51491761Y-104217642D01*
X51539380Y-104360500D01*
X51539380Y-104598595D01*
X50539380Y-103122404D02*
X50539380Y-103598595D01*
X51015571Y-103646214D01*
X50967952Y-103598595D01*
X50920333Y-103503357D01*
X50920333Y-103265261D01*
X50967952Y-103170023D01*
X51015571Y-103122404D01*
X51110809Y-103074785D01*
X51348904Y-103074785D01*
X51444142Y-103122404D01*
X51491761Y-103170023D01*
X51539380Y-103265261D01*
X51539380Y-103503357D01*
X51491761Y-103598595D01*
X51444142Y-103646214D01*
X61952380Y-106238095D02*
X60952380Y-106238095D01*
X60952380Y-106000000D01*
X61000000Y-105857142D01*
X61095238Y-105761904D01*
X61190476Y-105714285D01*
X61380952Y-105666666D01*
X61523809Y-105666666D01*
X61714285Y-105714285D01*
X61809523Y-105761904D01*
X61904761Y-105857142D01*
X61952380Y-106000000D01*
X61952380Y-106238095D01*
X60952380Y-104809523D02*
X60952380Y-105000000D01*
X61000000Y-105095238D01*
X61047619Y-105142857D01*
X61190476Y-105238095D01*
X61380952Y-105285714D01*
X61761904Y-105285714D01*
X61857142Y-105238095D01*
X61904761Y-105190476D01*
X61952380Y-105095238D01*
X61952380Y-104904761D01*
X61904761Y-104809523D01*
X61857142Y-104761904D01*
X61761904Y-104714285D01*
X61523809Y-104714285D01*
X61428571Y-104761904D01*
X61380952Y-104809523D01*
X61333333Y-104904761D01*
X61333333Y-105095238D01*
X61380952Y-105190476D01*
X61428571Y-105238095D01*
X61523809Y-105285714D01*
X104666666Y-67122380D02*
X104666666Y-67836666D01*
X104619047Y-67979523D01*
X104523809Y-68074761D01*
X104380952Y-68122380D01*
X104285714Y-68122380D01*
X105666666Y-68122380D02*
X105095238Y-68122380D01*
X105380952Y-68122380D02*
X105380952Y-67122380D01*
X105285714Y-67265238D01*
X105190476Y-67360476D01*
X105095238Y-67408095D01*
X61161904Y-104802380D02*
X61161904Y-103802380D01*
X61400000Y-103802380D01*
X61542857Y-103850000D01*
X61638095Y-103945238D01*
X61685714Y-104040476D01*
X61733333Y-104230952D01*
X61733333Y-104373809D01*
X61685714Y-104564285D01*
X61638095Y-104659523D01*
X61542857Y-104754761D01*
X61400000Y-104802380D01*
X61161904Y-104802380D01*
X62590476Y-104135714D02*
X62590476Y-104802380D01*
X62352380Y-103754761D02*
X62114285Y-104469047D01*
X62733333Y-104469047D01*
M02*
