G04 #@! TF.GenerationSoftware,KiCad,Pcbnew,(5.0.0-rc2-dev-691-g31b026c)*
G04 #@! TF.CreationDate,2018-05-13T20:35:11+02:00*
G04 #@! TF.ProjectId,backplane,6261636B706C616E652E6B696361645F,v1.6*
G04 #@! TF.SameCoordinates,Original*
G04 #@! TF.FileFunction,Soldermask,Top*
G04 #@! TF.FilePolarity,Negative*
%FSLAX46Y46*%
G04 Gerber Fmt 4.6, Leading zero omitted, Abs format (unit mm)*
G04 Created by KiCad (PCBNEW (5.0.0-rc2-dev-691-g31b026c)) date Sunday, 13. May 2018, 20:35:11*
%MOMM*%
%LPD*%
G01*
G04 APERTURE LIST*
%ADD10C,0.200000*%
%ADD11C,0.300000*%
%ADD12C,0.002540*%
%ADD13R,1.300000X2.100000*%
%ADD14C,3.350000*%
%ADD15R,1.400000X2.000000*%
%ADD16R,0.740000X0.540000*%
%ADD17R,1.640000X2.540000*%
%ADD18R,2.200000X2.200000*%
%ADD19O,2.200000X2.200000*%
%ADD20R,2.400000X2.400000*%
%ADD21C,2.400000*%
%ADD22R,1.900000X1.700000*%
%ADD23O,2.100000X2.100000*%
%ADD24R,2.100000X2.100000*%
%ADD25R,2.800000X2.800000*%
%ADD26C,2.800000*%
%ADD27R,3.900000X3.900000*%
%ADD28R,2.580000X2.520000*%
%ADD29R,2.900000X3.700000*%
G04 APERTURE END LIST*
D10*
X37388095Y-35792857D02*
X37264285Y-35735714D01*
X37202380Y-35678571D01*
X37140476Y-35564285D01*
X37140476Y-35221428D01*
X37202380Y-35107142D01*
X37264285Y-35050000D01*
X37388095Y-34992857D01*
X37573809Y-34992857D01*
X37697619Y-35050000D01*
X37759523Y-35107142D01*
X37821428Y-35221428D01*
X37821428Y-35564285D01*
X37759523Y-35678571D01*
X37697619Y-35735714D01*
X37573809Y-35792857D01*
X37388095Y-35792857D01*
X38378571Y-35792857D02*
X38378571Y-34992857D01*
X38378571Y-35221428D02*
X38440476Y-35107142D01*
X38502380Y-35050000D01*
X38626190Y-34992857D01*
X38750000Y-34992857D01*
X39183333Y-35792857D02*
X39183333Y-34992857D01*
X39183333Y-34592857D02*
X39121428Y-34650000D01*
X39183333Y-34707142D01*
X39245238Y-34650000D01*
X39183333Y-34592857D01*
X39183333Y-34707142D01*
X40359523Y-34992857D02*
X40359523Y-35964285D01*
X40297619Y-36078571D01*
X40235714Y-36135714D01*
X40111904Y-36192857D01*
X39926190Y-36192857D01*
X39802380Y-36135714D01*
X40359523Y-35735714D02*
X40235714Y-35792857D01*
X39988095Y-35792857D01*
X39864285Y-35735714D01*
X39802380Y-35678571D01*
X39740476Y-35564285D01*
X39740476Y-35221428D01*
X39802380Y-35107142D01*
X39864285Y-35050000D01*
X39988095Y-34992857D01*
X40235714Y-34992857D01*
X40359523Y-35050000D01*
X40978571Y-35792857D02*
X40978571Y-34992857D01*
X40978571Y-34592857D02*
X40916666Y-34650000D01*
X40978571Y-34707142D01*
X41040476Y-34650000D01*
X40978571Y-34592857D01*
X40978571Y-34707142D01*
X41597619Y-34992857D02*
X41597619Y-35792857D01*
X41597619Y-35107142D02*
X41659523Y-35050000D01*
X41783333Y-34992857D01*
X41969047Y-34992857D01*
X42092857Y-35050000D01*
X42154761Y-35164285D01*
X42154761Y-35792857D01*
X43330952Y-35792857D02*
X43330952Y-35164285D01*
X43269047Y-35050000D01*
X43145238Y-34992857D01*
X42897619Y-34992857D01*
X42773809Y-35050000D01*
X43330952Y-35735714D02*
X43207142Y-35792857D01*
X42897619Y-35792857D01*
X42773809Y-35735714D01*
X42711904Y-35621428D01*
X42711904Y-35507142D01*
X42773809Y-35392857D01*
X42897619Y-35335714D01*
X43207142Y-35335714D01*
X43330952Y-35278571D01*
X44135714Y-35792857D02*
X44011904Y-35735714D01*
X43950000Y-35621428D01*
X43950000Y-34592857D01*
X45621428Y-35792857D02*
X45621428Y-34592857D01*
X45621428Y-35050000D02*
X45745238Y-34992857D01*
X45992857Y-34992857D01*
X46116666Y-35050000D01*
X46178571Y-35107142D01*
X46240476Y-35221428D01*
X46240476Y-35564285D01*
X46178571Y-35678571D01*
X46116666Y-35735714D01*
X45992857Y-35792857D01*
X45745238Y-35792857D01*
X45621428Y-35735714D01*
X46673809Y-34992857D02*
X46983333Y-35792857D01*
X47292857Y-34992857D02*
X46983333Y-35792857D01*
X46859523Y-36078571D01*
X46797619Y-36135714D01*
X46673809Y-36192857D01*
X49335714Y-35735714D02*
X49211904Y-35792857D01*
X48964285Y-35792857D01*
X48840476Y-35735714D01*
X48778571Y-35678571D01*
X48716666Y-35564285D01*
X48716666Y-35221428D01*
X48778571Y-35107142D01*
X48840476Y-35050000D01*
X48964285Y-34992857D01*
X49211904Y-34992857D01*
X49335714Y-35050000D01*
X50078571Y-35792857D02*
X49954761Y-35735714D01*
X49892857Y-35678571D01*
X49830952Y-35564285D01*
X49830952Y-35221428D01*
X49892857Y-35107142D01*
X49954761Y-35050000D01*
X50078571Y-34992857D01*
X50264285Y-34992857D01*
X50388095Y-35050000D01*
X50450000Y-35107142D01*
X50511904Y-35221428D01*
X50511904Y-35564285D01*
X50450000Y-35678571D01*
X50388095Y-35735714D01*
X50264285Y-35792857D01*
X50078571Y-35792857D01*
X51069047Y-35792857D02*
X51069047Y-34992857D01*
X51069047Y-35221428D02*
X51130952Y-35107142D01*
X51192857Y-35050000D01*
X51316666Y-34992857D01*
X51440476Y-34992857D01*
X52369047Y-35735714D02*
X52245238Y-35792857D01*
X51997619Y-35792857D01*
X51873809Y-35735714D01*
X51811904Y-35621428D01*
X51811904Y-35164285D01*
X51873809Y-35050000D01*
X51997619Y-34992857D01*
X52245238Y-34992857D01*
X52369047Y-35050000D01*
X52430952Y-35164285D01*
X52430952Y-35278571D01*
X51811904Y-35392857D01*
X53545238Y-35792857D02*
X53545238Y-34592857D01*
X53545238Y-35735714D02*
X53421428Y-35792857D01*
X53173809Y-35792857D01*
X53050000Y-35735714D01*
X52988095Y-35678571D01*
X52926190Y-35564285D01*
X52926190Y-35221428D01*
X52988095Y-35107142D01*
X53050000Y-35050000D01*
X53173809Y-34992857D01*
X53421428Y-34992857D01*
X53545238Y-35050000D01*
X54721428Y-34992857D02*
X54721428Y-35792857D01*
X54164285Y-34992857D02*
X54164285Y-35621428D01*
X54226190Y-35735714D01*
X54350000Y-35792857D01*
X54535714Y-35792857D01*
X54659523Y-35735714D01*
X54721428Y-35678571D01*
X55340476Y-35792857D02*
X55340476Y-34992857D01*
X55340476Y-35107142D02*
X55402380Y-35050000D01*
X55526190Y-34992857D01*
X55711904Y-34992857D01*
X55835714Y-35050000D01*
X55897619Y-35164285D01*
X55897619Y-35792857D01*
X55897619Y-35164285D02*
X55959523Y-35050000D01*
X56083333Y-34992857D01*
X56269047Y-34992857D01*
X56392857Y-35050000D01*
X56454761Y-35164285D01*
X56454761Y-35792857D01*
X57073809Y-34992857D02*
X57073809Y-36192857D01*
X57073809Y-35050000D02*
X57197619Y-34992857D01*
X57445238Y-34992857D01*
X57569047Y-35050000D01*
X57630952Y-35107142D01*
X57692857Y-35221428D01*
X57692857Y-35564285D01*
X57630952Y-35678571D01*
X57569047Y-35735714D01*
X57445238Y-35792857D01*
X57197619Y-35792857D01*
X57073809Y-35735714D01*
X58250000Y-35678571D02*
X58311904Y-35735714D01*
X58250000Y-35792857D01*
X58188095Y-35735714D01*
X58250000Y-35678571D01*
X58250000Y-35792857D01*
X59426190Y-35735714D02*
X59302380Y-35792857D01*
X59054761Y-35792857D01*
X58930952Y-35735714D01*
X58869047Y-35678571D01*
X58807142Y-35564285D01*
X58807142Y-35221428D01*
X58869047Y-35107142D01*
X58930952Y-35050000D01*
X59054761Y-34992857D01*
X59302380Y-34992857D01*
X59426190Y-35050000D01*
X59983333Y-35792857D02*
X59983333Y-34592857D01*
X60540476Y-35792857D02*
X60540476Y-35164285D01*
X60478571Y-35050000D01*
X60354761Y-34992857D01*
X60169047Y-34992857D01*
X60045238Y-35050000D01*
X59983333Y-35107142D01*
X62459523Y-36192857D02*
X62459523Y-34478571D01*
X64378571Y-35792857D02*
X64378571Y-34992857D01*
X64378571Y-35107142D02*
X64440476Y-35050000D01*
X64564285Y-34992857D01*
X64750000Y-34992857D01*
X64873809Y-35050000D01*
X64935714Y-35164285D01*
X64935714Y-35792857D01*
X64935714Y-35164285D02*
X64997619Y-35050000D01*
X65121428Y-34992857D01*
X65307142Y-34992857D01*
X65430952Y-35050000D01*
X65492857Y-35164285D01*
X65492857Y-35792857D01*
X66297619Y-35792857D02*
X66173809Y-35735714D01*
X66111904Y-35678571D01*
X66050000Y-35564285D01*
X66050000Y-35221428D01*
X66111904Y-35107142D01*
X66173809Y-35050000D01*
X66297619Y-34992857D01*
X66483333Y-34992857D01*
X66607142Y-35050000D01*
X66669047Y-35107142D01*
X66730952Y-35221428D01*
X66730952Y-35564285D01*
X66669047Y-35678571D01*
X66607142Y-35735714D01*
X66483333Y-35792857D01*
X66297619Y-35792857D01*
X67845238Y-35792857D02*
X67845238Y-34592857D01*
X67845238Y-35735714D02*
X67721428Y-35792857D01*
X67473809Y-35792857D01*
X67350000Y-35735714D01*
X67288095Y-35678571D01*
X67226190Y-35564285D01*
X67226190Y-35221428D01*
X67288095Y-35107142D01*
X67350000Y-35050000D01*
X67473809Y-34992857D01*
X67721428Y-34992857D01*
X67845238Y-35050000D01*
X68464285Y-35792857D02*
X68464285Y-34992857D01*
X68464285Y-34592857D02*
X68402380Y-34650000D01*
X68464285Y-34707142D01*
X68526190Y-34650000D01*
X68464285Y-34592857D01*
X68464285Y-34707142D01*
X68897619Y-34992857D02*
X69392857Y-34992857D01*
X69083333Y-35792857D02*
X69083333Y-34764285D01*
X69145238Y-34650000D01*
X69269047Y-34592857D01*
X69392857Y-34592857D01*
X69826190Y-35792857D02*
X69826190Y-34992857D01*
X69826190Y-34592857D02*
X69764285Y-34650000D01*
X69826190Y-34707142D01*
X69888095Y-34650000D01*
X69826190Y-34592857D01*
X69826190Y-34707142D01*
X70940476Y-35735714D02*
X70816666Y-35792857D01*
X70569047Y-35792857D01*
X70445238Y-35735714D01*
X70383333Y-35621428D01*
X70383333Y-35164285D01*
X70445238Y-35050000D01*
X70569047Y-34992857D01*
X70816666Y-34992857D01*
X70940476Y-35050000D01*
X71002380Y-35164285D01*
X71002380Y-35278571D01*
X70383333Y-35392857D01*
X72116666Y-35792857D02*
X72116666Y-34592857D01*
X72116666Y-35735714D02*
X71992857Y-35792857D01*
X71745238Y-35792857D01*
X71621428Y-35735714D01*
X71559523Y-35678571D01*
X71497619Y-35564285D01*
X71497619Y-35221428D01*
X71559523Y-35107142D01*
X71621428Y-35050000D01*
X71745238Y-34992857D01*
X71992857Y-34992857D01*
X72116666Y-35050000D01*
X73726190Y-35792857D02*
X73726190Y-34592857D01*
X73726190Y-35050000D02*
X73850000Y-34992857D01*
X74097619Y-34992857D01*
X74221428Y-35050000D01*
X74283333Y-35107142D01*
X74345238Y-35221428D01*
X74345238Y-35564285D01*
X74283333Y-35678571D01*
X74221428Y-35735714D01*
X74097619Y-35792857D01*
X73850000Y-35792857D01*
X73726190Y-35735714D01*
X74778571Y-34992857D02*
X75088095Y-35792857D01*
X75397619Y-34992857D02*
X75088095Y-35792857D01*
X74964285Y-36078571D01*
X74902380Y-36135714D01*
X74778571Y-36192857D01*
X76821428Y-35450000D02*
X77440476Y-35450000D01*
X76697619Y-35792857D02*
X77130952Y-34592857D01*
X77564285Y-35792857D01*
X78554761Y-35792857D02*
X78554761Y-34592857D01*
X78554761Y-35735714D02*
X78430952Y-35792857D01*
X78183333Y-35792857D01*
X78059523Y-35735714D01*
X77997619Y-35678571D01*
X77935714Y-35564285D01*
X77935714Y-35221428D01*
X77997619Y-35107142D01*
X78059523Y-35050000D01*
X78183333Y-34992857D01*
X78430952Y-34992857D01*
X78554761Y-35050000D01*
X79359523Y-35792857D02*
X79235714Y-35735714D01*
X79173809Y-35621428D01*
X79173809Y-34592857D01*
X80411904Y-34992857D02*
X80411904Y-35792857D01*
X79854761Y-34992857D02*
X79854761Y-35621428D01*
X79916666Y-35735714D01*
X80040476Y-35792857D01*
X80226190Y-35792857D01*
X80350000Y-35735714D01*
X80411904Y-35678571D01*
X81588095Y-35735714D02*
X81464285Y-35792857D01*
X81216666Y-35792857D01*
X81092857Y-35735714D01*
X81030952Y-35678571D01*
X80969047Y-35564285D01*
X80969047Y-35221428D01*
X81030952Y-35107142D01*
X81092857Y-35050000D01*
X81216666Y-34992857D01*
X81464285Y-34992857D01*
X81588095Y-35050000D01*
X83135714Y-35792857D02*
X83135714Y-34592857D01*
X83135714Y-35050000D02*
X83259523Y-34992857D01*
X83507142Y-34992857D01*
X83630952Y-35050000D01*
X83692857Y-35107142D01*
X83754761Y-35221428D01*
X83754761Y-35564285D01*
X83692857Y-35678571D01*
X83630952Y-35735714D01*
X83507142Y-35792857D01*
X83259523Y-35792857D01*
X83135714Y-35735714D01*
X84869047Y-35792857D02*
X84869047Y-35164285D01*
X84807142Y-35050000D01*
X84683333Y-34992857D01*
X84435714Y-34992857D01*
X84311904Y-35050000D01*
X84869047Y-35735714D02*
X84745238Y-35792857D01*
X84435714Y-35792857D01*
X84311904Y-35735714D01*
X84250000Y-35621428D01*
X84250000Y-35507142D01*
X84311904Y-35392857D01*
X84435714Y-35335714D01*
X84745238Y-35335714D01*
X84869047Y-35278571D01*
X85426190Y-35735714D02*
X85550000Y-35792857D01*
X85797619Y-35792857D01*
X85921428Y-35735714D01*
X85983333Y-35621428D01*
X85983333Y-35564285D01*
X85921428Y-35450000D01*
X85797619Y-35392857D01*
X85611904Y-35392857D01*
X85488095Y-35335714D01*
X85426190Y-35221428D01*
X85426190Y-35164285D01*
X85488095Y-35050000D01*
X85611904Y-34992857D01*
X85797619Y-34992857D01*
X85921428Y-35050000D01*
X87035714Y-35735714D02*
X86911904Y-35792857D01*
X86664285Y-35792857D01*
X86540476Y-35735714D01*
X86478571Y-35621428D01*
X86478571Y-35164285D01*
X86540476Y-35050000D01*
X86664285Y-34992857D01*
X86911904Y-34992857D01*
X87035714Y-35050000D01*
X87097619Y-35164285D01*
X87097619Y-35278571D01*
X86478571Y-35392857D01*
X88211904Y-34992857D02*
X88211904Y-35792857D01*
X87902380Y-34535714D02*
X87592857Y-35392857D01*
X88397619Y-35392857D01*
X89078571Y-35107142D02*
X88954761Y-35050000D01*
X88892857Y-34992857D01*
X88830952Y-34878571D01*
X88830952Y-34821428D01*
X88892857Y-34707142D01*
X88954761Y-34650000D01*
X89078571Y-34592857D01*
X89326190Y-34592857D01*
X89450000Y-34650000D01*
X89511904Y-34707142D01*
X89573809Y-34821428D01*
X89573809Y-34878571D01*
X89511904Y-34992857D01*
X89450000Y-35050000D01*
X89326190Y-35107142D01*
X89078571Y-35107142D01*
X88954761Y-35164285D01*
X88892857Y-35221428D01*
X88830952Y-35335714D01*
X88830952Y-35564285D01*
X88892857Y-35678571D01*
X88954761Y-35735714D01*
X89078571Y-35792857D01*
X89326190Y-35792857D01*
X89450000Y-35735714D01*
X89511904Y-35678571D01*
X89573809Y-35564285D01*
X89573809Y-35335714D01*
X89511904Y-35221428D01*
X89450000Y-35164285D01*
X89326190Y-35107142D01*
X90130952Y-35678571D02*
X90192857Y-35735714D01*
X90130952Y-35792857D01*
X90069047Y-35735714D01*
X90130952Y-35678571D01*
X90130952Y-35792857D01*
X91307142Y-35735714D02*
X91183333Y-35792857D01*
X90935714Y-35792857D01*
X90811904Y-35735714D01*
X90750000Y-35678571D01*
X90688095Y-35564285D01*
X90688095Y-35221428D01*
X90750000Y-35107142D01*
X90811904Y-35050000D01*
X90935714Y-34992857D01*
X91183333Y-34992857D01*
X91307142Y-35050000D01*
X91740476Y-34992857D02*
X92421428Y-34992857D01*
X91740476Y-35792857D01*
X92421428Y-35792857D01*
D11*
X92250000Y-54928571D02*
X92535714Y-54928571D01*
X92678571Y-55000000D01*
X92821428Y-55142857D01*
X92892857Y-55428571D01*
X92892857Y-55928571D01*
X92821428Y-56214285D01*
X92678571Y-56357142D01*
X92535714Y-56428571D01*
X92250000Y-56428571D01*
X92107142Y-56357142D01*
X91964285Y-56214285D01*
X91892857Y-55928571D01*
X91892857Y-55428571D01*
X91964285Y-55142857D01*
X92107142Y-55000000D01*
X92250000Y-54928571D01*
X93464285Y-56357142D02*
X93678571Y-56428571D01*
X94035714Y-56428571D01*
X94178571Y-56357142D01*
X94250000Y-56285714D01*
X94321428Y-56142857D01*
X94321428Y-56000000D01*
X94250000Y-55857142D01*
X94178571Y-55785714D01*
X94035714Y-55714285D01*
X93750000Y-55642857D01*
X93607142Y-55571428D01*
X93535714Y-55500000D01*
X93464285Y-55357142D01*
X93464285Y-55214285D01*
X93535714Y-55071428D01*
X93607142Y-55000000D01*
X93750000Y-54928571D01*
X94107142Y-54928571D01*
X94321428Y-55000000D01*
X94964285Y-56428571D02*
X94964285Y-54928571D01*
X94964285Y-55642857D02*
X95821428Y-55642857D01*
X95821428Y-56428571D02*
X95821428Y-54928571D01*
X96392857Y-54928571D02*
X96750000Y-56428571D01*
X97035714Y-55357142D01*
X97321428Y-56428571D01*
X97678571Y-54928571D01*
X52535714Y-33428571D02*
X52535714Y-32428571D01*
X52535714Y-31928571D02*
X52464285Y-32000000D01*
X52535714Y-32071428D01*
X52607142Y-32000000D01*
X52535714Y-31928571D01*
X52535714Y-32071428D01*
X54107142Y-33285714D02*
X54035714Y-33357142D01*
X53821428Y-33428571D01*
X53678571Y-33428571D01*
X53464285Y-33357142D01*
X53321428Y-33214285D01*
X53250000Y-33071428D01*
X53178571Y-32785714D01*
X53178571Y-32571428D01*
X53250000Y-32285714D01*
X53321428Y-32142857D01*
X53464285Y-32000000D01*
X53678571Y-31928571D01*
X53821428Y-31928571D01*
X54035714Y-32000000D01*
X54107142Y-32071428D01*
X54964285Y-32571428D02*
X54821428Y-32500000D01*
X54750000Y-32428571D01*
X54678571Y-32285714D01*
X54678571Y-32214285D01*
X54750000Y-32071428D01*
X54821428Y-32000000D01*
X54964285Y-31928571D01*
X55250000Y-31928571D01*
X55392857Y-32000000D01*
X55464285Y-32071428D01*
X55535714Y-32214285D01*
X55535714Y-32285714D01*
X55464285Y-32428571D01*
X55392857Y-32500000D01*
X55250000Y-32571428D01*
X54964285Y-32571428D01*
X54821428Y-32642857D01*
X54750000Y-32714285D01*
X54678571Y-32857142D01*
X54678571Y-33142857D01*
X54750000Y-33285714D01*
X54821428Y-33357142D01*
X54964285Y-33428571D01*
X55250000Y-33428571D01*
X55392857Y-33357142D01*
X55464285Y-33285714D01*
X55535714Y-33142857D01*
X55535714Y-32857142D01*
X55464285Y-32714285D01*
X55392857Y-32642857D01*
X55250000Y-32571428D01*
X56392857Y-32571428D02*
X56250000Y-32500000D01*
X56178571Y-32428571D01*
X56107142Y-32285714D01*
X56107142Y-32214285D01*
X56178571Y-32071428D01*
X56250000Y-32000000D01*
X56392857Y-31928571D01*
X56678571Y-31928571D01*
X56821428Y-32000000D01*
X56892857Y-32071428D01*
X56964285Y-32214285D01*
X56964285Y-32285714D01*
X56892857Y-32428571D01*
X56821428Y-32500000D01*
X56678571Y-32571428D01*
X56392857Y-32571428D01*
X56250000Y-32642857D01*
X56178571Y-32714285D01*
X56107142Y-32857142D01*
X56107142Y-33142857D01*
X56178571Y-33285714D01*
X56250000Y-33357142D01*
X56392857Y-33428571D01*
X56678571Y-33428571D01*
X56821428Y-33357142D01*
X56892857Y-33285714D01*
X56964285Y-33142857D01*
X56964285Y-32857142D01*
X56892857Y-32714285D01*
X56821428Y-32642857D01*
X56678571Y-32571428D01*
X57892857Y-31928571D02*
X58035714Y-31928571D01*
X58178571Y-32000000D01*
X58250000Y-32071428D01*
X58321428Y-32214285D01*
X58392857Y-32500000D01*
X58392857Y-32857142D01*
X58321428Y-33142857D01*
X58250000Y-33285714D01*
X58178571Y-33357142D01*
X58035714Y-33428571D01*
X57892857Y-33428571D01*
X57750000Y-33357142D01*
X57678571Y-33285714D01*
X57607142Y-33142857D01*
X57535714Y-32857142D01*
X57535714Y-32500000D01*
X57607142Y-32214285D01*
X57678571Y-32071428D01*
X57750000Y-32000000D01*
X57892857Y-31928571D01*
X58964285Y-33000000D02*
X59678571Y-33000000D01*
X58821428Y-33428571D02*
X59321428Y-31928571D01*
X59821428Y-33428571D01*
X61964285Y-32642857D02*
X62178571Y-32714285D01*
X62250000Y-32785714D01*
X62321428Y-32928571D01*
X62321428Y-33142857D01*
X62250000Y-33285714D01*
X62178571Y-33357142D01*
X62035714Y-33428571D01*
X61464285Y-33428571D01*
X61464285Y-31928571D01*
X61964285Y-31928571D01*
X62107142Y-32000000D01*
X62178571Y-32071428D01*
X62250000Y-32214285D01*
X62250000Y-32357142D01*
X62178571Y-32500000D01*
X62107142Y-32571428D01*
X61964285Y-32642857D01*
X61464285Y-32642857D01*
X63607142Y-33428571D02*
X63607142Y-32642857D01*
X63535714Y-32500000D01*
X63392857Y-32428571D01*
X63107142Y-32428571D01*
X62964285Y-32500000D01*
X63607142Y-33357142D02*
X63464285Y-33428571D01*
X63107142Y-33428571D01*
X62964285Y-33357142D01*
X62892857Y-33214285D01*
X62892857Y-33071428D01*
X62964285Y-32928571D01*
X63107142Y-32857142D01*
X63464285Y-32857142D01*
X63607142Y-32785714D01*
X64964285Y-33357142D02*
X64821428Y-33428571D01*
X64535714Y-33428571D01*
X64392857Y-33357142D01*
X64321428Y-33285714D01*
X64249999Y-33142857D01*
X64249999Y-32714285D01*
X64321428Y-32571428D01*
X64392857Y-32500000D01*
X64535714Y-32428571D01*
X64821428Y-32428571D01*
X64964285Y-32500000D01*
X65607142Y-33428571D02*
X65607142Y-31928571D01*
X65749999Y-32857142D02*
X66178571Y-33428571D01*
X66178571Y-32428571D02*
X65607142Y-33000000D01*
X66821428Y-32428571D02*
X66821428Y-33928571D01*
X66821428Y-32500000D02*
X66964285Y-32428571D01*
X67250000Y-32428571D01*
X67392857Y-32500000D01*
X67464285Y-32571428D01*
X67535714Y-32714285D01*
X67535714Y-33142857D01*
X67464285Y-33285714D01*
X67392857Y-33357142D01*
X67250000Y-33428571D01*
X66964285Y-33428571D01*
X66821428Y-33357142D01*
X68392857Y-33428571D02*
X68250000Y-33357142D01*
X68178571Y-33214285D01*
X68178571Y-31928571D01*
X69607142Y-33428571D02*
X69607142Y-32642857D01*
X69535714Y-32500000D01*
X69392857Y-32428571D01*
X69107142Y-32428571D01*
X68964285Y-32500000D01*
X69607142Y-33357142D02*
X69464285Y-33428571D01*
X69107142Y-33428571D01*
X68964285Y-33357142D01*
X68892857Y-33214285D01*
X68892857Y-33071428D01*
X68964285Y-32928571D01*
X69107142Y-32857142D01*
X69464285Y-32857142D01*
X69607142Y-32785714D01*
X70321428Y-32428571D02*
X70321428Y-33428571D01*
X70321428Y-32571428D02*
X70392857Y-32500000D01*
X70535714Y-32428571D01*
X70750000Y-32428571D01*
X70892857Y-32500000D01*
X70964285Y-32642857D01*
X70964285Y-33428571D01*
X72250000Y-33357142D02*
X72107142Y-33428571D01*
X71821428Y-33428571D01*
X71678571Y-33357142D01*
X71607142Y-33214285D01*
X71607142Y-32642857D01*
X71678571Y-32500000D01*
X71821428Y-32428571D01*
X72107142Y-32428571D01*
X72250000Y-32500000D01*
X72321428Y-32642857D01*
X72321428Y-32785714D01*
X71607142Y-32928571D01*
X73964285Y-32428571D02*
X74321428Y-33428571D01*
X74678571Y-32428571D01*
X76035714Y-33428571D02*
X75178571Y-33428571D01*
X75607142Y-33428571D02*
X75607142Y-31928571D01*
X75464285Y-32142857D01*
X75321428Y-32285714D01*
X75178571Y-32357142D01*
X76678571Y-33285714D02*
X76750000Y-33357142D01*
X76678571Y-33428571D01*
X76607142Y-33357142D01*
X76678571Y-33285714D01*
X76678571Y-33428571D01*
X78035714Y-31928571D02*
X77750000Y-31928571D01*
X77607142Y-32000000D01*
X77535714Y-32071428D01*
X77392857Y-32285714D01*
X77321428Y-32571428D01*
X77321428Y-33142857D01*
X77392857Y-33285714D01*
X77464285Y-33357142D01*
X77607142Y-33428571D01*
X77892857Y-33428571D01*
X78035714Y-33357142D01*
X78107142Y-33285714D01*
X78178571Y-33142857D01*
X78178571Y-32785714D01*
X78107142Y-32642857D01*
X78035714Y-32571428D01*
X77892857Y-32500000D01*
X77607142Y-32500000D01*
X77464285Y-32571428D01*
X77392857Y-32642857D01*
X77321428Y-32785714D01*
X79464285Y-33428571D02*
X79464285Y-32642857D01*
X79392857Y-32500000D01*
X79250000Y-32428571D01*
X78964285Y-32428571D01*
X78821428Y-32500000D01*
X79464285Y-33357142D02*
X79321428Y-33428571D01*
X78964285Y-33428571D01*
X78821428Y-33357142D01*
X78750000Y-33214285D01*
X78750000Y-33071428D01*
X78821428Y-32928571D01*
X78964285Y-32857142D01*
X79321428Y-32857142D01*
X79464285Y-32785714D01*
D12*
G36*
X91526786Y-50473809D02*
X91566299Y-50484585D01*
X91661490Y-50507934D01*
X91797990Y-50536670D01*
X91961430Y-50567203D01*
X92126667Y-50599532D01*
X92259575Y-50624677D01*
X92352969Y-50646230D01*
X92388890Y-50657006D01*
X92397871Y-50673170D01*
X92421219Y-50743216D01*
X92455344Y-50845591D01*
X92471509Y-50904861D01*
X92507430Y-50994663D01*
X92532574Y-51030585D01*
X92546943Y-51026992D01*
X92618785Y-51001848D01*
X92735528Y-50956946D01*
X92888193Y-50897677D01*
X93066002Y-50824039D01*
X93259975Y-50745012D01*
X93455745Y-50664190D01*
X93642534Y-50588756D01*
X93809567Y-50518710D01*
X93944271Y-50459440D01*
X94037665Y-50419927D01*
X94075382Y-50400171D01*
X94077179Y-50391190D01*
X94077179Y-50330125D01*
X94064606Y-50234934D01*
X94043054Y-50023000D01*
X94069994Y-49762572D01*
X94163389Y-49529086D01*
X94323238Y-49322540D01*
X94511823Y-49173468D01*
X94739921Y-49078277D01*
X94998553Y-49045948D01*
X95242816Y-49074685D01*
X95474506Y-49166283D01*
X95675664Y-49324336D01*
X95828328Y-49516513D01*
X95928907Y-49746408D01*
X95963032Y-50003243D01*
X95954052Y-50137947D01*
X95891190Y-50369638D01*
X95781631Y-50576184D01*
X95747506Y-50621085D01*
X95566105Y-50788118D01*
X95346987Y-50903065D01*
X95106316Y-50960539D01*
X94856665Y-50955150D01*
X94829724Y-50949762D01*
X94725553Y-50935394D01*
X94655507Y-50926414D01*
X94599829Y-50921025D01*
X94289113Y-51673571D01*
X94238823Y-51795702D01*
X94154409Y-52002248D01*
X94082567Y-52181853D01*
X94025093Y-52321945D01*
X93989172Y-52418932D01*
X93974804Y-52458445D01*
X93974804Y-52462037D01*
X93990968Y-52485386D01*
X94044850Y-52510531D01*
X94156205Y-52550044D01*
X94229843Y-52573393D01*
X94316053Y-52602129D01*
X94350178Y-52618294D01*
X94360955Y-52650623D01*
X94378915Y-52740425D01*
X94405856Y-52871537D01*
X94436389Y-53031386D01*
X94465126Y-53185846D01*
X94493862Y-53322346D01*
X94515415Y-53422925D01*
X94527987Y-53467826D01*
X94533376Y-53473214D01*
X94574685Y-53485787D01*
X94662691Y-53491175D01*
X94804579Y-53496563D01*
X95007533Y-53498359D01*
X95039862Y-53498359D01*
X95210487Y-53496563D01*
X95350579Y-53492971D01*
X95445770Y-53487583D01*
X95487079Y-53482194D01*
X95499651Y-53437293D01*
X95523000Y-53338510D01*
X95551737Y-53198418D01*
X95582269Y-53031386D01*
X95663092Y-52598537D01*
X96002545Y-52453057D01*
X96106716Y-52409952D01*
X96234236Y-52357866D01*
X96325835Y-52320149D01*
X96367144Y-52307577D01*
X96404861Y-52323741D01*
X96485683Y-52375827D01*
X96600631Y-52451261D01*
X96737130Y-52544656D01*
X96868242Y-52632662D01*
X96984985Y-52713485D01*
X97069400Y-52769162D01*
X97107117Y-52796103D01*
X97119689Y-52797899D01*
X97141242Y-52790715D01*
X97178959Y-52760182D01*
X97241821Y-52704504D01*
X97337012Y-52609314D01*
X97473511Y-52472814D01*
X97487880Y-52458445D01*
X97618992Y-52327334D01*
X97717774Y-52221366D01*
X97782432Y-52149524D01*
X97805781Y-52118992D01*
X97782432Y-52081274D01*
X97726755Y-51996860D01*
X97647728Y-51878321D01*
X97552538Y-51740025D01*
X97547150Y-51731045D01*
X97451959Y-51589156D01*
X97374729Y-51472413D01*
X97322643Y-51387999D01*
X97301090Y-51348486D01*
X97302887Y-51335913D01*
X97326235Y-51265867D01*
X97363952Y-51159900D01*
X97416038Y-51032381D01*
X97468123Y-50901269D01*
X97518413Y-50786322D01*
X97557926Y-50703703D01*
X97579478Y-50667782D01*
X97626176Y-50657006D01*
X97724959Y-50637249D01*
X97866847Y-50610309D01*
X98035675Y-50577980D01*
X98048248Y-50576184D01*
X98213485Y-50543855D01*
X98353577Y-50515118D01*
X98448767Y-50491769D01*
X98490076Y-50479197D01*
X98490076Y-50475605D01*
X98497261Y-50425315D01*
X98504445Y-50317552D01*
X98508037Y-50170276D01*
X98506241Y-49996059D01*
X98506241Y-49942177D01*
X98506241Y-49751796D01*
X98499057Y-49622480D01*
X98490076Y-49548842D01*
X98477504Y-49521901D01*
X98429011Y-49509329D01*
X98324840Y-49487777D01*
X98182952Y-49460836D01*
X98014123Y-49428507D01*
X98003347Y-49424915D01*
X97836314Y-49394382D01*
X97698018Y-49367441D01*
X97601031Y-49349481D01*
X97561518Y-49338704D01*
X97556130Y-49333316D01*
X97527393Y-49283027D01*
X97482492Y-49187836D01*
X97428610Y-49065704D01*
X97372933Y-48938185D01*
X97326235Y-48819645D01*
X97292110Y-48728047D01*
X97279538Y-48683146D01*
X97279538Y-48679553D01*
X97306479Y-48634652D01*
X97362156Y-48543054D01*
X97442979Y-48419126D01*
X97541761Y-48277238D01*
X97557926Y-48253889D01*
X97651320Y-48113797D01*
X97732143Y-47997054D01*
X97784228Y-47916232D01*
X97805781Y-47880311D01*
X97793209Y-47860554D01*
X97739327Y-47799488D01*
X97653117Y-47709686D01*
X97547150Y-47600127D01*
X97435794Y-47488772D01*
X97322643Y-47382804D01*
X97225656Y-47293002D01*
X97155610Y-47230140D01*
X97123281Y-47208588D01*
X97119689Y-47208588D01*
X97072992Y-47233732D01*
X96981393Y-47293002D01*
X96859262Y-47375620D01*
X96715578Y-47472607D01*
X96690433Y-47490568D01*
X96548545Y-47585758D01*
X96431802Y-47662988D01*
X96352775Y-47713278D01*
X96318650Y-47733034D01*
X96302486Y-47727646D01*
X96232440Y-47700706D01*
X96121085Y-47654008D01*
X95984585Y-47596535D01*
X95666684Y-47461831D01*
X95578677Y-46993061D01*
X95569697Y-46951752D01*
X95537368Y-46782923D01*
X95512223Y-46646423D01*
X95490671Y-46553029D01*
X95481691Y-46515312D01*
X95478099Y-46515312D01*
X95426013Y-46509924D01*
X95318250Y-46506331D01*
X95170974Y-46506331D01*
X94996757Y-46504535D01*
X94867441Y-46504535D01*
X94711185Y-46506331D01*
X94610606Y-46509924D01*
X94551336Y-46518904D01*
X94520803Y-46527884D01*
X94511823Y-46544049D01*
X94501047Y-46590746D01*
X94479494Y-46691325D01*
X94452553Y-46833213D01*
X94422020Y-47000246D01*
X94395080Y-47138542D01*
X94360955Y-47291206D01*
X94334014Y-47397173D01*
X94316053Y-47443870D01*
X94299889Y-47452850D01*
X94224455Y-47488772D01*
X94111304Y-47537265D01*
X93969415Y-47592942D01*
X93655107Y-47716870D01*
X93480890Y-47600127D01*
X93378515Y-47530081D01*
X93233034Y-47431298D01*
X93092942Y-47337903D01*
X92875620Y-47188831D01*
X92198509Y-47851574D01*
X92214673Y-47892883D01*
X92234430Y-47927008D01*
X92288312Y-48009626D01*
X92365542Y-48126370D01*
X92457140Y-48261074D01*
X92536167Y-48376021D01*
X92613397Y-48492764D01*
X92670870Y-48575382D01*
X92696015Y-48614896D01*
X92692423Y-48632856D01*
X92670870Y-48704698D01*
X92629561Y-48814257D01*
X92579272Y-48943573D01*
X92523594Y-49078277D01*
X92471509Y-49198612D01*
X92428404Y-49288415D01*
X92403259Y-49331520D01*
X92365542Y-49344092D01*
X92270351Y-49363849D01*
X92133851Y-49392586D01*
X91970410Y-49423119D01*
X91806970Y-49453652D01*
X91668674Y-49480592D01*
X91569891Y-49500349D01*
X91526786Y-49511125D01*
X91516010Y-49539862D01*
X91507029Y-49624276D01*
X91505233Y-49773349D01*
X91507029Y-49990671D01*
X91507029Y-50026592D01*
X91510621Y-50195421D01*
X91516010Y-50337309D01*
X91521398Y-50432499D01*
X91526786Y-50473809D01*
X91526786Y-50473809D01*
G37*
X91526786Y-50473809D02*
X91566299Y-50484585D01*
X91661490Y-50507934D01*
X91797990Y-50536670D01*
X91961430Y-50567203D01*
X92126667Y-50599532D01*
X92259575Y-50624677D01*
X92352969Y-50646230D01*
X92388890Y-50657006D01*
X92397871Y-50673170D01*
X92421219Y-50743216D01*
X92455344Y-50845591D01*
X92471509Y-50904861D01*
X92507430Y-50994663D01*
X92532574Y-51030585D01*
X92546943Y-51026992D01*
X92618785Y-51001848D01*
X92735528Y-50956946D01*
X92888193Y-50897677D01*
X93066002Y-50824039D01*
X93259975Y-50745012D01*
X93455745Y-50664190D01*
X93642534Y-50588756D01*
X93809567Y-50518710D01*
X93944271Y-50459440D01*
X94037665Y-50419927D01*
X94075382Y-50400171D01*
X94077179Y-50391190D01*
X94077179Y-50330125D01*
X94064606Y-50234934D01*
X94043054Y-50023000D01*
X94069994Y-49762572D01*
X94163389Y-49529086D01*
X94323238Y-49322540D01*
X94511823Y-49173468D01*
X94739921Y-49078277D01*
X94998553Y-49045948D01*
X95242816Y-49074685D01*
X95474506Y-49166283D01*
X95675664Y-49324336D01*
X95828328Y-49516513D01*
X95928907Y-49746408D01*
X95963032Y-50003243D01*
X95954052Y-50137947D01*
X95891190Y-50369638D01*
X95781631Y-50576184D01*
X95747506Y-50621085D01*
X95566105Y-50788118D01*
X95346987Y-50903065D01*
X95106316Y-50960539D01*
X94856665Y-50955150D01*
X94829724Y-50949762D01*
X94725553Y-50935394D01*
X94655507Y-50926414D01*
X94599829Y-50921025D01*
X94289113Y-51673571D01*
X94238823Y-51795702D01*
X94154409Y-52002248D01*
X94082567Y-52181853D01*
X94025093Y-52321945D01*
X93989172Y-52418932D01*
X93974804Y-52458445D01*
X93974804Y-52462037D01*
X93990968Y-52485386D01*
X94044850Y-52510531D01*
X94156205Y-52550044D01*
X94229843Y-52573393D01*
X94316053Y-52602129D01*
X94350178Y-52618294D01*
X94360955Y-52650623D01*
X94378915Y-52740425D01*
X94405856Y-52871537D01*
X94436389Y-53031386D01*
X94465126Y-53185846D01*
X94493862Y-53322346D01*
X94515415Y-53422925D01*
X94527987Y-53467826D01*
X94533376Y-53473214D01*
X94574685Y-53485787D01*
X94662691Y-53491175D01*
X94804579Y-53496563D01*
X95007533Y-53498359D01*
X95039862Y-53498359D01*
X95210487Y-53496563D01*
X95350579Y-53492971D01*
X95445770Y-53487583D01*
X95487079Y-53482194D01*
X95499651Y-53437293D01*
X95523000Y-53338510D01*
X95551737Y-53198418D01*
X95582269Y-53031386D01*
X95663092Y-52598537D01*
X96002545Y-52453057D01*
X96106716Y-52409952D01*
X96234236Y-52357866D01*
X96325835Y-52320149D01*
X96367144Y-52307577D01*
X96404861Y-52323741D01*
X96485683Y-52375827D01*
X96600631Y-52451261D01*
X96737130Y-52544656D01*
X96868242Y-52632662D01*
X96984985Y-52713485D01*
X97069400Y-52769162D01*
X97107117Y-52796103D01*
X97119689Y-52797899D01*
X97141242Y-52790715D01*
X97178959Y-52760182D01*
X97241821Y-52704504D01*
X97337012Y-52609314D01*
X97473511Y-52472814D01*
X97487880Y-52458445D01*
X97618992Y-52327334D01*
X97717774Y-52221366D01*
X97782432Y-52149524D01*
X97805781Y-52118992D01*
X97782432Y-52081274D01*
X97726755Y-51996860D01*
X97647728Y-51878321D01*
X97552538Y-51740025D01*
X97547150Y-51731045D01*
X97451959Y-51589156D01*
X97374729Y-51472413D01*
X97322643Y-51387999D01*
X97301090Y-51348486D01*
X97302887Y-51335913D01*
X97326235Y-51265867D01*
X97363952Y-51159900D01*
X97416038Y-51032381D01*
X97468123Y-50901269D01*
X97518413Y-50786322D01*
X97557926Y-50703703D01*
X97579478Y-50667782D01*
X97626176Y-50657006D01*
X97724959Y-50637249D01*
X97866847Y-50610309D01*
X98035675Y-50577980D01*
X98048248Y-50576184D01*
X98213485Y-50543855D01*
X98353577Y-50515118D01*
X98448767Y-50491769D01*
X98490076Y-50479197D01*
X98490076Y-50475605D01*
X98497261Y-50425315D01*
X98504445Y-50317552D01*
X98508037Y-50170276D01*
X98506241Y-49996059D01*
X98506241Y-49942177D01*
X98506241Y-49751796D01*
X98499057Y-49622480D01*
X98490076Y-49548842D01*
X98477504Y-49521901D01*
X98429011Y-49509329D01*
X98324840Y-49487777D01*
X98182952Y-49460836D01*
X98014123Y-49428507D01*
X98003347Y-49424915D01*
X97836314Y-49394382D01*
X97698018Y-49367441D01*
X97601031Y-49349481D01*
X97561518Y-49338704D01*
X97556130Y-49333316D01*
X97527393Y-49283027D01*
X97482492Y-49187836D01*
X97428610Y-49065704D01*
X97372933Y-48938185D01*
X97326235Y-48819645D01*
X97292110Y-48728047D01*
X97279538Y-48683146D01*
X97279538Y-48679553D01*
X97306479Y-48634652D01*
X97362156Y-48543054D01*
X97442979Y-48419126D01*
X97541761Y-48277238D01*
X97557926Y-48253889D01*
X97651320Y-48113797D01*
X97732143Y-47997054D01*
X97784228Y-47916232D01*
X97805781Y-47880311D01*
X97793209Y-47860554D01*
X97739327Y-47799488D01*
X97653117Y-47709686D01*
X97547150Y-47600127D01*
X97435794Y-47488772D01*
X97322643Y-47382804D01*
X97225656Y-47293002D01*
X97155610Y-47230140D01*
X97123281Y-47208588D01*
X97119689Y-47208588D01*
X97072992Y-47233732D01*
X96981393Y-47293002D01*
X96859262Y-47375620D01*
X96715578Y-47472607D01*
X96690433Y-47490568D01*
X96548545Y-47585758D01*
X96431802Y-47662988D01*
X96352775Y-47713278D01*
X96318650Y-47733034D01*
X96302486Y-47727646D01*
X96232440Y-47700706D01*
X96121085Y-47654008D01*
X95984585Y-47596535D01*
X95666684Y-47461831D01*
X95578677Y-46993061D01*
X95569697Y-46951752D01*
X95537368Y-46782923D01*
X95512223Y-46646423D01*
X95490671Y-46553029D01*
X95481691Y-46515312D01*
X95478099Y-46515312D01*
X95426013Y-46509924D01*
X95318250Y-46506331D01*
X95170974Y-46506331D01*
X94996757Y-46504535D01*
X94867441Y-46504535D01*
X94711185Y-46506331D01*
X94610606Y-46509924D01*
X94551336Y-46518904D01*
X94520803Y-46527884D01*
X94511823Y-46544049D01*
X94501047Y-46590746D01*
X94479494Y-46691325D01*
X94452553Y-46833213D01*
X94422020Y-47000246D01*
X94395080Y-47138542D01*
X94360955Y-47291206D01*
X94334014Y-47397173D01*
X94316053Y-47443870D01*
X94299889Y-47452850D01*
X94224455Y-47488772D01*
X94111304Y-47537265D01*
X93969415Y-47592942D01*
X93655107Y-47716870D01*
X93480890Y-47600127D01*
X93378515Y-47530081D01*
X93233034Y-47431298D01*
X93092942Y-47337903D01*
X92875620Y-47188831D01*
X92198509Y-47851574D01*
X92214673Y-47892883D01*
X92234430Y-47927008D01*
X92288312Y-48009626D01*
X92365542Y-48126370D01*
X92457140Y-48261074D01*
X92536167Y-48376021D01*
X92613397Y-48492764D01*
X92670870Y-48575382D01*
X92696015Y-48614896D01*
X92692423Y-48632856D01*
X92670870Y-48704698D01*
X92629561Y-48814257D01*
X92579272Y-48943573D01*
X92523594Y-49078277D01*
X92471509Y-49198612D01*
X92428404Y-49288415D01*
X92403259Y-49331520D01*
X92365542Y-49344092D01*
X92270351Y-49363849D01*
X92133851Y-49392586D01*
X91970410Y-49423119D01*
X91806970Y-49453652D01*
X91668674Y-49480592D01*
X91569891Y-49500349D01*
X91526786Y-49511125D01*
X91516010Y-49539862D01*
X91507029Y-49624276D01*
X91505233Y-49773349D01*
X91507029Y-49990671D01*
X91507029Y-50026592D01*
X91510621Y-50195421D01*
X91516010Y-50337309D01*
X91521398Y-50432499D01*
X91526786Y-50473809D01*
D13*
X91006000Y-75184000D03*
X93906000Y-75184000D03*
X100330000Y-75184000D03*
X97430000Y-75184000D03*
D14*
X34814000Y-90685000D03*
X34697000Y-67685000D03*
X101747000Y-94390000D03*
X101747000Y-18040000D03*
X92814000Y-67685000D03*
X92814000Y-41685000D03*
X34814000Y-41685000D03*
X92814000Y-90685000D03*
D15*
X64640000Y-17644800D03*
X61640000Y-17644800D03*
D13*
X97550000Y-26000000D03*
X100450000Y-26000000D03*
X97550000Y-31000000D03*
X100450000Y-31000000D03*
D16*
X62471000Y-22803000D03*
X62471000Y-23803000D03*
X62471000Y-21803000D03*
X65271000Y-21803000D03*
X65271000Y-23803000D03*
X65271000Y-22803000D03*
D17*
X63871000Y-22803000D03*
D18*
X87944000Y-89415000D03*
D19*
X87944000Y-91955000D03*
X85404000Y-89415000D03*
X85404000Y-91955000D03*
X82864000Y-89415000D03*
X82864000Y-91955000D03*
X80324000Y-89415000D03*
X80324000Y-91955000D03*
X77784000Y-89415000D03*
X77784000Y-91955000D03*
X75244000Y-89415000D03*
X75244000Y-91955000D03*
X72704000Y-89415000D03*
X72704000Y-91955000D03*
X70164000Y-89415000D03*
X70164000Y-91955000D03*
X67624000Y-89415000D03*
X67624000Y-91955000D03*
X65084000Y-89415000D03*
X65084000Y-91955000D03*
X62544000Y-89415000D03*
X62544000Y-91955000D03*
X60004000Y-89415000D03*
X60004000Y-91955000D03*
X57464000Y-89415000D03*
X57464000Y-91955000D03*
X54924000Y-89415000D03*
X54924000Y-91955000D03*
X52384000Y-89415000D03*
X52384000Y-91955000D03*
X49844000Y-89415000D03*
X49844000Y-91955000D03*
X47304000Y-89415000D03*
X47304000Y-91955000D03*
X44764000Y-89415000D03*
X44764000Y-91955000D03*
X42224000Y-89415000D03*
X42224000Y-91955000D03*
X39684000Y-89415000D03*
X39684000Y-91955000D03*
D20*
X37440000Y-83000000D03*
D21*
X39980000Y-83000000D03*
X42520000Y-83000000D03*
X45060000Y-83000000D03*
X47600000Y-83000000D03*
X50140000Y-83000000D03*
X52680000Y-83000000D03*
X55220000Y-83000000D03*
X57760000Y-83000000D03*
X60300000Y-83000000D03*
X62840000Y-83000000D03*
X65380000Y-83000000D03*
X67920000Y-83000000D03*
X70460000Y-83000000D03*
X73000000Y-83000000D03*
X75540000Y-83000000D03*
X78080000Y-83000000D03*
X80620000Y-83000000D03*
X83160000Y-83000000D03*
X85700000Y-83000000D03*
D20*
X39740000Y-21700000D03*
D21*
X42480000Y-21700000D03*
X45020000Y-21700000D03*
D20*
X83140000Y-21700000D03*
D21*
X85680000Y-21700000D03*
X88220000Y-21700000D03*
D22*
X104650000Y-26000000D03*
X107350000Y-26000000D03*
X107350000Y-31000000D03*
X104650000Y-31000000D03*
D23*
X85000000Y-100840000D03*
X85000000Y-103380000D03*
X85000000Y-105920000D03*
X85000000Y-108460000D03*
D24*
X85000000Y-111000000D03*
D25*
X39000000Y-108000000D03*
D26*
X39000000Y-111500000D03*
D27*
X46000000Y-105000000D03*
X43000000Y-100300000D03*
X49000000Y-100300000D03*
D23*
X75000000Y-103920000D03*
X75000000Y-106460000D03*
D24*
X75000000Y-109000000D03*
D28*
X53500000Y-102139500D03*
X53500000Y-97860500D03*
D29*
X59000000Y-108000000D03*
X52200000Y-108000000D03*
D23*
X105000000Y-80160000D03*
X105000000Y-77620000D03*
X105000000Y-75080000D03*
X105000000Y-72540000D03*
D24*
X105000000Y-70000000D03*
D29*
X58500000Y-100250000D03*
X65300000Y-100250000D03*
M02*
