M48
INCH,TZ
T1C0.0157
T2C0.0236
T3C0.0315
T4C0.0354
T5C0.0394
T6C0.0472
T7C0.1161
%
G90
G05
T1
X24803Y-33563
X24803Y-34055
X30906Y-38091
X32087Y-38091
T2
X24850Y-11600
X24900Y-9950
X25886Y-11319
X28100Y-34400
X34450Y-22300
X35500Y-14750
X35550Y-15194
X36100Y-30800
X37900Y-31900
X38400Y-13200
X38900Y-13400
X41300Y-25600
T3
X13287Y-14665
X13780Y-21654
X13780Y-29528
X13780Y-37402
X17717Y-43307
X19685Y-33465
X19882Y-12894
X21654Y-43307
X23622Y-41339
X27500Y-41000
X29134Y-44291
X29528Y-9843
X29528Y-39370
X31496Y-33465
X31988Y-12894
X34449Y-23622
X35433Y-9843
X35433Y-31496
X37402Y-23622
X37402Y-19685
X37402Y-39370
X38091Y-28642
X39370Y-33465
X41339Y-15748
X41339Y-35433
T4
X14740Y-32677
X15646Y-8543
X15740Y-32677
X16724Y-8543
X16740Y-32677
X17724Y-8543
X17740Y-32677
X18740Y-32677
X19740Y-32677
X20740Y-32677
X21740Y-32677
X22740Y-32677
X23740Y-32677
X24740Y-32677
X25740Y-32677
X26740Y-32677
X27740Y-32677
X28740Y-32677
X29740Y-32677
X30740Y-32677
X31740Y-32677
X32732Y-8543
X32740Y-32677
X33732Y-8543
X33740Y-32677
X34732Y-8543
T5
X15624Y-35203
X15624Y-36203
X16624Y-35203
X16624Y-36203
X17624Y-35203
X17624Y-36203
X18624Y-35203
X18624Y-36203
X19624Y-35203
X19624Y-36203
X20624Y-35203
X20624Y-36203
X21624Y-35203
X21624Y-36203
X22624Y-35203
X22624Y-36203
X23624Y-35203
X23624Y-36203
X24624Y-35203
X24624Y-36203
X25624Y-35203
X25624Y-36203
X26624Y-35203
X26624Y-36203
X27624Y-35203
X27624Y-36203
X28624Y-35203
X28624Y-36203
X29624Y-35203
X29624Y-36203
X30624Y-35203
X30624Y-36203
X31624Y-35203
X31624Y-36203
X32624Y-35203
X32624Y-36203
X33624Y-35203
X33624Y-36203
X34624Y-35203
X34624Y-36203
X41339Y-27559
X41339Y-28559
X41339Y-29559
X41339Y-30559
X41339Y-31559
X29528Y-40913
X29528Y-41913
X29528Y-42913
X33465Y-39701
X33465Y-40701
X33465Y-41701
X33465Y-42701
X33465Y-43701
T6
X15354Y-42520
X15354Y-43898
T7
X36541Y-26648
X36541Y-35703
X36541Y-16411
X40058Y-7102
X13660Y-26648
X13706Y-16411
X13706Y-35703
X40058Y-37161
T5
X16929Y-39094G85X16929Y-39882
G05
X17717Y-41339G85X18504Y-41339
G05
X19291Y-39094G85X19291Y-39882
G05
T0
M30
