G04 #@! TF.GenerationSoftware,KiCad,Pcbnew,(5.0.0-rc2-dev-691-g31b026c)*
G04 #@! TF.CreationDate,2018-05-13T20:35:11+02:00*
G04 #@! TF.ProjectId,backplane,6261636B706C616E652E6B696361645F,v1.6*
G04 #@! TF.SameCoordinates,Original*
G04 #@! TF.FileFunction,Copper,L1,Top,Signal*
G04 #@! TF.FilePolarity,Positive*
%FSLAX46Y46*%
G04 Gerber Fmt 4.6, Leading zero omitted, Abs format (unit mm)*
G04 Created by KiCad (PCBNEW (5.0.0-rc2-dev-691-g31b026c)) date Sunday, 13. May 2018, 20:35:11*
%MOMM*%
%LPD*%
G01*
G04 APERTURE LIST*
%ADD10R,0.900000X1.700000*%
%ADD11R,1.000000X1.600000*%
%ADD12R,0.600000X0.400000*%
%ADD13R,1.500000X2.400000*%
%ADD14R,1.800000X1.800000*%
%ADD15O,1.800000X1.800000*%
%ADD16R,2.000000X2.000000*%
%ADD17C,2.000000*%
%ADD18R,1.500000X1.300000*%
%ADD19O,1.700000X1.700000*%
%ADD20R,1.700000X1.700000*%
%ADD21R,2.400000X2.400000*%
%ADD22C,2.400000*%
%ADD23R,3.500000X3.500000*%
%ADD24R,2.180000X2.120000*%
%ADD25R,2.500000X3.300000*%
%ADD26C,1.000000*%
%ADD27C,0.800000*%
%ADD28C,0.600000*%
%ADD29C,0.400000*%
%ADD30C,1.000000*%
%ADD31C,0.250000*%
%ADD32C,0.254000*%
G04 APERTURE END LIST*
D10*
X91006000Y-75184000D03*
X93906000Y-75184000D03*
X100330000Y-75184000D03*
X97430000Y-75184000D03*
D11*
X64640000Y-17644800D03*
X61640000Y-17644800D03*
D10*
X97550000Y-26000000D03*
X100450000Y-26000000D03*
X97550000Y-31000000D03*
X100450000Y-31000000D03*
D12*
X62471000Y-22803000D03*
X62471000Y-23803000D03*
X62471000Y-21803000D03*
X65271000Y-21803000D03*
X65271000Y-23803000D03*
X65271000Y-22803000D03*
D13*
X63871000Y-22803000D03*
D14*
X87944000Y-89415000D03*
D15*
X87944000Y-91955000D03*
X85404000Y-89415000D03*
X85404000Y-91955000D03*
X82864000Y-89415000D03*
X82864000Y-91955000D03*
X80324000Y-89415000D03*
X80324000Y-91955000D03*
X77784000Y-89415000D03*
X77784000Y-91955000D03*
X75244000Y-89415000D03*
X75244000Y-91955000D03*
X72704000Y-89415000D03*
X72704000Y-91955000D03*
X70164000Y-89415000D03*
X70164000Y-91955000D03*
X67624000Y-89415000D03*
X67624000Y-91955000D03*
X65084000Y-89415000D03*
X65084000Y-91955000D03*
X62544000Y-89415000D03*
X62544000Y-91955000D03*
X60004000Y-89415000D03*
X60004000Y-91955000D03*
X57464000Y-89415000D03*
X57464000Y-91955000D03*
X54924000Y-89415000D03*
X54924000Y-91955000D03*
X52384000Y-89415000D03*
X52384000Y-91955000D03*
X49844000Y-89415000D03*
X49844000Y-91955000D03*
X47304000Y-89415000D03*
X47304000Y-91955000D03*
X44764000Y-89415000D03*
X44764000Y-91955000D03*
X42224000Y-89415000D03*
X42224000Y-91955000D03*
X39684000Y-89415000D03*
X39684000Y-91955000D03*
D16*
X37440000Y-83000000D03*
D17*
X39980000Y-83000000D03*
X42520000Y-83000000D03*
X45060000Y-83000000D03*
X47600000Y-83000000D03*
X50140000Y-83000000D03*
X52680000Y-83000000D03*
X55220000Y-83000000D03*
X57760000Y-83000000D03*
X60300000Y-83000000D03*
X62840000Y-83000000D03*
X65380000Y-83000000D03*
X67920000Y-83000000D03*
X70460000Y-83000000D03*
X73000000Y-83000000D03*
X75540000Y-83000000D03*
X78080000Y-83000000D03*
X80620000Y-83000000D03*
X83160000Y-83000000D03*
X85700000Y-83000000D03*
D16*
X39740000Y-21700000D03*
D17*
X42480000Y-21700000D03*
X45020000Y-21700000D03*
D16*
X83140000Y-21700000D03*
D17*
X85680000Y-21700000D03*
X88220000Y-21700000D03*
D18*
X104650000Y-26000000D03*
X107350000Y-26000000D03*
X107350000Y-31000000D03*
X104650000Y-31000000D03*
D19*
X85000000Y-100840000D03*
X85000000Y-103380000D03*
X85000000Y-105920000D03*
X85000000Y-108460000D03*
D20*
X85000000Y-111000000D03*
D21*
X39000000Y-108000000D03*
D22*
X39000000Y-111500000D03*
D23*
X46000000Y-105000000D03*
X43000000Y-100300000D03*
X49000000Y-100300000D03*
D19*
X75000000Y-103920000D03*
X75000000Y-106460000D03*
D20*
X75000000Y-109000000D03*
D24*
X53500000Y-102139500D03*
X53500000Y-97860500D03*
D25*
X59000000Y-108000000D03*
X52200000Y-108000000D03*
D19*
X105000000Y-80160000D03*
X105000000Y-77620000D03*
X105000000Y-75080000D03*
X105000000Y-72540000D03*
D20*
X105000000Y-70000000D03*
D25*
X58500000Y-100250000D03*
X65300000Y-100250000D03*
D26*
X50500000Y-32750000D03*
X75000000Y-25000000D03*
X90000000Y-25000000D03*
X81250000Y-32750000D03*
X35000000Y-55000000D03*
X35000000Y-75000000D03*
X50000000Y-85000000D03*
X80000000Y-85000000D03*
X90000000Y-80000000D03*
X100000000Y-85000000D03*
X105000000Y-90000000D03*
X95000000Y-100000000D03*
X75000000Y-100000000D03*
X55000000Y-110000000D03*
X60000000Y-105000000D03*
X45000000Y-110000000D03*
X35000000Y-95000000D03*
X95000000Y-50000000D03*
X105000000Y-40000000D03*
D27*
X65750000Y-28750000D03*
D26*
X96750000Y-72750000D03*
X33750000Y-37250000D03*
X94999998Y-60000000D03*
X87500000Y-60000000D03*
D27*
X104902000Y-65024000D03*
X91694000Y-78232000D03*
X96266000Y-81026000D03*
X71374000Y-87376000D03*
X87502998Y-56642000D03*
X63118998Y-29464000D03*
X63246000Y-25273000D03*
D28*
X63000000Y-86500000D03*
X63000000Y-85250000D03*
D27*
X98806000Y-34036000D03*
X90296999Y-38592011D03*
X97536000Y-33528000D03*
X90170006Y-37465000D03*
D26*
X69850000Y-104140000D03*
X74000000Y-112500000D03*
D28*
X78500000Y-96750000D03*
X81500000Y-96750000D03*
D29*
X104650000Y-26000000D02*
X100450000Y-26000000D01*
X100450000Y-31000000D02*
X104650000Y-31000000D01*
X64640000Y-17944800D02*
X66548000Y-19852800D01*
D30*
X64640000Y-17644800D02*
X64640000Y-17944800D01*
D29*
X66031002Y-22803000D02*
X65371000Y-22803000D01*
X66548000Y-22286002D02*
X66031002Y-22803000D01*
X66548000Y-19852800D02*
X66548000Y-22286002D01*
X65371000Y-22803000D02*
X63871000Y-22803000D01*
X66548000Y-22286002D02*
X66548000Y-24892000D01*
X63881000Y-26881000D02*
X65750000Y-28750000D01*
X66548000Y-24892000D02*
X65151000Y-24892000D01*
X65151000Y-24892000D02*
X63881000Y-26162000D01*
X63881000Y-26162000D02*
X63881000Y-26881000D01*
D30*
X103797919Y-77620000D02*
X105000000Y-77620000D01*
X87944000Y-89415000D02*
X87944000Y-87515000D01*
D31*
X61640000Y-18694800D02*
X60960000Y-19374800D01*
X61640000Y-17644800D02*
X61640000Y-18694800D01*
X60960000Y-19374800D02*
X60960000Y-22352000D01*
X61411000Y-22803000D02*
X62371000Y-22803000D01*
X60960000Y-22352000D02*
X61411000Y-22803000D01*
X100330000Y-75184000D02*
X100330000Y-76284000D01*
X100330000Y-76284000D02*
X100330000Y-77620000D01*
D30*
X100330000Y-77620000D02*
X103797919Y-77620000D01*
X97839000Y-77620000D02*
X100330000Y-77620000D01*
D31*
X91006000Y-77544000D02*
X91694000Y-78232000D01*
X91006000Y-75184000D02*
X91006000Y-77544000D01*
X95866001Y-80427001D02*
X95449000Y-80010000D01*
X96266000Y-81026000D02*
X95866001Y-80626001D01*
D30*
X95449000Y-80010000D02*
X97839000Y-77620000D01*
D31*
X95866001Y-80626001D02*
X95866001Y-80427001D01*
D30*
X87944000Y-87515000D02*
X95449000Y-80010000D01*
D29*
X69663000Y-87376000D02*
X71374000Y-87376000D01*
X67624000Y-89415000D02*
X69663000Y-87376000D01*
D31*
X104902000Y-46902000D02*
X104902000Y-65024000D01*
X88988000Y-30988000D02*
X104902000Y-46902000D01*
X61468000Y-24511000D02*
X61920990Y-24963990D01*
X61920990Y-24963990D02*
X61920990Y-29535990D01*
X61468000Y-22860000D02*
X61468000Y-24511000D01*
X61525000Y-22803000D02*
X61468000Y-22860000D01*
X63373000Y-30988000D02*
X88988000Y-30988000D01*
X61920990Y-29535990D02*
X63373000Y-30988000D01*
X62371000Y-22803000D02*
X61525000Y-22803000D01*
D30*
X78670000Y-103920000D02*
X75000000Y-103920000D01*
X81280000Y-109130000D02*
X81280000Y-106530000D01*
X81280000Y-106530000D02*
X78670000Y-103920000D01*
X83150000Y-111000000D02*
X81280000Y-109130000D01*
X85000000Y-111000000D02*
X83150000Y-111000000D01*
X87502998Y-56076315D02*
X87502998Y-56642000D01*
X85711000Y-37211000D02*
X87502998Y-39002998D01*
X34750000Y-34500000D02*
X37461000Y-37211000D01*
X34750000Y-24250000D02*
X34750000Y-34500000D01*
X87502998Y-39002998D02*
X87502998Y-56076315D01*
X39740000Y-21700000D02*
X37300000Y-21700000D01*
X37461000Y-37211000D02*
X85711000Y-37211000D01*
X37300000Y-21700000D02*
X34750000Y-24250000D01*
D31*
X93906000Y-78052000D02*
X93906000Y-75184000D01*
X86360000Y-85598000D02*
X93906000Y-78052000D01*
X84074000Y-85598000D02*
X86360000Y-85598000D01*
X81638999Y-88033001D02*
X84074000Y-85598000D01*
X81638999Y-90003001D02*
X81638999Y-88033001D01*
X82275999Y-90640001D02*
X81638999Y-90003001D01*
X84178999Y-90640001D02*
X82275999Y-90640001D01*
X85404000Y-89415000D02*
X84178999Y-90640001D01*
X103900000Y-70000000D02*
X105000000Y-70000000D01*
X93906000Y-74084000D02*
X97990000Y-70000000D01*
X97990000Y-70000000D02*
X103900000Y-70000000D01*
X93906000Y-75184000D02*
X93906000Y-74084000D01*
X63811685Y-25273000D02*
X63246000Y-25273000D01*
X65371000Y-23803000D02*
X63901000Y-25273000D01*
X63901000Y-25273000D02*
X63811685Y-25273000D01*
X64007998Y-30353000D02*
X63518997Y-29863999D01*
X105000000Y-70000000D02*
X105000000Y-68900000D01*
X89603000Y-30353000D02*
X64007998Y-30353000D01*
X63518997Y-29863999D02*
X63118998Y-29464000D01*
X105750000Y-46500000D02*
X89603000Y-30353000D01*
X105750000Y-68150000D02*
X105750000Y-46500000D01*
X105000000Y-68900000D02*
X105750000Y-68150000D01*
X97430000Y-75584000D02*
X86654000Y-86360000D01*
X97430000Y-75184000D02*
X97430000Y-75584000D01*
X86654000Y-86360000D02*
X84328000Y-86360000D01*
X82864000Y-87824000D02*
X84328000Y-86360000D01*
X82864000Y-89415000D02*
X82864000Y-87824000D01*
X97430000Y-75184000D02*
X97430000Y-74020000D01*
X98910000Y-72540000D02*
X105000000Y-72540000D01*
X97430000Y-74020000D02*
X98910000Y-72540000D01*
X106750000Y-70790000D02*
X105849999Y-71690001D01*
X106750000Y-46250000D02*
X106750000Y-70790000D01*
X65056998Y-29808002D02*
X90308002Y-29808002D01*
X90308002Y-29808002D02*
X106750000Y-46250000D01*
X105849999Y-71690001D02*
X105000000Y-72540000D01*
X62500000Y-27251004D02*
X65056998Y-29808002D01*
X62500000Y-23932000D02*
X62500000Y-27251004D01*
X62371000Y-23803000D02*
X62500000Y-23932000D01*
X72000001Y-83999999D02*
X73000000Y-83000000D01*
X71000000Y-85000000D02*
X72000001Y-83999999D01*
X68000000Y-85000000D02*
X71000000Y-85000000D01*
X66250000Y-86500000D02*
X68000000Y-85000000D01*
X63000000Y-86500000D02*
X66250000Y-86500000D01*
X69460001Y-83999999D02*
X70460000Y-83000000D01*
X69134999Y-84325001D02*
X69460001Y-83999999D01*
X63924999Y-84325001D02*
X69134999Y-84325001D01*
X63000000Y-85250000D02*
X63924999Y-84325001D01*
X70841999Y-90640001D02*
X68859999Y-90640001D01*
X78080000Y-83000000D02*
X72890001Y-88189999D01*
X71478999Y-88826999D02*
X71478999Y-90003001D01*
X72115999Y-88189999D02*
X71478999Y-88826999D01*
X72890001Y-88189999D02*
X72115999Y-88189999D01*
X71478999Y-90003001D02*
X70841999Y-90640001D01*
X60903999Y-92854999D02*
X60004000Y-91955000D01*
X61229001Y-93180001D02*
X60903999Y-92854999D01*
X68212001Y-93180001D02*
X61229001Y-93180001D01*
X68859999Y-92532003D02*
X68212001Y-93180001D01*
X68859999Y-90640001D02*
X68859999Y-92532003D01*
D29*
X98806000Y-33470315D02*
X98806000Y-34036000D01*
X97550000Y-28335000D02*
X98806000Y-29591000D01*
X98806000Y-29591000D02*
X98806000Y-33470315D01*
X97550000Y-26000000D02*
X97550000Y-28335000D01*
X38350011Y-90621011D02*
X38350011Y-87626011D01*
X87500000Y-80000000D02*
X89250000Y-78250000D01*
X39684000Y-91955000D02*
X38350011Y-90621011D01*
X38350011Y-87626011D02*
X35398011Y-84674011D01*
X35398011Y-84674011D02*
X35398011Y-80351989D01*
X89250000Y-78250000D02*
X89250000Y-39639010D01*
X35750000Y-80000000D02*
X87500000Y-80000000D01*
X35398011Y-80351989D02*
X35750000Y-80000000D01*
X89897000Y-38992010D02*
X90296999Y-38592011D01*
X89250000Y-39639010D02*
X89897000Y-38992010D01*
X97550000Y-33514000D02*
X97536000Y-33528000D01*
X97550000Y-31000000D02*
X97550000Y-33514000D01*
X89770007Y-37864999D02*
X90170006Y-37465000D01*
X34798000Y-80103457D02*
X35651457Y-79250000D01*
X88500000Y-39135006D02*
X89770007Y-37864999D01*
X34798000Y-85090000D02*
X34798000Y-80103457D01*
X37750000Y-88042000D02*
X34798000Y-85090000D01*
X40199000Y-93980000D02*
X38100000Y-93980000D01*
X42224000Y-91955000D02*
X40199000Y-93980000D01*
X88500000Y-77870000D02*
X88500000Y-39135006D01*
X38100000Y-93980000D02*
X37750000Y-93630000D01*
X35651457Y-79250000D02*
X87120000Y-79250000D01*
X37750000Y-93630000D02*
X37750000Y-88042000D01*
X87120000Y-79250000D02*
X88500000Y-77870000D01*
D30*
X65960000Y-100250000D02*
X69850000Y-104140000D01*
X65300000Y-100250000D02*
X65960000Y-100250000D01*
X74000000Y-110000000D02*
X75000000Y-109000000D01*
X74000000Y-112500000D02*
X74000000Y-110000000D01*
D31*
X78799999Y-96450001D02*
X81450001Y-96450001D01*
X78500000Y-96750000D02*
X78799999Y-96450001D01*
X81500000Y-96500000D02*
X81500000Y-96750000D01*
X81450001Y-96450001D02*
X81500000Y-96500000D01*
D30*
X49000000Y-100300000D02*
X49500000Y-100300000D01*
X51339500Y-102139500D02*
X53500000Y-102139500D01*
X49500000Y-100300000D02*
X51339500Y-102139500D01*
X40697056Y-111500000D02*
X39000000Y-111500000D01*
X51350000Y-111500000D02*
X40697056Y-111500000D01*
X52200000Y-110650000D02*
X51350000Y-111500000D01*
X52200000Y-108000000D02*
X52200000Y-110650000D01*
X53500000Y-106700000D02*
X52200000Y-108000000D01*
X53500000Y-102139500D02*
X53500000Y-106700000D01*
X56610500Y-102139500D02*
X58500000Y-100250000D01*
X53500000Y-102139500D02*
X56610500Y-102139500D01*
D32*
G36*
X110290000Y-113290000D02*
X74837191Y-113290000D01*
X74881609Y-113223524D01*
X74962207Y-113142926D01*
X75005826Y-113037620D01*
X75069146Y-112942855D01*
X75091381Y-112831072D01*
X75135000Y-112725766D01*
X75135000Y-110497440D01*
X75850000Y-110497440D01*
X76097765Y-110448157D01*
X76307809Y-110307809D01*
X76448157Y-110097765D01*
X76497440Y-109850000D01*
X76497440Y-108150000D01*
X76448157Y-107902235D01*
X76307809Y-107692191D01*
X76097765Y-107551843D01*
X75994292Y-107531261D01*
X76271645Y-107226924D01*
X76441476Y-106816890D01*
X76320155Y-106587000D01*
X75127000Y-106587000D01*
X75127000Y-106607000D01*
X74873000Y-106607000D01*
X74873000Y-106587000D01*
X73679845Y-106587000D01*
X73558524Y-106816890D01*
X73728355Y-107226924D01*
X74005708Y-107531261D01*
X73902235Y-107551843D01*
X73692191Y-107692191D01*
X73551843Y-107902235D01*
X73502560Y-108150000D01*
X73502560Y-108892308D01*
X73276479Y-109118390D01*
X73181712Y-109181711D01*
X73085095Y-109326309D01*
X72930854Y-109557146D01*
X72842765Y-110000000D01*
X72865001Y-110111788D01*
X72865000Y-112274234D01*
X72865000Y-112725766D01*
X72908619Y-112831073D01*
X72930854Y-112942854D01*
X72994173Y-113037618D01*
X73037793Y-113142926D01*
X73118392Y-113223525D01*
X73162809Y-113290000D01*
X39473644Y-113290000D01*
X40039444Y-113055638D01*
X40460082Y-112635000D01*
X51238217Y-112635000D01*
X51350000Y-112657235D01*
X51461783Y-112635000D01*
X51792855Y-112569146D01*
X52168289Y-112318289D01*
X52231612Y-112223519D01*
X52923523Y-111531609D01*
X53018289Y-111468289D01*
X53269146Y-111092855D01*
X53335000Y-110761783D01*
X53357235Y-110650000D01*
X53335000Y-110538217D01*
X53335000Y-110297440D01*
X53450000Y-110297440D01*
X53697765Y-110248157D01*
X53907809Y-110107809D01*
X54048157Y-109897765D01*
X54097440Y-109650000D01*
X54097440Y-108285750D01*
X57115000Y-108285750D01*
X57115000Y-109776309D01*
X57211673Y-110009698D01*
X57390301Y-110188327D01*
X57623690Y-110285000D01*
X58714250Y-110285000D01*
X58873000Y-110126250D01*
X58873000Y-108127000D01*
X59127000Y-108127000D01*
X59127000Y-110126250D01*
X59285750Y-110285000D01*
X60376310Y-110285000D01*
X60609699Y-110188327D01*
X60788327Y-110009698D01*
X60885000Y-109776309D01*
X60885000Y-108285750D01*
X60726250Y-108127000D01*
X59127000Y-108127000D01*
X58873000Y-108127000D01*
X57273750Y-108127000D01*
X57115000Y-108285750D01*
X54097440Y-108285750D01*
X54097440Y-107707692D01*
X54223521Y-107581611D01*
X54318289Y-107518289D01*
X54569146Y-107142855D01*
X54635000Y-106811783D01*
X54657235Y-106700000D01*
X54635000Y-106588217D01*
X54635000Y-106223691D01*
X57115000Y-106223691D01*
X57115000Y-107714250D01*
X57273750Y-107873000D01*
X58873000Y-107873000D01*
X58873000Y-105873750D01*
X59127000Y-105873750D01*
X59127000Y-107873000D01*
X60726250Y-107873000D01*
X60885000Y-107714250D01*
X60885000Y-106223691D01*
X60788327Y-105990302D01*
X60609699Y-105811673D01*
X60376310Y-105715000D01*
X59285750Y-105715000D01*
X59127000Y-105873750D01*
X58873000Y-105873750D01*
X58714250Y-105715000D01*
X57623690Y-105715000D01*
X57390301Y-105811673D01*
X57211673Y-105990302D01*
X57115000Y-106223691D01*
X54635000Y-106223691D01*
X54635000Y-103837989D01*
X54837765Y-103797657D01*
X55047809Y-103657309D01*
X55188157Y-103447265D01*
X55222522Y-103274500D01*
X56498717Y-103274500D01*
X56610500Y-103296735D01*
X56722283Y-103274500D01*
X57053355Y-103208646D01*
X57428789Y-102957789D01*
X57492113Y-102863019D01*
X57807691Y-102547440D01*
X59750000Y-102547440D01*
X59997765Y-102498157D01*
X60207809Y-102357809D01*
X60348157Y-102147765D01*
X60397440Y-101900000D01*
X60397440Y-98600000D01*
X63402560Y-98600000D01*
X63402560Y-101900000D01*
X63451843Y-102147765D01*
X63592191Y-102357809D01*
X63802235Y-102498157D01*
X64050000Y-102547440D01*
X66550000Y-102547440D01*
X66635335Y-102530466D01*
X68887792Y-104782924D01*
X68887793Y-104782926D01*
X69207074Y-105102207D01*
X69312381Y-105145827D01*
X69407145Y-105209146D01*
X69518928Y-105231381D01*
X69624234Y-105275000D01*
X69738217Y-105275000D01*
X69850000Y-105297235D01*
X69961783Y-105275000D01*
X70075766Y-105275000D01*
X70181073Y-105231381D01*
X70292854Y-105209146D01*
X70387616Y-105145828D01*
X70492926Y-105102207D01*
X70573528Y-105021605D01*
X70668288Y-104958288D01*
X70731605Y-104863528D01*
X70812207Y-104782926D01*
X70855828Y-104677616D01*
X70919146Y-104582854D01*
X70941381Y-104471073D01*
X70985000Y-104365766D01*
X70985000Y-104251783D01*
X71007235Y-104140000D01*
X70985000Y-104028217D01*
X70985000Y-103920000D01*
X73485908Y-103920000D01*
X73601161Y-104499418D01*
X73929375Y-104990625D01*
X74248478Y-105203843D01*
X74118642Y-105264817D01*
X73728355Y-105693076D01*
X73558524Y-106103110D01*
X73679845Y-106333000D01*
X74873000Y-106333000D01*
X74873000Y-106313000D01*
X75127000Y-106313000D01*
X75127000Y-106333000D01*
X76320155Y-106333000D01*
X76441476Y-106103110D01*
X76271645Y-105693076D01*
X75881358Y-105264817D01*
X75751522Y-105203843D01*
X75974281Y-105055000D01*
X78199869Y-105055000D01*
X80145001Y-107000133D01*
X80145000Y-109018217D01*
X80122765Y-109130000D01*
X80145000Y-109241782D01*
X80210854Y-109572854D01*
X80461711Y-109948289D01*
X80556482Y-110011613D01*
X82268389Y-111723521D01*
X82331711Y-111818289D01*
X82707145Y-112069146D01*
X83038217Y-112135000D01*
X83149999Y-112157235D01*
X83261781Y-112135000D01*
X83576723Y-112135000D01*
X83692191Y-112307809D01*
X83902235Y-112448157D01*
X84150000Y-112497440D01*
X85850000Y-112497440D01*
X86097765Y-112448157D01*
X86307809Y-112307809D01*
X86448157Y-112097765D01*
X86497440Y-111850000D01*
X86497440Y-110150000D01*
X86448157Y-109902235D01*
X86307809Y-109692191D01*
X86097765Y-109551843D01*
X85994292Y-109531261D01*
X86271645Y-109226924D01*
X86441476Y-108816890D01*
X86320155Y-108587000D01*
X85127000Y-108587000D01*
X85127000Y-108607000D01*
X84873000Y-108607000D01*
X84873000Y-108587000D01*
X83679845Y-108587000D01*
X83558524Y-108816890D01*
X83728355Y-109226924D01*
X84005708Y-109531261D01*
X83902235Y-109551843D01*
X83692191Y-109692191D01*
X83594110Y-109838978D01*
X82415000Y-108659869D01*
X82415000Y-106641781D01*
X82437235Y-106529999D01*
X82396209Y-106323750D01*
X82349146Y-106087145D01*
X82098289Y-105711711D01*
X82003521Y-105648389D01*
X79551613Y-103196482D01*
X79488289Y-103101711D01*
X79112855Y-102850854D01*
X78781783Y-102785000D01*
X78670000Y-102762765D01*
X78558217Y-102785000D01*
X75974281Y-102785000D01*
X75579418Y-102521161D01*
X75146256Y-102435000D01*
X74853744Y-102435000D01*
X74420582Y-102521161D01*
X73929375Y-102849375D01*
X73601161Y-103340582D01*
X73485908Y-103920000D01*
X70985000Y-103920000D01*
X70985000Y-103914234D01*
X70941381Y-103808928D01*
X70919146Y-103697145D01*
X70855827Y-103602381D01*
X70812207Y-103497074D01*
X70492926Y-103177793D01*
X70492924Y-103177792D01*
X68155132Y-100840000D01*
X83485908Y-100840000D01*
X83601161Y-101419418D01*
X83929375Y-101910625D01*
X84227761Y-102110000D01*
X83929375Y-102309375D01*
X83601161Y-102800582D01*
X83485908Y-103380000D01*
X83601161Y-103959418D01*
X83929375Y-104450625D01*
X84227761Y-104650000D01*
X83929375Y-104849375D01*
X83601161Y-105340582D01*
X83485908Y-105920000D01*
X83601161Y-106499418D01*
X83929375Y-106990625D01*
X84248478Y-107203843D01*
X84118642Y-107264817D01*
X83728355Y-107693076D01*
X83558524Y-108103110D01*
X83679845Y-108333000D01*
X84873000Y-108333000D01*
X84873000Y-108313000D01*
X85127000Y-108313000D01*
X85127000Y-108333000D01*
X86320155Y-108333000D01*
X86441476Y-108103110D01*
X86271645Y-107693076D01*
X85881358Y-107264817D01*
X85751522Y-107203843D01*
X86070625Y-106990625D01*
X86398839Y-106499418D01*
X86514092Y-105920000D01*
X86398839Y-105340582D01*
X86070625Y-104849375D01*
X85772239Y-104650000D01*
X86070625Y-104450625D01*
X86398839Y-103959418D01*
X86514092Y-103380000D01*
X86398839Y-102800582D01*
X86070625Y-102309375D01*
X85772239Y-102110000D01*
X86070625Y-101910625D01*
X86398839Y-101419418D01*
X86514092Y-100840000D01*
X86398839Y-100260582D01*
X86070625Y-99769375D01*
X85579418Y-99441161D01*
X85146256Y-99355000D01*
X84853744Y-99355000D01*
X84420582Y-99441161D01*
X83929375Y-99769375D01*
X83601161Y-100260582D01*
X83485908Y-100840000D01*
X68155132Y-100840000D01*
X67197440Y-99882309D01*
X67197440Y-98600000D01*
X67148157Y-98352235D01*
X67007809Y-98142191D01*
X66797765Y-98001843D01*
X66550000Y-97952560D01*
X64050000Y-97952560D01*
X63802235Y-98001843D01*
X63592191Y-98142191D01*
X63451843Y-98352235D01*
X63402560Y-98600000D01*
X60397440Y-98600000D01*
X60348157Y-98352235D01*
X60207809Y-98142191D01*
X59997765Y-98001843D01*
X59750000Y-97952560D01*
X57250000Y-97952560D01*
X57002235Y-98001843D01*
X56792191Y-98142191D01*
X56651843Y-98352235D01*
X56602560Y-98600000D01*
X56602560Y-100542308D01*
X56140369Y-101004500D01*
X55222522Y-101004500D01*
X55188157Y-100831735D01*
X55047809Y-100621691D01*
X54837765Y-100481343D01*
X54590000Y-100432060D01*
X52410000Y-100432060D01*
X52162235Y-100481343D01*
X51952191Y-100621691D01*
X51811843Y-100831735D01*
X51782813Y-100977681D01*
X51397440Y-100592308D01*
X51397440Y-98550000D01*
X51348157Y-98302235D01*
X51243931Y-98146250D01*
X51775000Y-98146250D01*
X51775000Y-99046809D01*
X51871673Y-99280198D01*
X52050301Y-99458827D01*
X52283690Y-99555500D01*
X53214250Y-99555500D01*
X53373000Y-99396750D01*
X53373000Y-97987500D01*
X53627000Y-97987500D01*
X53627000Y-99396750D01*
X53785750Y-99555500D01*
X54716310Y-99555500D01*
X54949699Y-99458827D01*
X55128327Y-99280198D01*
X55225000Y-99046809D01*
X55225000Y-98146250D01*
X55066250Y-97987500D01*
X53627000Y-97987500D01*
X53373000Y-97987500D01*
X51933750Y-97987500D01*
X51775000Y-98146250D01*
X51243931Y-98146250D01*
X51207809Y-98092191D01*
X50997765Y-97951843D01*
X50750000Y-97902560D01*
X47250000Y-97902560D01*
X47002235Y-97951843D01*
X46792191Y-98092191D01*
X46651843Y-98302235D01*
X46602560Y-98550000D01*
X46602560Y-102050000D01*
X46651843Y-102297765D01*
X46792191Y-102507809D01*
X46952612Y-102615000D01*
X46285750Y-102615000D01*
X46127000Y-102773750D01*
X46127000Y-104873000D01*
X48226250Y-104873000D01*
X48385000Y-104714250D01*
X48385000Y-103123690D01*
X48288327Y-102890301D01*
X48109698Y-102711673D01*
X48075337Y-102697440D01*
X50292308Y-102697440D01*
X50457889Y-102863021D01*
X50521211Y-102957789D01*
X50850470Y-103177793D01*
X50896645Y-103208646D01*
X51339500Y-103296735D01*
X51451283Y-103274500D01*
X51777478Y-103274500D01*
X51811843Y-103447265D01*
X51952191Y-103657309D01*
X52162235Y-103797657D01*
X52365000Y-103837989D01*
X52365001Y-105702560D01*
X50950000Y-105702560D01*
X50702235Y-105751843D01*
X50492191Y-105892191D01*
X50351843Y-106102235D01*
X50302560Y-106350000D01*
X50302560Y-109650000D01*
X50351843Y-109897765D01*
X50492191Y-110107809D01*
X50702235Y-110248157D01*
X50947855Y-110297013D01*
X50879868Y-110365000D01*
X40460082Y-110365000D01*
X40039444Y-109944362D01*
X39775421Y-109835000D01*
X40326310Y-109835000D01*
X40559699Y-109738327D01*
X40738327Y-109559698D01*
X40835000Y-109326309D01*
X40835000Y-108285750D01*
X40676250Y-108127000D01*
X39127000Y-108127000D01*
X39127000Y-108147000D01*
X38873000Y-108147000D01*
X38873000Y-108127000D01*
X37323750Y-108127000D01*
X37165000Y-108285750D01*
X37165000Y-109326309D01*
X37261673Y-109559698D01*
X37440301Y-109738327D01*
X37673690Y-109835000D01*
X38224579Y-109835000D01*
X37960556Y-109944362D01*
X37444362Y-110460556D01*
X37165000Y-111134996D01*
X37165000Y-111865004D01*
X37444362Y-112539444D01*
X37960556Y-113055638D01*
X38526356Y-113290000D01*
X31710000Y-113290000D01*
X31710000Y-106673691D01*
X37165000Y-106673691D01*
X37165000Y-107714250D01*
X37323750Y-107873000D01*
X38873000Y-107873000D01*
X38873000Y-106323750D01*
X39127000Y-106323750D01*
X39127000Y-107873000D01*
X40676250Y-107873000D01*
X40835000Y-107714250D01*
X40835000Y-106673691D01*
X40738327Y-106440302D01*
X40559699Y-106261673D01*
X40326310Y-106165000D01*
X39285750Y-106165000D01*
X39127000Y-106323750D01*
X38873000Y-106323750D01*
X38714250Y-106165000D01*
X37673690Y-106165000D01*
X37440301Y-106261673D01*
X37261673Y-106440302D01*
X37165000Y-106673691D01*
X31710000Y-106673691D01*
X31710000Y-105285750D01*
X43615000Y-105285750D01*
X43615000Y-106876310D01*
X43711673Y-107109699D01*
X43890302Y-107288327D01*
X44123691Y-107385000D01*
X45714250Y-107385000D01*
X45873000Y-107226250D01*
X45873000Y-105127000D01*
X46127000Y-105127000D01*
X46127000Y-107226250D01*
X46285750Y-107385000D01*
X47876309Y-107385000D01*
X48109698Y-107288327D01*
X48288327Y-107109699D01*
X48385000Y-106876310D01*
X48385000Y-105285750D01*
X48226250Y-105127000D01*
X46127000Y-105127000D01*
X45873000Y-105127000D01*
X43773750Y-105127000D01*
X43615000Y-105285750D01*
X31710000Y-105285750D01*
X31710000Y-100585750D01*
X40615000Y-100585750D01*
X40615000Y-102176310D01*
X40711673Y-102409699D01*
X40890302Y-102588327D01*
X41123691Y-102685000D01*
X42714250Y-102685000D01*
X42873000Y-102526250D01*
X42873000Y-100427000D01*
X43127000Y-100427000D01*
X43127000Y-102526250D01*
X43285750Y-102685000D01*
X43954696Y-102685000D01*
X43890302Y-102711673D01*
X43711673Y-102890301D01*
X43615000Y-103123690D01*
X43615000Y-104714250D01*
X43773750Y-104873000D01*
X45873000Y-104873000D01*
X45873000Y-102773750D01*
X45714250Y-102615000D01*
X45045304Y-102615000D01*
X45109698Y-102588327D01*
X45288327Y-102409699D01*
X45385000Y-102176310D01*
X45385000Y-100585750D01*
X45226250Y-100427000D01*
X43127000Y-100427000D01*
X42873000Y-100427000D01*
X40773750Y-100427000D01*
X40615000Y-100585750D01*
X31710000Y-100585750D01*
X31710000Y-98423690D01*
X40615000Y-98423690D01*
X40615000Y-100014250D01*
X40773750Y-100173000D01*
X42873000Y-100173000D01*
X42873000Y-98073750D01*
X43127000Y-98073750D01*
X43127000Y-100173000D01*
X45226250Y-100173000D01*
X45385000Y-100014250D01*
X45385000Y-98423690D01*
X45288327Y-98190301D01*
X45109698Y-98011673D01*
X44876309Y-97915000D01*
X43285750Y-97915000D01*
X43127000Y-98073750D01*
X42873000Y-98073750D01*
X42714250Y-97915000D01*
X41123691Y-97915000D01*
X40890302Y-98011673D01*
X40711673Y-98190301D01*
X40615000Y-98423690D01*
X31710000Y-98423690D01*
X31710000Y-96674191D01*
X51775000Y-96674191D01*
X51775000Y-97574750D01*
X51933750Y-97733500D01*
X53373000Y-97733500D01*
X53373000Y-96324250D01*
X53627000Y-96324250D01*
X53627000Y-97733500D01*
X55066250Y-97733500D01*
X55225000Y-97574750D01*
X55225000Y-96674191D01*
X55179365Y-96564017D01*
X77565000Y-96564017D01*
X77565000Y-96935983D01*
X77707345Y-97279635D01*
X77970365Y-97542655D01*
X78314017Y-97685000D01*
X78685983Y-97685000D01*
X79029635Y-97542655D01*
X79292655Y-97279635D01*
X79321498Y-97210001D01*
X80678502Y-97210001D01*
X80707345Y-97279635D01*
X80970365Y-97542655D01*
X81314017Y-97685000D01*
X81685983Y-97685000D01*
X82029635Y-97542655D01*
X82292655Y-97279635D01*
X82435000Y-96935983D01*
X82435000Y-96564017D01*
X82292655Y-96220365D01*
X82095387Y-96023097D01*
X82047929Y-95952071D01*
X82017957Y-95932044D01*
X81997930Y-95902072D01*
X81746538Y-95734097D01*
X81524853Y-95690001D01*
X81524848Y-95690001D01*
X81450001Y-95675113D01*
X81375154Y-95690001D01*
X78874847Y-95690001D01*
X78799999Y-95675113D01*
X78725151Y-95690001D01*
X78725147Y-95690001D01*
X78551604Y-95724521D01*
X78503461Y-95734097D01*
X78428633Y-95784096D01*
X78382382Y-95815000D01*
X78314017Y-95815000D01*
X77970365Y-95957345D01*
X77707345Y-96220365D01*
X77565000Y-96564017D01*
X55179365Y-96564017D01*
X55128327Y-96440802D01*
X54949699Y-96262173D01*
X54716310Y-96165500D01*
X53785750Y-96165500D01*
X53627000Y-96324250D01*
X53373000Y-96324250D01*
X53214250Y-96165500D01*
X52283690Y-96165500D01*
X52050301Y-96262173D01*
X51871673Y-96440802D01*
X51775000Y-96674191D01*
X31710000Y-96674191D01*
X31710000Y-90265295D01*
X32704000Y-90265295D01*
X32704000Y-91104705D01*
X33025229Y-91880219D01*
X33618781Y-92473771D01*
X34394295Y-92795000D01*
X35233705Y-92795000D01*
X36009219Y-92473771D01*
X36602771Y-91880219D01*
X36915000Y-91126432D01*
X36915000Y-93547767D01*
X36898643Y-93630000D01*
X36915000Y-93712233D01*
X36915000Y-93712236D01*
X36963448Y-93955800D01*
X37147999Y-94232001D01*
X37217720Y-94278587D01*
X37451413Y-94512280D01*
X37497999Y-94582001D01*
X37774199Y-94766552D01*
X38017763Y-94815000D01*
X38100000Y-94831358D01*
X38182237Y-94815000D01*
X40116767Y-94815000D01*
X40199000Y-94831357D01*
X40281233Y-94815000D01*
X40281237Y-94815000D01*
X40524801Y-94766552D01*
X40801001Y-94582001D01*
X40847587Y-94512280D01*
X41389572Y-93970295D01*
X99637000Y-93970295D01*
X99637000Y-94809705D01*
X99958229Y-95585219D01*
X100551781Y-96178771D01*
X101327295Y-96500000D01*
X102166705Y-96500000D01*
X102942219Y-96178771D01*
X103535771Y-95585219D01*
X103857000Y-94809705D01*
X103857000Y-93970295D01*
X103535771Y-93194781D01*
X102942219Y-92601229D01*
X102166705Y-92280000D01*
X101327295Y-92280000D01*
X100551781Y-92601229D01*
X99958229Y-93194781D01*
X99637000Y-93970295D01*
X41389572Y-93970295D01*
X41903540Y-93456328D01*
X42072818Y-93490000D01*
X42375182Y-93490000D01*
X42822927Y-93400938D01*
X43330673Y-93061673D01*
X43494000Y-92817237D01*
X43657327Y-93061673D01*
X44165073Y-93400938D01*
X44612818Y-93490000D01*
X44915182Y-93490000D01*
X45362927Y-93400938D01*
X45870673Y-93061673D01*
X46040418Y-92807632D01*
X46066034Y-92862576D01*
X46507583Y-93267240D01*
X46939260Y-93446036D01*
X47177000Y-93325378D01*
X47177000Y-92082000D01*
X47157000Y-92082000D01*
X47157000Y-91828000D01*
X47177000Y-91828000D01*
X47177000Y-91808000D01*
X47431000Y-91808000D01*
X47431000Y-91828000D01*
X47451000Y-91828000D01*
X47451000Y-92082000D01*
X47431000Y-92082000D01*
X47431000Y-93325378D01*
X47668740Y-93446036D01*
X48100417Y-93267240D01*
X48541966Y-92862576D01*
X48567582Y-92807632D01*
X48737327Y-93061673D01*
X49245073Y-93400938D01*
X49692818Y-93490000D01*
X49995182Y-93490000D01*
X50442927Y-93400938D01*
X50950673Y-93061673D01*
X51120418Y-92807632D01*
X51146034Y-92862576D01*
X51587583Y-93267240D01*
X52019260Y-93446036D01*
X52257000Y-93325378D01*
X52257000Y-92082000D01*
X52237000Y-92082000D01*
X52237000Y-91828000D01*
X52257000Y-91828000D01*
X52257000Y-91808000D01*
X52511000Y-91808000D01*
X52511000Y-91828000D01*
X52531000Y-91828000D01*
X52531000Y-92082000D01*
X52511000Y-92082000D01*
X52511000Y-93325378D01*
X52748740Y-93446036D01*
X53180417Y-93267240D01*
X53621966Y-92862576D01*
X53647582Y-92807632D01*
X53817327Y-93061673D01*
X54325073Y-93400938D01*
X54772818Y-93490000D01*
X55075182Y-93490000D01*
X55522927Y-93400938D01*
X56030673Y-93061673D01*
X56194000Y-92817237D01*
X56357327Y-93061673D01*
X56865073Y-93400938D01*
X57312818Y-93490000D01*
X57615182Y-93490000D01*
X58062927Y-93400938D01*
X58570673Y-93061673D01*
X58734000Y-92817237D01*
X58897327Y-93061673D01*
X59405073Y-93400938D01*
X59852818Y-93490000D01*
X60155182Y-93490000D01*
X60412929Y-93438731D01*
X60419526Y-93445328D01*
X60419529Y-93445330D01*
X60638670Y-93664471D01*
X60681072Y-93727930D01*
X60932464Y-93895905D01*
X61154149Y-93940001D01*
X61154153Y-93940001D01*
X61229000Y-93954889D01*
X61303847Y-93940001D01*
X68137154Y-93940001D01*
X68212001Y-93954889D01*
X68286848Y-93940001D01*
X68286853Y-93940001D01*
X68508538Y-93895905D01*
X68759930Y-93727930D01*
X68802332Y-93664471D01*
X69265820Y-93200984D01*
X69565073Y-93400938D01*
X70012818Y-93490000D01*
X70315182Y-93490000D01*
X70762927Y-93400938D01*
X71270673Y-93061673D01*
X71440418Y-92807632D01*
X71466034Y-92862576D01*
X71907583Y-93267240D01*
X72339260Y-93446036D01*
X72577000Y-93325378D01*
X72577000Y-92082000D01*
X72557000Y-92082000D01*
X72557000Y-91828000D01*
X72577000Y-91828000D01*
X72577000Y-91808000D01*
X72831000Y-91808000D01*
X72831000Y-91828000D01*
X72851000Y-91828000D01*
X72851000Y-92082000D01*
X72831000Y-92082000D01*
X72831000Y-93325378D01*
X73068740Y-93446036D01*
X73500417Y-93267240D01*
X73941966Y-92862576D01*
X73967582Y-92807632D01*
X74137327Y-93061673D01*
X74645073Y-93400938D01*
X75092818Y-93490000D01*
X75395182Y-93490000D01*
X75842927Y-93400938D01*
X76350673Y-93061673D01*
X76514000Y-92817237D01*
X76677327Y-93061673D01*
X77185073Y-93400938D01*
X77632818Y-93490000D01*
X77935182Y-93490000D01*
X78382927Y-93400938D01*
X78890673Y-93061673D01*
X79054000Y-92817237D01*
X79217327Y-93061673D01*
X79725073Y-93400938D01*
X80172818Y-93490000D01*
X80475182Y-93490000D01*
X80922927Y-93400938D01*
X81430673Y-93061673D01*
X81594000Y-92817237D01*
X81757327Y-93061673D01*
X82265073Y-93400938D01*
X82712818Y-93490000D01*
X83015182Y-93490000D01*
X83462927Y-93400938D01*
X83970673Y-93061673D01*
X84134000Y-92817237D01*
X84297327Y-93061673D01*
X84805073Y-93400938D01*
X85252818Y-93490000D01*
X85555182Y-93490000D01*
X86002927Y-93400938D01*
X86510673Y-93061673D01*
X86674000Y-92817237D01*
X86837327Y-93061673D01*
X87345073Y-93400938D01*
X87792818Y-93490000D01*
X88095182Y-93490000D01*
X88542927Y-93400938D01*
X89050673Y-93061673D01*
X89389938Y-92553927D01*
X89509072Y-91955000D01*
X89389938Y-91356073D01*
X89093304Y-90912129D01*
X89301809Y-90772809D01*
X89442157Y-90562765D01*
X89491440Y-90315000D01*
X89491440Y-90265295D01*
X90704000Y-90265295D01*
X90704000Y-91104705D01*
X91025229Y-91880219D01*
X91618781Y-92473771D01*
X92394295Y-92795000D01*
X93233705Y-92795000D01*
X94009219Y-92473771D01*
X94602771Y-91880219D01*
X94924000Y-91104705D01*
X94924000Y-90265295D01*
X94602771Y-89489781D01*
X94009219Y-88896229D01*
X93233705Y-88575000D01*
X92394295Y-88575000D01*
X91618781Y-88896229D01*
X91025229Y-89489781D01*
X90704000Y-90265295D01*
X89491440Y-90265295D01*
X89491440Y-88515000D01*
X89442157Y-88267235D01*
X89301809Y-88057191D01*
X89125049Y-87939083D01*
X95420210Y-81643921D01*
X95679720Y-81903431D01*
X96060126Y-82061000D01*
X96471874Y-82061000D01*
X96852280Y-81903431D01*
X97143431Y-81612280D01*
X97301000Y-81231874D01*
X97301000Y-80820126D01*
X97143431Y-80439720D01*
X96883921Y-80180210D01*
X98309132Y-78755000D01*
X104025719Y-78755000D01*
X104227761Y-78890000D01*
X103929375Y-79089375D01*
X103601161Y-79580582D01*
X103485908Y-80160000D01*
X103601161Y-80739418D01*
X103929375Y-81230625D01*
X104420582Y-81558839D01*
X104853744Y-81645000D01*
X105146256Y-81645000D01*
X105579418Y-81558839D01*
X106070625Y-81230625D01*
X106398839Y-80739418D01*
X106514092Y-80160000D01*
X106398839Y-79580582D01*
X106070625Y-79089375D01*
X105772239Y-78890000D01*
X106070625Y-78690625D01*
X106398839Y-78199418D01*
X106514092Y-77620000D01*
X106398839Y-77040582D01*
X106070625Y-76549375D01*
X105751522Y-76336157D01*
X105881358Y-76275183D01*
X106271645Y-75846924D01*
X106441476Y-75436890D01*
X106320155Y-75207000D01*
X105127000Y-75207000D01*
X105127000Y-75227000D01*
X104873000Y-75227000D01*
X104873000Y-75207000D01*
X103679845Y-75207000D01*
X103558524Y-75436890D01*
X103728355Y-75846924D01*
X104118642Y-76275183D01*
X104248478Y-76336157D01*
X104025719Y-76485000D01*
X101242359Y-76485000D01*
X101378157Y-76281765D01*
X101427440Y-76034000D01*
X101427440Y-74334000D01*
X101378157Y-74086235D01*
X101237809Y-73876191D01*
X101027765Y-73735843D01*
X100780000Y-73686560D01*
X99880000Y-73686560D01*
X99632235Y-73735843D01*
X99422191Y-73876191D01*
X99281843Y-74086235D01*
X99232560Y-74334000D01*
X99232560Y-76034000D01*
X99281843Y-76281765D01*
X99417641Y-76485000D01*
X98342359Y-76485000D01*
X98478157Y-76281765D01*
X98527440Y-76034000D01*
X98527440Y-74334000D01*
X98478157Y-74086235D01*
X98462299Y-74062502D01*
X99224802Y-73300000D01*
X103721822Y-73300000D01*
X103929375Y-73610625D01*
X104248478Y-73823843D01*
X104118642Y-73884817D01*
X103728355Y-74313076D01*
X103558524Y-74723110D01*
X103679845Y-74953000D01*
X104873000Y-74953000D01*
X104873000Y-74933000D01*
X105127000Y-74933000D01*
X105127000Y-74953000D01*
X106320155Y-74953000D01*
X106441476Y-74723110D01*
X106271645Y-74313076D01*
X105881358Y-73884817D01*
X105751522Y-73823843D01*
X106070625Y-73610625D01*
X106398839Y-73119418D01*
X106514092Y-72540000D01*
X106441209Y-72173592D01*
X107234473Y-71380329D01*
X107297929Y-71337929D01*
X107465904Y-71086537D01*
X107510000Y-70864852D01*
X107510000Y-70864848D01*
X107524888Y-70790000D01*
X107510000Y-70715152D01*
X107510000Y-46324848D01*
X107524888Y-46250000D01*
X107510000Y-46175152D01*
X107510000Y-46175148D01*
X107465904Y-45953463D01*
X107297929Y-45702071D01*
X107234473Y-45659671D01*
X90898333Y-29323532D01*
X90855931Y-29260073D01*
X90604539Y-29092098D01*
X90382854Y-29048002D01*
X90382849Y-29048002D01*
X90308002Y-29033114D01*
X90233155Y-29048002D01*
X65371800Y-29048002D01*
X64450798Y-28127000D01*
X69500000Y-28127000D01*
X69548601Y-28117333D01*
X69589803Y-28089803D01*
X69617333Y-28048601D01*
X69627000Y-28000000D01*
X69627000Y-25150000D01*
X96452560Y-25150000D01*
X96452560Y-26850000D01*
X96501843Y-27097765D01*
X96642191Y-27307809D01*
X96715001Y-27356459D01*
X96715001Y-28252762D01*
X96698643Y-28335000D01*
X96763448Y-28660800D01*
X96763449Y-28660801D01*
X96948000Y-28937001D01*
X97017718Y-28983585D01*
X97536693Y-29502560D01*
X97100000Y-29502560D01*
X96852235Y-29551843D01*
X96642191Y-29692191D01*
X96501843Y-29902235D01*
X96452560Y-30150000D01*
X96452560Y-31850000D01*
X96501843Y-32097765D01*
X96642191Y-32307809D01*
X96715001Y-32356459D01*
X96715001Y-32885288D01*
X96658569Y-32941720D01*
X96501000Y-33322126D01*
X96501000Y-33733874D01*
X96658569Y-34114280D01*
X96949720Y-34405431D01*
X97330126Y-34563000D01*
X97741874Y-34563000D01*
X97880270Y-34505675D01*
X97928569Y-34622280D01*
X98219720Y-34913431D01*
X98600126Y-35071000D01*
X99011874Y-35071000D01*
X99392280Y-34913431D01*
X99683431Y-34622280D01*
X99841000Y-34241874D01*
X99841000Y-33830126D01*
X99683431Y-33449720D01*
X99641000Y-33407289D01*
X99641000Y-32373832D01*
X99752235Y-32448157D01*
X100000000Y-32497440D01*
X100900000Y-32497440D01*
X101147765Y-32448157D01*
X101357809Y-32307809D01*
X101498157Y-32097765D01*
X101547440Y-31850000D01*
X101547440Y-31835000D01*
X103289358Y-31835000D01*
X103301843Y-31897765D01*
X103442191Y-32107809D01*
X103652235Y-32248157D01*
X103900000Y-32297440D01*
X105400000Y-32297440D01*
X105647765Y-32248157D01*
X105857809Y-32107809D01*
X105998157Y-31897765D01*
X106003721Y-31869791D01*
X106061673Y-32009699D01*
X106240302Y-32188327D01*
X106473691Y-32285000D01*
X107064250Y-32285000D01*
X107223000Y-32126250D01*
X107223000Y-31127000D01*
X107477000Y-31127000D01*
X107477000Y-32126250D01*
X107635750Y-32285000D01*
X108226309Y-32285000D01*
X108459698Y-32188327D01*
X108638327Y-32009699D01*
X108735000Y-31776310D01*
X108735000Y-31285750D01*
X108576250Y-31127000D01*
X107477000Y-31127000D01*
X107223000Y-31127000D01*
X107203000Y-31127000D01*
X107203000Y-30873000D01*
X107223000Y-30873000D01*
X107223000Y-29873750D01*
X107477000Y-29873750D01*
X107477000Y-30873000D01*
X108576250Y-30873000D01*
X108735000Y-30714250D01*
X108735000Y-30223690D01*
X108638327Y-29990301D01*
X108459698Y-29811673D01*
X108226309Y-29715000D01*
X107635750Y-29715000D01*
X107477000Y-29873750D01*
X107223000Y-29873750D01*
X107064250Y-29715000D01*
X106473691Y-29715000D01*
X106240302Y-29811673D01*
X106061673Y-29990301D01*
X106003721Y-30130209D01*
X105998157Y-30102235D01*
X105857809Y-29892191D01*
X105647765Y-29751843D01*
X105400000Y-29702560D01*
X103900000Y-29702560D01*
X103652235Y-29751843D01*
X103442191Y-29892191D01*
X103301843Y-30102235D01*
X103289358Y-30165000D01*
X101547440Y-30165000D01*
X101547440Y-30150000D01*
X101498157Y-29902235D01*
X101357809Y-29692191D01*
X101147765Y-29551843D01*
X100900000Y-29502560D01*
X100000000Y-29502560D01*
X99752235Y-29551843D01*
X99651796Y-29618954D01*
X99657357Y-29590999D01*
X99641000Y-29508764D01*
X99641000Y-29508763D01*
X99592552Y-29265199D01*
X99408001Y-28988999D01*
X99338283Y-28942415D01*
X98385000Y-27989133D01*
X98385000Y-27356459D01*
X98457809Y-27307809D01*
X98598157Y-27097765D01*
X98647440Y-26850000D01*
X98647440Y-25150000D01*
X99352560Y-25150000D01*
X99352560Y-26850000D01*
X99401843Y-27097765D01*
X99542191Y-27307809D01*
X99752235Y-27448157D01*
X100000000Y-27497440D01*
X100900000Y-27497440D01*
X101147765Y-27448157D01*
X101357809Y-27307809D01*
X101498157Y-27097765D01*
X101547440Y-26850000D01*
X101547440Y-26835000D01*
X103289358Y-26835000D01*
X103301843Y-26897765D01*
X103442191Y-27107809D01*
X103652235Y-27248157D01*
X103900000Y-27297440D01*
X105400000Y-27297440D01*
X105647765Y-27248157D01*
X105857809Y-27107809D01*
X105998157Y-26897765D01*
X106003721Y-26869791D01*
X106061673Y-27009699D01*
X106240302Y-27188327D01*
X106473691Y-27285000D01*
X107064250Y-27285000D01*
X107223000Y-27126250D01*
X107223000Y-26127000D01*
X107477000Y-26127000D01*
X107477000Y-27126250D01*
X107635750Y-27285000D01*
X108226309Y-27285000D01*
X108459698Y-27188327D01*
X108638327Y-27009699D01*
X108735000Y-26776310D01*
X108735000Y-26285750D01*
X108576250Y-26127000D01*
X107477000Y-26127000D01*
X107223000Y-26127000D01*
X107203000Y-26127000D01*
X107203000Y-25873000D01*
X107223000Y-25873000D01*
X107223000Y-24873750D01*
X107477000Y-24873750D01*
X107477000Y-25873000D01*
X108576250Y-25873000D01*
X108735000Y-25714250D01*
X108735000Y-25223690D01*
X108638327Y-24990301D01*
X108459698Y-24811673D01*
X108226309Y-24715000D01*
X107635750Y-24715000D01*
X107477000Y-24873750D01*
X107223000Y-24873750D01*
X107064250Y-24715000D01*
X106473691Y-24715000D01*
X106240302Y-24811673D01*
X106061673Y-24990301D01*
X106003721Y-25130209D01*
X105998157Y-25102235D01*
X105857809Y-24892191D01*
X105647765Y-24751843D01*
X105400000Y-24702560D01*
X103900000Y-24702560D01*
X103652235Y-24751843D01*
X103442191Y-24892191D01*
X103301843Y-25102235D01*
X103289358Y-25165000D01*
X101547440Y-25165000D01*
X101547440Y-25150000D01*
X101498157Y-24902235D01*
X101357809Y-24692191D01*
X101147765Y-24551843D01*
X100900000Y-24502560D01*
X100000000Y-24502560D01*
X99752235Y-24551843D01*
X99542191Y-24692191D01*
X99401843Y-24902235D01*
X99352560Y-25150000D01*
X98647440Y-25150000D01*
X98598157Y-24902235D01*
X98457809Y-24692191D01*
X98247765Y-24551843D01*
X98000000Y-24502560D01*
X97100000Y-24502560D01*
X96852235Y-24551843D01*
X96642191Y-24692191D01*
X96501843Y-24902235D01*
X96452560Y-25150000D01*
X69627000Y-25150000D01*
X69627000Y-21985750D01*
X81505000Y-21985750D01*
X81505000Y-22826310D01*
X81601673Y-23059699D01*
X81780302Y-23238327D01*
X82013691Y-23335000D01*
X82854250Y-23335000D01*
X83013000Y-23176250D01*
X83013000Y-21827000D01*
X81663750Y-21827000D01*
X81505000Y-21985750D01*
X69627000Y-21985750D01*
X69627000Y-20573690D01*
X81505000Y-20573690D01*
X81505000Y-21414250D01*
X81663750Y-21573000D01*
X83013000Y-21573000D01*
X83013000Y-20223750D01*
X83267000Y-20223750D01*
X83267000Y-21573000D01*
X83287000Y-21573000D01*
X83287000Y-21827000D01*
X83267000Y-21827000D01*
X83267000Y-23176250D01*
X83425750Y-23335000D01*
X84266309Y-23335000D01*
X84499698Y-23238327D01*
X84678327Y-23059699D01*
X84692718Y-23024957D01*
X84753847Y-23086086D01*
X85354778Y-23335000D01*
X86005222Y-23335000D01*
X86606153Y-23086086D01*
X86950000Y-22742239D01*
X87293847Y-23086086D01*
X87894778Y-23335000D01*
X88545222Y-23335000D01*
X89146153Y-23086086D01*
X89606086Y-22626153D01*
X89855000Y-22025222D01*
X89855000Y-21374778D01*
X89606086Y-20773847D01*
X89146153Y-20313914D01*
X88545222Y-20065000D01*
X87894778Y-20065000D01*
X87293847Y-20313914D01*
X86950000Y-20657761D01*
X86606153Y-20313914D01*
X86005222Y-20065000D01*
X85354778Y-20065000D01*
X84753847Y-20313914D01*
X84692718Y-20375043D01*
X84678327Y-20340301D01*
X84499698Y-20161673D01*
X84266309Y-20065000D01*
X83425750Y-20065000D01*
X83267000Y-20223750D01*
X83013000Y-20223750D01*
X82854250Y-20065000D01*
X82013691Y-20065000D01*
X81780302Y-20161673D01*
X81601673Y-20340301D01*
X81505000Y-20573690D01*
X69627000Y-20573690D01*
X69627000Y-17620295D01*
X99637000Y-17620295D01*
X99637000Y-18459705D01*
X99958229Y-19235219D01*
X100551781Y-19828771D01*
X101327295Y-20150000D01*
X102166705Y-20150000D01*
X102942219Y-19828771D01*
X103535771Y-19235219D01*
X103857000Y-18459705D01*
X103857000Y-17620295D01*
X103535771Y-16844781D01*
X102942219Y-16251229D01*
X102166705Y-15930000D01*
X101327295Y-15930000D01*
X100551781Y-16251229D01*
X99958229Y-16844781D01*
X99637000Y-17620295D01*
X69627000Y-17620295D01*
X69627000Y-15000000D01*
X69617333Y-14951399D01*
X69589803Y-14910197D01*
X69548601Y-14882667D01*
X69500000Y-14873000D01*
X68929501Y-14873000D01*
X68823926Y-14852000D01*
X68823925Y-14852000D01*
X68754000Y-14838091D01*
X68684074Y-14852000D01*
X65833074Y-14852000D01*
X65764491Y-14865642D01*
X65764486Y-14865642D01*
X65764482Y-14865644D01*
X65727499Y-14873000D01*
X60617501Y-14873000D01*
X60580518Y-14865644D01*
X60580514Y-14865642D01*
X60580509Y-14865642D01*
X60511926Y-14852000D01*
X57647926Y-14852000D01*
X57578000Y-14838091D01*
X57402500Y-14873000D01*
X57130200Y-14873000D01*
X57064525Y-14891300D01*
X57027926Y-14924707D01*
X56885326Y-15118407D01*
X56870220Y-15145213D01*
X56860600Y-15193823D01*
X56868000Y-22836472D01*
X56868000Y-27103074D01*
X56854091Y-27173000D01*
X56872288Y-27264481D01*
X56873000Y-28000123D01*
X56882967Y-28049318D01*
X56910749Y-28090351D01*
X56952119Y-28117628D01*
X57000778Y-28126998D01*
X61160991Y-28101521D01*
X61160991Y-29461138D01*
X61146102Y-29535990D01*
X61160991Y-29610842D01*
X61205087Y-29832527D01*
X61373062Y-30083919D01*
X61436518Y-30126319D01*
X62782670Y-31472472D01*
X62825071Y-31535929D01*
X63076463Y-31703904D01*
X63298148Y-31748000D01*
X63298152Y-31748000D01*
X63372999Y-31762888D01*
X63447846Y-31748000D01*
X88673199Y-31748000D01*
X104142000Y-47216802D01*
X104142001Y-64320288D01*
X104024569Y-64437720D01*
X103867000Y-64818126D01*
X103867000Y-65229874D01*
X104024569Y-65610280D01*
X104315720Y-65901431D01*
X104696126Y-66059000D01*
X104990000Y-66059000D01*
X104990000Y-67835198D01*
X104515528Y-68309671D01*
X104452072Y-68352071D01*
X104409672Y-68415527D01*
X104409671Y-68415528D01*
X104388951Y-68446538D01*
X104351518Y-68502560D01*
X104150000Y-68502560D01*
X103902235Y-68551843D01*
X103692191Y-68692191D01*
X103551843Y-68902235D01*
X103502560Y-69150000D01*
X103502560Y-69240000D01*
X98064846Y-69240000D01*
X97989999Y-69225112D01*
X97915152Y-69240000D01*
X97915148Y-69240000D01*
X97693463Y-69284096D01*
X97442071Y-69452071D01*
X97399671Y-69515527D01*
X93421528Y-73493671D01*
X93358072Y-73536071D01*
X93315672Y-73599527D01*
X93315671Y-73599528D01*
X93227095Y-73732092D01*
X93208235Y-73735843D01*
X92998191Y-73876191D01*
X92857843Y-74086235D01*
X92808560Y-74334000D01*
X92808560Y-76034000D01*
X92857843Y-76281765D01*
X92998191Y-76491809D01*
X93146001Y-76590573D01*
X93146000Y-77737198D01*
X92729000Y-78154198D01*
X92729000Y-78026126D01*
X92571431Y-77645720D01*
X92280280Y-77354569D01*
X91899874Y-77197000D01*
X91766000Y-77197000D01*
X91766000Y-76590573D01*
X91913809Y-76491809D01*
X92054157Y-76281765D01*
X92103440Y-76034000D01*
X92103440Y-74334000D01*
X92054157Y-74086235D01*
X91913809Y-73876191D01*
X91703765Y-73735843D01*
X91456000Y-73686560D01*
X90556000Y-73686560D01*
X90308235Y-73735843D01*
X90098191Y-73876191D01*
X90085000Y-73895933D01*
X90085000Y-67265295D01*
X90704000Y-67265295D01*
X90704000Y-68104705D01*
X91025229Y-68880219D01*
X91618781Y-69473771D01*
X92394295Y-69795000D01*
X93233705Y-69795000D01*
X94009219Y-69473771D01*
X94602771Y-68880219D01*
X94924000Y-68104705D01*
X94924000Y-67265295D01*
X94602771Y-66489781D01*
X94009219Y-65896229D01*
X93233705Y-65575000D01*
X92394295Y-65575000D01*
X91618781Y-65896229D01*
X91025229Y-66489781D01*
X90704000Y-67265295D01*
X90085000Y-67265295D01*
X90085000Y-41265295D01*
X90704000Y-41265295D01*
X90704000Y-42104705D01*
X91025229Y-42880219D01*
X91618781Y-43473771D01*
X92394295Y-43795000D01*
X93233705Y-43795000D01*
X94009219Y-43473771D01*
X94602771Y-42880219D01*
X94924000Y-42104705D01*
X94924000Y-41265295D01*
X94602771Y-40489781D01*
X94009219Y-39896229D01*
X93233705Y-39575000D01*
X92394295Y-39575000D01*
X91618781Y-39896229D01*
X91025229Y-40489781D01*
X90704000Y-41265295D01*
X90085000Y-41265295D01*
X90085000Y-39984877D01*
X90442867Y-39627011D01*
X90502873Y-39627011D01*
X90883279Y-39469442D01*
X91174430Y-39178291D01*
X91331999Y-38797885D01*
X91331999Y-38386137D01*
X91174430Y-38005731D01*
X91097973Y-37929274D01*
X91205006Y-37670874D01*
X91205006Y-37259126D01*
X91047437Y-36878720D01*
X90756286Y-36587569D01*
X90375880Y-36430000D01*
X89964132Y-36430000D01*
X89583726Y-36587569D01*
X89292575Y-36878720D01*
X89135006Y-37259126D01*
X89135006Y-37319132D01*
X88290201Y-38163938D01*
X88226519Y-38121387D01*
X86592613Y-36487482D01*
X86529289Y-36392711D01*
X86153855Y-36141854D01*
X85822783Y-36076000D01*
X85711000Y-36053765D01*
X85599217Y-36076000D01*
X37931132Y-36076000D01*
X35885000Y-34029869D01*
X35885000Y-24720131D01*
X37770133Y-22835000D01*
X38119413Y-22835000D01*
X38141843Y-22947765D01*
X38282191Y-23157809D01*
X38492235Y-23298157D01*
X38740000Y-23347440D01*
X40740000Y-23347440D01*
X40987765Y-23298157D01*
X41197809Y-23157809D01*
X41338157Y-22947765D01*
X41344061Y-22918081D01*
X41392794Y-22966814D01*
X41507074Y-22852534D01*
X41605736Y-23119387D01*
X42215461Y-23345908D01*
X42865460Y-23321856D01*
X43354264Y-23119387D01*
X43452927Y-22852532D01*
X42480000Y-21879605D01*
X42465858Y-21893748D01*
X42286253Y-21714143D01*
X42300395Y-21700000D01*
X42659605Y-21700000D01*
X43632532Y-22672927D01*
X43667689Y-22659928D01*
X44093847Y-23086086D01*
X44694778Y-23335000D01*
X45345222Y-23335000D01*
X45946153Y-23086086D01*
X46406086Y-22626153D01*
X46655000Y-22025222D01*
X46655000Y-21374778D01*
X46406086Y-20773847D01*
X45946153Y-20313914D01*
X45345222Y-20065000D01*
X44694778Y-20065000D01*
X44093847Y-20313914D01*
X43667689Y-20740072D01*
X43632532Y-20727073D01*
X42659605Y-21700000D01*
X42300395Y-21700000D01*
X42286253Y-21685858D01*
X42465858Y-21506253D01*
X42480000Y-21520395D01*
X43452927Y-20547468D01*
X43354264Y-20280613D01*
X42744539Y-20054092D01*
X42094540Y-20078144D01*
X41605736Y-20280613D01*
X41507074Y-20547466D01*
X41392794Y-20433186D01*
X41344061Y-20481919D01*
X41338157Y-20452235D01*
X41197809Y-20242191D01*
X40987765Y-20101843D01*
X40740000Y-20052560D01*
X38740000Y-20052560D01*
X38492235Y-20101843D01*
X38282191Y-20242191D01*
X38141843Y-20452235D01*
X38119413Y-20565000D01*
X37411783Y-20565000D01*
X37300000Y-20542765D01*
X37188217Y-20565000D01*
X36857145Y-20630854D01*
X36481711Y-20881711D01*
X36418391Y-20976476D01*
X34026482Y-23368387D01*
X33931711Y-23431711D01*
X33688905Y-23795097D01*
X33680854Y-23807146D01*
X33592765Y-24250000D01*
X33615000Y-24361783D01*
X33615001Y-34388212D01*
X33592765Y-34500000D01*
X33680854Y-34942854D01*
X33680855Y-34942855D01*
X33931712Y-35318289D01*
X34026480Y-35381611D01*
X36579389Y-37934521D01*
X36642711Y-38029289D01*
X36906367Y-38205458D01*
X37018145Y-38280146D01*
X37461000Y-38368235D01*
X37572783Y-38346000D01*
X41377862Y-38346000D01*
X41377353Y-38346106D01*
X41348507Y-38347668D01*
X41262940Y-38367896D01*
X40597947Y-38569303D01*
X40562668Y-38584643D01*
X40525764Y-38595504D01*
X40447145Y-38634873D01*
X39846321Y-38983859D01*
X39815518Y-39006903D01*
X39782100Y-39025964D01*
X39714646Y-39082364D01*
X39210223Y-39560209D01*
X39185548Y-39589720D01*
X39157412Y-39615957D01*
X39104742Y-39686362D01*
X38723774Y-40267434D01*
X38706547Y-40301836D01*
X38685204Y-40333838D01*
X38650144Y-40414471D01*
X38413070Y-41067599D01*
X38404221Y-41105034D01*
X38390810Y-41141094D01*
X38375240Y-41227630D01*
X38298078Y-41889470D01*
X38290001Y-41930074D01*
X38290000Y-75069925D01*
X38296201Y-75101100D01*
X38340224Y-75594369D01*
X38346106Y-75622648D01*
X38347668Y-75651493D01*
X38367896Y-75737060D01*
X38569303Y-76402053D01*
X38584642Y-76437330D01*
X38595504Y-76474236D01*
X38634873Y-76552855D01*
X38983859Y-77153679D01*
X39006903Y-77184483D01*
X39025964Y-77217900D01*
X39082364Y-77285353D01*
X39560209Y-77789777D01*
X39589717Y-77814449D01*
X39615957Y-77842589D01*
X39686362Y-77895258D01*
X40267435Y-78276226D01*
X40301833Y-78293451D01*
X40333838Y-78314796D01*
X40414471Y-78349856D01*
X40593940Y-78415000D01*
X35733689Y-78415000D01*
X35651456Y-78398643D01*
X35569223Y-78415000D01*
X35569220Y-78415000D01*
X35369972Y-78454633D01*
X35325656Y-78463448D01*
X35121398Y-78599929D01*
X35049456Y-78647999D01*
X35002873Y-78717715D01*
X34265718Y-79454872D01*
X34196000Y-79501456D01*
X34149416Y-79571174D01*
X34011448Y-79777657D01*
X33946643Y-80103457D01*
X33963001Y-80185695D01*
X33963000Y-85007767D01*
X33946643Y-85090000D01*
X33963000Y-85172233D01*
X33963000Y-85172236D01*
X34011448Y-85415800D01*
X34195999Y-85692001D01*
X34265720Y-85738587D01*
X36915001Y-88387870D01*
X36915001Y-90243569D01*
X36602771Y-89489781D01*
X36009219Y-88896229D01*
X35233705Y-88575000D01*
X34394295Y-88575000D01*
X33618781Y-88896229D01*
X33025229Y-89489781D01*
X32704000Y-90265295D01*
X31710000Y-90265295D01*
X31710000Y-67265295D01*
X32587000Y-67265295D01*
X32587000Y-68104705D01*
X32908229Y-68880219D01*
X33501781Y-69473771D01*
X34277295Y-69795000D01*
X35116705Y-69795000D01*
X35892219Y-69473771D01*
X36485771Y-68880219D01*
X36807000Y-68104705D01*
X36807000Y-67265295D01*
X36485771Y-66489781D01*
X35892219Y-65896229D01*
X35116705Y-65575000D01*
X34277295Y-65575000D01*
X33501781Y-65896229D01*
X32908229Y-66489781D01*
X32587000Y-67265295D01*
X31710000Y-67265295D01*
X31710000Y-41265295D01*
X32704000Y-41265295D01*
X32704000Y-42104705D01*
X33025229Y-42880219D01*
X33618781Y-43473771D01*
X34394295Y-43795000D01*
X35233705Y-43795000D01*
X36009219Y-43473771D01*
X36602771Y-42880219D01*
X36924000Y-42104705D01*
X36924000Y-41265295D01*
X36602771Y-40489781D01*
X36009219Y-39896229D01*
X35233705Y-39575000D01*
X34394295Y-39575000D01*
X33618781Y-39896229D01*
X33025229Y-40489781D01*
X32704000Y-41265295D01*
X31710000Y-41265295D01*
X31710000Y-14710000D01*
X110290001Y-14710000D01*
X110290000Y-113290000D01*
X110290000Y-113290000D01*
G37*
X110290000Y-113290000D02*
X74837191Y-113290000D01*
X74881609Y-113223524D01*
X74962207Y-113142926D01*
X75005826Y-113037620D01*
X75069146Y-112942855D01*
X75091381Y-112831072D01*
X75135000Y-112725766D01*
X75135000Y-110497440D01*
X75850000Y-110497440D01*
X76097765Y-110448157D01*
X76307809Y-110307809D01*
X76448157Y-110097765D01*
X76497440Y-109850000D01*
X76497440Y-108150000D01*
X76448157Y-107902235D01*
X76307809Y-107692191D01*
X76097765Y-107551843D01*
X75994292Y-107531261D01*
X76271645Y-107226924D01*
X76441476Y-106816890D01*
X76320155Y-106587000D01*
X75127000Y-106587000D01*
X75127000Y-106607000D01*
X74873000Y-106607000D01*
X74873000Y-106587000D01*
X73679845Y-106587000D01*
X73558524Y-106816890D01*
X73728355Y-107226924D01*
X74005708Y-107531261D01*
X73902235Y-107551843D01*
X73692191Y-107692191D01*
X73551843Y-107902235D01*
X73502560Y-108150000D01*
X73502560Y-108892308D01*
X73276479Y-109118390D01*
X73181712Y-109181711D01*
X73085095Y-109326309D01*
X72930854Y-109557146D01*
X72842765Y-110000000D01*
X72865001Y-110111788D01*
X72865000Y-112274234D01*
X72865000Y-112725766D01*
X72908619Y-112831073D01*
X72930854Y-112942854D01*
X72994173Y-113037618D01*
X73037793Y-113142926D01*
X73118392Y-113223525D01*
X73162809Y-113290000D01*
X39473644Y-113290000D01*
X40039444Y-113055638D01*
X40460082Y-112635000D01*
X51238217Y-112635000D01*
X51350000Y-112657235D01*
X51461783Y-112635000D01*
X51792855Y-112569146D01*
X52168289Y-112318289D01*
X52231612Y-112223519D01*
X52923523Y-111531609D01*
X53018289Y-111468289D01*
X53269146Y-111092855D01*
X53335000Y-110761783D01*
X53357235Y-110650000D01*
X53335000Y-110538217D01*
X53335000Y-110297440D01*
X53450000Y-110297440D01*
X53697765Y-110248157D01*
X53907809Y-110107809D01*
X54048157Y-109897765D01*
X54097440Y-109650000D01*
X54097440Y-108285750D01*
X57115000Y-108285750D01*
X57115000Y-109776309D01*
X57211673Y-110009698D01*
X57390301Y-110188327D01*
X57623690Y-110285000D01*
X58714250Y-110285000D01*
X58873000Y-110126250D01*
X58873000Y-108127000D01*
X59127000Y-108127000D01*
X59127000Y-110126250D01*
X59285750Y-110285000D01*
X60376310Y-110285000D01*
X60609699Y-110188327D01*
X60788327Y-110009698D01*
X60885000Y-109776309D01*
X60885000Y-108285750D01*
X60726250Y-108127000D01*
X59127000Y-108127000D01*
X58873000Y-108127000D01*
X57273750Y-108127000D01*
X57115000Y-108285750D01*
X54097440Y-108285750D01*
X54097440Y-107707692D01*
X54223521Y-107581611D01*
X54318289Y-107518289D01*
X54569146Y-107142855D01*
X54635000Y-106811783D01*
X54657235Y-106700000D01*
X54635000Y-106588217D01*
X54635000Y-106223691D01*
X57115000Y-106223691D01*
X57115000Y-107714250D01*
X57273750Y-107873000D01*
X58873000Y-107873000D01*
X58873000Y-105873750D01*
X59127000Y-105873750D01*
X59127000Y-107873000D01*
X60726250Y-107873000D01*
X60885000Y-107714250D01*
X60885000Y-106223691D01*
X60788327Y-105990302D01*
X60609699Y-105811673D01*
X60376310Y-105715000D01*
X59285750Y-105715000D01*
X59127000Y-105873750D01*
X58873000Y-105873750D01*
X58714250Y-105715000D01*
X57623690Y-105715000D01*
X57390301Y-105811673D01*
X57211673Y-105990302D01*
X57115000Y-106223691D01*
X54635000Y-106223691D01*
X54635000Y-103837989D01*
X54837765Y-103797657D01*
X55047809Y-103657309D01*
X55188157Y-103447265D01*
X55222522Y-103274500D01*
X56498717Y-103274500D01*
X56610500Y-103296735D01*
X56722283Y-103274500D01*
X57053355Y-103208646D01*
X57428789Y-102957789D01*
X57492113Y-102863019D01*
X57807691Y-102547440D01*
X59750000Y-102547440D01*
X59997765Y-102498157D01*
X60207809Y-102357809D01*
X60348157Y-102147765D01*
X60397440Y-101900000D01*
X60397440Y-98600000D01*
X63402560Y-98600000D01*
X63402560Y-101900000D01*
X63451843Y-102147765D01*
X63592191Y-102357809D01*
X63802235Y-102498157D01*
X64050000Y-102547440D01*
X66550000Y-102547440D01*
X66635335Y-102530466D01*
X68887792Y-104782924D01*
X68887793Y-104782926D01*
X69207074Y-105102207D01*
X69312381Y-105145827D01*
X69407145Y-105209146D01*
X69518928Y-105231381D01*
X69624234Y-105275000D01*
X69738217Y-105275000D01*
X69850000Y-105297235D01*
X69961783Y-105275000D01*
X70075766Y-105275000D01*
X70181073Y-105231381D01*
X70292854Y-105209146D01*
X70387616Y-105145828D01*
X70492926Y-105102207D01*
X70573528Y-105021605D01*
X70668288Y-104958288D01*
X70731605Y-104863528D01*
X70812207Y-104782926D01*
X70855828Y-104677616D01*
X70919146Y-104582854D01*
X70941381Y-104471073D01*
X70985000Y-104365766D01*
X70985000Y-104251783D01*
X71007235Y-104140000D01*
X70985000Y-104028217D01*
X70985000Y-103920000D01*
X73485908Y-103920000D01*
X73601161Y-104499418D01*
X73929375Y-104990625D01*
X74248478Y-105203843D01*
X74118642Y-105264817D01*
X73728355Y-105693076D01*
X73558524Y-106103110D01*
X73679845Y-106333000D01*
X74873000Y-106333000D01*
X74873000Y-106313000D01*
X75127000Y-106313000D01*
X75127000Y-106333000D01*
X76320155Y-106333000D01*
X76441476Y-106103110D01*
X76271645Y-105693076D01*
X75881358Y-105264817D01*
X75751522Y-105203843D01*
X75974281Y-105055000D01*
X78199869Y-105055000D01*
X80145001Y-107000133D01*
X80145000Y-109018217D01*
X80122765Y-109130000D01*
X80145000Y-109241782D01*
X80210854Y-109572854D01*
X80461711Y-109948289D01*
X80556482Y-110011613D01*
X82268389Y-111723521D01*
X82331711Y-111818289D01*
X82707145Y-112069146D01*
X83038217Y-112135000D01*
X83149999Y-112157235D01*
X83261781Y-112135000D01*
X83576723Y-112135000D01*
X83692191Y-112307809D01*
X83902235Y-112448157D01*
X84150000Y-112497440D01*
X85850000Y-112497440D01*
X86097765Y-112448157D01*
X86307809Y-112307809D01*
X86448157Y-112097765D01*
X86497440Y-111850000D01*
X86497440Y-110150000D01*
X86448157Y-109902235D01*
X86307809Y-109692191D01*
X86097765Y-109551843D01*
X85994292Y-109531261D01*
X86271645Y-109226924D01*
X86441476Y-108816890D01*
X86320155Y-108587000D01*
X85127000Y-108587000D01*
X85127000Y-108607000D01*
X84873000Y-108607000D01*
X84873000Y-108587000D01*
X83679845Y-108587000D01*
X83558524Y-108816890D01*
X83728355Y-109226924D01*
X84005708Y-109531261D01*
X83902235Y-109551843D01*
X83692191Y-109692191D01*
X83594110Y-109838978D01*
X82415000Y-108659869D01*
X82415000Y-106641781D01*
X82437235Y-106529999D01*
X82396209Y-106323750D01*
X82349146Y-106087145D01*
X82098289Y-105711711D01*
X82003521Y-105648389D01*
X79551613Y-103196482D01*
X79488289Y-103101711D01*
X79112855Y-102850854D01*
X78781783Y-102785000D01*
X78670000Y-102762765D01*
X78558217Y-102785000D01*
X75974281Y-102785000D01*
X75579418Y-102521161D01*
X75146256Y-102435000D01*
X74853744Y-102435000D01*
X74420582Y-102521161D01*
X73929375Y-102849375D01*
X73601161Y-103340582D01*
X73485908Y-103920000D01*
X70985000Y-103920000D01*
X70985000Y-103914234D01*
X70941381Y-103808928D01*
X70919146Y-103697145D01*
X70855827Y-103602381D01*
X70812207Y-103497074D01*
X70492926Y-103177793D01*
X70492924Y-103177792D01*
X68155132Y-100840000D01*
X83485908Y-100840000D01*
X83601161Y-101419418D01*
X83929375Y-101910625D01*
X84227761Y-102110000D01*
X83929375Y-102309375D01*
X83601161Y-102800582D01*
X83485908Y-103380000D01*
X83601161Y-103959418D01*
X83929375Y-104450625D01*
X84227761Y-104650000D01*
X83929375Y-104849375D01*
X83601161Y-105340582D01*
X83485908Y-105920000D01*
X83601161Y-106499418D01*
X83929375Y-106990625D01*
X84248478Y-107203843D01*
X84118642Y-107264817D01*
X83728355Y-107693076D01*
X83558524Y-108103110D01*
X83679845Y-108333000D01*
X84873000Y-108333000D01*
X84873000Y-108313000D01*
X85127000Y-108313000D01*
X85127000Y-108333000D01*
X86320155Y-108333000D01*
X86441476Y-108103110D01*
X86271645Y-107693076D01*
X85881358Y-107264817D01*
X85751522Y-107203843D01*
X86070625Y-106990625D01*
X86398839Y-106499418D01*
X86514092Y-105920000D01*
X86398839Y-105340582D01*
X86070625Y-104849375D01*
X85772239Y-104650000D01*
X86070625Y-104450625D01*
X86398839Y-103959418D01*
X86514092Y-103380000D01*
X86398839Y-102800582D01*
X86070625Y-102309375D01*
X85772239Y-102110000D01*
X86070625Y-101910625D01*
X86398839Y-101419418D01*
X86514092Y-100840000D01*
X86398839Y-100260582D01*
X86070625Y-99769375D01*
X85579418Y-99441161D01*
X85146256Y-99355000D01*
X84853744Y-99355000D01*
X84420582Y-99441161D01*
X83929375Y-99769375D01*
X83601161Y-100260582D01*
X83485908Y-100840000D01*
X68155132Y-100840000D01*
X67197440Y-99882309D01*
X67197440Y-98600000D01*
X67148157Y-98352235D01*
X67007809Y-98142191D01*
X66797765Y-98001843D01*
X66550000Y-97952560D01*
X64050000Y-97952560D01*
X63802235Y-98001843D01*
X63592191Y-98142191D01*
X63451843Y-98352235D01*
X63402560Y-98600000D01*
X60397440Y-98600000D01*
X60348157Y-98352235D01*
X60207809Y-98142191D01*
X59997765Y-98001843D01*
X59750000Y-97952560D01*
X57250000Y-97952560D01*
X57002235Y-98001843D01*
X56792191Y-98142191D01*
X56651843Y-98352235D01*
X56602560Y-98600000D01*
X56602560Y-100542308D01*
X56140369Y-101004500D01*
X55222522Y-101004500D01*
X55188157Y-100831735D01*
X55047809Y-100621691D01*
X54837765Y-100481343D01*
X54590000Y-100432060D01*
X52410000Y-100432060D01*
X52162235Y-100481343D01*
X51952191Y-100621691D01*
X51811843Y-100831735D01*
X51782813Y-100977681D01*
X51397440Y-100592308D01*
X51397440Y-98550000D01*
X51348157Y-98302235D01*
X51243931Y-98146250D01*
X51775000Y-98146250D01*
X51775000Y-99046809D01*
X51871673Y-99280198D01*
X52050301Y-99458827D01*
X52283690Y-99555500D01*
X53214250Y-99555500D01*
X53373000Y-99396750D01*
X53373000Y-97987500D01*
X53627000Y-97987500D01*
X53627000Y-99396750D01*
X53785750Y-99555500D01*
X54716310Y-99555500D01*
X54949699Y-99458827D01*
X55128327Y-99280198D01*
X55225000Y-99046809D01*
X55225000Y-98146250D01*
X55066250Y-97987500D01*
X53627000Y-97987500D01*
X53373000Y-97987500D01*
X51933750Y-97987500D01*
X51775000Y-98146250D01*
X51243931Y-98146250D01*
X51207809Y-98092191D01*
X50997765Y-97951843D01*
X50750000Y-97902560D01*
X47250000Y-97902560D01*
X47002235Y-97951843D01*
X46792191Y-98092191D01*
X46651843Y-98302235D01*
X46602560Y-98550000D01*
X46602560Y-102050000D01*
X46651843Y-102297765D01*
X46792191Y-102507809D01*
X46952612Y-102615000D01*
X46285750Y-102615000D01*
X46127000Y-102773750D01*
X46127000Y-104873000D01*
X48226250Y-104873000D01*
X48385000Y-104714250D01*
X48385000Y-103123690D01*
X48288327Y-102890301D01*
X48109698Y-102711673D01*
X48075337Y-102697440D01*
X50292308Y-102697440D01*
X50457889Y-102863021D01*
X50521211Y-102957789D01*
X50850470Y-103177793D01*
X50896645Y-103208646D01*
X51339500Y-103296735D01*
X51451283Y-103274500D01*
X51777478Y-103274500D01*
X51811843Y-103447265D01*
X51952191Y-103657309D01*
X52162235Y-103797657D01*
X52365000Y-103837989D01*
X52365001Y-105702560D01*
X50950000Y-105702560D01*
X50702235Y-105751843D01*
X50492191Y-105892191D01*
X50351843Y-106102235D01*
X50302560Y-106350000D01*
X50302560Y-109650000D01*
X50351843Y-109897765D01*
X50492191Y-110107809D01*
X50702235Y-110248157D01*
X50947855Y-110297013D01*
X50879868Y-110365000D01*
X40460082Y-110365000D01*
X40039444Y-109944362D01*
X39775421Y-109835000D01*
X40326310Y-109835000D01*
X40559699Y-109738327D01*
X40738327Y-109559698D01*
X40835000Y-109326309D01*
X40835000Y-108285750D01*
X40676250Y-108127000D01*
X39127000Y-108127000D01*
X39127000Y-108147000D01*
X38873000Y-108147000D01*
X38873000Y-108127000D01*
X37323750Y-108127000D01*
X37165000Y-108285750D01*
X37165000Y-109326309D01*
X37261673Y-109559698D01*
X37440301Y-109738327D01*
X37673690Y-109835000D01*
X38224579Y-109835000D01*
X37960556Y-109944362D01*
X37444362Y-110460556D01*
X37165000Y-111134996D01*
X37165000Y-111865004D01*
X37444362Y-112539444D01*
X37960556Y-113055638D01*
X38526356Y-113290000D01*
X31710000Y-113290000D01*
X31710000Y-106673691D01*
X37165000Y-106673691D01*
X37165000Y-107714250D01*
X37323750Y-107873000D01*
X38873000Y-107873000D01*
X38873000Y-106323750D01*
X39127000Y-106323750D01*
X39127000Y-107873000D01*
X40676250Y-107873000D01*
X40835000Y-107714250D01*
X40835000Y-106673691D01*
X40738327Y-106440302D01*
X40559699Y-106261673D01*
X40326310Y-106165000D01*
X39285750Y-106165000D01*
X39127000Y-106323750D01*
X38873000Y-106323750D01*
X38714250Y-106165000D01*
X37673690Y-106165000D01*
X37440301Y-106261673D01*
X37261673Y-106440302D01*
X37165000Y-106673691D01*
X31710000Y-106673691D01*
X31710000Y-105285750D01*
X43615000Y-105285750D01*
X43615000Y-106876310D01*
X43711673Y-107109699D01*
X43890302Y-107288327D01*
X44123691Y-107385000D01*
X45714250Y-107385000D01*
X45873000Y-107226250D01*
X45873000Y-105127000D01*
X46127000Y-105127000D01*
X46127000Y-107226250D01*
X46285750Y-107385000D01*
X47876309Y-107385000D01*
X48109698Y-107288327D01*
X48288327Y-107109699D01*
X48385000Y-106876310D01*
X48385000Y-105285750D01*
X48226250Y-105127000D01*
X46127000Y-105127000D01*
X45873000Y-105127000D01*
X43773750Y-105127000D01*
X43615000Y-105285750D01*
X31710000Y-105285750D01*
X31710000Y-100585750D01*
X40615000Y-100585750D01*
X40615000Y-102176310D01*
X40711673Y-102409699D01*
X40890302Y-102588327D01*
X41123691Y-102685000D01*
X42714250Y-102685000D01*
X42873000Y-102526250D01*
X42873000Y-100427000D01*
X43127000Y-100427000D01*
X43127000Y-102526250D01*
X43285750Y-102685000D01*
X43954696Y-102685000D01*
X43890302Y-102711673D01*
X43711673Y-102890301D01*
X43615000Y-103123690D01*
X43615000Y-104714250D01*
X43773750Y-104873000D01*
X45873000Y-104873000D01*
X45873000Y-102773750D01*
X45714250Y-102615000D01*
X45045304Y-102615000D01*
X45109698Y-102588327D01*
X45288327Y-102409699D01*
X45385000Y-102176310D01*
X45385000Y-100585750D01*
X45226250Y-100427000D01*
X43127000Y-100427000D01*
X42873000Y-100427000D01*
X40773750Y-100427000D01*
X40615000Y-100585750D01*
X31710000Y-100585750D01*
X31710000Y-98423690D01*
X40615000Y-98423690D01*
X40615000Y-100014250D01*
X40773750Y-100173000D01*
X42873000Y-100173000D01*
X42873000Y-98073750D01*
X43127000Y-98073750D01*
X43127000Y-100173000D01*
X45226250Y-100173000D01*
X45385000Y-100014250D01*
X45385000Y-98423690D01*
X45288327Y-98190301D01*
X45109698Y-98011673D01*
X44876309Y-97915000D01*
X43285750Y-97915000D01*
X43127000Y-98073750D01*
X42873000Y-98073750D01*
X42714250Y-97915000D01*
X41123691Y-97915000D01*
X40890302Y-98011673D01*
X40711673Y-98190301D01*
X40615000Y-98423690D01*
X31710000Y-98423690D01*
X31710000Y-96674191D01*
X51775000Y-96674191D01*
X51775000Y-97574750D01*
X51933750Y-97733500D01*
X53373000Y-97733500D01*
X53373000Y-96324250D01*
X53627000Y-96324250D01*
X53627000Y-97733500D01*
X55066250Y-97733500D01*
X55225000Y-97574750D01*
X55225000Y-96674191D01*
X55179365Y-96564017D01*
X77565000Y-96564017D01*
X77565000Y-96935983D01*
X77707345Y-97279635D01*
X77970365Y-97542655D01*
X78314017Y-97685000D01*
X78685983Y-97685000D01*
X79029635Y-97542655D01*
X79292655Y-97279635D01*
X79321498Y-97210001D01*
X80678502Y-97210001D01*
X80707345Y-97279635D01*
X80970365Y-97542655D01*
X81314017Y-97685000D01*
X81685983Y-97685000D01*
X82029635Y-97542655D01*
X82292655Y-97279635D01*
X82435000Y-96935983D01*
X82435000Y-96564017D01*
X82292655Y-96220365D01*
X82095387Y-96023097D01*
X82047929Y-95952071D01*
X82017957Y-95932044D01*
X81997930Y-95902072D01*
X81746538Y-95734097D01*
X81524853Y-95690001D01*
X81524848Y-95690001D01*
X81450001Y-95675113D01*
X81375154Y-95690001D01*
X78874847Y-95690001D01*
X78799999Y-95675113D01*
X78725151Y-95690001D01*
X78725147Y-95690001D01*
X78551604Y-95724521D01*
X78503461Y-95734097D01*
X78428633Y-95784096D01*
X78382382Y-95815000D01*
X78314017Y-95815000D01*
X77970365Y-95957345D01*
X77707345Y-96220365D01*
X77565000Y-96564017D01*
X55179365Y-96564017D01*
X55128327Y-96440802D01*
X54949699Y-96262173D01*
X54716310Y-96165500D01*
X53785750Y-96165500D01*
X53627000Y-96324250D01*
X53373000Y-96324250D01*
X53214250Y-96165500D01*
X52283690Y-96165500D01*
X52050301Y-96262173D01*
X51871673Y-96440802D01*
X51775000Y-96674191D01*
X31710000Y-96674191D01*
X31710000Y-90265295D01*
X32704000Y-90265295D01*
X32704000Y-91104705D01*
X33025229Y-91880219D01*
X33618781Y-92473771D01*
X34394295Y-92795000D01*
X35233705Y-92795000D01*
X36009219Y-92473771D01*
X36602771Y-91880219D01*
X36915000Y-91126432D01*
X36915000Y-93547767D01*
X36898643Y-93630000D01*
X36915000Y-93712233D01*
X36915000Y-93712236D01*
X36963448Y-93955800D01*
X37147999Y-94232001D01*
X37217720Y-94278587D01*
X37451413Y-94512280D01*
X37497999Y-94582001D01*
X37774199Y-94766552D01*
X38017763Y-94815000D01*
X38100000Y-94831358D01*
X38182237Y-94815000D01*
X40116767Y-94815000D01*
X40199000Y-94831357D01*
X40281233Y-94815000D01*
X40281237Y-94815000D01*
X40524801Y-94766552D01*
X40801001Y-94582001D01*
X40847587Y-94512280D01*
X41389572Y-93970295D01*
X99637000Y-93970295D01*
X99637000Y-94809705D01*
X99958229Y-95585219D01*
X100551781Y-96178771D01*
X101327295Y-96500000D01*
X102166705Y-96500000D01*
X102942219Y-96178771D01*
X103535771Y-95585219D01*
X103857000Y-94809705D01*
X103857000Y-93970295D01*
X103535771Y-93194781D01*
X102942219Y-92601229D01*
X102166705Y-92280000D01*
X101327295Y-92280000D01*
X100551781Y-92601229D01*
X99958229Y-93194781D01*
X99637000Y-93970295D01*
X41389572Y-93970295D01*
X41903540Y-93456328D01*
X42072818Y-93490000D01*
X42375182Y-93490000D01*
X42822927Y-93400938D01*
X43330673Y-93061673D01*
X43494000Y-92817237D01*
X43657327Y-93061673D01*
X44165073Y-93400938D01*
X44612818Y-93490000D01*
X44915182Y-93490000D01*
X45362927Y-93400938D01*
X45870673Y-93061673D01*
X46040418Y-92807632D01*
X46066034Y-92862576D01*
X46507583Y-93267240D01*
X46939260Y-93446036D01*
X47177000Y-93325378D01*
X47177000Y-92082000D01*
X47157000Y-92082000D01*
X47157000Y-91828000D01*
X47177000Y-91828000D01*
X47177000Y-91808000D01*
X47431000Y-91808000D01*
X47431000Y-91828000D01*
X47451000Y-91828000D01*
X47451000Y-92082000D01*
X47431000Y-92082000D01*
X47431000Y-93325378D01*
X47668740Y-93446036D01*
X48100417Y-93267240D01*
X48541966Y-92862576D01*
X48567582Y-92807632D01*
X48737327Y-93061673D01*
X49245073Y-93400938D01*
X49692818Y-93490000D01*
X49995182Y-93490000D01*
X50442927Y-93400938D01*
X50950673Y-93061673D01*
X51120418Y-92807632D01*
X51146034Y-92862576D01*
X51587583Y-93267240D01*
X52019260Y-93446036D01*
X52257000Y-93325378D01*
X52257000Y-92082000D01*
X52237000Y-92082000D01*
X52237000Y-91828000D01*
X52257000Y-91828000D01*
X52257000Y-91808000D01*
X52511000Y-91808000D01*
X52511000Y-91828000D01*
X52531000Y-91828000D01*
X52531000Y-92082000D01*
X52511000Y-92082000D01*
X52511000Y-93325378D01*
X52748740Y-93446036D01*
X53180417Y-93267240D01*
X53621966Y-92862576D01*
X53647582Y-92807632D01*
X53817327Y-93061673D01*
X54325073Y-93400938D01*
X54772818Y-93490000D01*
X55075182Y-93490000D01*
X55522927Y-93400938D01*
X56030673Y-93061673D01*
X56194000Y-92817237D01*
X56357327Y-93061673D01*
X56865073Y-93400938D01*
X57312818Y-93490000D01*
X57615182Y-93490000D01*
X58062927Y-93400938D01*
X58570673Y-93061673D01*
X58734000Y-92817237D01*
X58897327Y-93061673D01*
X59405073Y-93400938D01*
X59852818Y-93490000D01*
X60155182Y-93490000D01*
X60412929Y-93438731D01*
X60419526Y-93445328D01*
X60419529Y-93445330D01*
X60638670Y-93664471D01*
X60681072Y-93727930D01*
X60932464Y-93895905D01*
X61154149Y-93940001D01*
X61154153Y-93940001D01*
X61229000Y-93954889D01*
X61303847Y-93940001D01*
X68137154Y-93940001D01*
X68212001Y-93954889D01*
X68286848Y-93940001D01*
X68286853Y-93940001D01*
X68508538Y-93895905D01*
X68759930Y-93727930D01*
X68802332Y-93664471D01*
X69265820Y-93200984D01*
X69565073Y-93400938D01*
X70012818Y-93490000D01*
X70315182Y-93490000D01*
X70762927Y-93400938D01*
X71270673Y-93061673D01*
X71440418Y-92807632D01*
X71466034Y-92862576D01*
X71907583Y-93267240D01*
X72339260Y-93446036D01*
X72577000Y-93325378D01*
X72577000Y-92082000D01*
X72557000Y-92082000D01*
X72557000Y-91828000D01*
X72577000Y-91828000D01*
X72577000Y-91808000D01*
X72831000Y-91808000D01*
X72831000Y-91828000D01*
X72851000Y-91828000D01*
X72851000Y-92082000D01*
X72831000Y-92082000D01*
X72831000Y-93325378D01*
X73068740Y-93446036D01*
X73500417Y-93267240D01*
X73941966Y-92862576D01*
X73967582Y-92807632D01*
X74137327Y-93061673D01*
X74645073Y-93400938D01*
X75092818Y-93490000D01*
X75395182Y-93490000D01*
X75842927Y-93400938D01*
X76350673Y-93061673D01*
X76514000Y-92817237D01*
X76677327Y-93061673D01*
X77185073Y-93400938D01*
X77632818Y-93490000D01*
X77935182Y-93490000D01*
X78382927Y-93400938D01*
X78890673Y-93061673D01*
X79054000Y-92817237D01*
X79217327Y-93061673D01*
X79725073Y-93400938D01*
X80172818Y-93490000D01*
X80475182Y-93490000D01*
X80922927Y-93400938D01*
X81430673Y-93061673D01*
X81594000Y-92817237D01*
X81757327Y-93061673D01*
X82265073Y-93400938D01*
X82712818Y-93490000D01*
X83015182Y-93490000D01*
X83462927Y-93400938D01*
X83970673Y-93061673D01*
X84134000Y-92817237D01*
X84297327Y-93061673D01*
X84805073Y-93400938D01*
X85252818Y-93490000D01*
X85555182Y-93490000D01*
X86002927Y-93400938D01*
X86510673Y-93061673D01*
X86674000Y-92817237D01*
X86837327Y-93061673D01*
X87345073Y-93400938D01*
X87792818Y-93490000D01*
X88095182Y-93490000D01*
X88542927Y-93400938D01*
X89050673Y-93061673D01*
X89389938Y-92553927D01*
X89509072Y-91955000D01*
X89389938Y-91356073D01*
X89093304Y-90912129D01*
X89301809Y-90772809D01*
X89442157Y-90562765D01*
X89491440Y-90315000D01*
X89491440Y-90265295D01*
X90704000Y-90265295D01*
X90704000Y-91104705D01*
X91025229Y-91880219D01*
X91618781Y-92473771D01*
X92394295Y-92795000D01*
X93233705Y-92795000D01*
X94009219Y-92473771D01*
X94602771Y-91880219D01*
X94924000Y-91104705D01*
X94924000Y-90265295D01*
X94602771Y-89489781D01*
X94009219Y-88896229D01*
X93233705Y-88575000D01*
X92394295Y-88575000D01*
X91618781Y-88896229D01*
X91025229Y-89489781D01*
X90704000Y-90265295D01*
X89491440Y-90265295D01*
X89491440Y-88515000D01*
X89442157Y-88267235D01*
X89301809Y-88057191D01*
X89125049Y-87939083D01*
X95420210Y-81643921D01*
X95679720Y-81903431D01*
X96060126Y-82061000D01*
X96471874Y-82061000D01*
X96852280Y-81903431D01*
X97143431Y-81612280D01*
X97301000Y-81231874D01*
X97301000Y-80820126D01*
X97143431Y-80439720D01*
X96883921Y-80180210D01*
X98309132Y-78755000D01*
X104025719Y-78755000D01*
X104227761Y-78890000D01*
X103929375Y-79089375D01*
X103601161Y-79580582D01*
X103485908Y-80160000D01*
X103601161Y-80739418D01*
X103929375Y-81230625D01*
X104420582Y-81558839D01*
X104853744Y-81645000D01*
X105146256Y-81645000D01*
X105579418Y-81558839D01*
X106070625Y-81230625D01*
X106398839Y-80739418D01*
X106514092Y-80160000D01*
X106398839Y-79580582D01*
X106070625Y-79089375D01*
X105772239Y-78890000D01*
X106070625Y-78690625D01*
X106398839Y-78199418D01*
X106514092Y-77620000D01*
X106398839Y-77040582D01*
X106070625Y-76549375D01*
X105751522Y-76336157D01*
X105881358Y-76275183D01*
X106271645Y-75846924D01*
X106441476Y-75436890D01*
X106320155Y-75207000D01*
X105127000Y-75207000D01*
X105127000Y-75227000D01*
X104873000Y-75227000D01*
X104873000Y-75207000D01*
X103679845Y-75207000D01*
X103558524Y-75436890D01*
X103728355Y-75846924D01*
X104118642Y-76275183D01*
X104248478Y-76336157D01*
X104025719Y-76485000D01*
X101242359Y-76485000D01*
X101378157Y-76281765D01*
X101427440Y-76034000D01*
X101427440Y-74334000D01*
X101378157Y-74086235D01*
X101237809Y-73876191D01*
X101027765Y-73735843D01*
X100780000Y-73686560D01*
X99880000Y-73686560D01*
X99632235Y-73735843D01*
X99422191Y-73876191D01*
X99281843Y-74086235D01*
X99232560Y-74334000D01*
X99232560Y-76034000D01*
X99281843Y-76281765D01*
X99417641Y-76485000D01*
X98342359Y-76485000D01*
X98478157Y-76281765D01*
X98527440Y-76034000D01*
X98527440Y-74334000D01*
X98478157Y-74086235D01*
X98462299Y-74062502D01*
X99224802Y-73300000D01*
X103721822Y-73300000D01*
X103929375Y-73610625D01*
X104248478Y-73823843D01*
X104118642Y-73884817D01*
X103728355Y-74313076D01*
X103558524Y-74723110D01*
X103679845Y-74953000D01*
X104873000Y-74953000D01*
X104873000Y-74933000D01*
X105127000Y-74933000D01*
X105127000Y-74953000D01*
X106320155Y-74953000D01*
X106441476Y-74723110D01*
X106271645Y-74313076D01*
X105881358Y-73884817D01*
X105751522Y-73823843D01*
X106070625Y-73610625D01*
X106398839Y-73119418D01*
X106514092Y-72540000D01*
X106441209Y-72173592D01*
X107234473Y-71380329D01*
X107297929Y-71337929D01*
X107465904Y-71086537D01*
X107510000Y-70864852D01*
X107510000Y-70864848D01*
X107524888Y-70790000D01*
X107510000Y-70715152D01*
X107510000Y-46324848D01*
X107524888Y-46250000D01*
X107510000Y-46175152D01*
X107510000Y-46175148D01*
X107465904Y-45953463D01*
X107297929Y-45702071D01*
X107234473Y-45659671D01*
X90898333Y-29323532D01*
X90855931Y-29260073D01*
X90604539Y-29092098D01*
X90382854Y-29048002D01*
X90382849Y-29048002D01*
X90308002Y-29033114D01*
X90233155Y-29048002D01*
X65371800Y-29048002D01*
X64450798Y-28127000D01*
X69500000Y-28127000D01*
X69548601Y-28117333D01*
X69589803Y-28089803D01*
X69617333Y-28048601D01*
X69627000Y-28000000D01*
X69627000Y-25150000D01*
X96452560Y-25150000D01*
X96452560Y-26850000D01*
X96501843Y-27097765D01*
X96642191Y-27307809D01*
X96715001Y-27356459D01*
X96715001Y-28252762D01*
X96698643Y-28335000D01*
X96763448Y-28660800D01*
X96763449Y-28660801D01*
X96948000Y-28937001D01*
X97017718Y-28983585D01*
X97536693Y-29502560D01*
X97100000Y-29502560D01*
X96852235Y-29551843D01*
X96642191Y-29692191D01*
X96501843Y-29902235D01*
X96452560Y-30150000D01*
X96452560Y-31850000D01*
X96501843Y-32097765D01*
X96642191Y-32307809D01*
X96715001Y-32356459D01*
X96715001Y-32885288D01*
X96658569Y-32941720D01*
X96501000Y-33322126D01*
X96501000Y-33733874D01*
X96658569Y-34114280D01*
X96949720Y-34405431D01*
X97330126Y-34563000D01*
X97741874Y-34563000D01*
X97880270Y-34505675D01*
X97928569Y-34622280D01*
X98219720Y-34913431D01*
X98600126Y-35071000D01*
X99011874Y-35071000D01*
X99392280Y-34913431D01*
X99683431Y-34622280D01*
X99841000Y-34241874D01*
X99841000Y-33830126D01*
X99683431Y-33449720D01*
X99641000Y-33407289D01*
X99641000Y-32373832D01*
X99752235Y-32448157D01*
X100000000Y-32497440D01*
X100900000Y-32497440D01*
X101147765Y-32448157D01*
X101357809Y-32307809D01*
X101498157Y-32097765D01*
X101547440Y-31850000D01*
X101547440Y-31835000D01*
X103289358Y-31835000D01*
X103301843Y-31897765D01*
X103442191Y-32107809D01*
X103652235Y-32248157D01*
X103900000Y-32297440D01*
X105400000Y-32297440D01*
X105647765Y-32248157D01*
X105857809Y-32107809D01*
X105998157Y-31897765D01*
X106003721Y-31869791D01*
X106061673Y-32009699D01*
X106240302Y-32188327D01*
X106473691Y-32285000D01*
X107064250Y-32285000D01*
X107223000Y-32126250D01*
X107223000Y-31127000D01*
X107477000Y-31127000D01*
X107477000Y-32126250D01*
X107635750Y-32285000D01*
X108226309Y-32285000D01*
X108459698Y-32188327D01*
X108638327Y-32009699D01*
X108735000Y-31776310D01*
X108735000Y-31285750D01*
X108576250Y-31127000D01*
X107477000Y-31127000D01*
X107223000Y-31127000D01*
X107203000Y-31127000D01*
X107203000Y-30873000D01*
X107223000Y-30873000D01*
X107223000Y-29873750D01*
X107477000Y-29873750D01*
X107477000Y-30873000D01*
X108576250Y-30873000D01*
X108735000Y-30714250D01*
X108735000Y-30223690D01*
X108638327Y-29990301D01*
X108459698Y-29811673D01*
X108226309Y-29715000D01*
X107635750Y-29715000D01*
X107477000Y-29873750D01*
X107223000Y-29873750D01*
X107064250Y-29715000D01*
X106473691Y-29715000D01*
X106240302Y-29811673D01*
X106061673Y-29990301D01*
X106003721Y-30130209D01*
X105998157Y-30102235D01*
X105857809Y-29892191D01*
X105647765Y-29751843D01*
X105400000Y-29702560D01*
X103900000Y-29702560D01*
X103652235Y-29751843D01*
X103442191Y-29892191D01*
X103301843Y-30102235D01*
X103289358Y-30165000D01*
X101547440Y-30165000D01*
X101547440Y-30150000D01*
X101498157Y-29902235D01*
X101357809Y-29692191D01*
X101147765Y-29551843D01*
X100900000Y-29502560D01*
X100000000Y-29502560D01*
X99752235Y-29551843D01*
X99651796Y-29618954D01*
X99657357Y-29590999D01*
X99641000Y-29508764D01*
X99641000Y-29508763D01*
X99592552Y-29265199D01*
X99408001Y-28988999D01*
X99338283Y-28942415D01*
X98385000Y-27989133D01*
X98385000Y-27356459D01*
X98457809Y-27307809D01*
X98598157Y-27097765D01*
X98647440Y-26850000D01*
X98647440Y-25150000D01*
X99352560Y-25150000D01*
X99352560Y-26850000D01*
X99401843Y-27097765D01*
X99542191Y-27307809D01*
X99752235Y-27448157D01*
X100000000Y-27497440D01*
X100900000Y-27497440D01*
X101147765Y-27448157D01*
X101357809Y-27307809D01*
X101498157Y-27097765D01*
X101547440Y-26850000D01*
X101547440Y-26835000D01*
X103289358Y-26835000D01*
X103301843Y-26897765D01*
X103442191Y-27107809D01*
X103652235Y-27248157D01*
X103900000Y-27297440D01*
X105400000Y-27297440D01*
X105647765Y-27248157D01*
X105857809Y-27107809D01*
X105998157Y-26897765D01*
X106003721Y-26869791D01*
X106061673Y-27009699D01*
X106240302Y-27188327D01*
X106473691Y-27285000D01*
X107064250Y-27285000D01*
X107223000Y-27126250D01*
X107223000Y-26127000D01*
X107477000Y-26127000D01*
X107477000Y-27126250D01*
X107635750Y-27285000D01*
X108226309Y-27285000D01*
X108459698Y-27188327D01*
X108638327Y-27009699D01*
X108735000Y-26776310D01*
X108735000Y-26285750D01*
X108576250Y-26127000D01*
X107477000Y-26127000D01*
X107223000Y-26127000D01*
X107203000Y-26127000D01*
X107203000Y-25873000D01*
X107223000Y-25873000D01*
X107223000Y-24873750D01*
X107477000Y-24873750D01*
X107477000Y-25873000D01*
X108576250Y-25873000D01*
X108735000Y-25714250D01*
X108735000Y-25223690D01*
X108638327Y-24990301D01*
X108459698Y-24811673D01*
X108226309Y-24715000D01*
X107635750Y-24715000D01*
X107477000Y-24873750D01*
X107223000Y-24873750D01*
X107064250Y-24715000D01*
X106473691Y-24715000D01*
X106240302Y-24811673D01*
X106061673Y-24990301D01*
X106003721Y-25130209D01*
X105998157Y-25102235D01*
X105857809Y-24892191D01*
X105647765Y-24751843D01*
X105400000Y-24702560D01*
X103900000Y-24702560D01*
X103652235Y-24751843D01*
X103442191Y-24892191D01*
X103301843Y-25102235D01*
X103289358Y-25165000D01*
X101547440Y-25165000D01*
X101547440Y-25150000D01*
X101498157Y-24902235D01*
X101357809Y-24692191D01*
X101147765Y-24551843D01*
X100900000Y-24502560D01*
X100000000Y-24502560D01*
X99752235Y-24551843D01*
X99542191Y-24692191D01*
X99401843Y-24902235D01*
X99352560Y-25150000D01*
X98647440Y-25150000D01*
X98598157Y-24902235D01*
X98457809Y-24692191D01*
X98247765Y-24551843D01*
X98000000Y-24502560D01*
X97100000Y-24502560D01*
X96852235Y-24551843D01*
X96642191Y-24692191D01*
X96501843Y-24902235D01*
X96452560Y-25150000D01*
X69627000Y-25150000D01*
X69627000Y-21985750D01*
X81505000Y-21985750D01*
X81505000Y-22826310D01*
X81601673Y-23059699D01*
X81780302Y-23238327D01*
X82013691Y-23335000D01*
X82854250Y-23335000D01*
X83013000Y-23176250D01*
X83013000Y-21827000D01*
X81663750Y-21827000D01*
X81505000Y-21985750D01*
X69627000Y-21985750D01*
X69627000Y-20573690D01*
X81505000Y-20573690D01*
X81505000Y-21414250D01*
X81663750Y-21573000D01*
X83013000Y-21573000D01*
X83013000Y-20223750D01*
X83267000Y-20223750D01*
X83267000Y-21573000D01*
X83287000Y-21573000D01*
X83287000Y-21827000D01*
X83267000Y-21827000D01*
X83267000Y-23176250D01*
X83425750Y-23335000D01*
X84266309Y-23335000D01*
X84499698Y-23238327D01*
X84678327Y-23059699D01*
X84692718Y-23024957D01*
X84753847Y-23086086D01*
X85354778Y-23335000D01*
X86005222Y-23335000D01*
X86606153Y-23086086D01*
X86950000Y-22742239D01*
X87293847Y-23086086D01*
X87894778Y-23335000D01*
X88545222Y-23335000D01*
X89146153Y-23086086D01*
X89606086Y-22626153D01*
X89855000Y-22025222D01*
X89855000Y-21374778D01*
X89606086Y-20773847D01*
X89146153Y-20313914D01*
X88545222Y-20065000D01*
X87894778Y-20065000D01*
X87293847Y-20313914D01*
X86950000Y-20657761D01*
X86606153Y-20313914D01*
X86005222Y-20065000D01*
X85354778Y-20065000D01*
X84753847Y-20313914D01*
X84692718Y-20375043D01*
X84678327Y-20340301D01*
X84499698Y-20161673D01*
X84266309Y-20065000D01*
X83425750Y-20065000D01*
X83267000Y-20223750D01*
X83013000Y-20223750D01*
X82854250Y-20065000D01*
X82013691Y-20065000D01*
X81780302Y-20161673D01*
X81601673Y-20340301D01*
X81505000Y-20573690D01*
X69627000Y-20573690D01*
X69627000Y-17620295D01*
X99637000Y-17620295D01*
X99637000Y-18459705D01*
X99958229Y-19235219D01*
X100551781Y-19828771D01*
X101327295Y-20150000D01*
X102166705Y-20150000D01*
X102942219Y-19828771D01*
X103535771Y-19235219D01*
X103857000Y-18459705D01*
X103857000Y-17620295D01*
X103535771Y-16844781D01*
X102942219Y-16251229D01*
X102166705Y-15930000D01*
X101327295Y-15930000D01*
X100551781Y-16251229D01*
X99958229Y-16844781D01*
X99637000Y-17620295D01*
X69627000Y-17620295D01*
X69627000Y-15000000D01*
X69617333Y-14951399D01*
X69589803Y-14910197D01*
X69548601Y-14882667D01*
X69500000Y-14873000D01*
X68929501Y-14873000D01*
X68823926Y-14852000D01*
X68823925Y-14852000D01*
X68754000Y-14838091D01*
X68684074Y-14852000D01*
X65833074Y-14852000D01*
X65764491Y-14865642D01*
X65764486Y-14865642D01*
X65764482Y-14865644D01*
X65727499Y-14873000D01*
X60617501Y-14873000D01*
X60580518Y-14865644D01*
X60580514Y-14865642D01*
X60580509Y-14865642D01*
X60511926Y-14852000D01*
X57647926Y-14852000D01*
X57578000Y-14838091D01*
X57402500Y-14873000D01*
X57130200Y-14873000D01*
X57064525Y-14891300D01*
X57027926Y-14924707D01*
X56885326Y-15118407D01*
X56870220Y-15145213D01*
X56860600Y-15193823D01*
X56868000Y-22836472D01*
X56868000Y-27103074D01*
X56854091Y-27173000D01*
X56872288Y-27264481D01*
X56873000Y-28000123D01*
X56882967Y-28049318D01*
X56910749Y-28090351D01*
X56952119Y-28117628D01*
X57000778Y-28126998D01*
X61160991Y-28101521D01*
X61160991Y-29461138D01*
X61146102Y-29535990D01*
X61160991Y-29610842D01*
X61205087Y-29832527D01*
X61373062Y-30083919D01*
X61436518Y-30126319D01*
X62782670Y-31472472D01*
X62825071Y-31535929D01*
X63076463Y-31703904D01*
X63298148Y-31748000D01*
X63298152Y-31748000D01*
X63372999Y-31762888D01*
X63447846Y-31748000D01*
X88673199Y-31748000D01*
X104142000Y-47216802D01*
X104142001Y-64320288D01*
X104024569Y-64437720D01*
X103867000Y-64818126D01*
X103867000Y-65229874D01*
X104024569Y-65610280D01*
X104315720Y-65901431D01*
X104696126Y-66059000D01*
X104990000Y-66059000D01*
X104990000Y-67835198D01*
X104515528Y-68309671D01*
X104452072Y-68352071D01*
X104409672Y-68415527D01*
X104409671Y-68415528D01*
X104388951Y-68446538D01*
X104351518Y-68502560D01*
X104150000Y-68502560D01*
X103902235Y-68551843D01*
X103692191Y-68692191D01*
X103551843Y-68902235D01*
X103502560Y-69150000D01*
X103502560Y-69240000D01*
X98064846Y-69240000D01*
X97989999Y-69225112D01*
X97915152Y-69240000D01*
X97915148Y-69240000D01*
X97693463Y-69284096D01*
X97442071Y-69452071D01*
X97399671Y-69515527D01*
X93421528Y-73493671D01*
X93358072Y-73536071D01*
X93315672Y-73599527D01*
X93315671Y-73599528D01*
X93227095Y-73732092D01*
X93208235Y-73735843D01*
X92998191Y-73876191D01*
X92857843Y-74086235D01*
X92808560Y-74334000D01*
X92808560Y-76034000D01*
X92857843Y-76281765D01*
X92998191Y-76491809D01*
X93146001Y-76590573D01*
X93146000Y-77737198D01*
X92729000Y-78154198D01*
X92729000Y-78026126D01*
X92571431Y-77645720D01*
X92280280Y-77354569D01*
X91899874Y-77197000D01*
X91766000Y-77197000D01*
X91766000Y-76590573D01*
X91913809Y-76491809D01*
X92054157Y-76281765D01*
X92103440Y-76034000D01*
X92103440Y-74334000D01*
X92054157Y-74086235D01*
X91913809Y-73876191D01*
X91703765Y-73735843D01*
X91456000Y-73686560D01*
X90556000Y-73686560D01*
X90308235Y-73735843D01*
X90098191Y-73876191D01*
X90085000Y-73895933D01*
X90085000Y-67265295D01*
X90704000Y-67265295D01*
X90704000Y-68104705D01*
X91025229Y-68880219D01*
X91618781Y-69473771D01*
X92394295Y-69795000D01*
X93233705Y-69795000D01*
X94009219Y-69473771D01*
X94602771Y-68880219D01*
X94924000Y-68104705D01*
X94924000Y-67265295D01*
X94602771Y-66489781D01*
X94009219Y-65896229D01*
X93233705Y-65575000D01*
X92394295Y-65575000D01*
X91618781Y-65896229D01*
X91025229Y-66489781D01*
X90704000Y-67265295D01*
X90085000Y-67265295D01*
X90085000Y-41265295D01*
X90704000Y-41265295D01*
X90704000Y-42104705D01*
X91025229Y-42880219D01*
X91618781Y-43473771D01*
X92394295Y-43795000D01*
X93233705Y-43795000D01*
X94009219Y-43473771D01*
X94602771Y-42880219D01*
X94924000Y-42104705D01*
X94924000Y-41265295D01*
X94602771Y-40489781D01*
X94009219Y-39896229D01*
X93233705Y-39575000D01*
X92394295Y-39575000D01*
X91618781Y-39896229D01*
X91025229Y-40489781D01*
X90704000Y-41265295D01*
X90085000Y-41265295D01*
X90085000Y-39984877D01*
X90442867Y-39627011D01*
X90502873Y-39627011D01*
X90883279Y-39469442D01*
X91174430Y-39178291D01*
X91331999Y-38797885D01*
X91331999Y-38386137D01*
X91174430Y-38005731D01*
X91097973Y-37929274D01*
X91205006Y-37670874D01*
X91205006Y-37259126D01*
X91047437Y-36878720D01*
X90756286Y-36587569D01*
X90375880Y-36430000D01*
X89964132Y-36430000D01*
X89583726Y-36587569D01*
X89292575Y-36878720D01*
X89135006Y-37259126D01*
X89135006Y-37319132D01*
X88290201Y-38163938D01*
X88226519Y-38121387D01*
X86592613Y-36487482D01*
X86529289Y-36392711D01*
X86153855Y-36141854D01*
X85822783Y-36076000D01*
X85711000Y-36053765D01*
X85599217Y-36076000D01*
X37931132Y-36076000D01*
X35885000Y-34029869D01*
X35885000Y-24720131D01*
X37770133Y-22835000D01*
X38119413Y-22835000D01*
X38141843Y-22947765D01*
X38282191Y-23157809D01*
X38492235Y-23298157D01*
X38740000Y-23347440D01*
X40740000Y-23347440D01*
X40987765Y-23298157D01*
X41197809Y-23157809D01*
X41338157Y-22947765D01*
X41344061Y-22918081D01*
X41392794Y-22966814D01*
X41507074Y-22852534D01*
X41605736Y-23119387D01*
X42215461Y-23345908D01*
X42865460Y-23321856D01*
X43354264Y-23119387D01*
X43452927Y-22852532D01*
X42480000Y-21879605D01*
X42465858Y-21893748D01*
X42286253Y-21714143D01*
X42300395Y-21700000D01*
X42659605Y-21700000D01*
X43632532Y-22672927D01*
X43667689Y-22659928D01*
X44093847Y-23086086D01*
X44694778Y-23335000D01*
X45345222Y-23335000D01*
X45946153Y-23086086D01*
X46406086Y-22626153D01*
X46655000Y-22025222D01*
X46655000Y-21374778D01*
X46406086Y-20773847D01*
X45946153Y-20313914D01*
X45345222Y-20065000D01*
X44694778Y-20065000D01*
X44093847Y-20313914D01*
X43667689Y-20740072D01*
X43632532Y-20727073D01*
X42659605Y-21700000D01*
X42300395Y-21700000D01*
X42286253Y-21685858D01*
X42465858Y-21506253D01*
X42480000Y-21520395D01*
X43452927Y-20547468D01*
X43354264Y-20280613D01*
X42744539Y-20054092D01*
X42094540Y-20078144D01*
X41605736Y-20280613D01*
X41507074Y-20547466D01*
X41392794Y-20433186D01*
X41344061Y-20481919D01*
X41338157Y-20452235D01*
X41197809Y-20242191D01*
X40987765Y-20101843D01*
X40740000Y-20052560D01*
X38740000Y-20052560D01*
X38492235Y-20101843D01*
X38282191Y-20242191D01*
X38141843Y-20452235D01*
X38119413Y-20565000D01*
X37411783Y-20565000D01*
X37300000Y-20542765D01*
X37188217Y-20565000D01*
X36857145Y-20630854D01*
X36481711Y-20881711D01*
X36418391Y-20976476D01*
X34026482Y-23368387D01*
X33931711Y-23431711D01*
X33688905Y-23795097D01*
X33680854Y-23807146D01*
X33592765Y-24250000D01*
X33615000Y-24361783D01*
X33615001Y-34388212D01*
X33592765Y-34500000D01*
X33680854Y-34942854D01*
X33680855Y-34942855D01*
X33931712Y-35318289D01*
X34026480Y-35381611D01*
X36579389Y-37934521D01*
X36642711Y-38029289D01*
X36906367Y-38205458D01*
X37018145Y-38280146D01*
X37461000Y-38368235D01*
X37572783Y-38346000D01*
X41377862Y-38346000D01*
X41377353Y-38346106D01*
X41348507Y-38347668D01*
X41262940Y-38367896D01*
X40597947Y-38569303D01*
X40562668Y-38584643D01*
X40525764Y-38595504D01*
X40447145Y-38634873D01*
X39846321Y-38983859D01*
X39815518Y-39006903D01*
X39782100Y-39025964D01*
X39714646Y-39082364D01*
X39210223Y-39560209D01*
X39185548Y-39589720D01*
X39157412Y-39615957D01*
X39104742Y-39686362D01*
X38723774Y-40267434D01*
X38706547Y-40301836D01*
X38685204Y-40333838D01*
X38650144Y-40414471D01*
X38413070Y-41067599D01*
X38404221Y-41105034D01*
X38390810Y-41141094D01*
X38375240Y-41227630D01*
X38298078Y-41889470D01*
X38290001Y-41930074D01*
X38290000Y-75069925D01*
X38296201Y-75101100D01*
X38340224Y-75594369D01*
X38346106Y-75622648D01*
X38347668Y-75651493D01*
X38367896Y-75737060D01*
X38569303Y-76402053D01*
X38584642Y-76437330D01*
X38595504Y-76474236D01*
X38634873Y-76552855D01*
X38983859Y-77153679D01*
X39006903Y-77184483D01*
X39025964Y-77217900D01*
X39082364Y-77285353D01*
X39560209Y-77789777D01*
X39589717Y-77814449D01*
X39615957Y-77842589D01*
X39686362Y-77895258D01*
X40267435Y-78276226D01*
X40301833Y-78293451D01*
X40333838Y-78314796D01*
X40414471Y-78349856D01*
X40593940Y-78415000D01*
X35733689Y-78415000D01*
X35651456Y-78398643D01*
X35569223Y-78415000D01*
X35569220Y-78415000D01*
X35369972Y-78454633D01*
X35325656Y-78463448D01*
X35121398Y-78599929D01*
X35049456Y-78647999D01*
X35002873Y-78717715D01*
X34265718Y-79454872D01*
X34196000Y-79501456D01*
X34149416Y-79571174D01*
X34011448Y-79777657D01*
X33946643Y-80103457D01*
X33963001Y-80185695D01*
X33963000Y-85007767D01*
X33946643Y-85090000D01*
X33963000Y-85172233D01*
X33963000Y-85172236D01*
X34011448Y-85415800D01*
X34195999Y-85692001D01*
X34265720Y-85738587D01*
X36915001Y-88387870D01*
X36915001Y-90243569D01*
X36602771Y-89489781D01*
X36009219Y-88896229D01*
X35233705Y-88575000D01*
X34394295Y-88575000D01*
X33618781Y-88896229D01*
X33025229Y-89489781D01*
X32704000Y-90265295D01*
X31710000Y-90265295D01*
X31710000Y-67265295D01*
X32587000Y-67265295D01*
X32587000Y-68104705D01*
X32908229Y-68880219D01*
X33501781Y-69473771D01*
X34277295Y-69795000D01*
X35116705Y-69795000D01*
X35892219Y-69473771D01*
X36485771Y-68880219D01*
X36807000Y-68104705D01*
X36807000Y-67265295D01*
X36485771Y-66489781D01*
X35892219Y-65896229D01*
X35116705Y-65575000D01*
X34277295Y-65575000D01*
X33501781Y-65896229D01*
X32908229Y-66489781D01*
X32587000Y-67265295D01*
X31710000Y-67265295D01*
X31710000Y-41265295D01*
X32704000Y-41265295D01*
X32704000Y-42104705D01*
X33025229Y-42880219D01*
X33618781Y-43473771D01*
X34394295Y-43795000D01*
X35233705Y-43795000D01*
X36009219Y-43473771D01*
X36602771Y-42880219D01*
X36924000Y-42104705D01*
X36924000Y-41265295D01*
X36602771Y-40489781D01*
X36009219Y-39896229D01*
X35233705Y-39575000D01*
X34394295Y-39575000D01*
X33618781Y-39896229D01*
X33025229Y-40489781D01*
X32704000Y-41265295D01*
X31710000Y-41265295D01*
X31710000Y-14710000D01*
X110290001Y-14710000D01*
X110290000Y-113290000D01*
G36*
X65211000Y-91828000D02*
X65231000Y-91828000D01*
X65231000Y-92082000D01*
X65211000Y-92082000D01*
X65211000Y-92102000D01*
X64957000Y-92102000D01*
X64957000Y-92082000D01*
X64937000Y-92082000D01*
X64937000Y-91828000D01*
X64957000Y-91828000D01*
X64957000Y-91808000D01*
X65211000Y-91808000D01*
X65211000Y-91828000D01*
X65211000Y-91828000D01*
G37*
X65211000Y-91828000D02*
X65231000Y-91828000D01*
X65231000Y-92082000D01*
X65211000Y-92082000D01*
X65211000Y-92102000D01*
X64957000Y-92102000D01*
X64957000Y-92082000D01*
X64937000Y-92082000D01*
X64937000Y-91828000D01*
X64957000Y-91828000D01*
X64957000Y-91808000D01*
X65211000Y-91808000D01*
X65211000Y-91828000D01*
G36*
X90098191Y-76491809D02*
X90246001Y-76590573D01*
X90246001Y-77469148D01*
X90231112Y-77544000D01*
X90290097Y-77840537D01*
X90414104Y-78026126D01*
X90458072Y-78091929D01*
X90521528Y-78134329D01*
X90659000Y-78271801D01*
X90659000Y-78437874D01*
X90816569Y-78818280D01*
X91107720Y-79109431D01*
X91488126Y-79267000D01*
X91616198Y-79267000D01*
X87184678Y-83698521D01*
X87345908Y-83264539D01*
X87321856Y-82614540D01*
X87119387Y-82125736D01*
X86852532Y-82027073D01*
X85879605Y-83000000D01*
X85893748Y-83014143D01*
X85714143Y-83193748D01*
X85700000Y-83179605D01*
X84727073Y-84152532D01*
X84825736Y-84419387D01*
X85435461Y-84645908D01*
X86085460Y-84621856D01*
X86385711Y-84497488D01*
X86045199Y-84838000D01*
X84148846Y-84838000D01*
X84073999Y-84823112D01*
X83999152Y-84838000D01*
X83999148Y-84838000D01*
X83777463Y-84882096D01*
X83777461Y-84882097D01*
X83777462Y-84882097D01*
X83589526Y-85007671D01*
X83589524Y-85007673D01*
X83526071Y-85050071D01*
X83483673Y-85113524D01*
X81154527Y-87442672D01*
X81091071Y-87485072D01*
X81048671Y-87548528D01*
X81048670Y-87548529D01*
X80923096Y-87736464D01*
X80878584Y-87960242D01*
X80475182Y-87880000D01*
X80172818Y-87880000D01*
X79725073Y-87969062D01*
X79217327Y-88308327D01*
X79047582Y-88562368D01*
X79021966Y-88507424D01*
X78580417Y-88102760D01*
X78148740Y-87923964D01*
X77911000Y-88044622D01*
X77911000Y-89288000D01*
X77931000Y-89288000D01*
X77931000Y-89542000D01*
X77911000Y-89542000D01*
X77911000Y-89562000D01*
X77657000Y-89562000D01*
X77657000Y-89542000D01*
X77637000Y-89542000D01*
X77637000Y-89288000D01*
X77657000Y-89288000D01*
X77657000Y-88044622D01*
X77419260Y-87923964D01*
X76987583Y-88102760D01*
X76546034Y-88507424D01*
X76520418Y-88562368D01*
X76350673Y-88308327D01*
X75842927Y-87969062D01*
X75395182Y-87880000D01*
X75092818Y-87880000D01*
X74645073Y-87969062D01*
X74137327Y-88308327D01*
X73974000Y-88552763D01*
X73825013Y-88329788D01*
X77588625Y-84566177D01*
X77754778Y-84635000D01*
X78405222Y-84635000D01*
X79006153Y-84386086D01*
X79350000Y-84042239D01*
X79693847Y-84386086D01*
X80294778Y-84635000D01*
X80945222Y-84635000D01*
X81546153Y-84386086D01*
X81890000Y-84042239D01*
X82233847Y-84386086D01*
X82834778Y-84635000D01*
X83485222Y-84635000D01*
X84086153Y-84386086D01*
X84512311Y-83959928D01*
X84547468Y-83972927D01*
X85520395Y-83000000D01*
X84547468Y-82027073D01*
X84512311Y-82040072D01*
X84319707Y-81847468D01*
X84727073Y-81847468D01*
X85700000Y-82820395D01*
X86672927Y-81847468D01*
X86574264Y-81580613D01*
X85964539Y-81354092D01*
X85314540Y-81378144D01*
X84825736Y-81580613D01*
X84727073Y-81847468D01*
X84319707Y-81847468D01*
X84086153Y-81613914D01*
X83485222Y-81365000D01*
X82834778Y-81365000D01*
X82233847Y-81613914D01*
X81890000Y-81957761D01*
X81546153Y-81613914D01*
X80945222Y-81365000D01*
X80294778Y-81365000D01*
X79693847Y-81613914D01*
X79350000Y-81957761D01*
X79006153Y-81613914D01*
X78405222Y-81365000D01*
X77754778Y-81365000D01*
X77153847Y-81613914D01*
X76810000Y-81957761D01*
X76466153Y-81613914D01*
X75865222Y-81365000D01*
X75214778Y-81365000D01*
X74613847Y-81613914D01*
X74270000Y-81957761D01*
X73926153Y-81613914D01*
X73325222Y-81365000D01*
X72674778Y-81365000D01*
X72073847Y-81613914D01*
X71730000Y-81957761D01*
X71386153Y-81613914D01*
X70785222Y-81365000D01*
X70134778Y-81365000D01*
X69533847Y-81613914D01*
X69190000Y-81957761D01*
X68846153Y-81613914D01*
X68245222Y-81365000D01*
X67594778Y-81365000D01*
X66993847Y-81613914D01*
X66567689Y-82040072D01*
X66532532Y-82027073D01*
X65559605Y-83000000D01*
X65573748Y-83014143D01*
X65394143Y-83193748D01*
X65380000Y-83179605D01*
X65365858Y-83193748D01*
X65186253Y-83014143D01*
X65200395Y-83000000D01*
X64227468Y-82027073D01*
X64192311Y-82040072D01*
X63999707Y-81847468D01*
X64407073Y-81847468D01*
X65380000Y-82820395D01*
X66352927Y-81847468D01*
X66254264Y-81580613D01*
X65644539Y-81354092D01*
X64994540Y-81378144D01*
X64505736Y-81580613D01*
X64407073Y-81847468D01*
X63999707Y-81847468D01*
X63766153Y-81613914D01*
X63165222Y-81365000D01*
X62514778Y-81365000D01*
X61913847Y-81613914D01*
X61570000Y-81957761D01*
X61226153Y-81613914D01*
X60625222Y-81365000D01*
X59974778Y-81365000D01*
X59373847Y-81613914D01*
X59030000Y-81957761D01*
X58686153Y-81613914D01*
X58085222Y-81365000D01*
X57434778Y-81365000D01*
X56833847Y-81613914D01*
X56490000Y-81957761D01*
X56146153Y-81613914D01*
X55545222Y-81365000D01*
X54894778Y-81365000D01*
X54293847Y-81613914D01*
X53950000Y-81957761D01*
X53606153Y-81613914D01*
X53005222Y-81365000D01*
X52354778Y-81365000D01*
X51753847Y-81613914D01*
X51410000Y-81957761D01*
X51066153Y-81613914D01*
X50465222Y-81365000D01*
X49814778Y-81365000D01*
X49213847Y-81613914D01*
X48870000Y-81957761D01*
X48526153Y-81613914D01*
X47925222Y-81365000D01*
X47274778Y-81365000D01*
X46673847Y-81613914D01*
X46330000Y-81957761D01*
X45986153Y-81613914D01*
X45385222Y-81365000D01*
X44734778Y-81365000D01*
X44133847Y-81613914D01*
X43790000Y-81957761D01*
X43446153Y-81613914D01*
X42845222Y-81365000D01*
X42194778Y-81365000D01*
X41593847Y-81613914D01*
X41250000Y-81957761D01*
X40906153Y-81613914D01*
X40305222Y-81365000D01*
X39654778Y-81365000D01*
X39053847Y-81613914D01*
X38992718Y-81675043D01*
X38978327Y-81640301D01*
X38799698Y-81461673D01*
X38566309Y-81365000D01*
X37725750Y-81365000D01*
X37567000Y-81523750D01*
X37567000Y-82873000D01*
X37587000Y-82873000D01*
X37587000Y-83127000D01*
X37567000Y-83127000D01*
X37567000Y-84476250D01*
X37725750Y-84635000D01*
X38566309Y-84635000D01*
X38799698Y-84538327D01*
X38978327Y-84359699D01*
X38992718Y-84324957D01*
X39053847Y-84386086D01*
X39654778Y-84635000D01*
X40305222Y-84635000D01*
X40906153Y-84386086D01*
X41250000Y-84042239D01*
X41593847Y-84386086D01*
X42194778Y-84635000D01*
X42845222Y-84635000D01*
X43446153Y-84386086D01*
X43790000Y-84042239D01*
X44133847Y-84386086D01*
X44734778Y-84635000D01*
X45385222Y-84635000D01*
X45986153Y-84386086D01*
X46330000Y-84042239D01*
X46673847Y-84386086D01*
X47274778Y-84635000D01*
X47925222Y-84635000D01*
X48526153Y-84386086D01*
X48870000Y-84042239D01*
X49213847Y-84386086D01*
X49814778Y-84635000D01*
X50465222Y-84635000D01*
X51066153Y-84386086D01*
X51410000Y-84042239D01*
X51753847Y-84386086D01*
X52354778Y-84635000D01*
X53005222Y-84635000D01*
X53606153Y-84386086D01*
X53950000Y-84042239D01*
X54293847Y-84386086D01*
X54894778Y-84635000D01*
X55545222Y-84635000D01*
X56146153Y-84386086D01*
X56490000Y-84042239D01*
X56833847Y-84386086D01*
X57434778Y-84635000D01*
X58085222Y-84635000D01*
X58686153Y-84386086D01*
X59030000Y-84042239D01*
X59373847Y-84386086D01*
X59974778Y-84635000D01*
X60625222Y-84635000D01*
X61226153Y-84386086D01*
X61570000Y-84042239D01*
X61913847Y-84386086D01*
X62357752Y-84569958D01*
X62207345Y-84720365D01*
X62065000Y-85064017D01*
X62065000Y-85435983D01*
X62207345Y-85779635D01*
X62302710Y-85875000D01*
X62207345Y-85970365D01*
X62065000Y-86314017D01*
X62065000Y-86685983D01*
X62207345Y-87029635D01*
X62470365Y-87292655D01*
X62814017Y-87435000D01*
X63185983Y-87435000D01*
X63529635Y-87292655D01*
X63562290Y-87260000D01*
X66145567Y-87260000D01*
X66190569Y-87272606D01*
X66295486Y-87260000D01*
X66324852Y-87260000D01*
X66369650Y-87251089D01*
X66490756Y-87236538D01*
X66517001Y-87221779D01*
X66546537Y-87215904D01*
X66647966Y-87148131D01*
X66687769Y-87125748D01*
X66710061Y-87106641D01*
X66797929Y-87047929D01*
X66823894Y-87009069D01*
X68281143Y-85760000D01*
X70925153Y-85760000D01*
X71000000Y-85774888D01*
X71074847Y-85760000D01*
X71074852Y-85760000D01*
X71296537Y-85715904D01*
X71547929Y-85547929D01*
X71590331Y-85484470D01*
X72508625Y-84566177D01*
X72674778Y-84635000D01*
X73325222Y-84635000D01*
X73926153Y-84386086D01*
X74270000Y-84042239D01*
X74613847Y-84386086D01*
X75214778Y-84635000D01*
X75370198Y-84635000D01*
X72575200Y-87429999D01*
X72409000Y-87429999D01*
X72409000Y-87170126D01*
X72251431Y-86789720D01*
X71960280Y-86498569D01*
X71579874Y-86341000D01*
X71168126Y-86341000D01*
X70787720Y-86498569D01*
X70745289Y-86541000D01*
X69745232Y-86541000D01*
X69662999Y-86524643D01*
X69580766Y-86541000D01*
X69580763Y-86541000D01*
X69337199Y-86589448D01*
X69176669Y-86696711D01*
X69060999Y-86773999D01*
X69014417Y-86843715D01*
X67944461Y-87913672D01*
X67775182Y-87880000D01*
X67472818Y-87880000D01*
X67025073Y-87969062D01*
X66517327Y-88308327D01*
X66354000Y-88552763D01*
X66190673Y-88308327D01*
X65682927Y-87969062D01*
X65235182Y-87880000D01*
X64932818Y-87880000D01*
X64485073Y-87969062D01*
X63977327Y-88308327D01*
X63814000Y-88552763D01*
X63650673Y-88308327D01*
X63142927Y-87969062D01*
X62695182Y-87880000D01*
X62392818Y-87880000D01*
X61945073Y-87969062D01*
X61437327Y-88308327D01*
X61274000Y-88552763D01*
X61110673Y-88308327D01*
X60602927Y-87969062D01*
X60155182Y-87880000D01*
X59852818Y-87880000D01*
X59405073Y-87969062D01*
X58897327Y-88308327D01*
X58727582Y-88562368D01*
X58701966Y-88507424D01*
X58260417Y-88102760D01*
X57828740Y-87923964D01*
X57591000Y-88044622D01*
X57591000Y-89288000D01*
X57611000Y-89288000D01*
X57611000Y-89542000D01*
X57591000Y-89542000D01*
X57591000Y-89562000D01*
X57337000Y-89562000D01*
X57337000Y-89542000D01*
X57317000Y-89542000D01*
X57317000Y-89288000D01*
X57337000Y-89288000D01*
X57337000Y-88044622D01*
X57099260Y-87923964D01*
X56667583Y-88102760D01*
X56226034Y-88507424D01*
X56200418Y-88562368D01*
X56030673Y-88308327D01*
X55522927Y-87969062D01*
X55075182Y-87880000D01*
X54772818Y-87880000D01*
X54325073Y-87969062D01*
X53817327Y-88308327D01*
X53654000Y-88552763D01*
X53490673Y-88308327D01*
X52982927Y-87969062D01*
X52535182Y-87880000D01*
X52232818Y-87880000D01*
X51785073Y-87969062D01*
X51277327Y-88308327D01*
X51114000Y-88552763D01*
X50950673Y-88308327D01*
X50442927Y-87969062D01*
X49995182Y-87880000D01*
X49692818Y-87880000D01*
X49245073Y-87969062D01*
X48737327Y-88308327D01*
X48574000Y-88552763D01*
X48410673Y-88308327D01*
X47902927Y-87969062D01*
X47455182Y-87880000D01*
X47152818Y-87880000D01*
X46705073Y-87969062D01*
X46197327Y-88308327D01*
X46034000Y-88552763D01*
X45870673Y-88308327D01*
X45362927Y-87969062D01*
X44915182Y-87880000D01*
X44612818Y-87880000D01*
X44165073Y-87969062D01*
X43657327Y-88308327D01*
X43494000Y-88552763D01*
X43330673Y-88308327D01*
X42822927Y-87969062D01*
X42375182Y-87880000D01*
X42072818Y-87880000D01*
X41625073Y-87969062D01*
X41117327Y-88308327D01*
X40947582Y-88562368D01*
X40921966Y-88507424D01*
X40480417Y-88102760D01*
X40048740Y-87923964D01*
X39811000Y-88044622D01*
X39811000Y-89288000D01*
X39831000Y-89288000D01*
X39831000Y-89542000D01*
X39811000Y-89542000D01*
X39811000Y-89562000D01*
X39557000Y-89562000D01*
X39557000Y-89542000D01*
X39537000Y-89542000D01*
X39537000Y-89288000D01*
X39557000Y-89288000D01*
X39557000Y-88044622D01*
X39319260Y-87923964D01*
X39185011Y-87979569D01*
X39185011Y-87708243D01*
X39201368Y-87626010D01*
X39185011Y-87543777D01*
X39185011Y-87543774D01*
X39136563Y-87300210D01*
X39049644Y-87170126D01*
X38998595Y-87093726D01*
X38998594Y-87093725D01*
X38952012Y-87024010D01*
X38882297Y-86977428D01*
X36539867Y-84635000D01*
X37154250Y-84635000D01*
X37313000Y-84476250D01*
X37313000Y-83127000D01*
X37293000Y-83127000D01*
X37293000Y-82873000D01*
X37313000Y-82873000D01*
X37313000Y-81523750D01*
X37154250Y-81365000D01*
X36313691Y-81365000D01*
X36233011Y-81398419D01*
X36233011Y-80835000D01*
X87417767Y-80835000D01*
X87500000Y-80851357D01*
X87582233Y-80835000D01*
X87582237Y-80835000D01*
X87825801Y-80786552D01*
X88102001Y-80602001D01*
X88148587Y-80532280D01*
X89782283Y-78898585D01*
X89852001Y-78852001D01*
X90036552Y-78575801D01*
X90085000Y-78332237D01*
X90085000Y-78332236D01*
X90101358Y-78250000D01*
X90085000Y-78167763D01*
X90085000Y-76472067D01*
X90098191Y-76491809D01*
X90098191Y-76491809D01*
G37*
X90098191Y-76491809D02*
X90246001Y-76590573D01*
X90246001Y-77469148D01*
X90231112Y-77544000D01*
X90290097Y-77840537D01*
X90414104Y-78026126D01*
X90458072Y-78091929D01*
X90521528Y-78134329D01*
X90659000Y-78271801D01*
X90659000Y-78437874D01*
X90816569Y-78818280D01*
X91107720Y-79109431D01*
X91488126Y-79267000D01*
X91616198Y-79267000D01*
X87184678Y-83698521D01*
X87345908Y-83264539D01*
X87321856Y-82614540D01*
X87119387Y-82125736D01*
X86852532Y-82027073D01*
X85879605Y-83000000D01*
X85893748Y-83014143D01*
X85714143Y-83193748D01*
X85700000Y-83179605D01*
X84727073Y-84152532D01*
X84825736Y-84419387D01*
X85435461Y-84645908D01*
X86085460Y-84621856D01*
X86385711Y-84497488D01*
X86045199Y-84838000D01*
X84148846Y-84838000D01*
X84073999Y-84823112D01*
X83999152Y-84838000D01*
X83999148Y-84838000D01*
X83777463Y-84882096D01*
X83777461Y-84882097D01*
X83777462Y-84882097D01*
X83589526Y-85007671D01*
X83589524Y-85007673D01*
X83526071Y-85050071D01*
X83483673Y-85113524D01*
X81154527Y-87442672D01*
X81091071Y-87485072D01*
X81048671Y-87548528D01*
X81048670Y-87548529D01*
X80923096Y-87736464D01*
X80878584Y-87960242D01*
X80475182Y-87880000D01*
X80172818Y-87880000D01*
X79725073Y-87969062D01*
X79217327Y-88308327D01*
X79047582Y-88562368D01*
X79021966Y-88507424D01*
X78580417Y-88102760D01*
X78148740Y-87923964D01*
X77911000Y-88044622D01*
X77911000Y-89288000D01*
X77931000Y-89288000D01*
X77931000Y-89542000D01*
X77911000Y-89542000D01*
X77911000Y-89562000D01*
X77657000Y-89562000D01*
X77657000Y-89542000D01*
X77637000Y-89542000D01*
X77637000Y-89288000D01*
X77657000Y-89288000D01*
X77657000Y-88044622D01*
X77419260Y-87923964D01*
X76987583Y-88102760D01*
X76546034Y-88507424D01*
X76520418Y-88562368D01*
X76350673Y-88308327D01*
X75842927Y-87969062D01*
X75395182Y-87880000D01*
X75092818Y-87880000D01*
X74645073Y-87969062D01*
X74137327Y-88308327D01*
X73974000Y-88552763D01*
X73825013Y-88329788D01*
X77588625Y-84566177D01*
X77754778Y-84635000D01*
X78405222Y-84635000D01*
X79006153Y-84386086D01*
X79350000Y-84042239D01*
X79693847Y-84386086D01*
X80294778Y-84635000D01*
X80945222Y-84635000D01*
X81546153Y-84386086D01*
X81890000Y-84042239D01*
X82233847Y-84386086D01*
X82834778Y-84635000D01*
X83485222Y-84635000D01*
X84086153Y-84386086D01*
X84512311Y-83959928D01*
X84547468Y-83972927D01*
X85520395Y-83000000D01*
X84547468Y-82027073D01*
X84512311Y-82040072D01*
X84319707Y-81847468D01*
X84727073Y-81847468D01*
X85700000Y-82820395D01*
X86672927Y-81847468D01*
X86574264Y-81580613D01*
X85964539Y-81354092D01*
X85314540Y-81378144D01*
X84825736Y-81580613D01*
X84727073Y-81847468D01*
X84319707Y-81847468D01*
X84086153Y-81613914D01*
X83485222Y-81365000D01*
X82834778Y-81365000D01*
X82233847Y-81613914D01*
X81890000Y-81957761D01*
X81546153Y-81613914D01*
X80945222Y-81365000D01*
X80294778Y-81365000D01*
X79693847Y-81613914D01*
X79350000Y-81957761D01*
X79006153Y-81613914D01*
X78405222Y-81365000D01*
X77754778Y-81365000D01*
X77153847Y-81613914D01*
X76810000Y-81957761D01*
X76466153Y-81613914D01*
X75865222Y-81365000D01*
X75214778Y-81365000D01*
X74613847Y-81613914D01*
X74270000Y-81957761D01*
X73926153Y-81613914D01*
X73325222Y-81365000D01*
X72674778Y-81365000D01*
X72073847Y-81613914D01*
X71730000Y-81957761D01*
X71386153Y-81613914D01*
X70785222Y-81365000D01*
X70134778Y-81365000D01*
X69533847Y-81613914D01*
X69190000Y-81957761D01*
X68846153Y-81613914D01*
X68245222Y-81365000D01*
X67594778Y-81365000D01*
X66993847Y-81613914D01*
X66567689Y-82040072D01*
X66532532Y-82027073D01*
X65559605Y-83000000D01*
X65573748Y-83014143D01*
X65394143Y-83193748D01*
X65380000Y-83179605D01*
X65365858Y-83193748D01*
X65186253Y-83014143D01*
X65200395Y-83000000D01*
X64227468Y-82027073D01*
X64192311Y-82040072D01*
X63999707Y-81847468D01*
X64407073Y-81847468D01*
X65380000Y-82820395D01*
X66352927Y-81847468D01*
X66254264Y-81580613D01*
X65644539Y-81354092D01*
X64994540Y-81378144D01*
X64505736Y-81580613D01*
X64407073Y-81847468D01*
X63999707Y-81847468D01*
X63766153Y-81613914D01*
X63165222Y-81365000D01*
X62514778Y-81365000D01*
X61913847Y-81613914D01*
X61570000Y-81957761D01*
X61226153Y-81613914D01*
X60625222Y-81365000D01*
X59974778Y-81365000D01*
X59373847Y-81613914D01*
X59030000Y-81957761D01*
X58686153Y-81613914D01*
X58085222Y-81365000D01*
X57434778Y-81365000D01*
X56833847Y-81613914D01*
X56490000Y-81957761D01*
X56146153Y-81613914D01*
X55545222Y-81365000D01*
X54894778Y-81365000D01*
X54293847Y-81613914D01*
X53950000Y-81957761D01*
X53606153Y-81613914D01*
X53005222Y-81365000D01*
X52354778Y-81365000D01*
X51753847Y-81613914D01*
X51410000Y-81957761D01*
X51066153Y-81613914D01*
X50465222Y-81365000D01*
X49814778Y-81365000D01*
X49213847Y-81613914D01*
X48870000Y-81957761D01*
X48526153Y-81613914D01*
X47925222Y-81365000D01*
X47274778Y-81365000D01*
X46673847Y-81613914D01*
X46330000Y-81957761D01*
X45986153Y-81613914D01*
X45385222Y-81365000D01*
X44734778Y-81365000D01*
X44133847Y-81613914D01*
X43790000Y-81957761D01*
X43446153Y-81613914D01*
X42845222Y-81365000D01*
X42194778Y-81365000D01*
X41593847Y-81613914D01*
X41250000Y-81957761D01*
X40906153Y-81613914D01*
X40305222Y-81365000D01*
X39654778Y-81365000D01*
X39053847Y-81613914D01*
X38992718Y-81675043D01*
X38978327Y-81640301D01*
X38799698Y-81461673D01*
X38566309Y-81365000D01*
X37725750Y-81365000D01*
X37567000Y-81523750D01*
X37567000Y-82873000D01*
X37587000Y-82873000D01*
X37587000Y-83127000D01*
X37567000Y-83127000D01*
X37567000Y-84476250D01*
X37725750Y-84635000D01*
X38566309Y-84635000D01*
X38799698Y-84538327D01*
X38978327Y-84359699D01*
X38992718Y-84324957D01*
X39053847Y-84386086D01*
X39654778Y-84635000D01*
X40305222Y-84635000D01*
X40906153Y-84386086D01*
X41250000Y-84042239D01*
X41593847Y-84386086D01*
X42194778Y-84635000D01*
X42845222Y-84635000D01*
X43446153Y-84386086D01*
X43790000Y-84042239D01*
X44133847Y-84386086D01*
X44734778Y-84635000D01*
X45385222Y-84635000D01*
X45986153Y-84386086D01*
X46330000Y-84042239D01*
X46673847Y-84386086D01*
X47274778Y-84635000D01*
X47925222Y-84635000D01*
X48526153Y-84386086D01*
X48870000Y-84042239D01*
X49213847Y-84386086D01*
X49814778Y-84635000D01*
X50465222Y-84635000D01*
X51066153Y-84386086D01*
X51410000Y-84042239D01*
X51753847Y-84386086D01*
X52354778Y-84635000D01*
X53005222Y-84635000D01*
X53606153Y-84386086D01*
X53950000Y-84042239D01*
X54293847Y-84386086D01*
X54894778Y-84635000D01*
X55545222Y-84635000D01*
X56146153Y-84386086D01*
X56490000Y-84042239D01*
X56833847Y-84386086D01*
X57434778Y-84635000D01*
X58085222Y-84635000D01*
X58686153Y-84386086D01*
X59030000Y-84042239D01*
X59373847Y-84386086D01*
X59974778Y-84635000D01*
X60625222Y-84635000D01*
X61226153Y-84386086D01*
X61570000Y-84042239D01*
X61913847Y-84386086D01*
X62357752Y-84569958D01*
X62207345Y-84720365D01*
X62065000Y-85064017D01*
X62065000Y-85435983D01*
X62207345Y-85779635D01*
X62302710Y-85875000D01*
X62207345Y-85970365D01*
X62065000Y-86314017D01*
X62065000Y-86685983D01*
X62207345Y-87029635D01*
X62470365Y-87292655D01*
X62814017Y-87435000D01*
X63185983Y-87435000D01*
X63529635Y-87292655D01*
X63562290Y-87260000D01*
X66145567Y-87260000D01*
X66190569Y-87272606D01*
X66295486Y-87260000D01*
X66324852Y-87260000D01*
X66369650Y-87251089D01*
X66490756Y-87236538D01*
X66517001Y-87221779D01*
X66546537Y-87215904D01*
X66647966Y-87148131D01*
X66687769Y-87125748D01*
X66710061Y-87106641D01*
X66797929Y-87047929D01*
X66823894Y-87009069D01*
X68281143Y-85760000D01*
X70925153Y-85760000D01*
X71000000Y-85774888D01*
X71074847Y-85760000D01*
X71074852Y-85760000D01*
X71296537Y-85715904D01*
X71547929Y-85547929D01*
X71590331Y-85484470D01*
X72508625Y-84566177D01*
X72674778Y-84635000D01*
X73325222Y-84635000D01*
X73926153Y-84386086D01*
X74270000Y-84042239D01*
X74613847Y-84386086D01*
X75214778Y-84635000D01*
X75370198Y-84635000D01*
X72575200Y-87429999D01*
X72409000Y-87429999D01*
X72409000Y-87170126D01*
X72251431Y-86789720D01*
X71960280Y-86498569D01*
X71579874Y-86341000D01*
X71168126Y-86341000D01*
X70787720Y-86498569D01*
X70745289Y-86541000D01*
X69745232Y-86541000D01*
X69662999Y-86524643D01*
X69580766Y-86541000D01*
X69580763Y-86541000D01*
X69337199Y-86589448D01*
X69176669Y-86696711D01*
X69060999Y-86773999D01*
X69014417Y-86843715D01*
X67944461Y-87913672D01*
X67775182Y-87880000D01*
X67472818Y-87880000D01*
X67025073Y-87969062D01*
X66517327Y-88308327D01*
X66354000Y-88552763D01*
X66190673Y-88308327D01*
X65682927Y-87969062D01*
X65235182Y-87880000D01*
X64932818Y-87880000D01*
X64485073Y-87969062D01*
X63977327Y-88308327D01*
X63814000Y-88552763D01*
X63650673Y-88308327D01*
X63142927Y-87969062D01*
X62695182Y-87880000D01*
X62392818Y-87880000D01*
X61945073Y-87969062D01*
X61437327Y-88308327D01*
X61274000Y-88552763D01*
X61110673Y-88308327D01*
X60602927Y-87969062D01*
X60155182Y-87880000D01*
X59852818Y-87880000D01*
X59405073Y-87969062D01*
X58897327Y-88308327D01*
X58727582Y-88562368D01*
X58701966Y-88507424D01*
X58260417Y-88102760D01*
X57828740Y-87923964D01*
X57591000Y-88044622D01*
X57591000Y-89288000D01*
X57611000Y-89288000D01*
X57611000Y-89542000D01*
X57591000Y-89542000D01*
X57591000Y-89562000D01*
X57337000Y-89562000D01*
X57337000Y-89542000D01*
X57317000Y-89542000D01*
X57317000Y-89288000D01*
X57337000Y-89288000D01*
X57337000Y-88044622D01*
X57099260Y-87923964D01*
X56667583Y-88102760D01*
X56226034Y-88507424D01*
X56200418Y-88562368D01*
X56030673Y-88308327D01*
X55522927Y-87969062D01*
X55075182Y-87880000D01*
X54772818Y-87880000D01*
X54325073Y-87969062D01*
X53817327Y-88308327D01*
X53654000Y-88552763D01*
X53490673Y-88308327D01*
X52982927Y-87969062D01*
X52535182Y-87880000D01*
X52232818Y-87880000D01*
X51785073Y-87969062D01*
X51277327Y-88308327D01*
X51114000Y-88552763D01*
X50950673Y-88308327D01*
X50442927Y-87969062D01*
X49995182Y-87880000D01*
X49692818Y-87880000D01*
X49245073Y-87969062D01*
X48737327Y-88308327D01*
X48574000Y-88552763D01*
X48410673Y-88308327D01*
X47902927Y-87969062D01*
X47455182Y-87880000D01*
X47152818Y-87880000D01*
X46705073Y-87969062D01*
X46197327Y-88308327D01*
X46034000Y-88552763D01*
X45870673Y-88308327D01*
X45362927Y-87969062D01*
X44915182Y-87880000D01*
X44612818Y-87880000D01*
X44165073Y-87969062D01*
X43657327Y-88308327D01*
X43494000Y-88552763D01*
X43330673Y-88308327D01*
X42822927Y-87969062D01*
X42375182Y-87880000D01*
X42072818Y-87880000D01*
X41625073Y-87969062D01*
X41117327Y-88308327D01*
X40947582Y-88562368D01*
X40921966Y-88507424D01*
X40480417Y-88102760D01*
X40048740Y-87923964D01*
X39811000Y-88044622D01*
X39811000Y-89288000D01*
X39831000Y-89288000D01*
X39831000Y-89542000D01*
X39811000Y-89542000D01*
X39811000Y-89562000D01*
X39557000Y-89562000D01*
X39557000Y-89542000D01*
X39537000Y-89542000D01*
X39537000Y-89288000D01*
X39557000Y-89288000D01*
X39557000Y-88044622D01*
X39319260Y-87923964D01*
X39185011Y-87979569D01*
X39185011Y-87708243D01*
X39201368Y-87626010D01*
X39185011Y-87543777D01*
X39185011Y-87543774D01*
X39136563Y-87300210D01*
X39049644Y-87170126D01*
X38998595Y-87093726D01*
X38998594Y-87093725D01*
X38952012Y-87024010D01*
X38882297Y-86977428D01*
X36539867Y-84635000D01*
X37154250Y-84635000D01*
X37313000Y-84476250D01*
X37313000Y-83127000D01*
X37293000Y-83127000D01*
X37293000Y-82873000D01*
X37313000Y-82873000D01*
X37313000Y-81523750D01*
X37154250Y-81365000D01*
X36313691Y-81365000D01*
X36233011Y-81398419D01*
X36233011Y-80835000D01*
X87417767Y-80835000D01*
X87500000Y-80851357D01*
X87582233Y-80835000D01*
X87582237Y-80835000D01*
X87825801Y-80786552D01*
X88102001Y-80602001D01*
X88148587Y-80532280D01*
X89782283Y-78898585D01*
X89852001Y-78852001D01*
X90036552Y-78575801D01*
X90085000Y-78332237D01*
X90085000Y-78332236D01*
X90101358Y-78250000D01*
X90085000Y-78167763D01*
X90085000Y-76472067D01*
X90098191Y-76491809D01*
G36*
X87060144Y-57711146D02*
X87502998Y-57799235D01*
X87665001Y-57767011D01*
X87665000Y-77524132D01*
X86774133Y-78415000D01*
X84438547Y-78415000D01*
X84474236Y-78404496D01*
X84552855Y-78365127D01*
X85153679Y-78016141D01*
X85184483Y-77993097D01*
X85217900Y-77974036D01*
X85285353Y-77917636D01*
X85789777Y-77439791D01*
X85814449Y-77410283D01*
X85842589Y-77384043D01*
X85895258Y-77313638D01*
X86276226Y-76732565D01*
X86293451Y-76698167D01*
X86314796Y-76666162D01*
X86349856Y-76585529D01*
X86586930Y-75932401D01*
X86595779Y-75894966D01*
X86609190Y-75858906D01*
X86624760Y-75772369D01*
X86701921Y-75110542D01*
X86710000Y-75069926D01*
X86710000Y-57477187D01*
X87060144Y-57711146D01*
X87060144Y-57711146D01*
G37*
X87060144Y-57711146D02*
X87502998Y-57799235D01*
X87665001Y-57767011D01*
X87665000Y-77524132D01*
X86774133Y-78415000D01*
X84438547Y-78415000D01*
X84474236Y-78404496D01*
X84552855Y-78365127D01*
X85153679Y-78016141D01*
X85184483Y-77993097D01*
X85217900Y-77974036D01*
X85285353Y-77917636D01*
X85789777Y-77439791D01*
X85814449Y-77410283D01*
X85842589Y-77384043D01*
X85895258Y-77313638D01*
X86276226Y-76732565D01*
X86293451Y-76698167D01*
X86314796Y-76666162D01*
X86349856Y-76585529D01*
X86586930Y-75932401D01*
X86595779Y-75894966D01*
X86609190Y-75858906D01*
X86624760Y-75772369D01*
X86701921Y-75110542D01*
X86710000Y-75069926D01*
X86710000Y-57477187D01*
X87060144Y-57711146D01*
G36*
X103502560Y-70850000D02*
X103551843Y-71097765D01*
X103692191Y-71307809D01*
X103902235Y-71448157D01*
X103947619Y-71457184D01*
X103929375Y-71469375D01*
X103721822Y-71780000D01*
X98984846Y-71780000D01*
X98909999Y-71765112D01*
X98835152Y-71780000D01*
X98835148Y-71780000D01*
X98613463Y-71824096D01*
X98362071Y-71992071D01*
X98319671Y-72055527D01*
X96945528Y-73429671D01*
X96882072Y-73472071D01*
X96839672Y-73535527D01*
X96839671Y-73535528D01*
X96714097Y-73723463D01*
X96708477Y-73751718D01*
X96522191Y-73876191D01*
X96381843Y-74086235D01*
X96332560Y-74334000D01*
X96332560Y-75606637D01*
X94666000Y-77273197D01*
X94666000Y-76590573D01*
X94813809Y-76491809D01*
X94954157Y-76281765D01*
X95003440Y-76034000D01*
X95003440Y-74334000D01*
X94958207Y-74106594D01*
X98304802Y-70760000D01*
X103502560Y-70760000D01*
X103502560Y-70850000D01*
X103502560Y-70850000D01*
G37*
X103502560Y-70850000D02*
X103551843Y-71097765D01*
X103692191Y-71307809D01*
X103902235Y-71448157D01*
X103947619Y-71457184D01*
X103929375Y-71469375D01*
X103721822Y-71780000D01*
X98984846Y-71780000D01*
X98909999Y-71765112D01*
X98835152Y-71780000D01*
X98835148Y-71780000D01*
X98613463Y-71824096D01*
X98362071Y-71992071D01*
X98319671Y-72055527D01*
X96945528Y-73429671D01*
X96882072Y-73472071D01*
X96839672Y-73535527D01*
X96839671Y-73535528D01*
X96714097Y-73723463D01*
X96708477Y-73751718D01*
X96522191Y-73876191D01*
X96381843Y-74086235D01*
X96332560Y-74334000D01*
X96332560Y-75606637D01*
X94666000Y-77273197D01*
X94666000Y-76590573D01*
X94813809Y-76491809D01*
X94954157Y-76281765D01*
X95003440Y-76034000D01*
X95003440Y-74334000D01*
X94958207Y-74106594D01*
X98304802Y-70760000D01*
X103502560Y-70760000D01*
X103502560Y-70850000D01*
M02*
