G04 #@! TF.GenerationSoftware,KiCad,Pcbnew,(5.0.0-rc2-dev-691-g31b026c)*
G04 #@! TF.CreationDate,2018-05-13T20:35:11+02:00*
G04 #@! TF.ProjectId,backplane,6261636B706C616E652E6B696361645F,v1.6*
G04 #@! TF.SameCoordinates,Original*
G04 #@! TF.FileFunction,Profile,NP*
%FSLAX46Y46*%
G04 Gerber Fmt 4.6, Leading zero omitted, Abs format (unit mm)*
G04 Created by KiCad (PCBNEW (5.0.0-rc2-dev-691-g31b026c)) date Sunday, 13. May 2018, 20:35:11*
%MOMM*%
%LPD*%
G01*
G04 APERTURE LIST*
%ADD10C,0.150000*%
G04 APERTURE END LIST*
D10*
X86000000Y-75000000D02*
G75*
G02X83000000Y-78000000I-3000000J0D01*
G01*
X42000000Y-78000000D02*
G75*
G02X39000000Y-75000000I0J3000000D01*
G01*
X39000000Y-42000000D02*
G75*
G02X42000000Y-39000000I3000000J0D01*
G01*
X83000000Y-39000000D02*
G75*
G02X86000000Y-42000000I0J-3000000D01*
G01*
X83000000Y-78000000D02*
X42000000Y-78000000D01*
X86000000Y-42000000D02*
X86000000Y-75000000D01*
X42000000Y-39000000D02*
X83000000Y-39000000D01*
X39000000Y-75000000D02*
X39000000Y-42000000D01*
X111000000Y-14000000D02*
X31000000Y-14000000D01*
X111000000Y-114000000D02*
X111000000Y-14000000D01*
X31000000Y-114000000D02*
X111000000Y-114000000D01*
X31000000Y-14000000D02*
X31000000Y-114000000D01*
X57591000Y-15562000D02*
X60442000Y-15562000D01*
X58854500Y-16832000D02*
X60435500Y-16832000D01*
X65903000Y-15562000D02*
X68754000Y-15562000D01*
X65903000Y-16832000D02*
X67484000Y-16832000D01*
X61134000Y-27173000D02*
X57578000Y-27173000D01*
X58848000Y-25903000D02*
X61134000Y-25903000D01*
X65198000Y-27173000D02*
X68754000Y-27173000D01*
X67484000Y-25903000D02*
X65198000Y-25903000D01*
X65198000Y-25903000D02*
G75*
G03X65198000Y-27173000I635000J-635000D01*
G01*
X61134000Y-27173000D02*
G75*
G03X61134000Y-25903000I-635000J635000D01*
G01*
X65903000Y-15562000D02*
G75*
G03X65903000Y-16832000I635000J-635000D01*
G01*
X60442000Y-16832000D02*
G75*
G03X60442000Y-15562000I-635000J635000D01*
G01*
X57578000Y-27173000D02*
X57578000Y-15562000D01*
X68754000Y-15562000D02*
X68754000Y-27173000D01*
X67484000Y-16832000D02*
X67484000Y-25903000D01*
X58848000Y-25395000D02*
X58848000Y-25903000D01*
X58848000Y-16832000D02*
X58848000Y-25395000D01*
M02*
