G04 #@! TF.GenerationSoftware,KiCad,Pcbnew,(5.0.0-rc2-dev-691-g31b026c)*
G04 #@! TF.CreationDate,2018-05-13T20:35:11+02:00*
G04 #@! TF.ProjectId,backplane,6261636B706C616E652E6B696361645F,v1.6*
G04 #@! TF.SameCoordinates,Original*
G04 #@! TF.FileFunction,Legend,Bot*
G04 #@! TF.FilePolarity,Positive*
%FSLAX46Y46*%
G04 Gerber Fmt 4.6, Leading zero omitted, Abs format (unit mm)*
G04 Created by KiCad (PCBNEW (5.0.0-rc2-dev-691-g31b026c)) date Sunday, 13. May 2018, 20:35:11*
%MOMM*%
%LPD*%
G01*
G04 APERTURE LIST*
%ADD10C,0.120000*%
%ADD11C,0.150000*%
G04 APERTURE END LIST*
D10*
X63520000Y-113190000D02*
X71140000Y-113190000D01*
X62760000Y-112430000D02*
X63520000Y-113190000D01*
X63520000Y-104810000D02*
X62760000Y-105570000D01*
X71140000Y-104810000D02*
X63520000Y-104810000D01*
X62760000Y-105570000D02*
X62760000Y-107490000D01*
X62760000Y-112430000D02*
X62760000Y-110510000D01*
X71140000Y-113190000D02*
X71140000Y-110510000D01*
X71140000Y-104810000D02*
X71140000Y-107490000D01*
X92860000Y-112190000D02*
X92860000Y-109510000D01*
X92860000Y-103810000D02*
X92860000Y-106490000D01*
X101240000Y-104570000D02*
X101240000Y-106490000D01*
X101240000Y-111430000D02*
X101240000Y-109510000D01*
X92860000Y-112190000D02*
X100480000Y-112190000D01*
X100480000Y-112190000D02*
X101240000Y-111430000D01*
X101240000Y-104570000D02*
X100480000Y-103810000D01*
X100480000Y-103810000D02*
X92860000Y-103810000D01*
D11*
X67116666Y-103907142D02*
X67164285Y-103954761D01*
X67307142Y-104002380D01*
X67402380Y-104002380D01*
X67545238Y-103954761D01*
X67640476Y-103859523D01*
X67688095Y-103764285D01*
X67735714Y-103573809D01*
X67735714Y-103430952D01*
X67688095Y-103240476D01*
X67640476Y-103145238D01*
X67545238Y-103050000D01*
X67402380Y-103002380D01*
X67307142Y-103002380D01*
X67164285Y-103050000D01*
X67116666Y-103097619D01*
X66735714Y-103097619D02*
X66688095Y-103050000D01*
X66592857Y-103002380D01*
X66354761Y-103002380D01*
X66259523Y-103050000D01*
X66211904Y-103097619D01*
X66164285Y-103192857D01*
X66164285Y-103288095D01*
X66211904Y-103430952D01*
X66783333Y-104002380D01*
X66164285Y-104002380D01*
X62550952Y-105171428D02*
X61789047Y-105171428D01*
X62170000Y-105552380D02*
X62170000Y-104790476D01*
X97216666Y-113807142D02*
X97264285Y-113854761D01*
X97407142Y-113902380D01*
X97502380Y-113902380D01*
X97645238Y-113854761D01*
X97740476Y-113759523D01*
X97788095Y-113664285D01*
X97835714Y-113473809D01*
X97835714Y-113330952D01*
X97788095Y-113140476D01*
X97740476Y-113045238D01*
X97645238Y-112950000D01*
X97502380Y-112902380D01*
X97407142Y-112902380D01*
X97264285Y-112950000D01*
X97216666Y-112997619D01*
X96883333Y-112902380D02*
X96264285Y-112902380D01*
X96597619Y-113283333D01*
X96454761Y-113283333D01*
X96359523Y-113330952D01*
X96311904Y-113378571D01*
X96264285Y-113473809D01*
X96264285Y-113711904D01*
X96311904Y-113807142D01*
X96359523Y-113854761D01*
X96454761Y-113902380D01*
X96740476Y-113902380D01*
X96835714Y-113854761D01*
X96883333Y-113807142D01*
X102210952Y-111971428D02*
X101449047Y-111971428D01*
X101830000Y-112352380D02*
X101830000Y-111590476D01*
M02*
