G04 #@! TF.GenerationSoftware,KiCad,Pcbnew,(5.0.0-rc2-dev-691-g31b026c)*
G04 #@! TF.CreationDate,2018-05-13T20:35:11+02:00*
G04 #@! TF.ProjectId,backplane,6261636B706C616E652E6B696361645F,v1.6*
G04 #@! TF.SameCoordinates,Original*
G04 #@! TF.FileFunction,Copper,L2,Bot,Signal*
G04 #@! TF.FilePolarity,Positive*
%FSLAX46Y46*%
G04 Gerber Fmt 4.6, Leading zero omitted, Abs format (unit mm)*
G04 Created by KiCad (PCBNEW (5.0.0-rc2-dev-691-g31b026c)) date Sunday, 13. May 2018, 20:35:11*
%MOMM*%
%LPD*%
G01*
G04 APERTURE LIST*
%ADD10R,1.800000X1.800000*%
%ADD11O,1.800000X1.800000*%
%ADD12R,2.000000X2.000000*%
%ADD13C,2.000000*%
%ADD14O,1.700000X1.700000*%
%ADD15R,1.700000X1.700000*%
%ADD16R,2.400000X2.400000*%
%ADD17C,2.400000*%
%ADD18R,3.500000X3.500000*%
%ADD19R,4.000000X2.500000*%
%ADD20C,1.000000*%
%ADD21C,0.800000*%
%ADD22C,0.600000*%
%ADD23C,0.250000*%
%ADD24C,0.400000*%
%ADD25C,1.000000*%
%ADD26C,0.254000*%
G04 APERTURE END LIST*
D10*
X87944000Y-89415000D03*
D11*
X87944000Y-91955000D03*
X85404000Y-89415000D03*
X85404000Y-91955000D03*
X82864000Y-89415000D03*
X82864000Y-91955000D03*
X80324000Y-89415000D03*
X80324000Y-91955000D03*
X77784000Y-89415000D03*
X77784000Y-91955000D03*
X75244000Y-89415000D03*
X75244000Y-91955000D03*
X72704000Y-89415000D03*
X72704000Y-91955000D03*
X70164000Y-89415000D03*
X70164000Y-91955000D03*
X67624000Y-89415000D03*
X67624000Y-91955000D03*
X65084000Y-89415000D03*
X65084000Y-91955000D03*
X62544000Y-89415000D03*
X62544000Y-91955000D03*
X60004000Y-89415000D03*
X60004000Y-91955000D03*
X57464000Y-89415000D03*
X57464000Y-91955000D03*
X54924000Y-89415000D03*
X54924000Y-91955000D03*
X52384000Y-89415000D03*
X52384000Y-91955000D03*
X49844000Y-89415000D03*
X49844000Y-91955000D03*
X47304000Y-89415000D03*
X47304000Y-91955000D03*
X44764000Y-89415000D03*
X44764000Y-91955000D03*
X42224000Y-89415000D03*
X42224000Y-91955000D03*
X39684000Y-89415000D03*
X39684000Y-91955000D03*
D12*
X37440000Y-83000000D03*
D13*
X39980000Y-83000000D03*
X42520000Y-83000000D03*
X45060000Y-83000000D03*
X47600000Y-83000000D03*
X50140000Y-83000000D03*
X52680000Y-83000000D03*
X55220000Y-83000000D03*
X57760000Y-83000000D03*
X60300000Y-83000000D03*
X62840000Y-83000000D03*
X65380000Y-83000000D03*
X67920000Y-83000000D03*
X70460000Y-83000000D03*
X73000000Y-83000000D03*
X75540000Y-83000000D03*
X78080000Y-83000000D03*
X80620000Y-83000000D03*
X83160000Y-83000000D03*
X85700000Y-83000000D03*
D12*
X39740000Y-21700000D03*
D13*
X42480000Y-21700000D03*
X45020000Y-21700000D03*
D12*
X83140000Y-21700000D03*
D13*
X85680000Y-21700000D03*
X88220000Y-21700000D03*
D14*
X85000000Y-100840000D03*
X85000000Y-103380000D03*
X85000000Y-105920000D03*
X85000000Y-108460000D03*
D15*
X85000000Y-111000000D03*
D16*
X39000000Y-108000000D03*
D17*
X39000000Y-111500000D03*
D18*
X46000000Y-105000000D03*
X43000000Y-100300000D03*
X49000000Y-100300000D03*
D14*
X75000000Y-103920000D03*
X75000000Y-106460000D03*
D15*
X75000000Y-109000000D03*
D19*
X70000000Y-109000000D03*
X63900000Y-109000000D03*
X100100000Y-108000000D03*
X94000000Y-108000000D03*
D14*
X105000000Y-80160000D03*
X105000000Y-77620000D03*
X105000000Y-75080000D03*
X105000000Y-72540000D03*
D15*
X105000000Y-70000000D03*
D20*
X50500000Y-32750000D03*
X75000000Y-25000000D03*
X90000000Y-25000000D03*
X81250000Y-32750000D03*
X35000000Y-55000000D03*
X35000000Y-75000000D03*
X50000000Y-85000000D03*
X80000000Y-85000000D03*
X90000000Y-80000000D03*
X100000000Y-85000000D03*
X105000000Y-90000000D03*
X95000000Y-100000000D03*
X75000000Y-100000000D03*
X55000000Y-110000000D03*
X60000000Y-105000000D03*
X45000000Y-110000000D03*
X35000000Y-95000000D03*
X95000000Y-50000000D03*
X105000000Y-40000000D03*
D21*
X65750000Y-28750000D03*
D20*
X96750000Y-72750000D03*
X33750000Y-37250000D03*
X94999998Y-60000000D03*
X87500000Y-60000000D03*
D21*
X104902000Y-65024000D03*
X91694000Y-78232000D03*
X96266000Y-81026000D03*
X71374000Y-87376000D03*
X87502998Y-56642000D03*
X63118998Y-29464000D03*
X63246000Y-25273000D03*
D22*
X63000000Y-86500000D03*
X63000000Y-85250000D03*
D21*
X98806000Y-34036000D03*
X90296999Y-38592011D03*
X97536000Y-33528000D03*
X90170006Y-37465000D03*
D20*
X69850000Y-104140000D03*
X74000000Y-112500000D03*
D22*
X78500000Y-96750000D03*
X81500000Y-96750000D03*
D23*
X105849999Y-76770001D02*
X105000000Y-77620000D01*
X107188000Y-75432000D02*
X105849999Y-76770001D01*
X107188000Y-67310000D02*
X107188000Y-75432000D01*
X104902000Y-65024000D02*
X107188000Y-67310000D01*
X91694000Y-78232000D02*
X94488000Y-81026000D01*
X94488000Y-81026000D02*
X96266000Y-81026000D01*
D24*
X87944000Y-88115000D02*
X87944000Y-89415000D01*
X87205000Y-87376000D02*
X87944000Y-88115000D01*
X71374000Y-87376000D02*
X87205000Y-87376000D01*
D25*
X86850000Y-111000000D02*
X89850000Y-108000000D01*
X89850000Y-108000000D02*
X94000000Y-108000000D01*
X85000000Y-111000000D02*
X86850000Y-111000000D01*
X93250000Y-108000000D02*
X94000000Y-108000000D01*
X87944000Y-102694000D02*
X93250000Y-108000000D01*
X85404000Y-91955000D02*
X87944000Y-91955000D01*
X87944000Y-95250000D02*
X87944000Y-102694000D01*
X87944000Y-91955000D02*
X87944000Y-95250000D01*
X88068683Y-56642000D02*
X87502998Y-56642000D01*
X108585000Y-76575000D02*
X108585000Y-59436000D01*
X108585000Y-59436000D02*
X105791000Y-56642000D01*
X105000000Y-80160000D02*
X108585000Y-76575000D01*
X105791000Y-56642000D02*
X88068683Y-56642000D01*
X103000000Y-87000000D02*
X94750000Y-95250000D01*
X94750000Y-95250000D02*
X87944000Y-95250000D01*
X103000000Y-82160000D02*
X103000000Y-87000000D01*
X105000000Y-80160000D02*
X103000000Y-82160000D01*
D23*
X63118998Y-29464000D02*
X63118998Y-25400002D01*
X63118998Y-25400002D02*
X63246000Y-25273000D01*
X74540001Y-83999999D02*
X75540000Y-83000000D01*
X73040000Y-85500000D02*
X74540001Y-83999999D01*
X68999000Y-85500000D02*
X73040000Y-85500000D01*
X65084000Y-89415000D02*
X68999000Y-85500000D01*
X62544000Y-86956000D02*
X63000000Y-86500000D01*
X62544000Y-89415000D02*
X62544000Y-86956000D01*
X60903999Y-88515001D02*
X60903999Y-87346001D01*
X60004000Y-89415000D02*
X60903999Y-88515001D01*
X60903999Y-87346001D02*
X63000000Y-85250000D01*
D24*
X98806000Y-34036000D02*
X94249989Y-38592011D01*
X94249989Y-38592011D02*
X90862684Y-38592011D01*
X90862684Y-38592011D02*
X90296999Y-38592011D01*
X90735691Y-37465000D02*
X90170006Y-37465000D01*
X97536000Y-33528000D02*
X93599000Y-37465000D01*
X93599000Y-37465000D02*
X90735691Y-37465000D01*
D23*
X63443999Y-91055001D02*
X62544000Y-91955000D01*
X63769001Y-90729999D02*
X63443999Y-91055001D01*
X63769001Y-87150999D02*
X63769001Y-90729999D01*
X67920000Y-83000000D02*
X63769001Y-87150999D01*
D25*
X69850000Y-108850000D02*
X70000000Y-109000000D01*
X69850000Y-104140000D02*
X69850000Y-108850000D01*
X74000000Y-112500000D02*
X71250000Y-112500000D01*
X70000000Y-111250000D02*
X70000000Y-109000000D01*
X71250000Y-112500000D02*
X70000000Y-111250000D01*
D23*
X80324000Y-98704000D02*
X85000000Y-103380000D01*
X80324000Y-91955000D02*
X80324000Y-98704000D01*
X79873990Y-100793990D02*
X84150001Y-105070001D01*
X79873990Y-95317782D02*
X79873990Y-100793990D01*
X84150001Y-105070001D02*
X85000000Y-105920000D01*
X77784000Y-93227792D02*
X79873990Y-95317782D01*
X77784000Y-91955000D02*
X77784000Y-93227792D01*
X75244000Y-93494000D02*
X78500000Y-96750000D01*
X75244000Y-91955000D02*
X75244000Y-93494000D01*
X81500000Y-97340000D02*
X85000000Y-100840000D01*
X81500000Y-96750000D02*
X81500000Y-97340000D01*
D26*
G36*
X56669197Y-14710197D02*
X56641667Y-14751399D01*
X56632000Y-14800000D01*
X56632000Y-28135000D01*
X56641667Y-28183601D01*
X56669197Y-28224803D01*
X56710399Y-28252333D01*
X56759000Y-28262000D01*
X62358998Y-28262000D01*
X62358998Y-28760289D01*
X62241567Y-28877720D01*
X62083998Y-29258126D01*
X62083998Y-29669874D01*
X62241567Y-30050280D01*
X62532718Y-30341431D01*
X62913124Y-30499000D01*
X63324872Y-30499000D01*
X63705278Y-30341431D01*
X63996429Y-30050280D01*
X64153998Y-29669874D01*
X64153998Y-29258126D01*
X63996429Y-28877720D01*
X63878998Y-28760289D01*
X63878998Y-28262000D01*
X69586000Y-28262000D01*
X69634601Y-28252333D01*
X69675803Y-28224803D01*
X69703333Y-28183601D01*
X69713000Y-28135000D01*
X69713000Y-21985750D01*
X81505000Y-21985750D01*
X81505000Y-22826310D01*
X81601673Y-23059699D01*
X81780302Y-23238327D01*
X82013691Y-23335000D01*
X82854250Y-23335000D01*
X83013000Y-23176250D01*
X83013000Y-21827000D01*
X81663750Y-21827000D01*
X81505000Y-21985750D01*
X69713000Y-21985750D01*
X69713000Y-20573690D01*
X81505000Y-20573690D01*
X81505000Y-21414250D01*
X81663750Y-21573000D01*
X83013000Y-21573000D01*
X83013000Y-20223750D01*
X83267000Y-20223750D01*
X83267000Y-21573000D01*
X83287000Y-21573000D01*
X83287000Y-21827000D01*
X83267000Y-21827000D01*
X83267000Y-23176250D01*
X83425750Y-23335000D01*
X84266309Y-23335000D01*
X84499698Y-23238327D01*
X84678327Y-23059699D01*
X84692718Y-23024957D01*
X84753847Y-23086086D01*
X85354778Y-23335000D01*
X86005222Y-23335000D01*
X86606153Y-23086086D01*
X86950000Y-22742239D01*
X87293847Y-23086086D01*
X87894778Y-23335000D01*
X88545222Y-23335000D01*
X89146153Y-23086086D01*
X89606086Y-22626153D01*
X89855000Y-22025222D01*
X89855000Y-21374778D01*
X89606086Y-20773847D01*
X89146153Y-20313914D01*
X88545222Y-20065000D01*
X87894778Y-20065000D01*
X87293847Y-20313914D01*
X86950000Y-20657761D01*
X86606153Y-20313914D01*
X86005222Y-20065000D01*
X85354778Y-20065000D01*
X84753847Y-20313914D01*
X84692718Y-20375043D01*
X84678327Y-20340301D01*
X84499698Y-20161673D01*
X84266309Y-20065000D01*
X83425750Y-20065000D01*
X83267000Y-20223750D01*
X83013000Y-20223750D01*
X82854250Y-20065000D01*
X82013691Y-20065000D01*
X81780302Y-20161673D01*
X81601673Y-20340301D01*
X81505000Y-20573690D01*
X69713000Y-20573690D01*
X69713000Y-17620295D01*
X99637000Y-17620295D01*
X99637000Y-18459705D01*
X99958229Y-19235219D01*
X100551781Y-19828771D01*
X101327295Y-20150000D01*
X102166705Y-20150000D01*
X102942219Y-19828771D01*
X103535771Y-19235219D01*
X103857000Y-18459705D01*
X103857000Y-17620295D01*
X103535771Y-16844781D01*
X102942219Y-16251229D01*
X102166705Y-15930000D01*
X101327295Y-15930000D01*
X100551781Y-16251229D01*
X99958229Y-16844781D01*
X99637000Y-17620295D01*
X69713000Y-17620295D01*
X69713000Y-14800000D01*
X69703333Y-14751399D01*
X69675803Y-14710197D01*
X69675508Y-14710000D01*
X110290001Y-14710000D01*
X110290000Y-113290000D01*
X74837191Y-113290000D01*
X74881609Y-113223524D01*
X74962207Y-113142926D01*
X75005826Y-113037620D01*
X75069146Y-112942855D01*
X75091381Y-112831072D01*
X75135000Y-112725766D01*
X75135000Y-112611783D01*
X75157235Y-112500000D01*
X75135000Y-112388217D01*
X75135000Y-112274234D01*
X75091381Y-112168928D01*
X75069146Y-112057145D01*
X75005826Y-111962380D01*
X74962207Y-111857074D01*
X74881609Y-111776476D01*
X74818289Y-111681711D01*
X74723524Y-111618391D01*
X74642926Y-111537793D01*
X74537620Y-111494174D01*
X74442855Y-111430854D01*
X74331072Y-111408619D01*
X74225766Y-111365000D01*
X71720132Y-111365000D01*
X71252571Y-110897440D01*
X72000000Y-110897440D01*
X72247765Y-110848157D01*
X72457809Y-110707809D01*
X72598157Y-110497765D01*
X72647440Y-110250000D01*
X72647440Y-108150000D01*
X73502560Y-108150000D01*
X73502560Y-109850000D01*
X73551843Y-110097765D01*
X73692191Y-110307809D01*
X73902235Y-110448157D01*
X74150000Y-110497440D01*
X75850000Y-110497440D01*
X76097765Y-110448157D01*
X76307809Y-110307809D01*
X76448157Y-110097765D01*
X76497440Y-109850000D01*
X76497440Y-108150000D01*
X76448157Y-107902235D01*
X76307809Y-107692191D01*
X76097765Y-107551843D01*
X75994292Y-107531261D01*
X76271645Y-107226924D01*
X76441476Y-106816890D01*
X76320155Y-106587000D01*
X75127000Y-106587000D01*
X75127000Y-106607000D01*
X74873000Y-106607000D01*
X74873000Y-106587000D01*
X73679845Y-106587000D01*
X73558524Y-106816890D01*
X73728355Y-107226924D01*
X74005708Y-107531261D01*
X73902235Y-107551843D01*
X73692191Y-107692191D01*
X73551843Y-107902235D01*
X73502560Y-108150000D01*
X72647440Y-108150000D01*
X72647440Y-107750000D01*
X72598157Y-107502235D01*
X72457809Y-107292191D01*
X72247765Y-107151843D01*
X72000000Y-107102560D01*
X70985000Y-107102560D01*
X70985000Y-103920000D01*
X73485908Y-103920000D01*
X73601161Y-104499418D01*
X73929375Y-104990625D01*
X74248478Y-105203843D01*
X74118642Y-105264817D01*
X73728355Y-105693076D01*
X73558524Y-106103110D01*
X73679845Y-106333000D01*
X74873000Y-106333000D01*
X74873000Y-106313000D01*
X75127000Y-106313000D01*
X75127000Y-106333000D01*
X76320155Y-106333000D01*
X76441476Y-106103110D01*
X76271645Y-105693076D01*
X75881358Y-105264817D01*
X75751522Y-105203843D01*
X76070625Y-104990625D01*
X76398839Y-104499418D01*
X76514092Y-103920000D01*
X76398839Y-103340582D01*
X76070625Y-102849375D01*
X75579418Y-102521161D01*
X75146256Y-102435000D01*
X74853744Y-102435000D01*
X74420582Y-102521161D01*
X73929375Y-102849375D01*
X73601161Y-103340582D01*
X73485908Y-103920000D01*
X70985000Y-103920000D01*
X70985000Y-103914234D01*
X70941381Y-103808928D01*
X70919146Y-103697145D01*
X70855826Y-103602380D01*
X70812207Y-103497074D01*
X70731609Y-103416476D01*
X70668289Y-103321711D01*
X70573525Y-103258392D01*
X70492926Y-103177793D01*
X70387618Y-103134173D01*
X70292854Y-103070854D01*
X70181073Y-103048619D01*
X70075766Y-103005000D01*
X69961783Y-103005000D01*
X69850000Y-102982765D01*
X69738217Y-103005000D01*
X69624234Y-103005000D01*
X69518928Y-103048619D01*
X69407145Y-103070854D01*
X69312380Y-103134174D01*
X69207074Y-103177793D01*
X69126476Y-103258391D01*
X69031711Y-103321711D01*
X68968392Y-103416475D01*
X68887793Y-103497074D01*
X68844173Y-103602382D01*
X68780854Y-103697146D01*
X68758619Y-103808927D01*
X68715000Y-103914234D01*
X68715000Y-104028218D01*
X68715001Y-107102560D01*
X68000000Y-107102560D01*
X67752235Y-107151843D01*
X67542191Y-107292191D01*
X67401843Y-107502235D01*
X67352560Y-107750000D01*
X67352560Y-110250000D01*
X67401843Y-110497765D01*
X67542191Y-110707809D01*
X67752235Y-110848157D01*
X68000000Y-110897440D01*
X68865000Y-110897440D01*
X68865000Y-111138216D01*
X68842765Y-111250000D01*
X68928638Y-111681711D01*
X68930854Y-111692854D01*
X69181711Y-112068289D01*
X69276482Y-112131613D01*
X70368389Y-113223521D01*
X70412809Y-113290000D01*
X39473644Y-113290000D01*
X40039444Y-113055638D01*
X40555638Y-112539444D01*
X40835000Y-111865004D01*
X40835000Y-111134996D01*
X40555638Y-110460556D01*
X40039444Y-109944362D01*
X39775421Y-109835000D01*
X40326310Y-109835000D01*
X40559699Y-109738327D01*
X40738327Y-109559698D01*
X40835000Y-109326309D01*
X40835000Y-109285750D01*
X61265000Y-109285750D01*
X61265000Y-110376310D01*
X61361673Y-110609699D01*
X61540302Y-110788327D01*
X61773691Y-110885000D01*
X63614250Y-110885000D01*
X63773000Y-110726250D01*
X63773000Y-109127000D01*
X64027000Y-109127000D01*
X64027000Y-110726250D01*
X64185750Y-110885000D01*
X66026309Y-110885000D01*
X66259698Y-110788327D01*
X66438327Y-110609699D01*
X66535000Y-110376310D01*
X66535000Y-109285750D01*
X66376250Y-109127000D01*
X64027000Y-109127000D01*
X63773000Y-109127000D01*
X61423750Y-109127000D01*
X61265000Y-109285750D01*
X40835000Y-109285750D01*
X40835000Y-108285750D01*
X40676250Y-108127000D01*
X39127000Y-108127000D01*
X39127000Y-108147000D01*
X38873000Y-108147000D01*
X38873000Y-108127000D01*
X37323750Y-108127000D01*
X37165000Y-108285750D01*
X37165000Y-109326309D01*
X37261673Y-109559698D01*
X37440301Y-109738327D01*
X37673690Y-109835000D01*
X38224579Y-109835000D01*
X37960556Y-109944362D01*
X37444362Y-110460556D01*
X37165000Y-111134996D01*
X37165000Y-111865004D01*
X37444362Y-112539444D01*
X37960556Y-113055638D01*
X38526356Y-113290000D01*
X31710000Y-113290000D01*
X31710000Y-106673691D01*
X37165000Y-106673691D01*
X37165000Y-107714250D01*
X37323750Y-107873000D01*
X38873000Y-107873000D01*
X38873000Y-106323750D01*
X39127000Y-106323750D01*
X39127000Y-107873000D01*
X40676250Y-107873000D01*
X40835000Y-107714250D01*
X40835000Y-107623690D01*
X61265000Y-107623690D01*
X61265000Y-108714250D01*
X61423750Y-108873000D01*
X63773000Y-108873000D01*
X63773000Y-107273750D01*
X64027000Y-107273750D01*
X64027000Y-108873000D01*
X66376250Y-108873000D01*
X66535000Y-108714250D01*
X66535000Y-107623690D01*
X66438327Y-107390301D01*
X66259698Y-107211673D01*
X66026309Y-107115000D01*
X64185750Y-107115000D01*
X64027000Y-107273750D01*
X63773000Y-107273750D01*
X63614250Y-107115000D01*
X61773691Y-107115000D01*
X61540302Y-107211673D01*
X61361673Y-107390301D01*
X61265000Y-107623690D01*
X40835000Y-107623690D01*
X40835000Y-106673691D01*
X40738327Y-106440302D01*
X40559699Y-106261673D01*
X40326310Y-106165000D01*
X39285750Y-106165000D01*
X39127000Y-106323750D01*
X38873000Y-106323750D01*
X38714250Y-106165000D01*
X37673690Y-106165000D01*
X37440301Y-106261673D01*
X37261673Y-106440302D01*
X37165000Y-106673691D01*
X31710000Y-106673691D01*
X31710000Y-105285750D01*
X43615000Y-105285750D01*
X43615000Y-106876310D01*
X43711673Y-107109699D01*
X43890302Y-107288327D01*
X44123691Y-107385000D01*
X45714250Y-107385000D01*
X45873000Y-107226250D01*
X45873000Y-105127000D01*
X46127000Y-105127000D01*
X46127000Y-107226250D01*
X46285750Y-107385000D01*
X47876309Y-107385000D01*
X48109698Y-107288327D01*
X48288327Y-107109699D01*
X48385000Y-106876310D01*
X48385000Y-105285750D01*
X48226250Y-105127000D01*
X46127000Y-105127000D01*
X45873000Y-105127000D01*
X43773750Y-105127000D01*
X43615000Y-105285750D01*
X31710000Y-105285750D01*
X31710000Y-100585750D01*
X40615000Y-100585750D01*
X40615000Y-102176310D01*
X40711673Y-102409699D01*
X40890302Y-102588327D01*
X41123691Y-102685000D01*
X42714250Y-102685000D01*
X42873000Y-102526250D01*
X42873000Y-100427000D01*
X43127000Y-100427000D01*
X43127000Y-102526250D01*
X43285750Y-102685000D01*
X43954696Y-102685000D01*
X43890302Y-102711673D01*
X43711673Y-102890301D01*
X43615000Y-103123690D01*
X43615000Y-104714250D01*
X43773750Y-104873000D01*
X45873000Y-104873000D01*
X45873000Y-102773750D01*
X46127000Y-102773750D01*
X46127000Y-104873000D01*
X48226250Y-104873000D01*
X48385000Y-104714250D01*
X48385000Y-103123690D01*
X48288327Y-102890301D01*
X48109698Y-102711673D01*
X48075337Y-102697440D01*
X50750000Y-102697440D01*
X50997765Y-102648157D01*
X51207809Y-102507809D01*
X51348157Y-102297765D01*
X51397440Y-102050000D01*
X51397440Y-98550000D01*
X51348157Y-98302235D01*
X51207809Y-98092191D01*
X50997765Y-97951843D01*
X50750000Y-97902560D01*
X47250000Y-97902560D01*
X47002235Y-97951843D01*
X46792191Y-98092191D01*
X46651843Y-98302235D01*
X46602560Y-98550000D01*
X46602560Y-102050000D01*
X46651843Y-102297765D01*
X46792191Y-102507809D01*
X46952612Y-102615000D01*
X46285750Y-102615000D01*
X46127000Y-102773750D01*
X45873000Y-102773750D01*
X45714250Y-102615000D01*
X45045304Y-102615000D01*
X45109698Y-102588327D01*
X45288327Y-102409699D01*
X45385000Y-102176310D01*
X45385000Y-100585750D01*
X45226250Y-100427000D01*
X43127000Y-100427000D01*
X42873000Y-100427000D01*
X40773750Y-100427000D01*
X40615000Y-100585750D01*
X31710000Y-100585750D01*
X31710000Y-98423690D01*
X40615000Y-98423690D01*
X40615000Y-100014250D01*
X40773750Y-100173000D01*
X42873000Y-100173000D01*
X42873000Y-98073750D01*
X43127000Y-98073750D01*
X43127000Y-100173000D01*
X45226250Y-100173000D01*
X45385000Y-100014250D01*
X45385000Y-98423690D01*
X45288327Y-98190301D01*
X45109698Y-98011673D01*
X44876309Y-97915000D01*
X43285750Y-97915000D01*
X43127000Y-98073750D01*
X42873000Y-98073750D01*
X42714250Y-97915000D01*
X41123691Y-97915000D01*
X40890302Y-98011673D01*
X40711673Y-98190301D01*
X40615000Y-98423690D01*
X31710000Y-98423690D01*
X31710000Y-90265295D01*
X32704000Y-90265295D01*
X32704000Y-91104705D01*
X33025229Y-91880219D01*
X33618781Y-92473771D01*
X34394295Y-92795000D01*
X35233705Y-92795000D01*
X36009219Y-92473771D01*
X36602771Y-91880219D01*
X36924000Y-91104705D01*
X36924000Y-90265295D01*
X36602771Y-89489781D01*
X36163248Y-89050258D01*
X38192954Y-89050258D01*
X38313003Y-89288000D01*
X39557000Y-89288000D01*
X39557000Y-88044622D01*
X39319260Y-87923964D01*
X38887583Y-88102760D01*
X38446034Y-88507424D01*
X38192954Y-89050258D01*
X36163248Y-89050258D01*
X36009219Y-88896229D01*
X35233705Y-88575000D01*
X34394295Y-88575000D01*
X33618781Y-88896229D01*
X33025229Y-89489781D01*
X32704000Y-90265295D01*
X31710000Y-90265295D01*
X31710000Y-83285750D01*
X35805000Y-83285750D01*
X35805000Y-84126310D01*
X35901673Y-84359699D01*
X36080302Y-84538327D01*
X36313691Y-84635000D01*
X37154250Y-84635000D01*
X37313000Y-84476250D01*
X37313000Y-83127000D01*
X35963750Y-83127000D01*
X35805000Y-83285750D01*
X31710000Y-83285750D01*
X31710000Y-81873690D01*
X35805000Y-81873690D01*
X35805000Y-82714250D01*
X35963750Y-82873000D01*
X37313000Y-82873000D01*
X37313000Y-81523750D01*
X37567000Y-81523750D01*
X37567000Y-82873000D01*
X37587000Y-82873000D01*
X37587000Y-83127000D01*
X37567000Y-83127000D01*
X37567000Y-84476250D01*
X37725750Y-84635000D01*
X38566309Y-84635000D01*
X38799698Y-84538327D01*
X38978327Y-84359699D01*
X38992718Y-84324957D01*
X39053847Y-84386086D01*
X39654778Y-84635000D01*
X40305222Y-84635000D01*
X40906153Y-84386086D01*
X41250000Y-84042239D01*
X41593847Y-84386086D01*
X42194778Y-84635000D01*
X42845222Y-84635000D01*
X43446153Y-84386086D01*
X43790000Y-84042239D01*
X44133847Y-84386086D01*
X44734778Y-84635000D01*
X45385222Y-84635000D01*
X45986153Y-84386086D01*
X46330000Y-84042239D01*
X46673847Y-84386086D01*
X47274778Y-84635000D01*
X47925222Y-84635000D01*
X48526153Y-84386086D01*
X48870000Y-84042239D01*
X49213847Y-84386086D01*
X49814778Y-84635000D01*
X50465222Y-84635000D01*
X51066153Y-84386086D01*
X51410000Y-84042239D01*
X51753847Y-84386086D01*
X52354778Y-84635000D01*
X53005222Y-84635000D01*
X53606153Y-84386086D01*
X53950000Y-84042239D01*
X54293847Y-84386086D01*
X54894778Y-84635000D01*
X55545222Y-84635000D01*
X56146153Y-84386086D01*
X56490000Y-84042239D01*
X56833847Y-84386086D01*
X57434778Y-84635000D01*
X58085222Y-84635000D01*
X58686153Y-84386086D01*
X59030000Y-84042239D01*
X59373847Y-84386086D01*
X59974778Y-84635000D01*
X60625222Y-84635000D01*
X61226153Y-84386086D01*
X61570000Y-84042239D01*
X61913847Y-84386086D01*
X62357752Y-84569958D01*
X62207345Y-84720365D01*
X62065000Y-85064017D01*
X62065000Y-85110198D01*
X60419527Y-86755672D01*
X60356071Y-86798072D01*
X60313671Y-86861528D01*
X60313670Y-86861529D01*
X60188096Y-87049464D01*
X60129111Y-87346001D01*
X60144000Y-87420852D01*
X60144000Y-87880000D01*
X59852818Y-87880000D01*
X59405073Y-87969062D01*
X58897327Y-88308327D01*
X58727582Y-88562368D01*
X58701966Y-88507424D01*
X58260417Y-88102760D01*
X57828740Y-87923964D01*
X57591000Y-88044622D01*
X57591000Y-89288000D01*
X57611000Y-89288000D01*
X57611000Y-89542000D01*
X57591000Y-89542000D01*
X57591000Y-89562000D01*
X57337000Y-89562000D01*
X57337000Y-89542000D01*
X57317000Y-89542000D01*
X57317000Y-89288000D01*
X57337000Y-89288000D01*
X57337000Y-88044622D01*
X57099260Y-87923964D01*
X56667583Y-88102760D01*
X56226034Y-88507424D01*
X56200418Y-88562368D01*
X56030673Y-88308327D01*
X55522927Y-87969062D01*
X55075182Y-87880000D01*
X54772818Y-87880000D01*
X54325073Y-87969062D01*
X53817327Y-88308327D01*
X53654000Y-88552763D01*
X53490673Y-88308327D01*
X52982927Y-87969062D01*
X52535182Y-87880000D01*
X52232818Y-87880000D01*
X51785073Y-87969062D01*
X51277327Y-88308327D01*
X51114000Y-88552763D01*
X50950673Y-88308327D01*
X50442927Y-87969062D01*
X49995182Y-87880000D01*
X49692818Y-87880000D01*
X49245073Y-87969062D01*
X48737327Y-88308327D01*
X48574000Y-88552763D01*
X48410673Y-88308327D01*
X47902927Y-87969062D01*
X47455182Y-87880000D01*
X47152818Y-87880000D01*
X46705073Y-87969062D01*
X46197327Y-88308327D01*
X46034000Y-88552763D01*
X45870673Y-88308327D01*
X45362927Y-87969062D01*
X44915182Y-87880000D01*
X44612818Y-87880000D01*
X44165073Y-87969062D01*
X43657327Y-88308327D01*
X43494000Y-88552763D01*
X43330673Y-88308327D01*
X42822927Y-87969062D01*
X42375182Y-87880000D01*
X42072818Y-87880000D01*
X41625073Y-87969062D01*
X41117327Y-88308327D01*
X40947582Y-88562368D01*
X40921966Y-88507424D01*
X40480417Y-88102760D01*
X40048740Y-87923964D01*
X39811000Y-88044622D01*
X39811000Y-89288000D01*
X39831000Y-89288000D01*
X39831000Y-89542000D01*
X39811000Y-89542000D01*
X39811000Y-89562000D01*
X39557000Y-89562000D01*
X39557000Y-89542000D01*
X38313003Y-89542000D01*
X38192954Y-89779742D01*
X38446034Y-90322576D01*
X38833174Y-90677376D01*
X38577327Y-90848327D01*
X38238062Y-91356073D01*
X38118928Y-91955000D01*
X38238062Y-92553927D01*
X38577327Y-93061673D01*
X39085073Y-93400938D01*
X39532818Y-93490000D01*
X39835182Y-93490000D01*
X40282927Y-93400938D01*
X40790673Y-93061673D01*
X40954000Y-92817237D01*
X41117327Y-93061673D01*
X41625073Y-93400938D01*
X42072818Y-93490000D01*
X42375182Y-93490000D01*
X42822927Y-93400938D01*
X43330673Y-93061673D01*
X43494000Y-92817237D01*
X43657327Y-93061673D01*
X44165073Y-93400938D01*
X44612818Y-93490000D01*
X44915182Y-93490000D01*
X45362927Y-93400938D01*
X45870673Y-93061673D01*
X46040418Y-92807632D01*
X46066034Y-92862576D01*
X46507583Y-93267240D01*
X46939260Y-93446036D01*
X47177000Y-93325378D01*
X47177000Y-92082000D01*
X47157000Y-92082000D01*
X47157000Y-91828000D01*
X47177000Y-91828000D01*
X47177000Y-91808000D01*
X47431000Y-91808000D01*
X47431000Y-91828000D01*
X47451000Y-91828000D01*
X47451000Y-92082000D01*
X47431000Y-92082000D01*
X47431000Y-93325378D01*
X47668740Y-93446036D01*
X48100417Y-93267240D01*
X48541966Y-92862576D01*
X48567582Y-92807632D01*
X48737327Y-93061673D01*
X49245073Y-93400938D01*
X49692818Y-93490000D01*
X49995182Y-93490000D01*
X50442927Y-93400938D01*
X50950673Y-93061673D01*
X51120418Y-92807632D01*
X51146034Y-92862576D01*
X51587583Y-93267240D01*
X52019260Y-93446036D01*
X52257000Y-93325378D01*
X52257000Y-92082000D01*
X52237000Y-92082000D01*
X52237000Y-91828000D01*
X52257000Y-91828000D01*
X52257000Y-91808000D01*
X52511000Y-91808000D01*
X52511000Y-91828000D01*
X52531000Y-91828000D01*
X52531000Y-92082000D01*
X52511000Y-92082000D01*
X52511000Y-93325378D01*
X52748740Y-93446036D01*
X53180417Y-93267240D01*
X53621966Y-92862576D01*
X53647582Y-92807632D01*
X53817327Y-93061673D01*
X54325073Y-93400938D01*
X54772818Y-93490000D01*
X55075182Y-93490000D01*
X55522927Y-93400938D01*
X56030673Y-93061673D01*
X56194000Y-92817237D01*
X56357327Y-93061673D01*
X56865073Y-93400938D01*
X57312818Y-93490000D01*
X57615182Y-93490000D01*
X58062927Y-93400938D01*
X58570673Y-93061673D01*
X58734000Y-92817237D01*
X58897327Y-93061673D01*
X59405073Y-93400938D01*
X59852818Y-93490000D01*
X60155182Y-93490000D01*
X60602927Y-93400938D01*
X61110673Y-93061673D01*
X61274000Y-92817237D01*
X61437327Y-93061673D01*
X61945073Y-93400938D01*
X62392818Y-93490000D01*
X62695182Y-93490000D01*
X63142927Y-93400938D01*
X63650673Y-93061673D01*
X63820418Y-92807632D01*
X63846034Y-92862576D01*
X64287583Y-93267240D01*
X64719260Y-93446036D01*
X64957000Y-93325378D01*
X64957000Y-92082000D01*
X64937000Y-92082000D01*
X64937000Y-91828000D01*
X64957000Y-91828000D01*
X64957000Y-91808000D01*
X65211000Y-91808000D01*
X65211000Y-91828000D01*
X65231000Y-91828000D01*
X65231000Y-92082000D01*
X65211000Y-92082000D01*
X65211000Y-93325378D01*
X65448740Y-93446036D01*
X65880417Y-93267240D01*
X66321966Y-92862576D01*
X66347582Y-92807632D01*
X66517327Y-93061673D01*
X67025073Y-93400938D01*
X67472818Y-93490000D01*
X67775182Y-93490000D01*
X68222927Y-93400938D01*
X68730673Y-93061673D01*
X68894000Y-92817237D01*
X69057327Y-93061673D01*
X69565073Y-93400938D01*
X70012818Y-93490000D01*
X70315182Y-93490000D01*
X70762927Y-93400938D01*
X71270673Y-93061673D01*
X71440418Y-92807632D01*
X71466034Y-92862576D01*
X71907583Y-93267240D01*
X72339260Y-93446036D01*
X72577000Y-93325378D01*
X72577000Y-92082000D01*
X72557000Y-92082000D01*
X72557000Y-91828000D01*
X72577000Y-91828000D01*
X72577000Y-91808000D01*
X72831000Y-91808000D01*
X72831000Y-91828000D01*
X72851000Y-91828000D01*
X72851000Y-92082000D01*
X72831000Y-92082000D01*
X72831000Y-93325378D01*
X73068740Y-93446036D01*
X73500417Y-93267240D01*
X73941966Y-92862576D01*
X73967582Y-92807632D01*
X74137327Y-93061673D01*
X74484001Y-93293313D01*
X74484001Y-93419149D01*
X74469112Y-93494000D01*
X74528097Y-93790537D01*
X74648208Y-93970295D01*
X74696072Y-94041929D01*
X74759528Y-94084329D01*
X77565000Y-96889803D01*
X77565000Y-96935983D01*
X77707345Y-97279635D01*
X77970365Y-97542655D01*
X78314017Y-97685000D01*
X78685983Y-97685000D01*
X79029635Y-97542655D01*
X79113990Y-97458300D01*
X79113991Y-100719138D01*
X79099102Y-100793990D01*
X79113991Y-100868842D01*
X79158087Y-101090527D01*
X79326062Y-101341919D01*
X79389518Y-101384319D01*
X83558791Y-105553593D01*
X83485908Y-105920000D01*
X83601161Y-106499418D01*
X83929375Y-106990625D01*
X84248478Y-107203843D01*
X84118642Y-107264817D01*
X83728355Y-107693076D01*
X83558524Y-108103110D01*
X83679845Y-108333000D01*
X84873000Y-108333000D01*
X84873000Y-108313000D01*
X85127000Y-108313000D01*
X85127000Y-108333000D01*
X86320155Y-108333000D01*
X86441476Y-108103110D01*
X86271645Y-107693076D01*
X85881358Y-107264817D01*
X85751522Y-107203843D01*
X86070625Y-106990625D01*
X86398839Y-106499418D01*
X86514092Y-105920000D01*
X86398839Y-105340582D01*
X86070625Y-104849375D01*
X85772239Y-104650000D01*
X86070625Y-104450625D01*
X86398839Y-103959418D01*
X86514092Y-103380000D01*
X86398839Y-102800582D01*
X86070625Y-102309375D01*
X85772239Y-102110000D01*
X86070625Y-101910625D01*
X86398839Y-101419418D01*
X86514092Y-100840000D01*
X86398839Y-100260582D01*
X86070625Y-99769375D01*
X85579418Y-99441161D01*
X85146256Y-99355000D01*
X84853744Y-99355000D01*
X84633593Y-99398791D01*
X82357613Y-97122812D01*
X82435000Y-96935983D01*
X82435000Y-96564017D01*
X82292655Y-96220365D01*
X82029635Y-95957345D01*
X81685983Y-95815000D01*
X81314017Y-95815000D01*
X81084000Y-95910276D01*
X81084000Y-93293312D01*
X81430673Y-93061673D01*
X81594000Y-92817237D01*
X81757327Y-93061673D01*
X82265073Y-93400938D01*
X82712818Y-93490000D01*
X83015182Y-93490000D01*
X83462927Y-93400938D01*
X83970673Y-93061673D01*
X84134000Y-92817237D01*
X84297327Y-93061673D01*
X84805073Y-93400938D01*
X85252818Y-93490000D01*
X85555182Y-93490000D01*
X86002927Y-93400938D01*
X86468279Y-93090000D01*
X86809000Y-93090000D01*
X86809001Y-95138212D01*
X86786765Y-95250000D01*
X86809000Y-95361783D01*
X86809001Y-102582212D01*
X86786765Y-102694000D01*
X86874854Y-103136854D01*
X86874855Y-103136855D01*
X87125712Y-103512289D01*
X87220480Y-103575611D01*
X90509868Y-106865000D01*
X89961783Y-106865000D01*
X89850000Y-106842765D01*
X89407145Y-106930854D01*
X89031711Y-107181711D01*
X88968389Y-107276479D01*
X86405890Y-109838979D01*
X86307809Y-109692191D01*
X86097765Y-109551843D01*
X85994292Y-109531261D01*
X86271645Y-109226924D01*
X86441476Y-108816890D01*
X86320155Y-108587000D01*
X85127000Y-108587000D01*
X85127000Y-108607000D01*
X84873000Y-108607000D01*
X84873000Y-108587000D01*
X83679845Y-108587000D01*
X83558524Y-108816890D01*
X83728355Y-109226924D01*
X84005708Y-109531261D01*
X83902235Y-109551843D01*
X83692191Y-109692191D01*
X83551843Y-109902235D01*
X83502560Y-110150000D01*
X83502560Y-111850000D01*
X83551843Y-112097765D01*
X83692191Y-112307809D01*
X83902235Y-112448157D01*
X84150000Y-112497440D01*
X85850000Y-112497440D01*
X86097765Y-112448157D01*
X86307809Y-112307809D01*
X86423277Y-112135000D01*
X86738217Y-112135000D01*
X86850000Y-112157235D01*
X86961783Y-112135000D01*
X87292855Y-112069146D01*
X87668289Y-111818289D01*
X87731613Y-111723518D01*
X90320132Y-109135000D01*
X91352560Y-109135000D01*
X91352560Y-109250000D01*
X91401843Y-109497765D01*
X91542191Y-109707809D01*
X91752235Y-109848157D01*
X92000000Y-109897440D01*
X96000000Y-109897440D01*
X96247765Y-109848157D01*
X96457809Y-109707809D01*
X96598157Y-109497765D01*
X96647440Y-109250000D01*
X96647440Y-108285750D01*
X97465000Y-108285750D01*
X97465000Y-109376310D01*
X97561673Y-109609699D01*
X97740302Y-109788327D01*
X97973691Y-109885000D01*
X99814250Y-109885000D01*
X99973000Y-109726250D01*
X99973000Y-108127000D01*
X100227000Y-108127000D01*
X100227000Y-109726250D01*
X100385750Y-109885000D01*
X102226309Y-109885000D01*
X102459698Y-109788327D01*
X102638327Y-109609699D01*
X102735000Y-109376310D01*
X102735000Y-108285750D01*
X102576250Y-108127000D01*
X100227000Y-108127000D01*
X99973000Y-108127000D01*
X97623750Y-108127000D01*
X97465000Y-108285750D01*
X96647440Y-108285750D01*
X96647440Y-106750000D01*
X96622316Y-106623690D01*
X97465000Y-106623690D01*
X97465000Y-107714250D01*
X97623750Y-107873000D01*
X99973000Y-107873000D01*
X99973000Y-106273750D01*
X100227000Y-106273750D01*
X100227000Y-107873000D01*
X102576250Y-107873000D01*
X102735000Y-107714250D01*
X102735000Y-106623690D01*
X102638327Y-106390301D01*
X102459698Y-106211673D01*
X102226309Y-106115000D01*
X100385750Y-106115000D01*
X100227000Y-106273750D01*
X99973000Y-106273750D01*
X99814250Y-106115000D01*
X97973691Y-106115000D01*
X97740302Y-106211673D01*
X97561673Y-106390301D01*
X97465000Y-106623690D01*
X96622316Y-106623690D01*
X96598157Y-106502235D01*
X96457809Y-106292191D01*
X96247765Y-106151843D01*
X96000000Y-106102560D01*
X92957692Y-106102560D01*
X89079000Y-102223869D01*
X89079000Y-96385000D01*
X94638217Y-96385000D01*
X94750000Y-96407235D01*
X94861783Y-96385000D01*
X95192855Y-96319146D01*
X95568289Y-96068289D01*
X95631613Y-95973518D01*
X97634836Y-93970295D01*
X99637000Y-93970295D01*
X99637000Y-94809705D01*
X99958229Y-95585219D01*
X100551781Y-96178771D01*
X101327295Y-96500000D01*
X102166705Y-96500000D01*
X102942219Y-96178771D01*
X103535771Y-95585219D01*
X103857000Y-94809705D01*
X103857000Y-93970295D01*
X103535771Y-93194781D01*
X102942219Y-92601229D01*
X102166705Y-92280000D01*
X101327295Y-92280000D01*
X100551781Y-92601229D01*
X99958229Y-93194781D01*
X99637000Y-93970295D01*
X97634836Y-93970295D01*
X103723521Y-87881611D01*
X103818289Y-87818289D01*
X104069146Y-87442855D01*
X104091903Y-87328448D01*
X104157235Y-87000000D01*
X104135000Y-86888217D01*
X104135000Y-82630131D01*
X105120132Y-81645000D01*
X105146256Y-81645000D01*
X105579418Y-81558839D01*
X106070625Y-81230625D01*
X106398839Y-80739418D01*
X106491487Y-80273644D01*
X109308522Y-77456610D01*
X109403289Y-77393289D01*
X109654146Y-77017855D01*
X109720000Y-76686783D01*
X109720000Y-76686782D01*
X109742235Y-76575000D01*
X109720000Y-76463217D01*
X109720000Y-59547783D01*
X109742235Y-59436000D01*
X109654146Y-58993145D01*
X109403289Y-58617711D01*
X109308521Y-58554389D01*
X106672613Y-55918482D01*
X106609289Y-55823711D01*
X106233855Y-55572854D01*
X105902783Y-55507000D01*
X105791000Y-55484765D01*
X105679217Y-55507000D01*
X87391215Y-55507000D01*
X87060143Y-55572854D01*
X86710000Y-55806812D01*
X86710000Y-41930074D01*
X86703799Y-41898898D01*
X86659776Y-41405631D01*
X86653894Y-41377353D01*
X86652332Y-41348507D01*
X86632661Y-41265295D01*
X90704000Y-41265295D01*
X90704000Y-42104705D01*
X91025229Y-42880219D01*
X91618781Y-43473771D01*
X92394295Y-43795000D01*
X93233705Y-43795000D01*
X94009219Y-43473771D01*
X94602771Y-42880219D01*
X94924000Y-42104705D01*
X94924000Y-41265295D01*
X94602771Y-40489781D01*
X94009219Y-39896229D01*
X93233705Y-39575000D01*
X92394295Y-39575000D01*
X91618781Y-39896229D01*
X91025229Y-40489781D01*
X90704000Y-41265295D01*
X86632661Y-41265295D01*
X86632104Y-41262940D01*
X86430697Y-40597947D01*
X86415357Y-40562668D01*
X86404496Y-40525764D01*
X86365127Y-40447145D01*
X86016141Y-39846321D01*
X85993097Y-39815518D01*
X85974036Y-39782100D01*
X85917636Y-39714646D01*
X85439791Y-39210223D01*
X85410280Y-39185548D01*
X85384043Y-39157412D01*
X85313638Y-39104742D01*
X84732566Y-38723774D01*
X84698164Y-38706547D01*
X84666162Y-38685204D01*
X84585537Y-38650147D01*
X84585530Y-38650144D01*
X84585527Y-38650143D01*
X83932401Y-38413070D01*
X83894966Y-38404221D01*
X83858906Y-38390810D01*
X83772370Y-38375240D01*
X83110542Y-38298079D01*
X83069926Y-38290000D01*
X41930074Y-38290000D01*
X41898898Y-38296201D01*
X41405631Y-38340224D01*
X41377353Y-38346106D01*
X41348507Y-38347668D01*
X41262940Y-38367896D01*
X40597947Y-38569303D01*
X40562668Y-38584643D01*
X40525764Y-38595504D01*
X40447145Y-38634873D01*
X39846321Y-38983859D01*
X39815518Y-39006903D01*
X39782100Y-39025964D01*
X39714646Y-39082364D01*
X39210223Y-39560209D01*
X39185548Y-39589720D01*
X39157412Y-39615957D01*
X39104742Y-39686362D01*
X38723774Y-40267434D01*
X38706547Y-40301836D01*
X38685204Y-40333838D01*
X38650144Y-40414471D01*
X38413070Y-41067599D01*
X38404221Y-41105034D01*
X38390810Y-41141094D01*
X38375240Y-41227630D01*
X38298078Y-41889470D01*
X38290001Y-41930074D01*
X38290000Y-75069925D01*
X38296201Y-75101100D01*
X38340224Y-75594369D01*
X38346106Y-75622648D01*
X38347668Y-75651493D01*
X38367896Y-75737060D01*
X38569303Y-76402053D01*
X38584642Y-76437330D01*
X38595504Y-76474236D01*
X38634873Y-76552855D01*
X38983859Y-77153679D01*
X39006903Y-77184483D01*
X39025964Y-77217900D01*
X39082364Y-77285353D01*
X39560209Y-77789777D01*
X39589717Y-77814449D01*
X39615957Y-77842589D01*
X39686362Y-77895258D01*
X40267435Y-78276226D01*
X40301833Y-78293451D01*
X40333838Y-78314796D01*
X40414471Y-78349856D01*
X41067599Y-78586930D01*
X41105034Y-78595779D01*
X41141094Y-78609190D01*
X41227627Y-78624759D01*
X41227630Y-78624760D01*
X41227631Y-78624760D01*
X41889458Y-78701921D01*
X41930074Y-78710000D01*
X83069926Y-78710000D01*
X83101102Y-78703799D01*
X83594369Y-78659776D01*
X83622648Y-78653894D01*
X83651493Y-78652332D01*
X83737060Y-78632104D01*
X84402053Y-78430697D01*
X84437330Y-78415358D01*
X84474236Y-78404496D01*
X84552855Y-78365127D01*
X85136488Y-78026126D01*
X90659000Y-78026126D01*
X90659000Y-78437874D01*
X90816569Y-78818280D01*
X91107720Y-79109431D01*
X91488126Y-79267000D01*
X91654199Y-79267000D01*
X93897671Y-81510473D01*
X93940071Y-81573929D01*
X94003527Y-81616329D01*
X94191462Y-81741904D01*
X94239605Y-81751480D01*
X94413148Y-81786000D01*
X94413152Y-81786000D01*
X94488000Y-81800888D01*
X94562848Y-81786000D01*
X95562289Y-81786000D01*
X95679720Y-81903431D01*
X96060126Y-82061000D01*
X96471874Y-82061000D01*
X96852280Y-81903431D01*
X97143431Y-81612280D01*
X97301000Y-81231874D01*
X97301000Y-80820126D01*
X97143431Y-80439720D01*
X96852280Y-80148569D01*
X96471874Y-79991000D01*
X96060126Y-79991000D01*
X95679720Y-80148569D01*
X95562289Y-80266000D01*
X94802802Y-80266000D01*
X92729000Y-78192199D01*
X92729000Y-78026126D01*
X92571431Y-77645720D01*
X92280280Y-77354569D01*
X91899874Y-77197000D01*
X91488126Y-77197000D01*
X91107720Y-77354569D01*
X90816569Y-77645720D01*
X90659000Y-78026126D01*
X85136488Y-78026126D01*
X85153679Y-78016141D01*
X85184483Y-77993097D01*
X85217900Y-77974036D01*
X85285353Y-77917636D01*
X85789777Y-77439791D01*
X85814449Y-77410283D01*
X85842589Y-77384043D01*
X85895258Y-77313638D01*
X86276226Y-76732565D01*
X86293451Y-76698167D01*
X86314796Y-76666162D01*
X86349856Y-76585529D01*
X86586930Y-75932401D01*
X86595779Y-75894966D01*
X86609190Y-75858906D01*
X86624760Y-75772369D01*
X86701921Y-75110542D01*
X86710000Y-75069926D01*
X86710000Y-67265295D01*
X90704000Y-67265295D01*
X90704000Y-68104705D01*
X91025229Y-68880219D01*
X91618781Y-69473771D01*
X92394295Y-69795000D01*
X93233705Y-69795000D01*
X94009219Y-69473771D01*
X94602771Y-68880219D01*
X94924000Y-68104705D01*
X94924000Y-67265295D01*
X94602771Y-66489781D01*
X94009219Y-65896229D01*
X93233705Y-65575000D01*
X92394295Y-65575000D01*
X91618781Y-65896229D01*
X91025229Y-66489781D01*
X90704000Y-67265295D01*
X86710000Y-67265295D01*
X86710000Y-57477188D01*
X87060143Y-57711146D01*
X87391215Y-57777000D01*
X105320869Y-57777000D01*
X107450001Y-59906133D01*
X107450001Y-66497199D01*
X105937000Y-64984199D01*
X105937000Y-64818126D01*
X105779431Y-64437720D01*
X105488280Y-64146569D01*
X105107874Y-63989000D01*
X104696126Y-63989000D01*
X104315720Y-64146569D01*
X104024569Y-64437720D01*
X103867000Y-64818126D01*
X103867000Y-65229874D01*
X104024569Y-65610280D01*
X104315720Y-65901431D01*
X104696126Y-66059000D01*
X104862199Y-66059000D01*
X106428000Y-67624802D01*
X106428000Y-68872068D01*
X106307809Y-68692191D01*
X106097765Y-68551843D01*
X105850000Y-68502560D01*
X104150000Y-68502560D01*
X103902235Y-68551843D01*
X103692191Y-68692191D01*
X103551843Y-68902235D01*
X103502560Y-69150000D01*
X103502560Y-70850000D01*
X103551843Y-71097765D01*
X103692191Y-71307809D01*
X103902235Y-71448157D01*
X103947619Y-71457184D01*
X103929375Y-71469375D01*
X103601161Y-71960582D01*
X103485908Y-72540000D01*
X103601161Y-73119418D01*
X103929375Y-73610625D01*
X104248478Y-73823843D01*
X104118642Y-73884817D01*
X103728355Y-74313076D01*
X103558524Y-74723110D01*
X103679845Y-74953000D01*
X104873000Y-74953000D01*
X104873000Y-74933000D01*
X105127000Y-74933000D01*
X105127000Y-74953000D01*
X105147000Y-74953000D01*
X105147000Y-75207000D01*
X105127000Y-75207000D01*
X105127000Y-75227000D01*
X104873000Y-75227000D01*
X104873000Y-75207000D01*
X103679845Y-75207000D01*
X103558524Y-75436890D01*
X103728355Y-75846924D01*
X104118642Y-76275183D01*
X104248478Y-76336157D01*
X103929375Y-76549375D01*
X103601161Y-77040582D01*
X103485908Y-77620000D01*
X103601161Y-78199418D01*
X103929375Y-78690625D01*
X104227761Y-78890000D01*
X103929375Y-79089375D01*
X103601161Y-79580582D01*
X103508513Y-80046355D01*
X102276482Y-81278387D01*
X102181711Y-81341711D01*
X101930855Y-81717145D01*
X101930854Y-81717146D01*
X101842765Y-82160000D01*
X101865000Y-82271783D01*
X101865001Y-86529867D01*
X94279869Y-94115000D01*
X89079000Y-94115000D01*
X89079000Y-93019279D01*
X89389938Y-92553927D01*
X89509072Y-91955000D01*
X89389938Y-91356073D01*
X89093304Y-90912129D01*
X89301809Y-90772809D01*
X89442157Y-90562765D01*
X89491440Y-90315000D01*
X89491440Y-90265295D01*
X90704000Y-90265295D01*
X90704000Y-91104705D01*
X91025229Y-91880219D01*
X91618781Y-92473771D01*
X92394295Y-92795000D01*
X93233705Y-92795000D01*
X94009219Y-92473771D01*
X94602771Y-91880219D01*
X94924000Y-91104705D01*
X94924000Y-90265295D01*
X94602771Y-89489781D01*
X94009219Y-88896229D01*
X93233705Y-88575000D01*
X92394295Y-88575000D01*
X91618781Y-88896229D01*
X91025229Y-89489781D01*
X90704000Y-90265295D01*
X89491440Y-90265295D01*
X89491440Y-88515000D01*
X89442157Y-88267235D01*
X89301809Y-88057191D01*
X89091765Y-87916843D01*
X88844000Y-87867560D01*
X88746139Y-87867560D01*
X88730552Y-87789199D01*
X88686669Y-87723524D01*
X88546001Y-87512999D01*
X88476283Y-87466415D01*
X87853587Y-86843720D01*
X87807001Y-86773999D01*
X87530801Y-86589448D01*
X87287237Y-86541000D01*
X87287233Y-86541000D01*
X87205000Y-86524643D01*
X87122767Y-86541000D01*
X72002711Y-86541000D01*
X71960280Y-86498569D01*
X71579874Y-86341000D01*
X71168126Y-86341000D01*
X70787720Y-86498569D01*
X70496569Y-86789720D01*
X70339000Y-87170126D01*
X70339000Y-87581874D01*
X70475714Y-87911932D01*
X70315182Y-87880000D01*
X70012818Y-87880000D01*
X69565073Y-87969062D01*
X69057327Y-88308327D01*
X68894000Y-88552763D01*
X68730673Y-88308327D01*
X68222927Y-87969062D01*
X67775182Y-87880000D01*
X67693802Y-87880000D01*
X69313802Y-86260000D01*
X72965153Y-86260000D01*
X73040000Y-86274888D01*
X73114847Y-86260000D01*
X73114852Y-86260000D01*
X73336537Y-86215904D01*
X73587929Y-86047929D01*
X73630331Y-85984470D01*
X75048625Y-84566177D01*
X75214778Y-84635000D01*
X75865222Y-84635000D01*
X76466153Y-84386086D01*
X76810000Y-84042239D01*
X77153847Y-84386086D01*
X77754778Y-84635000D01*
X78405222Y-84635000D01*
X79006153Y-84386086D01*
X79350000Y-84042239D01*
X79693847Y-84386086D01*
X80294778Y-84635000D01*
X80945222Y-84635000D01*
X81546153Y-84386086D01*
X81890000Y-84042239D01*
X82233847Y-84386086D01*
X82834778Y-84635000D01*
X83485222Y-84635000D01*
X84086153Y-84386086D01*
X84319707Y-84152532D01*
X84727073Y-84152532D01*
X84825736Y-84419387D01*
X85435461Y-84645908D01*
X86085460Y-84621856D01*
X86574264Y-84419387D01*
X86672927Y-84152532D01*
X85700000Y-83179605D01*
X84727073Y-84152532D01*
X84319707Y-84152532D01*
X84512311Y-83959928D01*
X84547468Y-83972927D01*
X85520395Y-83000000D01*
X85879605Y-83000000D01*
X86852532Y-83972927D01*
X87119387Y-83874264D01*
X87345908Y-83264539D01*
X87321856Y-82614540D01*
X87119387Y-82125736D01*
X86852532Y-82027073D01*
X85879605Y-83000000D01*
X85520395Y-83000000D01*
X84547468Y-82027073D01*
X84512311Y-82040072D01*
X84319707Y-81847468D01*
X84727073Y-81847468D01*
X85700000Y-82820395D01*
X86672927Y-81847468D01*
X86574264Y-81580613D01*
X85964539Y-81354092D01*
X85314540Y-81378144D01*
X84825736Y-81580613D01*
X84727073Y-81847468D01*
X84319707Y-81847468D01*
X84086153Y-81613914D01*
X83485222Y-81365000D01*
X82834778Y-81365000D01*
X82233847Y-81613914D01*
X81890000Y-81957761D01*
X81546153Y-81613914D01*
X80945222Y-81365000D01*
X80294778Y-81365000D01*
X79693847Y-81613914D01*
X79350000Y-81957761D01*
X79006153Y-81613914D01*
X78405222Y-81365000D01*
X77754778Y-81365000D01*
X77153847Y-81613914D01*
X76810000Y-81957761D01*
X76466153Y-81613914D01*
X75865222Y-81365000D01*
X75214778Y-81365000D01*
X74613847Y-81613914D01*
X74270000Y-81957761D01*
X73926153Y-81613914D01*
X73325222Y-81365000D01*
X72674778Y-81365000D01*
X72073847Y-81613914D01*
X71730000Y-81957761D01*
X71386153Y-81613914D01*
X70785222Y-81365000D01*
X70134778Y-81365000D01*
X69533847Y-81613914D01*
X69190000Y-81957761D01*
X68846153Y-81613914D01*
X68245222Y-81365000D01*
X67594778Y-81365000D01*
X66993847Y-81613914D01*
X66567689Y-82040072D01*
X66532532Y-82027073D01*
X65559605Y-83000000D01*
X65573748Y-83014143D01*
X65394143Y-83193748D01*
X65380000Y-83179605D01*
X64407073Y-84152532D01*
X64505736Y-84419387D01*
X65115461Y-84645908D01*
X65202512Y-84642687D01*
X63816725Y-86028474D01*
X63792655Y-85970365D01*
X63697290Y-85875000D01*
X63792655Y-85779635D01*
X63935000Y-85435983D01*
X63935000Y-85064017D01*
X63792655Y-84720365D01*
X63548522Y-84476232D01*
X63766153Y-84386086D01*
X64192311Y-83959928D01*
X64227468Y-83972927D01*
X65200395Y-83000000D01*
X64227468Y-82027073D01*
X64192311Y-82040072D01*
X63999707Y-81847468D01*
X64407073Y-81847468D01*
X65380000Y-82820395D01*
X66352927Y-81847468D01*
X66254264Y-81580613D01*
X65644539Y-81354092D01*
X64994540Y-81378144D01*
X64505736Y-81580613D01*
X64407073Y-81847468D01*
X63999707Y-81847468D01*
X63766153Y-81613914D01*
X63165222Y-81365000D01*
X62514778Y-81365000D01*
X61913847Y-81613914D01*
X61570000Y-81957761D01*
X61226153Y-81613914D01*
X60625222Y-81365000D01*
X59974778Y-81365000D01*
X59373847Y-81613914D01*
X59030000Y-81957761D01*
X58686153Y-81613914D01*
X58085222Y-81365000D01*
X57434778Y-81365000D01*
X56833847Y-81613914D01*
X56490000Y-81957761D01*
X56146153Y-81613914D01*
X55545222Y-81365000D01*
X54894778Y-81365000D01*
X54293847Y-81613914D01*
X53950000Y-81957761D01*
X53606153Y-81613914D01*
X53005222Y-81365000D01*
X52354778Y-81365000D01*
X51753847Y-81613914D01*
X51410000Y-81957761D01*
X51066153Y-81613914D01*
X50465222Y-81365000D01*
X49814778Y-81365000D01*
X49213847Y-81613914D01*
X48870000Y-81957761D01*
X48526153Y-81613914D01*
X47925222Y-81365000D01*
X47274778Y-81365000D01*
X46673847Y-81613914D01*
X46330000Y-81957761D01*
X45986153Y-81613914D01*
X45385222Y-81365000D01*
X44734778Y-81365000D01*
X44133847Y-81613914D01*
X43790000Y-81957761D01*
X43446153Y-81613914D01*
X42845222Y-81365000D01*
X42194778Y-81365000D01*
X41593847Y-81613914D01*
X41250000Y-81957761D01*
X40906153Y-81613914D01*
X40305222Y-81365000D01*
X39654778Y-81365000D01*
X39053847Y-81613914D01*
X38992718Y-81675043D01*
X38978327Y-81640301D01*
X38799698Y-81461673D01*
X38566309Y-81365000D01*
X37725750Y-81365000D01*
X37567000Y-81523750D01*
X37313000Y-81523750D01*
X37154250Y-81365000D01*
X36313691Y-81365000D01*
X36080302Y-81461673D01*
X35901673Y-81640301D01*
X35805000Y-81873690D01*
X31710000Y-81873690D01*
X31710000Y-67265295D01*
X32587000Y-67265295D01*
X32587000Y-68104705D01*
X32908229Y-68880219D01*
X33501781Y-69473771D01*
X34277295Y-69795000D01*
X35116705Y-69795000D01*
X35892219Y-69473771D01*
X36485771Y-68880219D01*
X36807000Y-68104705D01*
X36807000Y-67265295D01*
X36485771Y-66489781D01*
X35892219Y-65896229D01*
X35116705Y-65575000D01*
X34277295Y-65575000D01*
X33501781Y-65896229D01*
X32908229Y-66489781D01*
X32587000Y-67265295D01*
X31710000Y-67265295D01*
X31710000Y-41265295D01*
X32704000Y-41265295D01*
X32704000Y-42104705D01*
X33025229Y-42880219D01*
X33618781Y-43473771D01*
X34394295Y-43795000D01*
X35233705Y-43795000D01*
X36009219Y-43473771D01*
X36602771Y-42880219D01*
X36924000Y-42104705D01*
X36924000Y-41265295D01*
X36602771Y-40489781D01*
X36009219Y-39896229D01*
X35233705Y-39575000D01*
X34394295Y-39575000D01*
X33618781Y-39896229D01*
X33025229Y-40489781D01*
X32704000Y-41265295D01*
X31710000Y-41265295D01*
X31710000Y-37259126D01*
X89135006Y-37259126D01*
X89135006Y-37670874D01*
X89292575Y-38051280D01*
X89369032Y-38127737D01*
X89261999Y-38386137D01*
X89261999Y-38797885D01*
X89419568Y-39178291D01*
X89710719Y-39469442D01*
X90091125Y-39627011D01*
X90502873Y-39627011D01*
X90883279Y-39469442D01*
X90925710Y-39427011D01*
X94167756Y-39427011D01*
X94249989Y-39443368D01*
X94332222Y-39427011D01*
X94332226Y-39427011D01*
X94575790Y-39378563D01*
X94851990Y-39194012D01*
X94898576Y-39124291D01*
X98951868Y-35071000D01*
X99011874Y-35071000D01*
X99392280Y-34913431D01*
X99683431Y-34622280D01*
X99841000Y-34241874D01*
X99841000Y-33830126D01*
X99683431Y-33449720D01*
X99392280Y-33158569D01*
X99011874Y-33001000D01*
X98600126Y-33001000D01*
X98461730Y-33058325D01*
X98413431Y-32941720D01*
X98122280Y-32650569D01*
X97741874Y-32493000D01*
X97330126Y-32493000D01*
X96949720Y-32650569D01*
X96658569Y-32941720D01*
X96501000Y-33322126D01*
X96501000Y-33382132D01*
X93253133Y-36630000D01*
X90798717Y-36630000D01*
X90756286Y-36587569D01*
X90375880Y-36430000D01*
X89964132Y-36430000D01*
X89583726Y-36587569D01*
X89292575Y-36878720D01*
X89135006Y-37259126D01*
X31710000Y-37259126D01*
X31710000Y-20700000D01*
X38092560Y-20700000D01*
X38092560Y-22700000D01*
X38141843Y-22947765D01*
X38282191Y-23157809D01*
X38492235Y-23298157D01*
X38740000Y-23347440D01*
X40740000Y-23347440D01*
X40987765Y-23298157D01*
X41197809Y-23157809D01*
X41338157Y-22947765D01*
X41344061Y-22918081D01*
X41392794Y-22966814D01*
X41507074Y-22852534D01*
X41605736Y-23119387D01*
X42215461Y-23345908D01*
X42865460Y-23321856D01*
X43354264Y-23119387D01*
X43452927Y-22852532D01*
X42480000Y-21879605D01*
X42465858Y-21893748D01*
X42286253Y-21714143D01*
X42300395Y-21700000D01*
X42659605Y-21700000D01*
X43632532Y-22672927D01*
X43667689Y-22659928D01*
X44093847Y-23086086D01*
X44694778Y-23335000D01*
X45345222Y-23335000D01*
X45946153Y-23086086D01*
X46406086Y-22626153D01*
X46655000Y-22025222D01*
X46655000Y-21374778D01*
X46406086Y-20773847D01*
X45946153Y-20313914D01*
X45345222Y-20065000D01*
X44694778Y-20065000D01*
X44093847Y-20313914D01*
X43667689Y-20740072D01*
X43632532Y-20727073D01*
X42659605Y-21700000D01*
X42300395Y-21700000D01*
X42286253Y-21685858D01*
X42465858Y-21506253D01*
X42480000Y-21520395D01*
X43452927Y-20547468D01*
X43354264Y-20280613D01*
X42744539Y-20054092D01*
X42094540Y-20078144D01*
X41605736Y-20280613D01*
X41507074Y-20547466D01*
X41392794Y-20433186D01*
X41344061Y-20481919D01*
X41338157Y-20452235D01*
X41197809Y-20242191D01*
X40987765Y-20101843D01*
X40740000Y-20052560D01*
X38740000Y-20052560D01*
X38492235Y-20101843D01*
X38282191Y-20242191D01*
X38141843Y-20452235D01*
X38092560Y-20700000D01*
X31710000Y-20700000D01*
X31710000Y-14710000D01*
X56669492Y-14710000D01*
X56669197Y-14710197D01*
X56669197Y-14710197D01*
G37*
X56669197Y-14710197D02*
X56641667Y-14751399D01*
X56632000Y-14800000D01*
X56632000Y-28135000D01*
X56641667Y-28183601D01*
X56669197Y-28224803D01*
X56710399Y-28252333D01*
X56759000Y-28262000D01*
X62358998Y-28262000D01*
X62358998Y-28760289D01*
X62241567Y-28877720D01*
X62083998Y-29258126D01*
X62083998Y-29669874D01*
X62241567Y-30050280D01*
X62532718Y-30341431D01*
X62913124Y-30499000D01*
X63324872Y-30499000D01*
X63705278Y-30341431D01*
X63996429Y-30050280D01*
X64153998Y-29669874D01*
X64153998Y-29258126D01*
X63996429Y-28877720D01*
X63878998Y-28760289D01*
X63878998Y-28262000D01*
X69586000Y-28262000D01*
X69634601Y-28252333D01*
X69675803Y-28224803D01*
X69703333Y-28183601D01*
X69713000Y-28135000D01*
X69713000Y-21985750D01*
X81505000Y-21985750D01*
X81505000Y-22826310D01*
X81601673Y-23059699D01*
X81780302Y-23238327D01*
X82013691Y-23335000D01*
X82854250Y-23335000D01*
X83013000Y-23176250D01*
X83013000Y-21827000D01*
X81663750Y-21827000D01*
X81505000Y-21985750D01*
X69713000Y-21985750D01*
X69713000Y-20573690D01*
X81505000Y-20573690D01*
X81505000Y-21414250D01*
X81663750Y-21573000D01*
X83013000Y-21573000D01*
X83013000Y-20223750D01*
X83267000Y-20223750D01*
X83267000Y-21573000D01*
X83287000Y-21573000D01*
X83287000Y-21827000D01*
X83267000Y-21827000D01*
X83267000Y-23176250D01*
X83425750Y-23335000D01*
X84266309Y-23335000D01*
X84499698Y-23238327D01*
X84678327Y-23059699D01*
X84692718Y-23024957D01*
X84753847Y-23086086D01*
X85354778Y-23335000D01*
X86005222Y-23335000D01*
X86606153Y-23086086D01*
X86950000Y-22742239D01*
X87293847Y-23086086D01*
X87894778Y-23335000D01*
X88545222Y-23335000D01*
X89146153Y-23086086D01*
X89606086Y-22626153D01*
X89855000Y-22025222D01*
X89855000Y-21374778D01*
X89606086Y-20773847D01*
X89146153Y-20313914D01*
X88545222Y-20065000D01*
X87894778Y-20065000D01*
X87293847Y-20313914D01*
X86950000Y-20657761D01*
X86606153Y-20313914D01*
X86005222Y-20065000D01*
X85354778Y-20065000D01*
X84753847Y-20313914D01*
X84692718Y-20375043D01*
X84678327Y-20340301D01*
X84499698Y-20161673D01*
X84266309Y-20065000D01*
X83425750Y-20065000D01*
X83267000Y-20223750D01*
X83013000Y-20223750D01*
X82854250Y-20065000D01*
X82013691Y-20065000D01*
X81780302Y-20161673D01*
X81601673Y-20340301D01*
X81505000Y-20573690D01*
X69713000Y-20573690D01*
X69713000Y-17620295D01*
X99637000Y-17620295D01*
X99637000Y-18459705D01*
X99958229Y-19235219D01*
X100551781Y-19828771D01*
X101327295Y-20150000D01*
X102166705Y-20150000D01*
X102942219Y-19828771D01*
X103535771Y-19235219D01*
X103857000Y-18459705D01*
X103857000Y-17620295D01*
X103535771Y-16844781D01*
X102942219Y-16251229D01*
X102166705Y-15930000D01*
X101327295Y-15930000D01*
X100551781Y-16251229D01*
X99958229Y-16844781D01*
X99637000Y-17620295D01*
X69713000Y-17620295D01*
X69713000Y-14800000D01*
X69703333Y-14751399D01*
X69675803Y-14710197D01*
X69675508Y-14710000D01*
X110290001Y-14710000D01*
X110290000Y-113290000D01*
X74837191Y-113290000D01*
X74881609Y-113223524D01*
X74962207Y-113142926D01*
X75005826Y-113037620D01*
X75069146Y-112942855D01*
X75091381Y-112831072D01*
X75135000Y-112725766D01*
X75135000Y-112611783D01*
X75157235Y-112500000D01*
X75135000Y-112388217D01*
X75135000Y-112274234D01*
X75091381Y-112168928D01*
X75069146Y-112057145D01*
X75005826Y-111962380D01*
X74962207Y-111857074D01*
X74881609Y-111776476D01*
X74818289Y-111681711D01*
X74723524Y-111618391D01*
X74642926Y-111537793D01*
X74537620Y-111494174D01*
X74442855Y-111430854D01*
X74331072Y-111408619D01*
X74225766Y-111365000D01*
X71720132Y-111365000D01*
X71252571Y-110897440D01*
X72000000Y-110897440D01*
X72247765Y-110848157D01*
X72457809Y-110707809D01*
X72598157Y-110497765D01*
X72647440Y-110250000D01*
X72647440Y-108150000D01*
X73502560Y-108150000D01*
X73502560Y-109850000D01*
X73551843Y-110097765D01*
X73692191Y-110307809D01*
X73902235Y-110448157D01*
X74150000Y-110497440D01*
X75850000Y-110497440D01*
X76097765Y-110448157D01*
X76307809Y-110307809D01*
X76448157Y-110097765D01*
X76497440Y-109850000D01*
X76497440Y-108150000D01*
X76448157Y-107902235D01*
X76307809Y-107692191D01*
X76097765Y-107551843D01*
X75994292Y-107531261D01*
X76271645Y-107226924D01*
X76441476Y-106816890D01*
X76320155Y-106587000D01*
X75127000Y-106587000D01*
X75127000Y-106607000D01*
X74873000Y-106607000D01*
X74873000Y-106587000D01*
X73679845Y-106587000D01*
X73558524Y-106816890D01*
X73728355Y-107226924D01*
X74005708Y-107531261D01*
X73902235Y-107551843D01*
X73692191Y-107692191D01*
X73551843Y-107902235D01*
X73502560Y-108150000D01*
X72647440Y-108150000D01*
X72647440Y-107750000D01*
X72598157Y-107502235D01*
X72457809Y-107292191D01*
X72247765Y-107151843D01*
X72000000Y-107102560D01*
X70985000Y-107102560D01*
X70985000Y-103920000D01*
X73485908Y-103920000D01*
X73601161Y-104499418D01*
X73929375Y-104990625D01*
X74248478Y-105203843D01*
X74118642Y-105264817D01*
X73728355Y-105693076D01*
X73558524Y-106103110D01*
X73679845Y-106333000D01*
X74873000Y-106333000D01*
X74873000Y-106313000D01*
X75127000Y-106313000D01*
X75127000Y-106333000D01*
X76320155Y-106333000D01*
X76441476Y-106103110D01*
X76271645Y-105693076D01*
X75881358Y-105264817D01*
X75751522Y-105203843D01*
X76070625Y-104990625D01*
X76398839Y-104499418D01*
X76514092Y-103920000D01*
X76398839Y-103340582D01*
X76070625Y-102849375D01*
X75579418Y-102521161D01*
X75146256Y-102435000D01*
X74853744Y-102435000D01*
X74420582Y-102521161D01*
X73929375Y-102849375D01*
X73601161Y-103340582D01*
X73485908Y-103920000D01*
X70985000Y-103920000D01*
X70985000Y-103914234D01*
X70941381Y-103808928D01*
X70919146Y-103697145D01*
X70855826Y-103602380D01*
X70812207Y-103497074D01*
X70731609Y-103416476D01*
X70668289Y-103321711D01*
X70573525Y-103258392D01*
X70492926Y-103177793D01*
X70387618Y-103134173D01*
X70292854Y-103070854D01*
X70181073Y-103048619D01*
X70075766Y-103005000D01*
X69961783Y-103005000D01*
X69850000Y-102982765D01*
X69738217Y-103005000D01*
X69624234Y-103005000D01*
X69518928Y-103048619D01*
X69407145Y-103070854D01*
X69312380Y-103134174D01*
X69207074Y-103177793D01*
X69126476Y-103258391D01*
X69031711Y-103321711D01*
X68968392Y-103416475D01*
X68887793Y-103497074D01*
X68844173Y-103602382D01*
X68780854Y-103697146D01*
X68758619Y-103808927D01*
X68715000Y-103914234D01*
X68715000Y-104028218D01*
X68715001Y-107102560D01*
X68000000Y-107102560D01*
X67752235Y-107151843D01*
X67542191Y-107292191D01*
X67401843Y-107502235D01*
X67352560Y-107750000D01*
X67352560Y-110250000D01*
X67401843Y-110497765D01*
X67542191Y-110707809D01*
X67752235Y-110848157D01*
X68000000Y-110897440D01*
X68865000Y-110897440D01*
X68865000Y-111138216D01*
X68842765Y-111250000D01*
X68928638Y-111681711D01*
X68930854Y-111692854D01*
X69181711Y-112068289D01*
X69276482Y-112131613D01*
X70368389Y-113223521D01*
X70412809Y-113290000D01*
X39473644Y-113290000D01*
X40039444Y-113055638D01*
X40555638Y-112539444D01*
X40835000Y-111865004D01*
X40835000Y-111134996D01*
X40555638Y-110460556D01*
X40039444Y-109944362D01*
X39775421Y-109835000D01*
X40326310Y-109835000D01*
X40559699Y-109738327D01*
X40738327Y-109559698D01*
X40835000Y-109326309D01*
X40835000Y-109285750D01*
X61265000Y-109285750D01*
X61265000Y-110376310D01*
X61361673Y-110609699D01*
X61540302Y-110788327D01*
X61773691Y-110885000D01*
X63614250Y-110885000D01*
X63773000Y-110726250D01*
X63773000Y-109127000D01*
X64027000Y-109127000D01*
X64027000Y-110726250D01*
X64185750Y-110885000D01*
X66026309Y-110885000D01*
X66259698Y-110788327D01*
X66438327Y-110609699D01*
X66535000Y-110376310D01*
X66535000Y-109285750D01*
X66376250Y-109127000D01*
X64027000Y-109127000D01*
X63773000Y-109127000D01*
X61423750Y-109127000D01*
X61265000Y-109285750D01*
X40835000Y-109285750D01*
X40835000Y-108285750D01*
X40676250Y-108127000D01*
X39127000Y-108127000D01*
X39127000Y-108147000D01*
X38873000Y-108147000D01*
X38873000Y-108127000D01*
X37323750Y-108127000D01*
X37165000Y-108285750D01*
X37165000Y-109326309D01*
X37261673Y-109559698D01*
X37440301Y-109738327D01*
X37673690Y-109835000D01*
X38224579Y-109835000D01*
X37960556Y-109944362D01*
X37444362Y-110460556D01*
X37165000Y-111134996D01*
X37165000Y-111865004D01*
X37444362Y-112539444D01*
X37960556Y-113055638D01*
X38526356Y-113290000D01*
X31710000Y-113290000D01*
X31710000Y-106673691D01*
X37165000Y-106673691D01*
X37165000Y-107714250D01*
X37323750Y-107873000D01*
X38873000Y-107873000D01*
X38873000Y-106323750D01*
X39127000Y-106323750D01*
X39127000Y-107873000D01*
X40676250Y-107873000D01*
X40835000Y-107714250D01*
X40835000Y-107623690D01*
X61265000Y-107623690D01*
X61265000Y-108714250D01*
X61423750Y-108873000D01*
X63773000Y-108873000D01*
X63773000Y-107273750D01*
X64027000Y-107273750D01*
X64027000Y-108873000D01*
X66376250Y-108873000D01*
X66535000Y-108714250D01*
X66535000Y-107623690D01*
X66438327Y-107390301D01*
X66259698Y-107211673D01*
X66026309Y-107115000D01*
X64185750Y-107115000D01*
X64027000Y-107273750D01*
X63773000Y-107273750D01*
X63614250Y-107115000D01*
X61773691Y-107115000D01*
X61540302Y-107211673D01*
X61361673Y-107390301D01*
X61265000Y-107623690D01*
X40835000Y-107623690D01*
X40835000Y-106673691D01*
X40738327Y-106440302D01*
X40559699Y-106261673D01*
X40326310Y-106165000D01*
X39285750Y-106165000D01*
X39127000Y-106323750D01*
X38873000Y-106323750D01*
X38714250Y-106165000D01*
X37673690Y-106165000D01*
X37440301Y-106261673D01*
X37261673Y-106440302D01*
X37165000Y-106673691D01*
X31710000Y-106673691D01*
X31710000Y-105285750D01*
X43615000Y-105285750D01*
X43615000Y-106876310D01*
X43711673Y-107109699D01*
X43890302Y-107288327D01*
X44123691Y-107385000D01*
X45714250Y-107385000D01*
X45873000Y-107226250D01*
X45873000Y-105127000D01*
X46127000Y-105127000D01*
X46127000Y-107226250D01*
X46285750Y-107385000D01*
X47876309Y-107385000D01*
X48109698Y-107288327D01*
X48288327Y-107109699D01*
X48385000Y-106876310D01*
X48385000Y-105285750D01*
X48226250Y-105127000D01*
X46127000Y-105127000D01*
X45873000Y-105127000D01*
X43773750Y-105127000D01*
X43615000Y-105285750D01*
X31710000Y-105285750D01*
X31710000Y-100585750D01*
X40615000Y-100585750D01*
X40615000Y-102176310D01*
X40711673Y-102409699D01*
X40890302Y-102588327D01*
X41123691Y-102685000D01*
X42714250Y-102685000D01*
X42873000Y-102526250D01*
X42873000Y-100427000D01*
X43127000Y-100427000D01*
X43127000Y-102526250D01*
X43285750Y-102685000D01*
X43954696Y-102685000D01*
X43890302Y-102711673D01*
X43711673Y-102890301D01*
X43615000Y-103123690D01*
X43615000Y-104714250D01*
X43773750Y-104873000D01*
X45873000Y-104873000D01*
X45873000Y-102773750D01*
X46127000Y-102773750D01*
X46127000Y-104873000D01*
X48226250Y-104873000D01*
X48385000Y-104714250D01*
X48385000Y-103123690D01*
X48288327Y-102890301D01*
X48109698Y-102711673D01*
X48075337Y-102697440D01*
X50750000Y-102697440D01*
X50997765Y-102648157D01*
X51207809Y-102507809D01*
X51348157Y-102297765D01*
X51397440Y-102050000D01*
X51397440Y-98550000D01*
X51348157Y-98302235D01*
X51207809Y-98092191D01*
X50997765Y-97951843D01*
X50750000Y-97902560D01*
X47250000Y-97902560D01*
X47002235Y-97951843D01*
X46792191Y-98092191D01*
X46651843Y-98302235D01*
X46602560Y-98550000D01*
X46602560Y-102050000D01*
X46651843Y-102297765D01*
X46792191Y-102507809D01*
X46952612Y-102615000D01*
X46285750Y-102615000D01*
X46127000Y-102773750D01*
X45873000Y-102773750D01*
X45714250Y-102615000D01*
X45045304Y-102615000D01*
X45109698Y-102588327D01*
X45288327Y-102409699D01*
X45385000Y-102176310D01*
X45385000Y-100585750D01*
X45226250Y-100427000D01*
X43127000Y-100427000D01*
X42873000Y-100427000D01*
X40773750Y-100427000D01*
X40615000Y-100585750D01*
X31710000Y-100585750D01*
X31710000Y-98423690D01*
X40615000Y-98423690D01*
X40615000Y-100014250D01*
X40773750Y-100173000D01*
X42873000Y-100173000D01*
X42873000Y-98073750D01*
X43127000Y-98073750D01*
X43127000Y-100173000D01*
X45226250Y-100173000D01*
X45385000Y-100014250D01*
X45385000Y-98423690D01*
X45288327Y-98190301D01*
X45109698Y-98011673D01*
X44876309Y-97915000D01*
X43285750Y-97915000D01*
X43127000Y-98073750D01*
X42873000Y-98073750D01*
X42714250Y-97915000D01*
X41123691Y-97915000D01*
X40890302Y-98011673D01*
X40711673Y-98190301D01*
X40615000Y-98423690D01*
X31710000Y-98423690D01*
X31710000Y-90265295D01*
X32704000Y-90265295D01*
X32704000Y-91104705D01*
X33025229Y-91880219D01*
X33618781Y-92473771D01*
X34394295Y-92795000D01*
X35233705Y-92795000D01*
X36009219Y-92473771D01*
X36602771Y-91880219D01*
X36924000Y-91104705D01*
X36924000Y-90265295D01*
X36602771Y-89489781D01*
X36163248Y-89050258D01*
X38192954Y-89050258D01*
X38313003Y-89288000D01*
X39557000Y-89288000D01*
X39557000Y-88044622D01*
X39319260Y-87923964D01*
X38887583Y-88102760D01*
X38446034Y-88507424D01*
X38192954Y-89050258D01*
X36163248Y-89050258D01*
X36009219Y-88896229D01*
X35233705Y-88575000D01*
X34394295Y-88575000D01*
X33618781Y-88896229D01*
X33025229Y-89489781D01*
X32704000Y-90265295D01*
X31710000Y-90265295D01*
X31710000Y-83285750D01*
X35805000Y-83285750D01*
X35805000Y-84126310D01*
X35901673Y-84359699D01*
X36080302Y-84538327D01*
X36313691Y-84635000D01*
X37154250Y-84635000D01*
X37313000Y-84476250D01*
X37313000Y-83127000D01*
X35963750Y-83127000D01*
X35805000Y-83285750D01*
X31710000Y-83285750D01*
X31710000Y-81873690D01*
X35805000Y-81873690D01*
X35805000Y-82714250D01*
X35963750Y-82873000D01*
X37313000Y-82873000D01*
X37313000Y-81523750D01*
X37567000Y-81523750D01*
X37567000Y-82873000D01*
X37587000Y-82873000D01*
X37587000Y-83127000D01*
X37567000Y-83127000D01*
X37567000Y-84476250D01*
X37725750Y-84635000D01*
X38566309Y-84635000D01*
X38799698Y-84538327D01*
X38978327Y-84359699D01*
X38992718Y-84324957D01*
X39053847Y-84386086D01*
X39654778Y-84635000D01*
X40305222Y-84635000D01*
X40906153Y-84386086D01*
X41250000Y-84042239D01*
X41593847Y-84386086D01*
X42194778Y-84635000D01*
X42845222Y-84635000D01*
X43446153Y-84386086D01*
X43790000Y-84042239D01*
X44133847Y-84386086D01*
X44734778Y-84635000D01*
X45385222Y-84635000D01*
X45986153Y-84386086D01*
X46330000Y-84042239D01*
X46673847Y-84386086D01*
X47274778Y-84635000D01*
X47925222Y-84635000D01*
X48526153Y-84386086D01*
X48870000Y-84042239D01*
X49213847Y-84386086D01*
X49814778Y-84635000D01*
X50465222Y-84635000D01*
X51066153Y-84386086D01*
X51410000Y-84042239D01*
X51753847Y-84386086D01*
X52354778Y-84635000D01*
X53005222Y-84635000D01*
X53606153Y-84386086D01*
X53950000Y-84042239D01*
X54293847Y-84386086D01*
X54894778Y-84635000D01*
X55545222Y-84635000D01*
X56146153Y-84386086D01*
X56490000Y-84042239D01*
X56833847Y-84386086D01*
X57434778Y-84635000D01*
X58085222Y-84635000D01*
X58686153Y-84386086D01*
X59030000Y-84042239D01*
X59373847Y-84386086D01*
X59974778Y-84635000D01*
X60625222Y-84635000D01*
X61226153Y-84386086D01*
X61570000Y-84042239D01*
X61913847Y-84386086D01*
X62357752Y-84569958D01*
X62207345Y-84720365D01*
X62065000Y-85064017D01*
X62065000Y-85110198D01*
X60419527Y-86755672D01*
X60356071Y-86798072D01*
X60313671Y-86861528D01*
X60313670Y-86861529D01*
X60188096Y-87049464D01*
X60129111Y-87346001D01*
X60144000Y-87420852D01*
X60144000Y-87880000D01*
X59852818Y-87880000D01*
X59405073Y-87969062D01*
X58897327Y-88308327D01*
X58727582Y-88562368D01*
X58701966Y-88507424D01*
X58260417Y-88102760D01*
X57828740Y-87923964D01*
X57591000Y-88044622D01*
X57591000Y-89288000D01*
X57611000Y-89288000D01*
X57611000Y-89542000D01*
X57591000Y-89542000D01*
X57591000Y-89562000D01*
X57337000Y-89562000D01*
X57337000Y-89542000D01*
X57317000Y-89542000D01*
X57317000Y-89288000D01*
X57337000Y-89288000D01*
X57337000Y-88044622D01*
X57099260Y-87923964D01*
X56667583Y-88102760D01*
X56226034Y-88507424D01*
X56200418Y-88562368D01*
X56030673Y-88308327D01*
X55522927Y-87969062D01*
X55075182Y-87880000D01*
X54772818Y-87880000D01*
X54325073Y-87969062D01*
X53817327Y-88308327D01*
X53654000Y-88552763D01*
X53490673Y-88308327D01*
X52982927Y-87969062D01*
X52535182Y-87880000D01*
X52232818Y-87880000D01*
X51785073Y-87969062D01*
X51277327Y-88308327D01*
X51114000Y-88552763D01*
X50950673Y-88308327D01*
X50442927Y-87969062D01*
X49995182Y-87880000D01*
X49692818Y-87880000D01*
X49245073Y-87969062D01*
X48737327Y-88308327D01*
X48574000Y-88552763D01*
X48410673Y-88308327D01*
X47902927Y-87969062D01*
X47455182Y-87880000D01*
X47152818Y-87880000D01*
X46705073Y-87969062D01*
X46197327Y-88308327D01*
X46034000Y-88552763D01*
X45870673Y-88308327D01*
X45362927Y-87969062D01*
X44915182Y-87880000D01*
X44612818Y-87880000D01*
X44165073Y-87969062D01*
X43657327Y-88308327D01*
X43494000Y-88552763D01*
X43330673Y-88308327D01*
X42822927Y-87969062D01*
X42375182Y-87880000D01*
X42072818Y-87880000D01*
X41625073Y-87969062D01*
X41117327Y-88308327D01*
X40947582Y-88562368D01*
X40921966Y-88507424D01*
X40480417Y-88102760D01*
X40048740Y-87923964D01*
X39811000Y-88044622D01*
X39811000Y-89288000D01*
X39831000Y-89288000D01*
X39831000Y-89542000D01*
X39811000Y-89542000D01*
X39811000Y-89562000D01*
X39557000Y-89562000D01*
X39557000Y-89542000D01*
X38313003Y-89542000D01*
X38192954Y-89779742D01*
X38446034Y-90322576D01*
X38833174Y-90677376D01*
X38577327Y-90848327D01*
X38238062Y-91356073D01*
X38118928Y-91955000D01*
X38238062Y-92553927D01*
X38577327Y-93061673D01*
X39085073Y-93400938D01*
X39532818Y-93490000D01*
X39835182Y-93490000D01*
X40282927Y-93400938D01*
X40790673Y-93061673D01*
X40954000Y-92817237D01*
X41117327Y-93061673D01*
X41625073Y-93400938D01*
X42072818Y-93490000D01*
X42375182Y-93490000D01*
X42822927Y-93400938D01*
X43330673Y-93061673D01*
X43494000Y-92817237D01*
X43657327Y-93061673D01*
X44165073Y-93400938D01*
X44612818Y-93490000D01*
X44915182Y-93490000D01*
X45362927Y-93400938D01*
X45870673Y-93061673D01*
X46040418Y-92807632D01*
X46066034Y-92862576D01*
X46507583Y-93267240D01*
X46939260Y-93446036D01*
X47177000Y-93325378D01*
X47177000Y-92082000D01*
X47157000Y-92082000D01*
X47157000Y-91828000D01*
X47177000Y-91828000D01*
X47177000Y-91808000D01*
X47431000Y-91808000D01*
X47431000Y-91828000D01*
X47451000Y-91828000D01*
X47451000Y-92082000D01*
X47431000Y-92082000D01*
X47431000Y-93325378D01*
X47668740Y-93446036D01*
X48100417Y-93267240D01*
X48541966Y-92862576D01*
X48567582Y-92807632D01*
X48737327Y-93061673D01*
X49245073Y-93400938D01*
X49692818Y-93490000D01*
X49995182Y-93490000D01*
X50442927Y-93400938D01*
X50950673Y-93061673D01*
X51120418Y-92807632D01*
X51146034Y-92862576D01*
X51587583Y-93267240D01*
X52019260Y-93446036D01*
X52257000Y-93325378D01*
X52257000Y-92082000D01*
X52237000Y-92082000D01*
X52237000Y-91828000D01*
X52257000Y-91828000D01*
X52257000Y-91808000D01*
X52511000Y-91808000D01*
X52511000Y-91828000D01*
X52531000Y-91828000D01*
X52531000Y-92082000D01*
X52511000Y-92082000D01*
X52511000Y-93325378D01*
X52748740Y-93446036D01*
X53180417Y-93267240D01*
X53621966Y-92862576D01*
X53647582Y-92807632D01*
X53817327Y-93061673D01*
X54325073Y-93400938D01*
X54772818Y-93490000D01*
X55075182Y-93490000D01*
X55522927Y-93400938D01*
X56030673Y-93061673D01*
X56194000Y-92817237D01*
X56357327Y-93061673D01*
X56865073Y-93400938D01*
X57312818Y-93490000D01*
X57615182Y-93490000D01*
X58062927Y-93400938D01*
X58570673Y-93061673D01*
X58734000Y-92817237D01*
X58897327Y-93061673D01*
X59405073Y-93400938D01*
X59852818Y-93490000D01*
X60155182Y-93490000D01*
X60602927Y-93400938D01*
X61110673Y-93061673D01*
X61274000Y-92817237D01*
X61437327Y-93061673D01*
X61945073Y-93400938D01*
X62392818Y-93490000D01*
X62695182Y-93490000D01*
X63142927Y-93400938D01*
X63650673Y-93061673D01*
X63820418Y-92807632D01*
X63846034Y-92862576D01*
X64287583Y-93267240D01*
X64719260Y-93446036D01*
X64957000Y-93325378D01*
X64957000Y-92082000D01*
X64937000Y-92082000D01*
X64937000Y-91828000D01*
X64957000Y-91828000D01*
X64957000Y-91808000D01*
X65211000Y-91808000D01*
X65211000Y-91828000D01*
X65231000Y-91828000D01*
X65231000Y-92082000D01*
X65211000Y-92082000D01*
X65211000Y-93325378D01*
X65448740Y-93446036D01*
X65880417Y-93267240D01*
X66321966Y-92862576D01*
X66347582Y-92807632D01*
X66517327Y-93061673D01*
X67025073Y-93400938D01*
X67472818Y-93490000D01*
X67775182Y-93490000D01*
X68222927Y-93400938D01*
X68730673Y-93061673D01*
X68894000Y-92817237D01*
X69057327Y-93061673D01*
X69565073Y-93400938D01*
X70012818Y-93490000D01*
X70315182Y-93490000D01*
X70762927Y-93400938D01*
X71270673Y-93061673D01*
X71440418Y-92807632D01*
X71466034Y-92862576D01*
X71907583Y-93267240D01*
X72339260Y-93446036D01*
X72577000Y-93325378D01*
X72577000Y-92082000D01*
X72557000Y-92082000D01*
X72557000Y-91828000D01*
X72577000Y-91828000D01*
X72577000Y-91808000D01*
X72831000Y-91808000D01*
X72831000Y-91828000D01*
X72851000Y-91828000D01*
X72851000Y-92082000D01*
X72831000Y-92082000D01*
X72831000Y-93325378D01*
X73068740Y-93446036D01*
X73500417Y-93267240D01*
X73941966Y-92862576D01*
X73967582Y-92807632D01*
X74137327Y-93061673D01*
X74484001Y-93293313D01*
X74484001Y-93419149D01*
X74469112Y-93494000D01*
X74528097Y-93790537D01*
X74648208Y-93970295D01*
X74696072Y-94041929D01*
X74759528Y-94084329D01*
X77565000Y-96889803D01*
X77565000Y-96935983D01*
X77707345Y-97279635D01*
X77970365Y-97542655D01*
X78314017Y-97685000D01*
X78685983Y-97685000D01*
X79029635Y-97542655D01*
X79113990Y-97458300D01*
X79113991Y-100719138D01*
X79099102Y-100793990D01*
X79113991Y-100868842D01*
X79158087Y-101090527D01*
X79326062Y-101341919D01*
X79389518Y-101384319D01*
X83558791Y-105553593D01*
X83485908Y-105920000D01*
X83601161Y-106499418D01*
X83929375Y-106990625D01*
X84248478Y-107203843D01*
X84118642Y-107264817D01*
X83728355Y-107693076D01*
X83558524Y-108103110D01*
X83679845Y-108333000D01*
X84873000Y-108333000D01*
X84873000Y-108313000D01*
X85127000Y-108313000D01*
X85127000Y-108333000D01*
X86320155Y-108333000D01*
X86441476Y-108103110D01*
X86271645Y-107693076D01*
X85881358Y-107264817D01*
X85751522Y-107203843D01*
X86070625Y-106990625D01*
X86398839Y-106499418D01*
X86514092Y-105920000D01*
X86398839Y-105340582D01*
X86070625Y-104849375D01*
X85772239Y-104650000D01*
X86070625Y-104450625D01*
X86398839Y-103959418D01*
X86514092Y-103380000D01*
X86398839Y-102800582D01*
X86070625Y-102309375D01*
X85772239Y-102110000D01*
X86070625Y-101910625D01*
X86398839Y-101419418D01*
X86514092Y-100840000D01*
X86398839Y-100260582D01*
X86070625Y-99769375D01*
X85579418Y-99441161D01*
X85146256Y-99355000D01*
X84853744Y-99355000D01*
X84633593Y-99398791D01*
X82357613Y-97122812D01*
X82435000Y-96935983D01*
X82435000Y-96564017D01*
X82292655Y-96220365D01*
X82029635Y-95957345D01*
X81685983Y-95815000D01*
X81314017Y-95815000D01*
X81084000Y-95910276D01*
X81084000Y-93293312D01*
X81430673Y-93061673D01*
X81594000Y-92817237D01*
X81757327Y-93061673D01*
X82265073Y-93400938D01*
X82712818Y-93490000D01*
X83015182Y-93490000D01*
X83462927Y-93400938D01*
X83970673Y-93061673D01*
X84134000Y-92817237D01*
X84297327Y-93061673D01*
X84805073Y-93400938D01*
X85252818Y-93490000D01*
X85555182Y-93490000D01*
X86002927Y-93400938D01*
X86468279Y-93090000D01*
X86809000Y-93090000D01*
X86809001Y-95138212D01*
X86786765Y-95250000D01*
X86809000Y-95361783D01*
X86809001Y-102582212D01*
X86786765Y-102694000D01*
X86874854Y-103136854D01*
X86874855Y-103136855D01*
X87125712Y-103512289D01*
X87220480Y-103575611D01*
X90509868Y-106865000D01*
X89961783Y-106865000D01*
X89850000Y-106842765D01*
X89407145Y-106930854D01*
X89031711Y-107181711D01*
X88968389Y-107276479D01*
X86405890Y-109838979D01*
X86307809Y-109692191D01*
X86097765Y-109551843D01*
X85994292Y-109531261D01*
X86271645Y-109226924D01*
X86441476Y-108816890D01*
X86320155Y-108587000D01*
X85127000Y-108587000D01*
X85127000Y-108607000D01*
X84873000Y-108607000D01*
X84873000Y-108587000D01*
X83679845Y-108587000D01*
X83558524Y-108816890D01*
X83728355Y-109226924D01*
X84005708Y-109531261D01*
X83902235Y-109551843D01*
X83692191Y-109692191D01*
X83551843Y-109902235D01*
X83502560Y-110150000D01*
X83502560Y-111850000D01*
X83551843Y-112097765D01*
X83692191Y-112307809D01*
X83902235Y-112448157D01*
X84150000Y-112497440D01*
X85850000Y-112497440D01*
X86097765Y-112448157D01*
X86307809Y-112307809D01*
X86423277Y-112135000D01*
X86738217Y-112135000D01*
X86850000Y-112157235D01*
X86961783Y-112135000D01*
X87292855Y-112069146D01*
X87668289Y-111818289D01*
X87731613Y-111723518D01*
X90320132Y-109135000D01*
X91352560Y-109135000D01*
X91352560Y-109250000D01*
X91401843Y-109497765D01*
X91542191Y-109707809D01*
X91752235Y-109848157D01*
X92000000Y-109897440D01*
X96000000Y-109897440D01*
X96247765Y-109848157D01*
X96457809Y-109707809D01*
X96598157Y-109497765D01*
X96647440Y-109250000D01*
X96647440Y-108285750D01*
X97465000Y-108285750D01*
X97465000Y-109376310D01*
X97561673Y-109609699D01*
X97740302Y-109788327D01*
X97973691Y-109885000D01*
X99814250Y-109885000D01*
X99973000Y-109726250D01*
X99973000Y-108127000D01*
X100227000Y-108127000D01*
X100227000Y-109726250D01*
X100385750Y-109885000D01*
X102226309Y-109885000D01*
X102459698Y-109788327D01*
X102638327Y-109609699D01*
X102735000Y-109376310D01*
X102735000Y-108285750D01*
X102576250Y-108127000D01*
X100227000Y-108127000D01*
X99973000Y-108127000D01*
X97623750Y-108127000D01*
X97465000Y-108285750D01*
X96647440Y-108285750D01*
X96647440Y-106750000D01*
X96622316Y-106623690D01*
X97465000Y-106623690D01*
X97465000Y-107714250D01*
X97623750Y-107873000D01*
X99973000Y-107873000D01*
X99973000Y-106273750D01*
X100227000Y-106273750D01*
X100227000Y-107873000D01*
X102576250Y-107873000D01*
X102735000Y-107714250D01*
X102735000Y-106623690D01*
X102638327Y-106390301D01*
X102459698Y-106211673D01*
X102226309Y-106115000D01*
X100385750Y-106115000D01*
X100227000Y-106273750D01*
X99973000Y-106273750D01*
X99814250Y-106115000D01*
X97973691Y-106115000D01*
X97740302Y-106211673D01*
X97561673Y-106390301D01*
X97465000Y-106623690D01*
X96622316Y-106623690D01*
X96598157Y-106502235D01*
X96457809Y-106292191D01*
X96247765Y-106151843D01*
X96000000Y-106102560D01*
X92957692Y-106102560D01*
X89079000Y-102223869D01*
X89079000Y-96385000D01*
X94638217Y-96385000D01*
X94750000Y-96407235D01*
X94861783Y-96385000D01*
X95192855Y-96319146D01*
X95568289Y-96068289D01*
X95631613Y-95973518D01*
X97634836Y-93970295D01*
X99637000Y-93970295D01*
X99637000Y-94809705D01*
X99958229Y-95585219D01*
X100551781Y-96178771D01*
X101327295Y-96500000D01*
X102166705Y-96500000D01*
X102942219Y-96178771D01*
X103535771Y-95585219D01*
X103857000Y-94809705D01*
X103857000Y-93970295D01*
X103535771Y-93194781D01*
X102942219Y-92601229D01*
X102166705Y-92280000D01*
X101327295Y-92280000D01*
X100551781Y-92601229D01*
X99958229Y-93194781D01*
X99637000Y-93970295D01*
X97634836Y-93970295D01*
X103723521Y-87881611D01*
X103818289Y-87818289D01*
X104069146Y-87442855D01*
X104091903Y-87328448D01*
X104157235Y-87000000D01*
X104135000Y-86888217D01*
X104135000Y-82630131D01*
X105120132Y-81645000D01*
X105146256Y-81645000D01*
X105579418Y-81558839D01*
X106070625Y-81230625D01*
X106398839Y-80739418D01*
X106491487Y-80273644D01*
X109308522Y-77456610D01*
X109403289Y-77393289D01*
X109654146Y-77017855D01*
X109720000Y-76686783D01*
X109720000Y-76686782D01*
X109742235Y-76575000D01*
X109720000Y-76463217D01*
X109720000Y-59547783D01*
X109742235Y-59436000D01*
X109654146Y-58993145D01*
X109403289Y-58617711D01*
X109308521Y-58554389D01*
X106672613Y-55918482D01*
X106609289Y-55823711D01*
X106233855Y-55572854D01*
X105902783Y-55507000D01*
X105791000Y-55484765D01*
X105679217Y-55507000D01*
X87391215Y-55507000D01*
X87060143Y-55572854D01*
X86710000Y-55806812D01*
X86710000Y-41930074D01*
X86703799Y-41898898D01*
X86659776Y-41405631D01*
X86653894Y-41377353D01*
X86652332Y-41348507D01*
X86632661Y-41265295D01*
X90704000Y-41265295D01*
X90704000Y-42104705D01*
X91025229Y-42880219D01*
X91618781Y-43473771D01*
X92394295Y-43795000D01*
X93233705Y-43795000D01*
X94009219Y-43473771D01*
X94602771Y-42880219D01*
X94924000Y-42104705D01*
X94924000Y-41265295D01*
X94602771Y-40489781D01*
X94009219Y-39896229D01*
X93233705Y-39575000D01*
X92394295Y-39575000D01*
X91618781Y-39896229D01*
X91025229Y-40489781D01*
X90704000Y-41265295D01*
X86632661Y-41265295D01*
X86632104Y-41262940D01*
X86430697Y-40597947D01*
X86415357Y-40562668D01*
X86404496Y-40525764D01*
X86365127Y-40447145D01*
X86016141Y-39846321D01*
X85993097Y-39815518D01*
X85974036Y-39782100D01*
X85917636Y-39714646D01*
X85439791Y-39210223D01*
X85410280Y-39185548D01*
X85384043Y-39157412D01*
X85313638Y-39104742D01*
X84732566Y-38723774D01*
X84698164Y-38706547D01*
X84666162Y-38685204D01*
X84585537Y-38650147D01*
X84585530Y-38650144D01*
X84585527Y-38650143D01*
X83932401Y-38413070D01*
X83894966Y-38404221D01*
X83858906Y-38390810D01*
X83772370Y-38375240D01*
X83110542Y-38298079D01*
X83069926Y-38290000D01*
X41930074Y-38290000D01*
X41898898Y-38296201D01*
X41405631Y-38340224D01*
X41377353Y-38346106D01*
X41348507Y-38347668D01*
X41262940Y-38367896D01*
X40597947Y-38569303D01*
X40562668Y-38584643D01*
X40525764Y-38595504D01*
X40447145Y-38634873D01*
X39846321Y-38983859D01*
X39815518Y-39006903D01*
X39782100Y-39025964D01*
X39714646Y-39082364D01*
X39210223Y-39560209D01*
X39185548Y-39589720D01*
X39157412Y-39615957D01*
X39104742Y-39686362D01*
X38723774Y-40267434D01*
X38706547Y-40301836D01*
X38685204Y-40333838D01*
X38650144Y-40414471D01*
X38413070Y-41067599D01*
X38404221Y-41105034D01*
X38390810Y-41141094D01*
X38375240Y-41227630D01*
X38298078Y-41889470D01*
X38290001Y-41930074D01*
X38290000Y-75069925D01*
X38296201Y-75101100D01*
X38340224Y-75594369D01*
X38346106Y-75622648D01*
X38347668Y-75651493D01*
X38367896Y-75737060D01*
X38569303Y-76402053D01*
X38584642Y-76437330D01*
X38595504Y-76474236D01*
X38634873Y-76552855D01*
X38983859Y-77153679D01*
X39006903Y-77184483D01*
X39025964Y-77217900D01*
X39082364Y-77285353D01*
X39560209Y-77789777D01*
X39589717Y-77814449D01*
X39615957Y-77842589D01*
X39686362Y-77895258D01*
X40267435Y-78276226D01*
X40301833Y-78293451D01*
X40333838Y-78314796D01*
X40414471Y-78349856D01*
X41067599Y-78586930D01*
X41105034Y-78595779D01*
X41141094Y-78609190D01*
X41227627Y-78624759D01*
X41227630Y-78624760D01*
X41227631Y-78624760D01*
X41889458Y-78701921D01*
X41930074Y-78710000D01*
X83069926Y-78710000D01*
X83101102Y-78703799D01*
X83594369Y-78659776D01*
X83622648Y-78653894D01*
X83651493Y-78652332D01*
X83737060Y-78632104D01*
X84402053Y-78430697D01*
X84437330Y-78415358D01*
X84474236Y-78404496D01*
X84552855Y-78365127D01*
X85136488Y-78026126D01*
X90659000Y-78026126D01*
X90659000Y-78437874D01*
X90816569Y-78818280D01*
X91107720Y-79109431D01*
X91488126Y-79267000D01*
X91654199Y-79267000D01*
X93897671Y-81510473D01*
X93940071Y-81573929D01*
X94003527Y-81616329D01*
X94191462Y-81741904D01*
X94239605Y-81751480D01*
X94413148Y-81786000D01*
X94413152Y-81786000D01*
X94488000Y-81800888D01*
X94562848Y-81786000D01*
X95562289Y-81786000D01*
X95679720Y-81903431D01*
X96060126Y-82061000D01*
X96471874Y-82061000D01*
X96852280Y-81903431D01*
X97143431Y-81612280D01*
X97301000Y-81231874D01*
X97301000Y-80820126D01*
X97143431Y-80439720D01*
X96852280Y-80148569D01*
X96471874Y-79991000D01*
X96060126Y-79991000D01*
X95679720Y-80148569D01*
X95562289Y-80266000D01*
X94802802Y-80266000D01*
X92729000Y-78192199D01*
X92729000Y-78026126D01*
X92571431Y-77645720D01*
X92280280Y-77354569D01*
X91899874Y-77197000D01*
X91488126Y-77197000D01*
X91107720Y-77354569D01*
X90816569Y-77645720D01*
X90659000Y-78026126D01*
X85136488Y-78026126D01*
X85153679Y-78016141D01*
X85184483Y-77993097D01*
X85217900Y-77974036D01*
X85285353Y-77917636D01*
X85789777Y-77439791D01*
X85814449Y-77410283D01*
X85842589Y-77384043D01*
X85895258Y-77313638D01*
X86276226Y-76732565D01*
X86293451Y-76698167D01*
X86314796Y-76666162D01*
X86349856Y-76585529D01*
X86586930Y-75932401D01*
X86595779Y-75894966D01*
X86609190Y-75858906D01*
X86624760Y-75772369D01*
X86701921Y-75110542D01*
X86710000Y-75069926D01*
X86710000Y-67265295D01*
X90704000Y-67265295D01*
X90704000Y-68104705D01*
X91025229Y-68880219D01*
X91618781Y-69473771D01*
X92394295Y-69795000D01*
X93233705Y-69795000D01*
X94009219Y-69473771D01*
X94602771Y-68880219D01*
X94924000Y-68104705D01*
X94924000Y-67265295D01*
X94602771Y-66489781D01*
X94009219Y-65896229D01*
X93233705Y-65575000D01*
X92394295Y-65575000D01*
X91618781Y-65896229D01*
X91025229Y-66489781D01*
X90704000Y-67265295D01*
X86710000Y-67265295D01*
X86710000Y-57477188D01*
X87060143Y-57711146D01*
X87391215Y-57777000D01*
X105320869Y-57777000D01*
X107450001Y-59906133D01*
X107450001Y-66497199D01*
X105937000Y-64984199D01*
X105937000Y-64818126D01*
X105779431Y-64437720D01*
X105488280Y-64146569D01*
X105107874Y-63989000D01*
X104696126Y-63989000D01*
X104315720Y-64146569D01*
X104024569Y-64437720D01*
X103867000Y-64818126D01*
X103867000Y-65229874D01*
X104024569Y-65610280D01*
X104315720Y-65901431D01*
X104696126Y-66059000D01*
X104862199Y-66059000D01*
X106428000Y-67624802D01*
X106428000Y-68872068D01*
X106307809Y-68692191D01*
X106097765Y-68551843D01*
X105850000Y-68502560D01*
X104150000Y-68502560D01*
X103902235Y-68551843D01*
X103692191Y-68692191D01*
X103551843Y-68902235D01*
X103502560Y-69150000D01*
X103502560Y-70850000D01*
X103551843Y-71097765D01*
X103692191Y-71307809D01*
X103902235Y-71448157D01*
X103947619Y-71457184D01*
X103929375Y-71469375D01*
X103601161Y-71960582D01*
X103485908Y-72540000D01*
X103601161Y-73119418D01*
X103929375Y-73610625D01*
X104248478Y-73823843D01*
X104118642Y-73884817D01*
X103728355Y-74313076D01*
X103558524Y-74723110D01*
X103679845Y-74953000D01*
X104873000Y-74953000D01*
X104873000Y-74933000D01*
X105127000Y-74933000D01*
X105127000Y-74953000D01*
X105147000Y-74953000D01*
X105147000Y-75207000D01*
X105127000Y-75207000D01*
X105127000Y-75227000D01*
X104873000Y-75227000D01*
X104873000Y-75207000D01*
X103679845Y-75207000D01*
X103558524Y-75436890D01*
X103728355Y-75846924D01*
X104118642Y-76275183D01*
X104248478Y-76336157D01*
X103929375Y-76549375D01*
X103601161Y-77040582D01*
X103485908Y-77620000D01*
X103601161Y-78199418D01*
X103929375Y-78690625D01*
X104227761Y-78890000D01*
X103929375Y-79089375D01*
X103601161Y-79580582D01*
X103508513Y-80046355D01*
X102276482Y-81278387D01*
X102181711Y-81341711D01*
X101930855Y-81717145D01*
X101930854Y-81717146D01*
X101842765Y-82160000D01*
X101865000Y-82271783D01*
X101865001Y-86529867D01*
X94279869Y-94115000D01*
X89079000Y-94115000D01*
X89079000Y-93019279D01*
X89389938Y-92553927D01*
X89509072Y-91955000D01*
X89389938Y-91356073D01*
X89093304Y-90912129D01*
X89301809Y-90772809D01*
X89442157Y-90562765D01*
X89491440Y-90315000D01*
X89491440Y-90265295D01*
X90704000Y-90265295D01*
X90704000Y-91104705D01*
X91025229Y-91880219D01*
X91618781Y-92473771D01*
X92394295Y-92795000D01*
X93233705Y-92795000D01*
X94009219Y-92473771D01*
X94602771Y-91880219D01*
X94924000Y-91104705D01*
X94924000Y-90265295D01*
X94602771Y-89489781D01*
X94009219Y-88896229D01*
X93233705Y-88575000D01*
X92394295Y-88575000D01*
X91618781Y-88896229D01*
X91025229Y-89489781D01*
X90704000Y-90265295D01*
X89491440Y-90265295D01*
X89491440Y-88515000D01*
X89442157Y-88267235D01*
X89301809Y-88057191D01*
X89091765Y-87916843D01*
X88844000Y-87867560D01*
X88746139Y-87867560D01*
X88730552Y-87789199D01*
X88686669Y-87723524D01*
X88546001Y-87512999D01*
X88476283Y-87466415D01*
X87853587Y-86843720D01*
X87807001Y-86773999D01*
X87530801Y-86589448D01*
X87287237Y-86541000D01*
X87287233Y-86541000D01*
X87205000Y-86524643D01*
X87122767Y-86541000D01*
X72002711Y-86541000D01*
X71960280Y-86498569D01*
X71579874Y-86341000D01*
X71168126Y-86341000D01*
X70787720Y-86498569D01*
X70496569Y-86789720D01*
X70339000Y-87170126D01*
X70339000Y-87581874D01*
X70475714Y-87911932D01*
X70315182Y-87880000D01*
X70012818Y-87880000D01*
X69565073Y-87969062D01*
X69057327Y-88308327D01*
X68894000Y-88552763D01*
X68730673Y-88308327D01*
X68222927Y-87969062D01*
X67775182Y-87880000D01*
X67693802Y-87880000D01*
X69313802Y-86260000D01*
X72965153Y-86260000D01*
X73040000Y-86274888D01*
X73114847Y-86260000D01*
X73114852Y-86260000D01*
X73336537Y-86215904D01*
X73587929Y-86047929D01*
X73630331Y-85984470D01*
X75048625Y-84566177D01*
X75214778Y-84635000D01*
X75865222Y-84635000D01*
X76466153Y-84386086D01*
X76810000Y-84042239D01*
X77153847Y-84386086D01*
X77754778Y-84635000D01*
X78405222Y-84635000D01*
X79006153Y-84386086D01*
X79350000Y-84042239D01*
X79693847Y-84386086D01*
X80294778Y-84635000D01*
X80945222Y-84635000D01*
X81546153Y-84386086D01*
X81890000Y-84042239D01*
X82233847Y-84386086D01*
X82834778Y-84635000D01*
X83485222Y-84635000D01*
X84086153Y-84386086D01*
X84319707Y-84152532D01*
X84727073Y-84152532D01*
X84825736Y-84419387D01*
X85435461Y-84645908D01*
X86085460Y-84621856D01*
X86574264Y-84419387D01*
X86672927Y-84152532D01*
X85700000Y-83179605D01*
X84727073Y-84152532D01*
X84319707Y-84152532D01*
X84512311Y-83959928D01*
X84547468Y-83972927D01*
X85520395Y-83000000D01*
X85879605Y-83000000D01*
X86852532Y-83972927D01*
X87119387Y-83874264D01*
X87345908Y-83264539D01*
X87321856Y-82614540D01*
X87119387Y-82125736D01*
X86852532Y-82027073D01*
X85879605Y-83000000D01*
X85520395Y-83000000D01*
X84547468Y-82027073D01*
X84512311Y-82040072D01*
X84319707Y-81847468D01*
X84727073Y-81847468D01*
X85700000Y-82820395D01*
X86672927Y-81847468D01*
X86574264Y-81580613D01*
X85964539Y-81354092D01*
X85314540Y-81378144D01*
X84825736Y-81580613D01*
X84727073Y-81847468D01*
X84319707Y-81847468D01*
X84086153Y-81613914D01*
X83485222Y-81365000D01*
X82834778Y-81365000D01*
X82233847Y-81613914D01*
X81890000Y-81957761D01*
X81546153Y-81613914D01*
X80945222Y-81365000D01*
X80294778Y-81365000D01*
X79693847Y-81613914D01*
X79350000Y-81957761D01*
X79006153Y-81613914D01*
X78405222Y-81365000D01*
X77754778Y-81365000D01*
X77153847Y-81613914D01*
X76810000Y-81957761D01*
X76466153Y-81613914D01*
X75865222Y-81365000D01*
X75214778Y-81365000D01*
X74613847Y-81613914D01*
X74270000Y-81957761D01*
X73926153Y-81613914D01*
X73325222Y-81365000D01*
X72674778Y-81365000D01*
X72073847Y-81613914D01*
X71730000Y-81957761D01*
X71386153Y-81613914D01*
X70785222Y-81365000D01*
X70134778Y-81365000D01*
X69533847Y-81613914D01*
X69190000Y-81957761D01*
X68846153Y-81613914D01*
X68245222Y-81365000D01*
X67594778Y-81365000D01*
X66993847Y-81613914D01*
X66567689Y-82040072D01*
X66532532Y-82027073D01*
X65559605Y-83000000D01*
X65573748Y-83014143D01*
X65394143Y-83193748D01*
X65380000Y-83179605D01*
X64407073Y-84152532D01*
X64505736Y-84419387D01*
X65115461Y-84645908D01*
X65202512Y-84642687D01*
X63816725Y-86028474D01*
X63792655Y-85970365D01*
X63697290Y-85875000D01*
X63792655Y-85779635D01*
X63935000Y-85435983D01*
X63935000Y-85064017D01*
X63792655Y-84720365D01*
X63548522Y-84476232D01*
X63766153Y-84386086D01*
X64192311Y-83959928D01*
X64227468Y-83972927D01*
X65200395Y-83000000D01*
X64227468Y-82027073D01*
X64192311Y-82040072D01*
X63999707Y-81847468D01*
X64407073Y-81847468D01*
X65380000Y-82820395D01*
X66352927Y-81847468D01*
X66254264Y-81580613D01*
X65644539Y-81354092D01*
X64994540Y-81378144D01*
X64505736Y-81580613D01*
X64407073Y-81847468D01*
X63999707Y-81847468D01*
X63766153Y-81613914D01*
X63165222Y-81365000D01*
X62514778Y-81365000D01*
X61913847Y-81613914D01*
X61570000Y-81957761D01*
X61226153Y-81613914D01*
X60625222Y-81365000D01*
X59974778Y-81365000D01*
X59373847Y-81613914D01*
X59030000Y-81957761D01*
X58686153Y-81613914D01*
X58085222Y-81365000D01*
X57434778Y-81365000D01*
X56833847Y-81613914D01*
X56490000Y-81957761D01*
X56146153Y-81613914D01*
X55545222Y-81365000D01*
X54894778Y-81365000D01*
X54293847Y-81613914D01*
X53950000Y-81957761D01*
X53606153Y-81613914D01*
X53005222Y-81365000D01*
X52354778Y-81365000D01*
X51753847Y-81613914D01*
X51410000Y-81957761D01*
X51066153Y-81613914D01*
X50465222Y-81365000D01*
X49814778Y-81365000D01*
X49213847Y-81613914D01*
X48870000Y-81957761D01*
X48526153Y-81613914D01*
X47925222Y-81365000D01*
X47274778Y-81365000D01*
X46673847Y-81613914D01*
X46330000Y-81957761D01*
X45986153Y-81613914D01*
X45385222Y-81365000D01*
X44734778Y-81365000D01*
X44133847Y-81613914D01*
X43790000Y-81957761D01*
X43446153Y-81613914D01*
X42845222Y-81365000D01*
X42194778Y-81365000D01*
X41593847Y-81613914D01*
X41250000Y-81957761D01*
X40906153Y-81613914D01*
X40305222Y-81365000D01*
X39654778Y-81365000D01*
X39053847Y-81613914D01*
X38992718Y-81675043D01*
X38978327Y-81640301D01*
X38799698Y-81461673D01*
X38566309Y-81365000D01*
X37725750Y-81365000D01*
X37567000Y-81523750D01*
X37313000Y-81523750D01*
X37154250Y-81365000D01*
X36313691Y-81365000D01*
X36080302Y-81461673D01*
X35901673Y-81640301D01*
X35805000Y-81873690D01*
X31710000Y-81873690D01*
X31710000Y-67265295D01*
X32587000Y-67265295D01*
X32587000Y-68104705D01*
X32908229Y-68880219D01*
X33501781Y-69473771D01*
X34277295Y-69795000D01*
X35116705Y-69795000D01*
X35892219Y-69473771D01*
X36485771Y-68880219D01*
X36807000Y-68104705D01*
X36807000Y-67265295D01*
X36485771Y-66489781D01*
X35892219Y-65896229D01*
X35116705Y-65575000D01*
X34277295Y-65575000D01*
X33501781Y-65896229D01*
X32908229Y-66489781D01*
X32587000Y-67265295D01*
X31710000Y-67265295D01*
X31710000Y-41265295D01*
X32704000Y-41265295D01*
X32704000Y-42104705D01*
X33025229Y-42880219D01*
X33618781Y-43473771D01*
X34394295Y-43795000D01*
X35233705Y-43795000D01*
X36009219Y-43473771D01*
X36602771Y-42880219D01*
X36924000Y-42104705D01*
X36924000Y-41265295D01*
X36602771Y-40489781D01*
X36009219Y-39896229D01*
X35233705Y-39575000D01*
X34394295Y-39575000D01*
X33618781Y-39896229D01*
X33025229Y-40489781D01*
X32704000Y-41265295D01*
X31710000Y-41265295D01*
X31710000Y-37259126D01*
X89135006Y-37259126D01*
X89135006Y-37670874D01*
X89292575Y-38051280D01*
X89369032Y-38127737D01*
X89261999Y-38386137D01*
X89261999Y-38797885D01*
X89419568Y-39178291D01*
X89710719Y-39469442D01*
X90091125Y-39627011D01*
X90502873Y-39627011D01*
X90883279Y-39469442D01*
X90925710Y-39427011D01*
X94167756Y-39427011D01*
X94249989Y-39443368D01*
X94332222Y-39427011D01*
X94332226Y-39427011D01*
X94575790Y-39378563D01*
X94851990Y-39194012D01*
X94898576Y-39124291D01*
X98951868Y-35071000D01*
X99011874Y-35071000D01*
X99392280Y-34913431D01*
X99683431Y-34622280D01*
X99841000Y-34241874D01*
X99841000Y-33830126D01*
X99683431Y-33449720D01*
X99392280Y-33158569D01*
X99011874Y-33001000D01*
X98600126Y-33001000D01*
X98461730Y-33058325D01*
X98413431Y-32941720D01*
X98122280Y-32650569D01*
X97741874Y-32493000D01*
X97330126Y-32493000D01*
X96949720Y-32650569D01*
X96658569Y-32941720D01*
X96501000Y-33322126D01*
X96501000Y-33382132D01*
X93253133Y-36630000D01*
X90798717Y-36630000D01*
X90756286Y-36587569D01*
X90375880Y-36430000D01*
X89964132Y-36430000D01*
X89583726Y-36587569D01*
X89292575Y-36878720D01*
X89135006Y-37259126D01*
X31710000Y-37259126D01*
X31710000Y-20700000D01*
X38092560Y-20700000D01*
X38092560Y-22700000D01*
X38141843Y-22947765D01*
X38282191Y-23157809D01*
X38492235Y-23298157D01*
X38740000Y-23347440D01*
X40740000Y-23347440D01*
X40987765Y-23298157D01*
X41197809Y-23157809D01*
X41338157Y-22947765D01*
X41344061Y-22918081D01*
X41392794Y-22966814D01*
X41507074Y-22852534D01*
X41605736Y-23119387D01*
X42215461Y-23345908D01*
X42865460Y-23321856D01*
X43354264Y-23119387D01*
X43452927Y-22852532D01*
X42480000Y-21879605D01*
X42465858Y-21893748D01*
X42286253Y-21714143D01*
X42300395Y-21700000D01*
X42659605Y-21700000D01*
X43632532Y-22672927D01*
X43667689Y-22659928D01*
X44093847Y-23086086D01*
X44694778Y-23335000D01*
X45345222Y-23335000D01*
X45946153Y-23086086D01*
X46406086Y-22626153D01*
X46655000Y-22025222D01*
X46655000Y-21374778D01*
X46406086Y-20773847D01*
X45946153Y-20313914D01*
X45345222Y-20065000D01*
X44694778Y-20065000D01*
X44093847Y-20313914D01*
X43667689Y-20740072D01*
X43632532Y-20727073D01*
X42659605Y-21700000D01*
X42300395Y-21700000D01*
X42286253Y-21685858D01*
X42465858Y-21506253D01*
X42480000Y-21520395D01*
X43452927Y-20547468D01*
X43354264Y-20280613D01*
X42744539Y-20054092D01*
X42094540Y-20078144D01*
X41605736Y-20280613D01*
X41507074Y-20547466D01*
X41392794Y-20433186D01*
X41344061Y-20481919D01*
X41338157Y-20452235D01*
X41197809Y-20242191D01*
X40987765Y-20101843D01*
X40740000Y-20052560D01*
X38740000Y-20052560D01*
X38492235Y-20101843D01*
X38282191Y-20242191D01*
X38141843Y-20452235D01*
X38092560Y-20700000D01*
X31710000Y-20700000D01*
X31710000Y-14710000D01*
X56669492Y-14710000D01*
X56669197Y-14710197D01*
G36*
X77911000Y-89288000D02*
X77931000Y-89288000D01*
X77931000Y-89542000D01*
X77911000Y-89542000D01*
X77911000Y-89562000D01*
X77657000Y-89562000D01*
X77657000Y-89542000D01*
X77637000Y-89542000D01*
X77637000Y-89288000D01*
X77657000Y-89288000D01*
X77657000Y-89268000D01*
X77911000Y-89268000D01*
X77911000Y-89288000D01*
X77911000Y-89288000D01*
G37*
X77911000Y-89288000D02*
X77931000Y-89288000D01*
X77931000Y-89542000D01*
X77911000Y-89542000D01*
X77911000Y-89562000D01*
X77657000Y-89562000D01*
X77657000Y-89542000D01*
X77637000Y-89542000D01*
X77637000Y-89288000D01*
X77657000Y-89288000D01*
X77657000Y-89268000D01*
X77911000Y-89268000D01*
X77911000Y-89288000D01*
M02*
