G04 #@! TF.GenerationSoftware,KiCad,Pcbnew,(5.0.0-rc2-dev-691-g31b026c)*
G04 #@! TF.CreationDate,2018-05-13T20:35:11+02:00*
G04 #@! TF.ProjectId,backplane,6261636B706C616E652E6B696361645F,v1.6*
G04 #@! TF.SameCoordinates,Original*
G04 #@! TF.FileFunction,Soldermask,Bot*
G04 #@! TF.FilePolarity,Negative*
%FSLAX46Y46*%
G04 Gerber Fmt 4.6, Leading zero omitted, Abs format (unit mm)*
G04 Created by KiCad (PCBNEW (5.0.0-rc2-dev-691-g31b026c)) date Sunday, 13. May 2018, 20:35:11*
%MOMM*%
%LPD*%
G01*
G04 APERTURE LIST*
%ADD10C,3.350000*%
%ADD11R,2.200000X2.200000*%
%ADD12O,2.200000X2.200000*%
%ADD13R,2.400000X2.400000*%
%ADD14C,2.400000*%
%ADD15O,2.100000X2.100000*%
%ADD16R,2.100000X2.100000*%
%ADD17R,2.800000X2.800000*%
%ADD18C,2.800000*%
%ADD19R,3.900000X3.900000*%
%ADD20R,4.400000X2.900000*%
G04 APERTURE END LIST*
D10*
X34814000Y-90685000D03*
X34697000Y-67685000D03*
X101747000Y-94390000D03*
X101747000Y-18040000D03*
X92814000Y-67685000D03*
X92814000Y-41685000D03*
X34814000Y-41685000D03*
X92814000Y-90685000D03*
D11*
X87944000Y-89415000D03*
D12*
X87944000Y-91955000D03*
X85404000Y-89415000D03*
X85404000Y-91955000D03*
X82864000Y-89415000D03*
X82864000Y-91955000D03*
X80324000Y-89415000D03*
X80324000Y-91955000D03*
X77784000Y-89415000D03*
X77784000Y-91955000D03*
X75244000Y-89415000D03*
X75244000Y-91955000D03*
X72704000Y-89415000D03*
X72704000Y-91955000D03*
X70164000Y-89415000D03*
X70164000Y-91955000D03*
X67624000Y-89415000D03*
X67624000Y-91955000D03*
X65084000Y-89415000D03*
X65084000Y-91955000D03*
X62544000Y-89415000D03*
X62544000Y-91955000D03*
X60004000Y-89415000D03*
X60004000Y-91955000D03*
X57464000Y-89415000D03*
X57464000Y-91955000D03*
X54924000Y-89415000D03*
X54924000Y-91955000D03*
X52384000Y-89415000D03*
X52384000Y-91955000D03*
X49844000Y-89415000D03*
X49844000Y-91955000D03*
X47304000Y-89415000D03*
X47304000Y-91955000D03*
X44764000Y-89415000D03*
X44764000Y-91955000D03*
X42224000Y-89415000D03*
X42224000Y-91955000D03*
X39684000Y-89415000D03*
X39684000Y-91955000D03*
D13*
X37440000Y-83000000D03*
D14*
X39980000Y-83000000D03*
X42520000Y-83000000D03*
X45060000Y-83000000D03*
X47600000Y-83000000D03*
X50140000Y-83000000D03*
X52680000Y-83000000D03*
X55220000Y-83000000D03*
X57760000Y-83000000D03*
X60300000Y-83000000D03*
X62840000Y-83000000D03*
X65380000Y-83000000D03*
X67920000Y-83000000D03*
X70460000Y-83000000D03*
X73000000Y-83000000D03*
X75540000Y-83000000D03*
X78080000Y-83000000D03*
X80620000Y-83000000D03*
X83160000Y-83000000D03*
X85700000Y-83000000D03*
D13*
X39740000Y-21700000D03*
D14*
X42480000Y-21700000D03*
X45020000Y-21700000D03*
D13*
X83140000Y-21700000D03*
D14*
X85680000Y-21700000D03*
X88220000Y-21700000D03*
D15*
X85000000Y-100840000D03*
X85000000Y-103380000D03*
X85000000Y-105920000D03*
X85000000Y-108460000D03*
D16*
X85000000Y-111000000D03*
D17*
X39000000Y-108000000D03*
D18*
X39000000Y-111500000D03*
D19*
X46000000Y-105000000D03*
X43000000Y-100300000D03*
X49000000Y-100300000D03*
D15*
X75000000Y-103920000D03*
X75000000Y-106460000D03*
D16*
X75000000Y-109000000D03*
D20*
X70000000Y-109000000D03*
X63900000Y-109000000D03*
X100100000Y-108000000D03*
X94000000Y-108000000D03*
D15*
X105000000Y-80160000D03*
X105000000Y-77620000D03*
X105000000Y-75080000D03*
X105000000Y-72540000D03*
D16*
X105000000Y-70000000D03*
M02*
